<?xml version="1.0" encoding="utf-8"?>
<!-- Generator: Adobe Illustrator 24.3.0, SVG Export Plug-In . SVG Version: 6.00 Build 0)  -->
<svg version="1.1" xmlns="http://www.w3.org/2000/svg" xmlns:xlink="http://www.w3.org/1999/xlink" x="0px" y="0px"
	 viewBox="0 0 1024 464" style="enable-background:new 0 0 1024 464;" xml:space="preserve">
<style type="text/css">
	.st0{fill:none;}
	.st1{fill:#EEEEEE;}
</style>
<rect class="st0" width="1024" height="464"/>
<path id="baguette_px" class="st1" d="M81.7,49.5C89.7,49.6,96,56.1,96,64v5.8c0,4.8-3.9,8.7-8.7,8.7c0,0,0,0,0,0H40.7
	c-4.8,0-8.7-3.9-8.7-8.7c0,0,0,0,0,0V64c0-8,6.5-14.5,14.5-14.5c0,0,0,0,0,0h34.9L81.7,49.5L81.7,49.5z M73.8,52.4h-3.4
	c-7,1.2-10.3,4.5-10.3,10.2c0,0.8-0.7,1.4-1.5,1.4c-0.8,0-1.4-0.6-1.4-1.4c0-4.5,1.7-7.9,5-10.2h-3.5c-7,1.2-10.3,4.5-10.3,10.2
	c0,0.8-0.6,1.5-1.4,1.5c-0.8,0-1.5-0.6-1.5-1.4c0,0,0-0.1,0-0.1c0-4.5,1.7-7.9,5-10.2h-4c-6.4,0-11.6,5.2-11.6,11.6c0,0,0,0,0,0v5.8
	c0,3.2,2.6,5.8,5.8,5.8l0,0h46.5c3.2,0,5.8-2.6,5.8-5.8c0,0,0,0,0,0V64c0-6.3-4.9-11.4-11.2-11.6c-7,1.2-10.3,4.5-10.3,10.2
	c0,0.8-0.7,1.4-1.5,1.4c-0.8,0-1.4-0.6-1.4-1.4C68.7,58.1,70.5,54.6,73.8,52.4L73.8,52.4z"/>
<path id="Apple_px" class="st1" d="M188.1,47.3c1.8-0.1,3.7,0.1,5.5,0.5c11,2.7,14.4,14.9,10.2,29.3C200.5,88.4,191,96.3,183.7,96
	c-0.3,0-0.7-0.1-1-0.2c-0.5-0.1-1-0.3-1.5-0.6c-0.2-0.1-1-0.6-1.2-0.7c-1.2-0.7-2.5-1-3.8-1c-1.4,0-2.7,0.3-4,1
	c-0.7,0.4-1.3,0.7-2,1c-0.6,0.3-1.3,0.4-2,0.4c-7.9,0.2-16.7-7.2-20-18.9c-4.2-14.4-0.8-26.6,10.2-29.3c4.8-1.2,10.5-0.3,15.6,2.3
	c-0.8-6.1-4-11-9.7-14.8c-0.8-0.5-1-1.7-0.5-2.5s1.7-1,2.5-0.5c4.9,3.1,8.6,7.8,10.4,13.2c0.7-2,1.9-3.8,3.4-5.2
	c2.7-2.6,6.2-4.2,10-4.3l2-0.1l-0.1,2C191.8,41.3,190.4,44.7,188.1,47.3L188.1,47.3z M177.4,54.5c-0.2,0.3-0.5,0.5-0.9,0.6l-0.5,0.3
	l-0.5-0.3c-0.3-0.1-0.6-0.3-0.9-0.6c-4.8-3.1-10.7-4.4-15.4-3.3c-8.5,2.1-11.3,12.1-7.6,24.8c3,10.2,10.3,16.5,16.5,16.4
	c0.3,0,0.6-0.1,0.8-0.2c0.4-0.1,0.7-0.3,1.7-0.8c1.7-0.9,3.6-1.4,5.5-1.4c1.9,0,3.8,0.5,5.5,1.4c0.2,0.1,1,0.6,1.2,0.7
	c0.2,0.1,0.5,0.2,0.7,0.3c0.1,0,0.1,0,0.2,0c5.5,0.2,13.6-6.5,16.5-16.4c3.7-12.7,0.9-22.7-7.6-24.8
	C188.1,50.1,182.2,51.4,177.4,54.5L177.4,54.5z M185,45.3c1.5-1.5,2.5-3.4,3-5.5c-4.3,0.9-7.6,4.2-8.5,8.5
	C181.6,47.9,183.5,46.8,185,45.3L185,45.3z M159.5,59.1c0.2-1,1.1-1.6,2.1-1.4c1,0.2,1.6,1.1,1.4,2.1c0,0,0,0,0,0
	c-1.4,6.3-1.4,11-0.1,14.2c0.4,0.9-0.1,2-1,2.3s-2-0.1-2.3-1C157.9,71.5,157.9,66.1,159.5,59.1L159.5,59.1z"/>
<path id="banana_px" class="st1" d="M302.4,44.2c-0.5-0.4-0.8-0.9-1.1-1.5l-2-4c-1.2-2.3-0.2-5.1,2.1-6.2c0,0,0,0,0.1,0
	c0.7-0.3,1.4-0.5,2.1-0.5h5.2c2.6,0,4.7,2.1,4.7,4.7c0,0,0,0,0,0c0,0.7-0.2,1.4-0.5,2.1l-2,4c-0.2,0.4-0.5,0.8-0.8,1.2
	c4.2,2.4,6.4,9.7,6.3,18.3c-0.1,11.2-4.1,21.5-11.6,26.5c-16.4,10.9-42.1,9.8-45.2-4.6c-0.4-1.8,0.5-3.6,2.2-4.3
	c0.7-0.4,1.5-0.7,2.3-1c0.7-0.2,3.6-1.1,4.2-1.3c1.8-0.6,3.7-1.2,5.5-1.9c4.6-1.8,8.8-4.2,12.7-7.3l0.8-0.7c2.3-1.9,4.3-4.2,5.8-6.9
	c0.9-1.6,1.7-3.2,2.3-4.9c0.3-0.8,1.4-4,1.7-4.7C298.5,47.7,300,45.4,302.4,44.2L302.4,44.2z M303,85.9c14.1-9.4,11.6-40.8,3.3-39.5
	c-8.4,1.3-4.2,13.2-16.7,23.8C277,80.8,262.6,81.6,263,83.4C265.5,95.1,288.8,95.3,303,85.9L303,85.9z M303.6,35.4
	c-0.2,0-0.4,0-0.6,0.1c-0.6,0.3-0.9,1.1-0.6,1.7c0,0,0,0,0,0l2,4c0.3,0.6,0.9,0.9,1.5,0.9h0.5c0.6,0,1.2-0.4,1.5-0.9l2-4
	c0.3-0.6,0-1.4-0.6-1.7c-0.2-0.1-0.4-0.1-0.6-0.1L303.6,35.4L303.6,35.4z M304.6,66.6c0.2-0.9,1-1.6,2-1.4c0.9,0.1,1.6,1,1.4,1.9
	c0,0,0,0,0,0c-1.7,10.1-8.3,16.2-19.6,18c-0.9,0.1-1.8-0.5-1.9-1.4c-0.1-0.9,0.5-1.8,1.4-1.9l0,0C297.7,80.2,303.2,75.2,304.6,66.6
	L304.6,66.6z"/>
<path id="cake_px" class="st1" d="M377.8,69.4v13.9h44.5V69.4c-0.7-0.2-1.3-0.5-1.8-1l-2.6-2.3c-1.2-1.1-3-1.1-4.2-0.1l-1.6,1.4
	c-2.2,1.9-5.4,1.9-7.7,0.2l-2.4-1.8c-1.2-0.9-2.8-0.9-3.9,0l-2.2,1.7c-2.3,1.8-5.5,1.8-7.7-0.1l-1.7-1.4c-1.2-1-2.9-1-4.1,0
	l-2.8,2.4C379.1,68.9,378.4,69.2,377.8,69.4L377.8,69.4z M374.6,69.2c-1.9-0.9-3.2-2.9-3.2-5v-6.3c0-3.5,2.8-6.4,6.4-6.4
	c0,0,0,0,0,0h20.6v-3.9c-1.8-0.4-3.1-2-3.2-3.9c0-3.9,1.9-11.8,4.8-11.8c2.9,0,4.8,7.8,4.8,11.8c-0.1,1.9-1.4,3.4-3.2,3.9v3.9h20.6
	c3.5,0,6.4,2.8,6.4,6.4l0,0v6.3c0,2.1-1.2,4.1-3.2,5v15c3,1.8,4.1,5.6,2.3,8.7c-1.1,2-3.2,3.2-5.5,3.2h-44.5c-3.5,0-6.4-2.8-6.4-6.3
	c0-2.3,1.2-4.4,3.2-5.5V69.2L374.6,69.2z M400.7,38.5c-0.2-0.8-0.4-1.6-0.7-2.4c-0.3,0.8-0.5,1.6-0.7,2.4c-0.4,1.7-0.7,3.5-0.9,5.2
	c0,0.4,0.6,1,1.6,1s1.6-0.5,1.6-1C401.4,42,401.1,40.2,400.7,38.5z M377.8,86.5c-1.8,0-3.2,1.5-3.1,3.2c0,1.7,1.4,3.1,3.1,3.1h44.5
	c1.8,0,3.2-1.4,3.2-3.1c0-1.8-1.4-3.2-3.1-3.2c0,0-0.1,0-0.1,0H377.8z M377.8,54.7c-1.8,0-3.2,1.4-3.2,3.2c0,0,0,0,0,0v6.3
	c0,0.9,0.5,1.7,1.2,2.1c0.5,0.3,1.2,0.2,1.7-0.2l2.8-2.4c2.4-2.1,5.8-2.1,8.2-0.1l1.7,1.4c1.1,0.9,2.6,0.9,3.7,0l2.2-1.7
	c2.3-1.8,5.5-1.8,7.8-0.1l2.4,1.8c1.1,0.8,2.6,0.8,3.7-0.1l1.6-1.4c2.4-2,6-2,8.3,0.1l2.6,2.3c0.4,0.4,1.1,0.5,1.6,0.2
	c0.8-0.4,1.2-1.2,1.2-2.1v-6.3c0-1.8-1.4-3.2-3.2-3.2L377.8,54.7L377.8,54.7z"/>
<g>
	<path class="st1" d="M534.8,60.7c-1.1-10.4-9.1-18.7-19.4-20.2c0,0,0.1-0.1,0.1-0.1c1.9-1.9,1.8-5.1-0.1-7c-1.9-1.9-5.1-1.8-7,0.1
		c-1.9,1.9-1.8,5.1,0.1,7c-10.3,1.6-18.3,9.9-19.4,20.2c-2.1,1.1-3.4,3.3-3.4,5.7c0,3.6,2.9,6.6,6.5,6.6h0.5c0,0.2,0,0.3,0,0.5
		l2.9,19.7c0.2,1.6,1.6,2.8,3.2,2.8h7.2l0,0.1l1.6-0.1h8.2l1.6,0.1l0-0.1h7.2c1.6,0,3-1.2,3.2-2.8l2.9-19.7c0-0.2,0-0.3,0-0.5h0.5
		c2.4,0,4.6-1.3,5.7-3.4C539.1,66.4,538,62.4,534.8,60.7z M512,35.3c0.9,0,1.6,0.7,1.6,1.6c0,0.9-0.7,1.6-1.6,1.6v0c0,0,0,0,0,0
		c-0.9,0-1.6-0.7-1.6-1.6C510.4,36,511.1,35.3,512,35.3z M499.1,92.6L496.1,73h8.7l1.2,19.7H499.1z M514.7,92.6h-5.3L508.1,73h7.8
		L514.7,92.6z M524.9,92.6h-7l1.2-19.7h8.7L524.9,92.6z M531.7,69.7h-13.9l-1.6-0.1l0,0.1h-8.2l0-0.1l-1.6,0.1h-13.9
		c-1.2,0-2.3-0.7-2.9-1.7c-0.9-1.6-0.3-3.6,1.3-4.4l1.5-0.8l0.2-1.7c1-9.2,8.2-16.4,17.4-17.4c10.8-1.2,20.5,6.6,21.7,17.4l0.2,1.7
		l1.5,0.8c1.1,0.6,1.7,1.7,1.7,2.9C534.9,68.2,533.5,69.7,531.7,69.7z"/>
	<path class="st1" d="M523.5,58.2c-1.8,0-3.3,1.5-3.3,3.3c0,1.8,1.5,3.3,3.3,3.3c1.8,0,3.3-1.5,3.3-3.3
		C526.7,59.7,525.3,58.2,523.5,58.2z"/>
	<path class="st1" d="M512,58.2c-1.8,0-3.3,1.5-3.3,3.3c0,1.8,1.5,3.3,3.3,3.3c1.8,0,3.3-1.5,3.3-3.3c0,0,0,0,0,0h0
		C515.3,59.7,513.8,58.2,512,58.2z"/>
	<path class="st1" d="M500.5,58.2c-1.8,0-3.3,1.5-3.3,3.3c0,1.8,1.5,3.3,3.3,3.3s3.3-1.5,3.3-3.3C503.8,59.7,502.3,58.2,500.5,58.2z
		"/>
	<path class="st1" d="M510.4,51.7c0-1.8-1.5-3.3-3.3-3.3c-1.8,0-3.3,1.5-3.3,3.3c0,1.8,1.5,3.3,3.3,3.3
		C508.9,54.9,510.4,53.5,510.4,51.7z"/>
	<path class="st1" d="M516.9,48.4c-1.8,0-3.3,1.5-3.3,3.3c0,1.8,1.5,3.3,3.3,3.3c1.8,0,3.3-1.5,3.3-3.3
		C520.2,49.9,518.7,48.4,516.9,48.4z"/>
</g>
<path id="donut_px" class="st1" d="M645.8,45.5c-10.2-12-28.2-13.5-40.2-3.3c-12,10.2-13.5,28.2-3.3,40.2
	c10.2,12,28.2,13.5,40.2,3.3c11.3-9.6,13.4-26.3,4.7-38.3c0,0.4-0.2,0.7-0.5,1l-2.4,2.4c-0.7,0.7-1.7,0.7-2.4,0
	c-0.7-0.7-0.7-1.7,0-2.4l2.4-2.4C644.8,45.6,645.3,45.4,645.8,45.5L645.8,45.5z M624,96c-17.7,0-32-14.3-32-32s14.3-32,32-32
	s32,14.3,32,32S641.7,96,624,96z M624,79.2c-8.4,0-15.2-6.8-15.2-15.2s6.8-15.2,15.2-15.2c8.4,0,15.2,6.8,15.2,15.2c0,0,0,0,0,0
	C639.2,72.4,632.4,79.2,624,79.2z M624,75.8c6.5,0,11.8-5.3,11.8-11.8c0-6.5-5.3-11.8-11.8-11.8c-6.5,0-11.8,5.3-11.8,11.8
	C612.2,70.5,617.5,75.8,624,75.8C624,75.8,624,75.8,624,75.8z M624.9,41.2c-0.7-0.7-0.7-1.7,0-2.4s1.7-0.7,2.4,0l2.4,2.4
	c0.7,0.7,0.7,1.7,0,2.4c-0.7,0.7-1.7,0.7-2.4,0L624.9,41.2z M609.3,85.4c-0.7-0.7-0.7-1.7,0-2.4c0.7-0.7,1.7-0.7,2.4,0l2.4,2.4
	c0.7,0.7,0.7,1.7,0,2.4c-0.7,0.7-1.7,0.7-2.4,0L609.3,85.4z M643,61.8c-0.7-0.7-0.7-1.7,0-2.4c0.7-0.7,1.7-0.7,2.4,0l2.4,2.4
	c0.7,0.7,0.7,1.7,0,2.4c-0.7,0.7-1.7,0.7-2.4,0L643,61.8L643,61.8z M599.2,55.1c-0.7-0.7-0.7-1.7,0-2.4c0.7-0.7,1.7-0.7,2.4,0l0,0
	l2.4,2.4c0.7,0.7,0.7,1.7,0,2.4s-1.7,0.7-2.4,0L599.2,55.1z M639.6,78.7c-0.7-0.7-0.7-1.7,0-2.4c0.7-0.7,1.7-0.7,2.4,0l0,0l2.4,2.4
	c0.7,0.7,0.7,1.7,0,2.4s-1.7,0.7-2.4,0l0,0L639.6,78.7z M630.9,83c0.7-0.7,1.7-0.7,2.4,0c0.7,0.7,0.7,1.7,0,2.4l-2.4,2.4
	c-0.7,0.7-1.7,0.7-2.4,0c-0.7-0.7-0.7-1.7,0-2.4L630.9,83z M614.1,39.2c0.6-0.7,1.7-0.7,2.4-0.1c0.7,0.6,0.7,1.7,0.1,2.4
	c0,0,0,0-0.1,0.1l-2.4,2.4c-0.7,0.7-1.7,0.7-2.4,0s-0.7-1.7,0-2.4l0,0L614.1,39.2L614.1,39.2z M604,69.5c0.7-0.7,1.7-0.7,2.4,0
	s0.7,1.7,0,2.4l-2.4,2.4c-0.7,0.7-1.7,0.7-2.4,0s-0.7-1.7,0-2.4L604,69.5z"/>
<path id="dumpling_px" class="st1" d="M736,96c-17.6,0-32-11.2-32-25.3C704,59,729,32,736,32c7.5,0,32,26.8,32,38.7
	C768,84.8,753.6,96,736,96z M736,92.6c15.9,0,28.6-9.9,28.6-21.9c0-10.1-23.1-35.4-28.6-35.4c-1.4,0-9,6.2-15.4,13.1
	c-8.1,8.7-13.2,17-13.2,22.3C707.4,82.7,720.1,92.6,736,92.6z M734.3,50.5c0-0.9,0.8-1.7,1.7-1.7s1.7,0.8,1.7,1.7v11.8
	c0,0.9-0.8,1.7-1.7,1.7s-1.7-0.8-1.7-1.7V50.5z M726.3,49.5c0.5-0.8,1.6-0.9,2.4-0.4c0.8,0.5,0.9,1.6,0.4,2.4c0,0-0.1,0.1-0.1,0.1
	l-6.7,8.4c-0.5,0.8-1.6,0.9-2.3,0.4c-0.8-0.5-0.9-1.6-0.4-2.3c0,0,0.1-0.1,0.1-0.1L726.3,49.5z M743.1,51.6
	c-0.6-0.7-0.6-1.8,0.1-2.4c0.7-0.6,1.8-0.6,2.4,0.1c0,0,0.1,0.1,0.1,0.1l6.7,8.4c0.6,0.7,0.6,1.8-0.1,2.4c-0.7,0.6-1.8,0.6-2.4-0.1
	c0,0-0.1-0.1-0.1-0.1L743.1,51.6z"/>
<g id="蒙版组_8">
	<path id="egg_px" class="st1" d="M872.5,70.9c0,13.9-10.9,25.1-24.5,25.1c-13.5,0-24.5-11.3-24.5-25.1c0-17.8,10.6-38.9,24.5-38.9
		S872.5,53.1,872.5,70.9z M848,35.8c-11.1,0-20.7,19.1-20.7,35.1c0,11.8,9.3,21.4,20.7,21.4s20.7-9.6,20.7-21.4
		C868.7,54.9,859.1,35.8,848,35.8z M860,64c0-1,0.8-1.9,1.9-1.9c1,0,1.9,0.8,1.9,1.9c0,0,0,0,0,0.1c-0.2,13.5-5.5,20.7-15.8,20.7
		c-1,0-1.9-0.8-1.9-1.9c0-1,0.8-1.9,1.9-1.9l0,0C855.9,80.9,859.8,75.6,860,64z"/>
</g>
<g id="蒙版组_9">
	<path id="eggplant_px" class="st1" d="M972.9,45.1c0.2-0.2,0.4-0.4,0.6-0.6l-7.2-4.8c-0.7-0.5-0.8-1.5-0.3-2.2
		c0.5-0.6,1.3-0.8,2-0.4l6.6,4.4c-0.4-3.2-1.4-6.1-2.5-6.7c-0.7-0.5-0.8-1.5-0.4-2.1c0.5-0.6,1.3-0.8,2-0.5c2.2,1.4,3.6,5.3,4,9.6
		l7-4.7c0.7-0.5,1.7-0.3,2.1,0.4c0.5,0.7,0.3,1.7-0.4,2.1l-7.3,4.9l7.3,4.9c0.7,0.5,0.9,1.4,0.4,2.1c-0.5,0.7-1.4,0.9-2.1,0.4
		l-3.4-2.3c1.5,7.9-0.8,21.7-5.7,31.3c-5,9.8-14.5,14.9-25,14.9c-9.6,0.1-18-4.3-18-10.9c0-9.7,4.3-12.8,23.7-20.6
		c4.6-1.8,8.5-5,11-9.3c0.4-0.7,1.3-2.4,2.2-4.3L968,52c-0.7,0.5-1.6,0.4-2.2-0.3c-0.5-0.7-0.4-1.6,0.3-2.2c0,0,0.1-0.1,0.1-0.1
		L972.9,45.1L972.9,45.1z M974.9,47.4c-2.5,3.3-4.2,14.7-17.2,19.9c-15.3,6.2-21.8,8.9-21.8,17.8c0,8.8,27.3,13.8,37.1-5.4
		c6.4-12.5,7-29.4,4.4-32.6l-0.8-0.5c-0.1,0-0.2,0-0.3,0L974.9,47.4L974.9,47.4z"/>
</g>
<path id="fish_px" class="st1" d="M85.9,176.4l-22.2-22.2c-1,0.8-2,1.7-3,2.6c-7.4,7.4-10.3,17.9-8.8,31.4c13.5,1.5,24-1.4,31.4-8.8
	C84.2,178.4,85.1,177.4,85.9,176.4L85.9,176.4z M87.9,173.4c3.9-6.7,5.3-15.2,4.2-25.4c-10.2-1.2-18.7,0.2-25.4,4.2L87.9,173.4
	L87.9,173.4z M52.8,191.8l-1.2,13c-0.2,2-1.9,3.4-3.9,3.2c-0.8-0.1-1.6-0.4-2.2-1L33,194.4c-1.4-1.4-1.4-3.6,0-5
	c0.6-0.6,1.4-1,2.2-1l13-1.2c-1.3-13.9,2-25,9.9-32.9c8.2-8.2,19.8-11.5,34.3-9.8c1.6,0.2,2.9,1.5,3.1,3.1
	c1.7,14.5-1.6,26.1-9.8,34.3C77.8,189.8,66.7,193.1,52.8,191.8L52.8,191.8z M49.4,190.6l-13.8,1.3l12.6,12.6L49.4,190.6L49.4,190.6z
	 M84.5,158c-0.7,0.7-1.8,0.7-2.5,0c-0.7-0.7-0.7-1.8,0-2.5c0.7-0.7,1.8-0.7,2.5,0c0,0,0,0,0,0C85.2,156.2,85.2,157.3,84.5,158
	C84.5,158,84.5,158,84.5,158z"/>
<path class="st1" d="M202.9,169.3h-3.4c0-5.3-3.5-9.9-8.6-12.1c-1-7.4-7.3-13.1-15-13.1c-7.5,0-13.8,5.5-14.9,12.7
	c-5,1.9-8.6,6.8-8.6,12.6h-3.4c3.8,12.9,12.2,19.7,25.3,20.2v15.2h-8.4c0,0,0,0,0,0c-0.9,0-1.7,0.8-1.7,1.7c0,0.9,0.8,1.7,1.7,1.7
	h20.2c0.9,0,1.7-0.8,1.7-1.7s-0.8-1.7-1.7-1.7h-8.4v-15.2C190.7,188.9,199.1,182.2,202.9,169.3z M196.2,169.3c-3.4,0-8.4,0-8.4,0
	l-8.4,0c0-2.8-0.8-5.5-2.2-8c2.1-1.4,4.7-2.2,7.2-2.1C191,159.2,196.2,163.8,196.2,169.3z M176,147.4c5.4,0,10,3.7,11.4,8.7
	c-1-0.2-1.9-0.3-2.9-0.3c-3.5,0-7,1.1-9.8,3.2c-2.4-2.1-5.5-3.2-8.7-3.2c-0.4,0-0.8,0-1.2,0.1C166.1,151,170.6,147.4,176,147.4z
	 M165.9,159.2c5.6,0,10.1,4.5,10.1,10.1v0h-20.2h0C155.8,163.7,160.3,159.2,165.9,159.2z M176,186.1c-10.9,0-18.1-4.4-22.1-13.5
	h44.3C194.1,181.7,186.9,186.1,176,186.1z"/>
<path class="st1" d="M309.9,157.1c-4.5-3-10.6-1.8-13.6,2.8c-0.7-1.1-1.7-2-2.8-2.8c-1.2-0.8-2.5-1.3-3.8-1.5c0,0,0-0.1,0-0.1v-6.6
	c3-0.1,6-0.7,8.9-1.8c0,0,0,0,0.1,0c0.8-0.4,1.2-1.4,0.8-2.2c-0.4-0.8-1.4-1.2-2.2-0.8l0,0c-2.9,1.1-6,1.6-9.1,1.5c0,0,0,0,0,0
	c0,0,0,0,0,0c-3.1,0.1-6.2-0.4-9.1-1.5c0,0,0,0,0,0c-0.8-0.4-1.8,0-2.2,0.9s0,1.8,0.9,2.2c2.8,1.1,5.8,1.7,8.9,1.8v6.6
	c0,0,0,0.1,0,0.1c-2.6,0.4-5,1.9-6.6,4.3h0c-1.7-2.5-4.4-4.1-7.5-4.4c-5.4-0.4-10.2,3.7-10.6,9.1c-0.4,5.4,3.7,10.2,9.1,10.6
	c-2.3,2.6-3.1,6.2-2.1,9.5c1.6,5.2,7.1,8.1,12.3,6.5c0,0-0.1,0.1-0.1,0.1c-3.8,3.9-3.8,10.1,0.1,13.9c3.9,3.8,10.1,3.8,13.9-0.1
	s3.8-10.1-0.1-13.9c3.3,1,7,0.2,9.5-2.1c4-3.6,4.3-9.9,0.7-13.9c3-0.2,5.8-1.8,7.5-4.4C315.6,166.2,314.4,160.1,309.9,157.1z
	 M296.2,170.8C296.2,170.8,296.2,170.8,296.2,170.8L296.2,170.8C296.2,170.8,296.2,170.8,296.2,170.8c0.3,0.4,0.6,0.8,0.9,1.1
	c-0.7,0.1-1.5,0.2-2.2,0.4C295.4,171.9,295.8,171.3,296.2,170.8z M288,158.8c3.6,0,6.6,2.9,6.6,6.6s-2.9,6.6-6.6,6.6
	s-6.6-2.9-6.6-6.6S284.4,158.8,288,158.8z M290.9,188.8c-1.9-0.6-3.9-0.6-5.9,0c0,0,0.1-0.1,0.1-0.1c3.8-3.9,3.8-10.1-0.1-13.9
	c1.9,0.6,3.9,0.6,5.9,0c0,0-0.1,0.1-0.1,0.1C287,178.7,287.1,184.9,290.9,188.8z M279.8,170.8L279.8,170.8
	C279.8,170.8,279.8,170.8,279.8,170.8c0.4,0.6,0.8,1.1,1.3,1.6c-0.7-0.2-1.4-0.4-2.2-0.4C279.2,171.6,279.5,171.2,279.8,170.8
	C279.8,170.8,279.8,170.8,279.8,170.8z M265,165.3c0-3.6,2.9-6.6,6.6-6.6c3.6,0,6.6,2.9,6.6,6.6s-2.9,6.6-6.6,6.6
	C268,171.9,265,169,265,165.3z M278.2,188.3c-3.6,0-6.6-2.9-6.6-6.6c0-3.6,2.9-6.6,6.6-6.6s6.6,2.9,6.6,6.6S281.8,188.3,278.2,188.3
	z M288,204.7L288,204.7C288,204.7,288,204.7,288,204.7c-3.6,0-6.6-2.9-6.6-6.6c0-3.6,2.9-6.6,6.6-6.6s6.6,2.9,6.6,6.6
	S291.6,204.7,288,204.7z M297.8,188.3L297.8,188.3C297.8,188.3,297.8,188.3,297.8,188.3c-3.6,0-6.6-2.9-6.6-6.6
	c0-3.6,2.9-6.6,6.6-6.6s6.6,2.9,6.6,6.6C304.4,185.4,301.5,188.3,297.8,188.3z M304.4,171.9c-3.6,0-6.6-2.9-6.6-6.6s2.9-6.6,6.6-6.6
	c3.6,0,6.6,2.9,6.6,6.6S308,171.9,304.4,171.9z"/>
<path class="st1" d="M426.9,169.3h-3.4c0-5.3-3.5-9.9-8.6-12.1c-1-7.4-7.3-13.1-15-13.1c-7.5,0-13.8,5.5-14.9,12.7
	c-5,1.9-8.6,6.8-8.6,12.6h-3.4c3.8,12.9,12.2,19.7,25.3,20.2v15.2h-8.4c0,0,0,0,0,0c-0.9,0-1.7,0.8-1.7,1.7c0,0.9,0.8,1.7,1.7,1.7
	h20.2c0.9,0,1.7-0.8,1.7-1.7s-0.8-1.7-1.7-1.7h-8.4v-15.2C414.7,188.9,423.1,182.2,426.9,169.3z M420.2,169.3c-3.4,0-8.4,0-8.4,0
	l-8.4,0c0-2.8-0.8-5.5-2.2-8c2.1-1.4,4.7-2.2,7.2-2.1C415,159.2,420.2,163.8,420.2,169.3z M400,147.4c5.4,0,10,3.7,11.4,8.7
	c-1-0.2-1.9-0.3-2.9-0.3c-3.5,0-7,1.1-9.8,3.2c-2.4-2.1-5.5-3.2-8.7-3.2c-0.4,0-0.8,0-1.2,0.1C390.1,151,394.6,147.4,400,147.4z
	 M389.9,159.2c5.6,0,10.1,4.5,10.1,10.1v0h-20.2h0C379.8,163.7,384.3,159.2,389.9,159.2z M400,186.1c-10.9,0-18.1-4.4-22.1-13.5
	h44.3C418.1,181.7,410.9,186.1,400,186.1z"/>
<path id="icecream_cone_px" class="st1" d="M527.8,163.2c-1.3-9.2-8-16-15.8-16c-8.1,0-15,7.3-15.9,17.1l-0.2,1.7l-1.5,0.8
	c-1.5,0.9-2.1,2.8-1.3,4.3c0.6,1,1.6,1.6,2.8,1.7h32c1.8,0,3.2-1.4,3.2-3.2c0-1.2-0.6-2.2-1.7-2.8l-0.7-0.4h-10.4
	c-0.9,0-1.6-0.7-1.6-1.6s0.7-1.6,1.6-1.6L527.8,163.2z M530.2,175.6l-15.3,30.6c-0.8,1.6-2.7,2.2-4.3,1.4c-0.6-0.3-1.1-0.8-1.4-1.4
	l-15.3-30.6c-3.3-1.2-5.1-4.9-3.9-8.2c0.5-1.5,1.6-2.7,2.9-3.4c1-11.2,9.2-20,19.1-20c9.9,0,18.1,8.8,19.1,20
	c3.1,1.7,4.2,5.6,2.5,8.7C532.9,174.1,531.6,175.1,530.2,175.6L530.2,175.6z M498,176.8l14,28l14-28L498,176.8L498,176.8z"/>
<path id="icecream_soft_px" class="st1" d="M629.6,161.5l0.8-1.3c0.7-1.3,0.3-2.9-1-3.7c-0.3-0.2-0.6-0.3-1-0.3L627,156l-3-5.9
	l-3,5.9l-1.4,0.2c-1.5,0.2-2.5,1.5-2.3,3c0,0.4,0.2,0.7,0.3,1l2.3,4h-5.4c-1.5,0-2.7,1.2-2.7,2.7c0,0.8,0.3,1.5,0.9,2l2.3,2h8.9
	c0.7,0,1.3,0.6,1.3,1.4c0,0.7-0.6,1.3-1.3,1.3h-13.5c-1.5,0-2.7,1.2-2.7,2.7s1.2,2.7,2.7,2.7l0,0h26.9c1.5,0,2.7-1.2,2.7-2.7
	s-1.2-2.7-2.7-2.7h-7.6l5.3-4.7c1.1-1,1.2-2.7,0.2-3.8c-0.5-0.6-1.2-0.9-2-0.9H624c-0.7,0-1.4-0.6-1.4-1.3s0.6-1.4,1.3-1.4
	c0,0,0,0,0.1,0L629.6,161.5z M638.9,181.5l-12.5,25c-0.7,1.3-2.3,1.9-3.6,1.2c-0.5-0.3-0.9-0.7-1.2-1.2l-12.5-25
	c-2.9-0.8-4.5-3.8-3.7-6.6c0.6-2.3,2.8-3.9,5.2-3.9h0.5c-2.2-2-2.4-5.4-0.5-7.6c1-1.2,2.5-1.8,4-1.8h0.7c-1.5-2.6-0.6-5.9,2-7.4
	c0.6-0.4,1.3-0.6,2-0.7l4.7-9.5l4.7,9.5c3,0.4,5,3.1,4.6,6c-0.1,0.7-0.3,1.4-0.7,2h0.7c3,0,5.4,2.4,5.4,5.4c0,1.5-0.7,3-1.8,4h0.5
	c3,0,5.4,2.4,5.4,5.4C642.8,178.7,641.2,180.9,638.9,181.5L638.9,181.5z M612.2,181.7l11.8,23.6l11.8-23.6
	C635.8,181.7,612.2,181.7,612.2,181.7z"/>
<g>
	<polygon class="st1" points="755.9,144 755.9,144 755.9,144 	"/>
	<path class="st1" d="M757.3,145.4l-1.4-1.4l-9.6,9.6l0,0l-32.8,32.8l0,0l-9.6,9.6l1.4,1.4c0.1,0.1,0.1,0.1,0.2,0.2
		c14.4,14.3,37.6,14.2,51.9-0.2C771.7,182.9,771.6,159.6,757.3,145.4z M736,173.2h16.5c-0.4,4.2-2,8.3-4.8,11.7L736,173.2z
		 M744.9,187.6c-3.4,2.8-7.4,4.4-11.5,4.8l0.9-15.5L744.9,187.6z M736,169.4l11.7-11.7c2.8,3.4,4.5,7.5,4.8,11.7H736z M730.5,174.9
		l-1,17.6c-4.2-0.4-8.3-2-11.8-4.8L730.5,174.9z M755.8,193.1c-12,13.5-32.8,14.8-46.3,2.7l5.5-5.5c9.9,8.7,25,8.2,34.4-1.3
		c9.3-9.4,9.6-24.3,1-34.1l5.5-5.5C766.9,161.9,766.9,180.7,755.8,193.1z"/>
</g>
<path id="meat_px" class="st1" d="M943.7,185.5c-1.6-3.5-1.6-7.5-0.1-11l8-18.5c4.4-10.1,16.2-14.8,26.3-10.4c2.3,1,4.4,2.4,6.2,4.2
	l2,2c7.8,7.8,7.8,20.5,0,28.3c-1.8,1.8-3.9,3.2-6.2,4.2l-18.5,8c-3.5,1.5-7.5,1.5-11-0.1l-5.5,5.5c1.9,1.9,1.4,5.4-1.1,8
	c-2.5,2.5-6.1,3-8,1.1l-6.8-6.8c-1.9-1.9-1.4-5.5,1.1-8c2.5-2.5,6.1-3,8-1.1L943.7,185.5L943.7,185.5z M945,188.7l-6.8,6.8l-2.3-2.3
	c-0.5-0.5-2-0.2-3.4,1.1c-1.4,1.4-1.6,2.9-1.1,3.4l6.8,6.8c0.5,0.5,2,0.2,3.4-1.1c1.4-1.4,1.6-2.9,1.1-3.4l-2.3-2.3l6.8-6.8
	L945,188.7L945,188.7z M981.9,152.1c-6.6-6.6-17.2-6.6-23.7,0c-1.5,1.5-2.7,3.2-3.5,5.2l-8,18.5c-2.3,5.2,0.1,11.3,5.4,13.6
	c2.6,1.1,5.6,1.1,8.3,0l18.5-8c8.5-3.7,12.4-13.6,8.7-22.1c-0.8-1.9-2-3.7-3.5-5.2L981.9,152.1z M979.8,164.5c0-0.9,0.7-1.6,1.6-1.6
	c0.9,0,1.6,0.7,1.6,1.6c0,0,0,0.1,0,0.1c0,7.4-4.6,11.3-13.2,11.3c-0.9,0-1.6-0.8-1.6-1.6c0-0.9,0.7-1.5,1.6-1.6
	C976.8,172.6,979.8,170,979.8,164.5z"/>
<path id="mushroom_px" class="st1" d="M74,289.6c1.2,4,1.8,8.2,1.8,12.5c0,13.9-3.4,18-11.8,18c-8.4,0-11.8-4-11.8-18
	c0-4.2,0.6-8.4,1.8-12.5c-3.2,0-6.3-0.4-9.4-1c-6-1.3-9.2-4.1-9.2-9C35.4,269,49.6,256,64,256s28.6,13,28.6,23.6
	c0,4.9-3.3,7.7-9.2,9C80.3,289.2,77.2,289.5,74,289.6L74,289.6z M55.6,302c0,12.2,2,14.6,8.4,14.6s8.4-2.4,8.4-14.6
	c0-4.2-0.6-8.4-1.9-12.4c-1.7,0-3.4,0-6.5,0s-4.9,0-6.5,0C56.2,293.7,55.6,297.8,55.6,302L55.6,302z M64,286.3
	c19.5,0,25.3-1.2,25.3-6.7c0-8.7-12.7-20.2-25.3-20.2s-25.3,11.5-25.3,20.2C38.7,285.1,44.5,286.3,64,286.3z"/>
<path id="noodle_px" class="st1" d="M176,280v-19.2h-3.2V280H176z M179.2,280H208c0,11.4-6.1,22-16,27.7v10.7h-32v-10.7
	c-9.9-5.7-16-16.3-16-27.7h12.8v-12.8h-6.4v-9.6H208v9.6h-28.8C179.2,267.2,179.2,280,179.2,280z M160,280h3.2v-19.2H160V280z
	 M166.4,260.8V280h3.2v-19.2C169.6,260.8,166.4,260.8,166.4,260.8z M204.6,283.2h-57.2c1,9.1,6.3,17.2,14.2,21.8l1.1,0.6h26.6
	l1.1-0.6C198.3,300.4,203.6,292.3,204.6,283.2z M179.2,264h25.6v-3.2h-25.6V264z M156.8,260.8h-3.2v3.2h3.2V260.8z M188.8,308.8
	h-25.6v6.4h25.6V308.8z"/>
<path class="st1" d="M316.2,299.3c0-9.9-8.1-20.3-24.2-31.5l4.8-4.8c0.7-0.7,0.7-1.9,0-2.6c-0.7-0.8-1.9-0.8-2.7-0.1l-4.3,4.3v-6.7
	c0-1-0.8-1.9-1.9-1.9s-1.9,0.8-1.9,1.9v6.7l-4.3-4.3c-0.7-0.7-1.9-0.7-2.6,0c-0.8,0.7-0.8,1.9-0.1,2.7l4.8,4.8
	c-16,11.2-24.2,21.6-24.2,31.5c0,14.4,10.4,20.7,28.2,20.7c0,0,0,0,0,0c0,0,0,0,0,0C305.8,320,316.2,313.7,316.2,299.3z
	 M286.1,274.5v40.2C272.6,305.5,272.5,292.4,286.1,274.5z M289.9,314.4v-39.3C302.9,292.5,302.8,305.3,289.9,314.4z M263.5,299.3
	c0-7.6,6.1-16.1,18.4-25.4c-12.7,17.6-13,31.8-0.6,42C269.7,314.6,263.5,309.4,263.5,299.3z M294.1,315.9
	c12.7-10.3,12.3-24.8-1-42.8c12.9,9.6,19.4,18.4,19.4,26.1C312.5,309.5,306.2,314.7,294.1,315.9z"/>
<path id="orange_px" class="st1" d="M406.9,270.2c13.5,3.8,21.3,17.8,17.5,31.3s-17.8,21.3-31.3,17.5s-21.3-17.8-17.5-31.3
	c2.9-10.3,12-17.7,22.7-18.4v-0.1c0-6.1-2.6-8.7-8.4-8.5c-0.9,0.1-1.8-0.6-1.8-1.5s0.6-1.8,1.5-1.8c0.1,0,0.1,0,0.2,0
	c5.9-0.2,9.7,2.2,11.2,6.8c0.7-1.5,1.6-2.9,2.8-4c2.5-2.5,5.9-4,9.5-4.1l1.9-0.1l-0.1,1.9c-0.1,3.6-1.6,6.9-4.1,9.5
	C409.8,268.5,408.4,269.5,406.9,270.2L406.9,270.2z M400,316.6c12.2,0,22-9.8,22-22s-9.8-22-22-22s-22,9.8-22,22l0,0
	C378,306.8,387.8,316.6,400,316.6z M408.6,265c1.4-1.4,2.4-3.2,2.8-5.2c-4,0.8-7.2,4-8,8C405.3,267.4,407.1,266.4,408.6,265
	L408.6,265z M408.4,301.4c-0.9,0-1.7-0.8-1.7-1.7s0.8-1.7,1.7-1.7s1.7,0.8,1.7,1.7C410.1,300.6,409.4,301.4,408.4,301.4L408.4,301.4
	z M415.2,304.8c-0.9,0-1.7-0.8-1.7-1.7c0-0.9,0.8-1.7,1.7-1.7c0.9,0,1.7,0.8,1.7,1.7C416.9,304,416.1,304.8,415.2,304.8
	C415.2,304.8,415.2,304.8,415.2,304.8z M408.4,311.5c-0.9,0-1.7-0.8-1.7-1.7s0.8-1.7,1.7-1.7s1.7,0.8,1.7,1.7
	C410.1,310.8,409.4,311.5,408.4,311.5C408.4,311.5,408.4,311.5,408.4,311.5z"/>
<path id="oyster_px" class="st1" d="M492.3,268.6c-2.1,1.5-4.1,3.1-6,4.9c-3.6,3.4-4.3,8.9-1.7,13.1l12,18.8
	c1.5,2.3,3.5,4.3,5.8,5.7c8.6,5.3,19.8,2.7,25.2-5.7l11.7-18.4c2.8-4.3,1.9-10-2-13.4c-1.2-1-2.3-2-3.5-2.8l-9.9,20.8
	c-0.4,0.8-1.3,1.1-2,0.7c-0.7-0.3-1.1-1.2-0.7-2c0,0,0,0,0,0l10.1-21.3c-6.2-4.2-12.4-6.4-18.5-6.7c0.4,0.3,0.6,0.7,0.6,1.2v28.3
	c0,0.8-0.7,1.5-1.5,1.5c-0.8,0-1.5-0.7-1.5-1.5v-28.3c0-0.5,0.3-1,0.7-1.3c-6,0.1-11.8,1.8-16.8,5c0.4,0.2,0.7,0.4,0.8,0.8l9.1,22.4
	c0.3,0.8-0.1,1.6-0.8,1.9c0,0,0,0,0,0c-0.8,0.3-1.6-0.1-2-0.8l-9.1-22.3C492.3,269,492.3,268.8,492.3,268.6L492.3,268.6z
	 M482.1,288.1c-3.4-5.4-2.5-12.4,2.1-16.8c8.6-8.1,17.6-12.1,27-12.1c9.4,0,18.8,4.1,28.2,12.1c5,4.3,6.1,11.6,2.6,17.2l-11.7,18.4
	c-6.4,9.9-19.4,12.8-29.4,6.7c-2.7-1.7-5.1-4-6.8-6.7L482.1,288.1z"/>
<path id="pear_px" class="st1" d="M629,269.3c2.5,1.6,4.3,4.6,6.4,9.3c0.2,0.5,0.5,1.1,0.8,1.9l0.8,1.9c0.8,1.8,1.6,3.6,2.5,5.4
	c3.1,6.7,4.4,10.2,4.4,13.6c0,11.4-8.3,18.7-19.9,18.7c-11.6,0-19.9-7.3-19.9-18.7c0-3.4,1.3-7.3,4.2-13.4c0.3-0.6,0.5-1.2,0.9-1.9
	l1.1-2.3c0.4-0.9,0.7-1.6,1-2.2c-0.1,0.2,1.4-3.2,1.8-4.1c2.8-5.9,5.2-8.8,9.3-9.3c0,0,0-0.1,0-0.1c0-5.5-2.4-7.8-7.6-7.7
	c-0.8,0.1-1.6-0.6-1.6-1.4c-0.1-0.8,0.6-1.6,1.4-1.6c0,0,0,0,0.1,0c5.3-0.2,8.8,1.9,10.1,6.2c0.6-1.4,1.5-2.6,2.5-3.6
	c2.3-2.3,5.3-3.6,8.6-3.7l1.7-0.1l-0.1,1.7c-0.1,3.2-1.4,6.3-3.7,8.6C632.6,267.7,630.9,268.7,629,269.3L629,269.3z M615.9,278.7
	c-0.4,0.9-1.9,4.3-1.8,4.1c-0.3,0.7-0.6,1.4-1.1,2.3l-1.1,2.3l-0.9,1.9c-2.7,5.7-3.9,9.3-3.9,12.1c0,9.6,6.9,15.6,16.8,15.6
	s16.8-6,16.8-15.6c0-2.8-1.1-6-4.1-12.3l-0.3-0.6c-1.1-2.2-2.1-4.5-3-6.8c-0.3-0.6-0.5-1.2-0.8-1.8c-2.8-6.5-4.9-8.8-8.7-8.8
	C620.5,271,618.6,273,615.9,278.7L615.9,278.7z M631.8,264.1c1.3-1.3,2.2-2.9,2.6-4.7c-3.7,0.8-6.5,3.6-7.3,7.3
	C628.8,266.3,630.5,265.4,631.8,264.1z"/>
<path id="pepper_px" class="st1" d="M723.2,272h25.6c0-7.1-5.7-12.8-12.8-12.8C728.9,259.2,723.2,264.9,723.2,272z M720,272
	c0-8.8,7.2-16,16-16c8.8,0,16,7.2,16,16l5.4,40.8c0.5,3.5-2,6.7-5.5,7.2c-0.3,0-0.6,0.1-0.8,0.1h-30.2c-3.5,0-6.4-2.9-6.4-6.4
	c0-0.3,0-0.6,0.1-0.8L720,272z M729.6,284.6c0.1-0.9,0.8-1.5,1.7-1.5c0.9,0.1,1.5,0.8,1.5,1.7l0,0l-1.7,22.4
	c-0.1,0.9-0.8,1.6-1.7,1.5c-0.9-0.1-1.6-0.8-1.5-1.7c0,0,0,0,0-0.1L729.6,284.6z M722.8,275.2l-5.1,38c-0.2,1.8,1,3.4,2.8,3.6
	c0.1,0,0.3,0,0.4,0h30.2c1.8,0,3.2-1.4,3.2-3.2c0-0.1,0-0.3,0-0.4l-5.1-38H722.8z M739.2,284.9c-0.1-0.9,0.6-1.6,1.5-1.7
	c0.9-0.1,1.6,0.6,1.7,1.5l1.6,22.4c0.1,0.9-0.6,1.6-1.5,1.7c-0.9,0.1-1.6-0.6-1.7-1.5l0,0L739.2,284.9z M736,265.6
	c-0.9,0-1.6-0.7-1.6-1.6c0-0.9,0.7-1.6,1.6-1.6c0.9,0,1.6,0.7,1.6,1.6l0,0C737.6,264.9,736.9,265.6,736,265.6z M729.6,268.8
	c-0.9,0-1.6-0.7-1.6-1.6s0.7-1.6,1.6-1.6s1.6,0.7,1.6,1.6c0,0,0,0,0,0C731.2,268.1,730.5,268.8,729.6,268.8z M742.4,268.8
	c-0.9,0-1.6-0.7-1.6-1.6s0.7-1.6,1.6-1.6s1.6,0.7,1.6,1.6c0,0,0,0,0,0C744,268.1,743.3,268.8,742.4,268.8z"/>
<path id="pie_px" class="st1" d="M851.5,271.4c-3.5,1.3-5,3.2-5,5.9c0,0.8-0.6,1.5-1.5,1.6c-0.8,0-1.5-0.6-1.6-1.5c0,0,0-0.1,0-0.1
	c0-2.3,0.9-4.5,2.5-6c-1.2,0.1-2.3,0.2-3.4,0.3c0,0-0.1,0-0.1,0c-3.5,1.2-5.1,3-5.1,5.7c0,0.8-0.7,1.5-1.5,1.5s-1.5-0.7-1.5-1.5
	c0-1.4,0.3-2.7,0.9-3.9c-6.7,2.5-11.5,6.8-12.8,11.9l-0.3,1.2h-1.6c-0.8,0-1.5,0.7-1.5,1.5c0,0.8,0.7,1.5,1.5,1.5h54.9
	c0.8,0,1.5-0.7,1.5-1.5c0-0.8-0.7-1.5-1.5-1.5h-1.6l-0.3-1.2c-1.3-5.3-6.5-9.8-13.7-12.2c-3,0.4-4.3,1.7-4.3,4.2
	c0,0.8-0.7,1.5-1.5,1.5s-1.5-0.7-1.5-1.5c-0.1-2.1,0.8-4.1,2.4-5.5C853.8,271.7,852.7,271.5,851.5,271.4L851.5,271.4z M877.3,292.2
	c0.1,0.5,0,0.9-0.1,1.4l-3.4,10.1c-0.8,2.5-3.2,4.2-5.8,4.2h-40c-2.6,0-5-1.7-5.8-4.2l-3.4-10.1c-0.1-0.4-0.2-0.9-0.1-1.4
	c-2.3-1-3.4-3.7-2.3-6c0.6-1.4,1.9-2.4,3.4-2.7c3-9,14.7-15.3,28.2-15.3c13.5,0,25.2,6.3,28.2,15.3c2.5,0.4,4.2,2.8,3.7,5.3
	C879.7,290.3,878.7,291.6,877.3,292.2L877.3,292.2z M874.2,292.6h-52.5l3.4,10.1c0.4,1.2,1.6,2.1,2.9,2.1h40c1.3,0,2.5-0.8,2.9-2.1
	C870.9,302.7,874.2,292.6,874.2,292.6z"/>
<path id="pineapple_px" class="st1" d="M960,310.3l16.5-5.9c0.2-0.1,0.3-0.1,0.5-0.1l0-0.3c-0.1,0-0.3,0-0.4-0.1l-16.8-5.9L943,304
	l0,0.4c0.1,0,0.3,0,0.4,0.1L960,310.3L960,310.3z M964.2,311.8l7.1,2.5c2.3-1.7,4-4.1,5-6.8L964.2,311.8L964.2,311.8z M948.7,314.3
	l7-2.5l-12-4.2C944.7,310.3,946.4,312.6,948.7,314.3L948.7,314.3z M952,316.2c1.7,0.6,3.4,1,5.2,1h5.7c1.8,0,3.5-0.3,5.1-1l-8-2.8
	L952,316.2L952,316.2z M975.4,289.7l-14.9-5.1l-15.6,5.4l14.9,5.2L975.4,289.7L975.4,289.7z M977,292.1l-13,4.5l13,4.5L977,292.1
	L977,292.1z M943,301l12.5-4.4l-12.5-4.4V301z M943,287.7c0.1-0.1,0.3-0.2,0.5-0.3l12.6-4.4l-9.8-3.4l0,0
	C944.4,281.9,943.2,284.8,943,287.7L943,287.7z M971.7,277.7c-2.5-2-5.6-3.1-8.9-3.1h-5.7c-3.1,0-6.1,1-8.5,2.9l11.9,4.1
	C960.5,281.6,971.7,277.7,971.7,277.7z M973.9,279.9l-9.1,3.1l12.1,4.2C976.7,284.6,975.6,282,973.9,279.9z M952.5,272.4
	c-1-0.5-1.9-1.2-2.6-2c-2.1-2.1-3.3-5-3.4-7.9l-0.1-1.6l1.6,0.1c3,0.1,5.8,1.3,7.9,3.4c0.2-2.7,1.3-5.2,3.2-7.2l1.1-1.2l1.1,1.2
	c1.8,1.9,2.9,4.4,3.2,7c2.1-2,4.8-3.1,7.7-3.2l1.6-0.1l-0.1,1.6c-0.1,3-1.3,5.8-3.4,7.9c-0.8,0.8-1.6,1.4-2.6,2
	c7.3,2.1,12.4,8.8,12.4,16.4V303c0,9.4-7.6,17-17,17h-5.7c-9.4,0-17-7.6-17-17l0,0v-14.2C940.1,281.2,945.2,274.5,952.5,272.4
	L952.5,272.4z M968,268.4c1.2-1.2,2-2.7,2.4-4.4c-3.4,0.7-6,3.4-6.7,6.7C965.3,270.5,966.8,269.6,968,268.4z M961.5,265.2
	c0-1.7-0.5-3.4-1.4-4.8c-1.9,2.9-1.9,6.6,0,9.5C961,268.6,961.5,266.9,961.5,265.2z M951.8,268.4c1.2,1.2,2.7,2,4.4,2.4
	c-0.7-3.4-3.4-6-6.7-6.7C949.8,265.7,950.6,267.2,951.8,268.4z"/>
<path id="pizza_px" class="st1" d="M35.9,387.3c-1.9-3.3-1.1-7.4,1.9-9.7c8.1-6.4,16.6-9.5,25.5-9.6c8.9,0,17.8,3.2,26.7,9.6
	c3.2,2.3,4.1,6.6,2.2,9.9L68,429.7c-1.2,2.2-4,2.9-6.2,1.7c-0.7-0.4-1.3-1-1.7-1.7L35.9,387.3z M63.3,428.8c0.7,0.4,1.7,0.2,2.1-0.6
	L89.5,386c1.2-2,0.6-4.6-1.3-6c-8.4-6-16.7-9-24.9-9c-8.2,0-16.1,3-23.6,8.9c-1.8,1.4-2.3,3.9-1.1,5.8l24.2,42.4
	C62.9,428.4,63.1,428.6,63.3,428.8z M45.6,390.2c-0.6,0.6-1.5,0.6-2.1,0s-0.6-1.5,0-2.1c0,0,0,0,0,0c6.3-6.2,13-9.3,20.1-9.3
	c7.1,0,14.1,3.1,21.1,9.3c0.6,0.5,0.7,1.5,0.2,2.1c-0.5,0.6-1.5,0.7-2.1,0.2c0,0,0,0-0.1,0c-6.5-5.7-12.8-8.5-19.1-8.5
	C57.3,381.8,51.3,384.6,45.6,390.2L45.6,390.2z M56.5,404.6c-3.4,0-6.1-2.7-6.1-6.1s2.7-6.1,6.1-6.1c3.4,0,6.1,2.7,6.1,6.1l0,0
	C62.6,401.9,59.8,404.6,56.5,404.6z M56.5,401.6c1.7,0,3-1.4,3-3c0-1.7-1.4-3-3-3s-3,1.4-3,3l0,0C53.4,400.2,54.8,401.6,56.5,401.6
	C56.5,401.6,56.5,401.6,56.5,401.6L56.5,401.6z M67.1,416.8c-3.4,0-6.1-2.7-6.1-6.1s2.7-6.1,6.1-6.1c3.4,0,6.1,2.7,6.1,6.1l0,0
	C73.2,414,70.5,416.8,67.1,416.8z M67.1,413.7c1.7,0,3-1.4,3-3c0-1.7-1.4-3-3-3c-1.7,0-3,1.4-3,3C64.1,412.4,65.4,413.7,67.1,413.7
	L67.1,413.7z M71.7,397c-1.7,0-3-1.4-3-3c0-1.7,1.4-3,3-3c1.7,0,3,1.4,3,3C74.7,395.6,73.4,397,71.7,397L71.7,397z"/>
<path class="st1" d="M189.5,379.8c-2.4,0-4.7,0.6-6.7,1.7c-2.1-1.1-4.3-1.7-6.7-1.7c-0.2,0-0.3,0-0.4,0c-1.9-4-4.9-7.5-8.7-9.8
	c-0.7-0.5-1.7-0.3-2.2,0.4c-0.5,0.8-0.4,1.8,0.4,2.4c3,1.9,5.4,4.5,7.1,7.6c-1,0.3-1.9,0.7-2.8,1.1c-2.1-1.1-4.4-1.7-6.7-1.7
	c-10.4,0-18.5,11.4-18.5,25.3s8.2,25.3,18.5,25.3c2.4,0,4.7-0.6,6.7-1.7c2.1,1.1,4.3,1.7,6.7,1.7c2.4,0,4.7-0.6,6.7-1.7
	c2.1,1.1,4.4,1.7,6.7,1.7c10.4,0,18.5-11.4,18.5-25.3S199.8,379.8,189.5,379.8z M166,426.3c-1.1,0.4-2.3,0.6-3.5,0.6
	c-8.2,0-15.2-9.7-15.2-21.9s6.9-21.9,15.2-21.9c1.2,0,2.4,0.2,3.5,0.6c0,0,0,0-0.1,0.1c-0.3,0.2-0.5,0.5-0.8,0.7
	c-0.1,0.1-0.1,0.1-0.2,0.2c-0.3,0.3-0.6,0.6-0.8,0.9c0,0-0.1,0.1-0.1,0.1c-0.2,0.3-0.4,0.5-0.6,0.8c-0.1,0.1-0.2,0.3-0.3,0.4
	c-0.1,0.2-0.3,0.4-0.4,0.6c-0.1,0.2-0.2,0.3-0.3,0.5c-0.1,0.2-0.3,0.4-0.4,0.6c-0.1,0.2-0.2,0.4-0.4,0.6c-0.2,0.3-0.3,0.6-0.5,0.9
	c-0.1,0.2-0.2,0.3-0.3,0.5c-0.1,0.2-0.2,0.4-0.3,0.6c-0.1,0.2-0.2,0.4-0.3,0.5c-0.1,0.2-0.2,0.5-0.3,0.7c-0.1,0.2-0.1,0.3-0.2,0.5
	c-0.2,0.4-0.3,0.8-0.5,1.2c0,0.1-0.1,0.2-0.1,0.3c-0.1,0.3-0.2,0.7-0.3,1c0,0.2-0.1,0.3-0.1,0.5c-0.1,0.3-0.2,0.6-0.2,0.9
	c0,0.1-0.1,0.3-0.1,0.4c-0.1,0.4-0.2,0.8-0.2,1.2c0,0.1,0,0.2,0,0.2c-0.1,0.5-0.2,0.9-0.2,1.4c0,0.1,0,0.3-0.1,0.4
	c0,0.3-0.1,0.7-0.1,1c0,0.2,0,0.4,0,0.5c0,0.3,0,0.6-0.1,1c0,0.2,0,0.3,0,0.5c0,0.4,0,0.8,0,1.3c0,0.1,0,0.1,0,0.2
	c0,0.1,0,0.1,0,0.2c0,0.4,0,0.8,0,1.3c0,0.2,0,0.4,0,0.5c0,0.3,0,0.6,0.1,1c0,0.2,0,0.4,0,0.5c0,0.4,0.1,0.7,0.1,1
	c0,0.1,0,0.3,0.1,0.4c0.1,0.5,0.1,1,0.2,1.4c0,0.1,0,0.1,0,0.2c0.1,0.4,0.2,0.8,0.3,1.2c0,0.1,0.1,0.3,0.1,0.4
	c0.1,0.3,0.2,0.7,0.3,1c0,0.1,0.1,0.3,0.1,0.4c0.1,0.4,0.2,0.7,0.3,1.1c0,0.1,0,0.2,0.1,0.2c0.1,0.4,0.3,0.8,0.5,1.2
	c0.1,0.1,0.1,0.3,0.2,0.4c0.1,0.3,0.2,0.5,0.4,0.8c0.1,0.2,0.1,0.3,0.2,0.5c0.1,0.2,0.2,0.5,0.4,0.7c0.1,0.2,0.2,0.3,0.2,0.5
	c0.2,0.4,0.4,0.7,0.6,1c0.1,0.1,0.2,0.3,0.2,0.4c0.1,0.2,0.3,0.5,0.4,0.7c0.1,0.1,0.2,0.3,0.3,0.4c0.1,0.2,0.3,0.4,0.4,0.6
	c0.1,0.1,0.2,0.3,0.3,0.4c0.2,0.3,0.4,0.5,0.6,0.8c0,0,0.1,0.1,0.1,0.1c0.3,0.3,0.5,0.6,0.8,0.9c0.1,0.1,0.1,0.1,0.2,0.2
	c0.2,0.2,0.5,0.5,0.7,0.7C165.9,426.3,166,426.3,166,426.3z M169.8,425c-0.1-0.1-0.3-0.2-0.4-0.3c-0.2-0.1-0.3-0.2-0.5-0.4
	c-0.1-0.1-0.2-0.2-0.3-0.2c-0.3-0.2-0.6-0.5-0.9-0.8c-0.1-0.1-0.2-0.1-0.2-0.2c-0.2-0.2-0.3-0.3-0.5-0.5c0,0-0.1-0.1-0.1-0.1
	c-0.3-0.4-0.6-0.7-1-1.1c-0.1-0.1-0.1-0.2-0.2-0.2c-0.2-0.2-0.3-0.4-0.5-0.6c0-0.1-0.1-0.1-0.1-0.2c-0.3-0.4-0.5-0.8-0.7-1.2
	c-0.1-0.1-0.2-0.3-0.2-0.4c-0.1-0.2-0.2-0.4-0.3-0.6c-0.2-0.3-0.3-0.6-0.4-0.9c-0.1-0.2-0.2-0.3-0.2-0.5c-0.1-0.2-0.2-0.5-0.3-0.7
	c-0.1-0.2-0.1-0.3-0.2-0.5c-0.1-0.4-0.3-0.8-0.4-1.1c0-0.1-0.1-0.2-0.1-0.3c-0.1-0.3-0.2-0.7-0.3-1c0-0.1-0.1-0.3-0.1-0.4
	c-0.1-0.4-0.2-0.9-0.3-1.3c0-0.1,0-0.2-0.1-0.3c-0.1-0.4-0.1-0.7-0.2-1.1c0-0.1,0-0.3-0.1-0.4c-0.1-0.4-0.1-0.9-0.2-1.3
	c0-0.1,0-0.2,0-0.4c0-0.3-0.1-0.7-0.1-1c0-0.2,0-0.4,0-0.6c0-0.3,0-0.7,0-1c0-0.1,0-0.2,0-0.4c0-0.1,0-0.2,0-0.3c0-0.3,0-0.7,0-1
	c0-0.2,0-0.4,0-0.6c0-0.4,0.1-0.7,0.1-1.1c0-0.1,0-0.2,0-0.3c0-0.5,0.1-0.9,0.2-1.4c0-0.1,0-0.2,0.1-0.4c0.1-0.4,0.2-0.9,0.2-1.3
	c0,0,0-0.1,0-0.1c0.1-0.5,0.2-0.9,0.3-1.4c0-0.1,0-0.1,0.1-0.2c0.1-0.4,0.3-0.9,0.4-1.3c0,0,0,0,0,0c0.1-0.4,0.3-0.9,0.5-1.3
	c0-0.1,0.1-0.1,0.1-0.2c0.2-0.4,0.3-0.8,0.5-1.1c0,0,0-0.1,0.1-0.1c0.2-0.4,0.4-0.8,0.6-1.1c0.1-0.1,0.1-0.2,0.2-0.3
	c0.2-0.3,0.3-0.6,0.5-0.8c0.1-0.1,0.1-0.2,0.2-0.3c0.2-0.3,0.4-0.6,0.6-0.9c0.1-0.1,0.2-0.3,0.3-0.4c0.1-0.2,0.3-0.4,0.5-0.6
	c0.1-0.1,0.2-0.3,0.3-0.4c0.2-0.2,0.4-0.5,0.6-0.7c0.1-0.1,0.2-0.2,0.4-0.4c0.2-0.2,0.3-0.3,0.5-0.5c0.1-0.1,0.3-0.3,0.4-0.4
	c0.2-0.2,0.4-0.3,0.6-0.5c0.1-0.1,0.3-0.2,0.4-0.3c0.2-0.1,0.4-0.3,0.6-0.4c1.9-1.2,4-1.9,6.1-1.9c2.2,0,4.2,0.7,6.1,1.9
	c0.2,0.1,0.4,0.2,0.5,0.4c0.1,0.1,0.3,0.2,0.4,0.3c0.2,0.1,0.4,0.3,0.5,0.4c0.2,0.1,0.4,0.3,0.5,0.5c0.1,0.1,0.3,0.3,0.4,0.4
	c0.1,0.1,0.3,0.3,0.4,0.4c0.2,0.2,0.3,0.4,0.5,0.6c0.2,0.2,0.3,0.4,0.5,0.6c0.1,0.2,0.3,0.3,0.4,0.5c0.1,0.1,0.2,0.3,0.3,0.4
	c0.2,0.3,0.4,0.6,0.6,0.9c0.1,0.1,0.1,0.2,0.2,0.4c0.1,0.2,0.3,0.5,0.4,0.7c0.1,0.1,0.1,0.2,0.2,0.4c0.2,0.4,0.4,0.7,0.5,1.1
	c0,0.1,0.1,0.1,0.1,0.2c0.2,0.3,0.3,0.7,0.4,1c0,0.1,0.1,0.2,0.1,0.3c0.2,0.4,0.3,0.8,0.5,1.3c0,0,0,0.1,0,0.1
	c0.1,0.4,0.3,0.8,0.4,1.3c0,0.1,0,0.2,0.1,0.2c0.1,0.5,0.2,0.9,0.3,1.4c0,0,0,0.1,0,0.1c0.1,0.4,0.2,0.8,0.2,1.3
	c0,0.1,0,0.2,0.1,0.4c0.1,0.5,0.1,0.9,0.2,1.4c0,0.1,0,0.2,0,0.3c0,0.4,0.1,0.7,0.1,1.1c0,0.2,0,0.4,0,0.6c0,0.3,0,0.7,0,1
	c0,0.1,0,0.2,0,0.4s0,0.2,0,0.4c0,0.3,0,0.7,0,1c0,0.2,0,0.4,0,0.6c0,0.4-0.1,0.7-0.1,1.1c0,0.1,0,0.2,0,0.3c0,0.5-0.1,0.9-0.2,1.4
	c0,0.1,0,0.2-0.1,0.4c-0.1,0.4-0.1,0.9-0.2,1.3c0,0,0,0.1,0,0.1c-0.1,0.5-0.2,0.9-0.3,1.4c0,0.1,0,0.1-0.1,0.2
	c-0.1,0.4-0.2,0.9-0.4,1.3c0,0,0,0,0,0.1c-0.1,0.4-0.3,0.9-0.5,1.3c0,0.1-0.1,0.1-0.1,0.2c-0.1,0.4-0.3,0.7-0.5,1.1
	c0,0.1,0,0.1-0.1,0.2c-0.2,0.4-0.4,0.7-0.6,1.1c-0.1,0.1-0.1,0.2-0.2,0.3c-0.2,0.3-0.3,0.5-0.5,0.8c-0.1,0.1-0.1,0.2-0.2,0.3
	c-0.2,0.3-0.4,0.6-0.6,0.9c-0.1,0.1-0.2,0.3-0.3,0.4c-0.1,0.2-0.3,0.4-0.4,0.6c-0.1,0.1-0.2,0.2-0.3,0.4c-0.2,0.2-0.4,0.5-0.6,0.7
	c-0.1,0.1-0.2,0.2-0.3,0.4c-0.2,0.2-0.3,0.3-0.5,0.5c-0.1,0.1-0.3,0.2-0.4,0.4c-0.2,0.2-0.4,0.4-0.7,0.5c-0.1,0.1-0.2,0.2-0.4,0.3
	c-0.2,0.1-0.4,0.3-0.6,0.4c-1.9,1.2-3.9,1.9-6.1,1.9v0C173.8,426.9,171.7,426.2,169.8,425z M189.5,426.9c-1.2,0-2.4-0.2-3.5-0.6
	c0,0,0,0,0.1-0.1c0.3-0.2,0.5-0.5,0.8-0.8c0,0,0.1-0.1,0.1-0.1c0.3-0.3,0.6-0.6,0.9-0.9c0,0,0,0,0,0c0.3-0.3,0.5-0.6,0.7-0.9
	c0.1-0.1,0.2-0.2,0.3-0.4c0.2-0.2,0.3-0.4,0.5-0.6c0.1-0.1,0.2-0.3,0.3-0.4c0.2-0.2,0.3-0.5,0.5-0.7c0.1-0.1,0.1-0.2,0.2-0.3
	c0.2-0.3,0.4-0.7,0.6-1.1c0.1-0.1,0.2-0.3,0.2-0.4c0.1-0.2,0.2-0.5,0.4-0.7c0.1-0.2,0.1-0.3,0.2-0.5c0.1-0.3,0.2-0.5,0.4-0.8
	c0.1-0.1,0.1-0.3,0.2-0.4c0.2-0.4,0.3-0.8,0.5-1.2c0-0.1,0.1-0.2,0.1-0.2c0.1-0.4,0.2-0.7,0.3-1.1c0-0.1,0.1-0.3,0.1-0.4
	c0.1-0.3,0.2-0.7,0.3-1c0-0.1,0.1-0.3,0.1-0.4c0.1-0.4,0.2-0.8,0.3-1.2c0-0.1,0-0.1,0-0.2c0.1-0.5,0.2-0.9,0.2-1.4
	c0-0.1,0-0.3,0.1-0.4c0-0.3,0.1-0.7,0.1-1c0-0.2,0-0.3,0-0.5c0-0.3,0-0.6,0.1-1c0-0.2,0-0.4,0-0.5c0-0.4,0-0.8,0-1.3
	c0-0.1,0-0.1,0-0.2c0-0.1,0-0.1,0-0.2c0-0.4,0-0.8,0-1.3c0-0.2,0-0.3,0-0.5c0-0.3,0-0.7-0.1-1c0-0.2,0-0.3,0-0.5
	c0-0.4-0.1-0.7-0.1-1.1c0-0.1,0-0.3,0-0.4c-0.1-0.5-0.1-1-0.2-1.4c0-0.1,0-0.1,0-0.2c-0.1-0.4-0.2-0.8-0.3-1.2
	c0-0.1-0.1-0.3-0.1-0.4c-0.1-0.3-0.2-0.7-0.3-1c0-0.1-0.1-0.3-0.1-0.4c-0.1-0.4-0.2-0.7-0.4-1.1c0-0.1,0-0.1-0.1-0.2
	c-0.1-0.4-0.3-0.8-0.5-1.3c-0.1-0.1-0.1-0.3-0.2-0.4c-0.1-0.3-0.2-0.6-0.4-0.8c-0.1-0.2-0.1-0.3-0.2-0.5c-0.1-0.2-0.2-0.5-0.4-0.7
	c-0.1-0.1-0.2-0.3-0.2-0.4c-0.2-0.4-0.4-0.7-0.6-1c-0.1-0.1-0.2-0.2-0.2-0.4c-0.1-0.2-0.3-0.5-0.4-0.7c-0.1-0.1-0.2-0.3-0.3-0.4
	c-0.1-0.2-0.3-0.4-0.4-0.6c-0.1-0.1-0.2-0.3-0.3-0.4c-0.2-0.3-0.4-0.5-0.6-0.8c0,0-0.1-0.1-0.1-0.1c-0.3-0.3-0.5-0.6-0.8-0.9
	c-0.1-0.1-0.1-0.1-0.2-0.2c-0.2-0.2-0.5-0.5-0.7-0.7c0,0-0.1-0.1-0.1-0.1c1.1-0.4,2.3-0.6,3.5-0.6c8.2,0,15.2,9.7,15.2,21.9
	S197.7,426.9,189.5,426.9z"/>
<path id="rice_px" class="st1" d="M274.7,419.2h26.5l1.1-0.6c7.9-4.6,13.2-12.6,14.2-21.8h-57.2c1,9.1,6.3,17.2,14.2,21.8
	L274.7,419.2z M275.2,422.4v6.4h25.6v-6.4H275.2z M315.2,393.6h4.8c0,11.4-6.1,22-16,27.7V432h-32v-10.7c-9.9-5.7-16-16.3-16-27.7h5
	c1.1-5.2,4.7-9.5,9.6-11.5c2-9.6,11.5-15.8,21.1-13.7c4.9,1,9.1,4,11.6,8.3C311.5,378.1,314.9,384.5,315.2,393.6z M312,393.6
	c-0.3-7.9-3.2-13-10-13.9l-0.8-0.1l-0.4-0.7c-3.8-7.1-12.6-9.8-19.7-6c-4.1,2.2-6.8,6.1-7.5,10.7l-0.2,1.1l-1.1,0.2
	c-3.6,0.9-7.3,4.9-8.2,8.7L312,393.6L312,393.6z"/>
<g>
	<circle class="st1" cx="389.1" cy="381.1" r="2.9"/>
	<path class="st1" d="M403.6,373.8h-26.7c-1.4,0-2.4-0.8-2.4-1.5c0-0.7,1-1.5,2.4-1.5h10.7V368h-10.7c-2.8,0-5.3,1.9-5.3,4.4
		c0,2.5,2.4,4.4,5.3,4.4h2.1c1.1,13.9,7.5,21.1,19.1,21.7c11.5,0.5,10.8,7.8-2.2,21.7c-1.4-5-6-8.5-11.2-8.5h-5.8
		c0,4.2,2.3,8.1,6,10.2c-3.7,2-6,5.9-6,10.2h5.8c5.3,0,9.9-3.6,11.3-8.7h9.1c12.9,0,23.3-10.4,23.3-23.3v-1.5
		C428.4,384.9,417.3,373.8,403.6,373.8z M382.3,414.5h2.4c3.7,0,7,2.3,8.2,5.8h-2.4C386.8,420.4,383.5,418,382.3,414.5z
		 M384.7,429.1h-2.4c1.2-3.5,4.5-5.8,8.2-5.8h2.4C391.7,426.8,388.4,429.1,384.7,429.1z M400.7,395.7c-0.8-0.1-1.6-0.2-2.4-0.2
		c-9.9-0.5-15.3-6.4-16.3-18.8h18.7V395.7z M403.6,396.4v-19.7c6.6,0,12.9,3,17,8.2l-12.6,14.7C407,398.1,405.4,397,403.6,396.4z
		 M405.1,420.4h-5.4c5.3-5.9,8.4-10.7,9.3-14.5l0,0l9.6,9.5C414.8,418.6,410,420.4,405.1,420.4z M425.5,400c0,4.9-1.7,9.6-4.9,13.3
		l-11-10.9l12.9-15c2,3.4,3.1,7.2,3.1,11.2V400z"/>
</g>
<path id="steak_px" class="st1" d="M544,403.7v10.1h-0.2c-1.2,8.2-8.2,14.4-16.5,14.5c-1.3,0-2.6-0.2-3.9-0.6c-3.2-1-6.5-3-10.4-6.1
	c-0.6-0.5-6.2-5.2-7.1-5.8c-2.2-1.4-5.2-2-9.1-1.9c-9.4-0.1-16.8-7.8-16.7-17.1V386h0.1c0.9-8.1,7.8-14.2,15.9-14.2h21
	c8.4,0,18.1,5.6,22.6,12c2.6,3.8,4.1,9.4,4.3,16.8h0v1.5C544,402.6,544,403.1,544,403.7L544,403.7z M541.1,411.6
	c-3,4.2-7.9,6.8-13.1,6.8c-8.4,0-17.7-10.2-21.6-12.5c-2.6-1.6-6-2.3-10.4-2.2c-5.2,0-10.1-2.5-13.1-6.8c0.1,7.6,6.2,13.8,13.8,13.9
	c4.4-0.1,8,0.7,10.7,2.4c1.1,0.7,7,5.7,7.4,6c3.6,2.9,6.6,4.7,9.4,5.6c1,0.3,2,0.5,3,0.5c7.3-0.1,13.3-5.8,13.8-13.1L541.1,411.6
	L541.1,411.6L541.1,411.6z M541.1,402.1c-0.1-7.6-1.4-13.1-3.8-16.6c-4.1-5.9-13.1-10.8-20.2-10.8h-21c-7.2,0-13,5.8-13.1,13
	c0,7.2,5.8,13,13,13.1c4.8-0.1,8.8,0.7,12,2.6c1.3,0.8,7.6,6,7.9,6.2c3.6,2.8,6.7,4.6,9.4,5.4c0.9,0.3,1.9,0.4,2.8,0.4
	c6.8,0,12.5-5.2,13-12l0-0.5L541.1,402.1L541.1,402.1z M494.6,393c-0.6,0.6-1.5,0.6-2.1,0s-0.6-1.5,0-2.1l0,0l11.3-11.3
	c0.6-0.6,1.5-0.6,2.1,0s0.6,1.5,0,2.1c0,0,0,0,0,0L494.6,393z M510.1,398.5c-0.6,0.6-1.5,0.6-2.1,0s-0.6-1.5,0-2.1l0,0l14.2-14.2
	c0.6-0.6,1.5-0.6,2.1,0c0.6,0.6,0.6,1.5,0,2.1l0,0L510.1,398.5z M524.7,407.3c-0.6,0.6-1.5,0.5-2.1,0c-0.6-0.6-0.6-1.5,0-2l9.9-9.9
	c0.5-0.6,1.5-0.6,2.1-0.1c0.6,0.5,0.6,1.5,0.1,2.1c0,0-0.1,0.1-0.1,0.1L524.7,407.3z"/>
<path id="Strawberry_px" class="st1" d="M619.9,378.8l-4.2-4.2c-0.7-0.7-0.7-1.8,0-2.5c0.7-0.7,1.8-0.7,2.5,0c0,0,0,0,0,0l4.1,4.1
	v-6.4c0-1,0.8-1.8,1.8-1.8c1,0,1.8,0.8,1.8,1.8c0,0,0,0,0,0v6.4l4.1-4.1c0.7-0.7,1.8-0.7,2.5,0c0.7,0.7,0.7,1.8,0,2.5l-4.2,4.2
	c13.5,1.1,22.5,7.8,22.5,18.6c0,12.3-16.8,34.5-26.7,34.5s-26.7-22.2-26.7-34.5C597.3,386.7,606.4,380,619.9,378.8z M624,428.4
	c7.6,0,23.1-20.4,23.1-31c0-9.5-9.1-15.3-23.1-15.3s-23.1,5.8-23.1,15.3C600.9,408,616.4,428.4,624,428.4L624,428.4z M609.8,394.7
	c0-1,0.8-1.8,1.8-1.8c1,0,1.8,0.8,1.8,1.8v3.6c0,1-0.8,1.8-1.8,1.8c-1,0-1.8-0.8-1.8-1.8c0,0,0,0,0,0V394.7z M634.7,394.7
	c0-1,0.8-1.8,1.8-1.8c1,0,1.8,0.8,1.8,1.8c0,0,0,0,0,0v3.6c0,1-0.8,1.8-1.8,1.8c-1,0-1.8-0.8-1.8-1.8c0,0,0,0,0,0V394.7z
	 M616.9,412.4c0-1,0.8-1.8,1.8-1.8c1,0,1.8,0.8,1.8,1.8v3.6c0,1-0.8,1.8-1.8,1.8c-1,0-1.8-0.8-1.8-1.8V412.4z M627.6,412.4
	c0-1,0.8-1.8,1.8-1.8c1,0,1.8,0.8,1.8,1.8c0,0,0,0,0,0v3.6c0,1-0.8,1.8-1.8,1.8c-1,0-1.8-0.8-1.8-1.8V412.4z M622.2,394.7
	c0-1,0.8-1.8,1.8-1.8c1,0,1.8,0.8,1.8,1.8v3.6c0,1-0.8,1.8-1.8,1.8c-1,0-1.8-0.8-1.8-1.8c0,0,0,0,0,0V394.7z"/>
<path class="st1" d="M742.3,380.8l5.1-4.3c0,0,0.1-0.1,0.1-0.1c0.7-0.6,0.8-1.7,0.1-2.4c-0.6-0.7-1.7-0.8-2.4-0.1l-7.6,6.3
	c-0.3-5.2-1.9-10.3-4.6-11.9c-0.8-0.5-1.9-0.3-2.4,0.5c-0.5,0.8-0.3,1.9,0.5,2.4l0,0c1.4,0.9,2.6,4.8,2.9,8.9l-7.4-6.2
	c0,0-0.1-0.1-0.1-0.1c-0.8-0.6-1.8-0.4-2.4,0.3c-0.6,0.8-0.4,1.8,0.3,2.4l5.1,4.3c-13.7,2-23,10.5-23,23.4
	c0,15.4,13.1,27.8,29.3,27.8v0c16.1,0,29.3-12.4,29.3-27.8C765.3,391.3,756,382.8,742.3,380.8z M736,428.6
	c-14.3,0-25.8-10.9-25.8-24.4c0-11.8,9.2-19.4,23-20.3l-8.6,7.2c0,0-0.1,0.1-0.1,0.1c-0.7,0.6-0.8,1.7-0.1,2.4
	c0.6,0.7,1.7,0.8,2.4,0.1l9.2-7.7l9.2,7.7c0.7,0.5,1.7,0.5,2.3-0.2c0.6-0.7,0.6-1.8-0.1-2.4l-8.6-7.2c13.8,0.9,23,8.5,23,20.3
	C761.8,417.6,750.3,428.6,736,428.6z"/>
<path id="water_cup_px" class="st1" d="M867.6,390.2l3.5-18.2h-46.3l3.2,16.6c1.9-1.8,4.8-2.6,8.5-2.6c3,0,5.9,1.1,10.4,3.4l1.5,0.8
	c5.4,2.9,7.5,3.8,9.7,3.8c3.7,0,6.4-1.1,8.3-3.2C866.8,390.5,867.2,390.3,867.6,390.2L867.6,390.2z M866.5,395.9
	c-2.5,1.4-5.4,2.1-8.3,2.1c-3.1,0-5.5-1-11.6-4.2c-0.5-0.3-1-0.5-1.5-0.8c-4-2.1-6.4-3-8.6-3c-3.8,0-5.9,1-6.8,2.9
	c-0.2,0.4-0.4,0.7-0.7,0.9l6,31c0.4,1.9,2,3.2,3.9,3.2H857c1.9,0,3.6-1.4,3.9-3.2L866.5,395.9L866.5,395.9z M824.9,368h46.3
	c2.2,0,4,1.8,4,4c0,0.3,0,0.5-0.1,0.8l-10.3,52.8c-0.7,3.8-4,6.5-7.9,6.5H839c-3.8,0-7.1-2.7-7.9-6.5l-10.3-52.8
	c-0.4-2.2,1-4.3,3.2-4.7C824.3,368,824.6,368,824.9,368z"/>
<path id="watermelon_px" class="st1" d="M974.4,377.3c10.3,10.3,10.3,26.9,0,37.2c-10.3,10.3-26.9,10.3-37.2,0l-4.6,4.6
	c12.8,12.8,33.6,12.8,46.5,0c12.8-12.8,12.8-33.6,0-46.5c0,0,0,0,0,0L974.4,377.3L974.4,377.3z M930.3,421.4l-2.3-2.3l51.1-51.1
	l2.3,2.3c14,14.2,13.9,37.1-0.2,51.1C967.1,435.4,944.4,435.4,930.3,421.4L930.3,421.4z M939.6,412.1c9,9,23.5,9,32.5,0
	c9-9,9-23.5,0-32.5c0,0,0,0,0,0L939.6,412.1z M965.2,405.2c-0.6,0.6-1.7,0.6-2.3,0s-0.6-1.7,0-2.3c0.6-0.6,1.7-0.6,2.3,0
	c0,0,0,0,0,0C965.8,403.5,965.8,404.5,965.2,405.2z M954.7,406.3c-0.6,0.6-1.7,0.6-2.3,0c-0.6-0.6-0.6-1.7,0-2.3
	c0.6-0.6,1.7-0.6,2.3,0c0,0,0,0,0,0C955.4,404.6,955.4,405.7,954.7,406.3z M966.3,394.7c-0.6,0.6-1.7,0.6-2.3,0
	c-0.6-0.6-0.6-1.7,0-2.3c0.6-0.6,1.7-0.6,2.3,0c0,0,0,0,0,0C967,393,967,394.1,966.3,394.7z"/>
<g>
	<path class="st1" d="M849.5,144.1c-12.3-0.8-22.9,8.5-23.8,20.8c-0.8,12.3,8.5,22.9,20.8,23.8v17.9c0,0.8,0.7,1.5,1.5,1.5
		s1.5-0.7,1.5-1.5v-17.9c11.2-0.7,20-9.6,20.8-20.8C871.1,155.5,861.8,144.9,849.5,144.1z M848,185.7c-10.7,0-19.3-8.7-19.3-19.3
		S837.3,147,848,147s19.3,8.7,19.3,19.3S858.7,185.7,848,185.7z"/>
	<path class="st1" d="M856.4,155.6l-1.7-0.8l-1.8-0.5L851,154l-1.8-0.1l-1.8,0.1l-1.8,0.3l-1.7,0.5l-1.6,0.7l-1.5,0.9l-1.4,1.1
		l-1.2,1.2l-1.1,1.3l-0.9,1.4l-0.7,1.5l-0.5,1.6l-0.3,1.6l-0.1,1.6l0.1,1.6l0.2,1.6l0.4,1.5l0.6,1.4l0.8,1.3l0.9,1.2l1,1.1l1.1,0.9
		l1.2,0.8l1.3,0.6l1.3,0.5l1.4,0.3l1.4,0.1l1.4,0l1.3-0.2l1.3-0.3l1.2-0.5l1.1-0.6l1-0.7l0.9-0.8l0.8-0.9l0.7-1l0.6-1.1l0.4-1.1
		l0.3-1.1l0.1-1.2l0-1.1l-0.1-1.1l-0.3-1.1l-0.4-1l-0.5-0.9l-0.6-0.9l-0.7-0.8l-0.8-0.7l-0.8-0.6l-0.9-0.5l-0.9-0.3l-0.9-0.2
		l-0.9-0.1l-0.9,0l-0.9,0.1l-0.9,0.2l-0.8,0.3l-0.8,0.4l-0.7,0.5l-0.6,0.6l-0.5,0.6l-0.4,0.7l-0.3,0.7l-0.2,0.7l-0.1,0.7l-0.1,0.7
		l0,0.7l0.1,0.7l0.2,0.6l0.3,0.6l0.3,0.5l0.4,0.5l0.5,0.4l0.5,0.3l0.5,0.3l0.5,0.2l0.6,0.1l0.5,0l0.5,0l0.5-0.1l0.5-0.2l0.4-0.2
		l0.4-0.3l0.3-0.4l0.3-0.4l0.2-0.4l0.1-0.5l0-0.5l0-0.5l-0.1-0.4l-0.1-0.3l-0.1-0.1l-0.2-0.2l-0.1-0.1l-0.3-0.2l-0.1-0.1l-0.3-0.2
		l-0.1-0.1l-0.3-0.1l-0.1,0l0,0c-0.1,0-0.2,0-0.2,0c-1,0-1.8,0.8-1.8,1.8c0,0.1,0,0.1,0,0.2l-0.1-0.1l-0.2-0.2l-0.1-0.2l-0.1-0.2
		l-0.1-0.3l-0.1-0.3l-0.1-0.3l0-0.3l0-0.4l0.1-0.4l0.1-0.4l0.2-0.4l0.2-0.3l0.3-0.3l0.3-0.3l0.4-0.3l0.4-0.2l0.5-0.2l0.5-0.1
		l0.5-0.1h0.6l0.6,0.1l0.6,0.1l0.6,0.2l0.6,0.3l0.5,0.4l0.5,0.4l0.5,0.5l0.4,0.6l0.3,0.6l0.3,0.7l0.2,0.7l0.1,0.8v0.8l-0.1,0.8
		l-0.2,0.8l-0.3,0.8l-0.4,0.8l-0.5,0.7l-0.6,0.7l-0.7,0.6l-0.8,0.5l-0.8,0.4l-0.9,0.4l-1,0.2l-1,0.1l-1,0l-1-0.1l-1-0.2l-1-0.4
		l-1-0.5l-0.9-0.6l-0.9-0.7l-0.8-0.8l-0.7-0.9l-0.6-1l-0.5-1.1l-0.3-1.2l-0.2-1.2l0-1.2l0.1-1.3l0.3-1.2l0.4-1.2l0.6-1.2l0.7-1.1
		l0.8-1.1l1-1l1.1-0.8l1.2-0.7l1.3-0.6l1.4-0.4l1.4-0.3l1.5-0.1l1.5,0.1l1.5,0.3l1.5,0.4l1.4,0.6l1.3,0.8l1.3,0.9l1.8-2.4l-1.4-1
		L856.4,155.6z"/>
</g>
</svg>
