<?xml version="1.0" encoding="utf-8"?>
<!-- Generator: Adobe Illustrator 24.3.0, SVG Export Plug-In . SVG Version: 6.00 Build 0)  -->
<svg version="1.1" id="图层_1" xmlns="http://www.w3.org/2000/svg" xmlns:xlink="http://www.w3.org/1999/xlink" x="0px" y="0px"
	 viewBox="0 0 72 72" style="enable-background:new 0 0 72 72;" xml:space="preserve">
<style type="text/css">
	.st0{fill:none;stroke:#D6226D;stroke-width:0.2;stroke-miterlimit:10;}
	.st1{fill:#999899;}
</style>
<rect x="0" y="0" class="st0" width="72" height="72"/>
<path class="st0" d="M60,68H12c-4.4,0-8-3.6-8-8V12c0-4.4,3.6-8,8-8h48c4.4,0,8,3.6,8,8v48C68,64.4,64.4,68,60,68z"/>
<path class="st0" d="M64,66H8c-4.4,0-8-3.6-8-8V14c0-4.4,3.6-8,8-8h56c4.4,0,8,3.6,8,8v44C72,62.4,68.4,66,64,66z"/>
<circle class="st0" cx="36" cy="36" r="36"/>
<line class="st0" x1="0" y1="36" x2="72" y2="36"/>
<line class="st0" x1="36" y1="0" x2="36" y2="72"/>
<line class="st0" x1="0" y1="0" x2="72" y2="72"/>
<line class="st0" x1="72" y1="0" x2="0" y2="72"/>
<path class="st1" d="M6,64V8c0-4.4,3.6-8,8-8h44c4.4,0,8,3.6,8,8v56c0,4.4-3.6,8-8,8H14C9.6,72,6,68.4,6,64z"/>
</svg>
