<?xml version="1.0" encoding="utf-8"?>
<!-- Generator: Adobe Illustrator 24.3.0, SVG Export Plug-In . SVG Version: 6.00 Build 0)  -->
<svg version="1.1" id="图层_1" xmlns="http://www.w3.org/2000/svg" xmlns:xlink="http://www.w3.org/1999/xlink" x="0px" y="0px"
	 viewBox="0 0 720 405" style="enable-background:new 0 0 720 405;" xml:space="preserve">
<style type="text/css">
	.st0{fill:#D1D1D6;}
	.st1{fill:#515256;}
	.st2{fill:#FFFFFF;}
	.st3{fill:#D61F6D;}
</style>
<rect class="st0" width="720" height="405"/>
<rect x="30" y="30" class="st1" width="660" height="345"/>
<polygon class="st2" points="690,30 689.8,29.6 399.6,181.2 400.7,181.2 401.8,181.2 690.2,30.4 "/>
<polygon class="st2" points="319.3,223.8 318.2,223.8 29.8,374.6 30,375 30.2,375.4 320.4,223.8 "/>
<g>
	<path class="st2" d="M319.8,200.9c-0.5,0-1,0-1.5,0c-0.5,0-1,0-1.6,0c-0.5,0-1,0-1.4,0c-0.4,0-0.8,0-1.1,0v-1.5c0.3,0,0.8,0,1.3,0
		c0.5,0,1.1,0,1.7,0c0.6,0,1.2,0,1.8,0c0.6,0,1.1,0,1.6,0c0.4-0.8,0.8-1.6,1.2-2.3c0.4-0.8,0.6-1.5,0.8-2.1c0.2,0.1,0.4,0.3,0.7,0.4
		c0.3,0.1,0.6,0.2,0.9,0.3c0.3,0,0.4,0.1,0.5,0.3c0,0.1-0.1,0.3-0.4,0.4c-0.2,0.1-0.4,0.3-0.6,0.5c-0.2,0.3-0.4,0.6-0.7,1.2
		c-0.1,0.3-0.3,0.5-0.4,0.7c-0.1,0.2-0.3,0.5-0.4,0.7h6.5c0.9,0,1.8,0,2.7,0c1,0,1.8-0.1,2.6-0.1v1.5c-0.6,0-1.2-0.1-1.9-0.1
		c-0.7,0-1.4,0-2.1-0.1c-0.4,1.2-0.9,2.3-1.4,3.3c-0.5,0.9-1.1,1.8-1.8,2.5c1.1,0.4,2.2,0.9,3.3,1.4c1.1,0.5,2.3,1,3.5,1.5
		c-0.3,0.2-0.5,0.5-0.7,0.8c-0.2,0.3-0.3,0.6-0.4,1c-1.2-0.7-2.3-1.4-3.4-2c-1.1-0.6-2.3-1.2-3.5-1.7c-0.6,0.4-1.2,0.8-1.9,1.2
		s-1.4,0.7-2.3,0.9c-0.8,0.3-1.7,0.5-2.7,0.8s-2.1,0.4-3.3,0.6c-0.1-0.4-0.3-0.7-0.5-1s-0.5-0.5-0.8-0.7c2.1-0.1,4-0.4,5.6-0.7
		c1.6-0.4,3.1-0.9,4.3-1.7c-2.2-0.9-4.5-1.7-7-2.4c0.5-0.5,0.9-1.1,1.4-1.7S319.3,201.6,319.8,200.9z M323.7,193.2
		c-0.3-0.4-0.5-0.8-0.9-1.2c-0.3-0.4-0.7-0.8-1.2-1.2l1.5-0.9c0.5,0.6,0.9,1.1,1.2,1.6s0.6,1.1,0.9,1.8c1.3,0,2.3,0,3.2,0
		c0.8,0,1.6,0,2.2,0c0.6,0,1.1,0,1.5,0c0.4,0,0.8,0,1.3-0.1v4.5l-1.5,0v-3.1l-15.7,0v3.2h-1.4v-4.5c0.4,0,0.9,0.1,1.3,0.1
		c0.4,0,1,0,1.6,0c0.6,0,1.4,0,2.4,0C321,193.2,322.2,193.2,323.7,193.2z M321.4,200.9c-0.4,0.7-0.8,1.3-1.1,1.8
		c-0.3,0.5-0.6,1-0.9,1.3c0.9,0.3,1.9,0.6,2.9,0.9s2,0.7,3.1,1.2c0.7-0.6,1.3-1.4,1.8-2.2c0.5-0.8,0.9-1.8,1.2-3H321.4z"/>
	<path class="st2" d="M347.4,199.5c-0.6,0-1.2,0-1.7,0c-0.5,0-1,0-1.4,0c-0.4,0-0.9,0-1.3,0c-0.4,0-0.9,0.1-1.4,0.1v-1.4
		c-0.5,0.4-1.1,0.7-1.7,1.1c-0.6,0.3-1.2,0.7-1.9,1c-0.1-0.4-0.3-0.6-0.5-0.8c-0.2-0.2-0.4-0.4-0.7-0.5c0.7-0.2,1.5-0.6,2.3-1
		c0.8-0.4,1.6-0.8,2.4-1.3c0.8-0.5,1.5-1,2.1-1.5c0.6-0.5,1.1-1,1.5-1.4c0.4-0.5,0.7-0.9,1-1.2s0.5-0.6,0.7-0.9
		c0.2-0.3,0.3-0.6,0.4-0.9c0.1-0.3,0.2-0.6,0.4-1c0.3,0.2,0.6,0.3,0.8,0.4c0.3,0.1,0.5,0.2,0.6,0.2c0.2,0,0.4,0.1,0.4,0.3
		c0,0.2-0.1,0.3-0.3,0.3c-0.1,0-0.3,0.2-0.5,0.4c0.7,0.8,1.4,1.6,2.1,2.2c0.7,0.7,1.5,1.3,2.3,1.8s1.7,1,2.7,1.5
		c1,0.4,2.1,0.9,3.3,1.3c-0.3,0.2-0.5,0.4-0.6,0.6c-0.2,0.2-0.3,0.5-0.4,0.9c-1.3-0.6-2.4-1.2-3.4-1.7c-1-0.5-1.8-1.1-2.6-1.6
		c-0.8-0.6-1.5-1.1-2.2-1.8c-0.7-0.6-1.3-1.4-1.9-2.2c-0.3,0.3-0.6,0.7-1,1.2c-0.4,0.4-0.9,0.9-1.4,1.4c-0.5,0.5-1.1,1-1.8,1.5
		c-0.7,0.5-1.4,1-2.1,1.6c0.5,0,0.9,0.1,1.4,0.1c0.4,0,0.9,0,1.4,0c0.5,0,1.1,0,1.7,0c0.6,0,1.3,0,2.1,0c1,0,1.7,0,2.3,0
		c0.6,0,1.1,0,1.6,0c0.4,0,0.9,0,1.3-0.1c0.4,0,0.9-0.1,1.4-0.1v1.5c-0.5,0-0.9-0.1-1.3-0.1c-0.4,0-0.8,0-1.2,0s-0.9,0-1.4,0
		s-1.2,0-2,0v3.9c0.9,0,1.6,0,2.2,0c0.6,0,1.1,0,1.5,0s0.8,0,1.1-0.1c0.3,0,0.7-0.1,1-0.1v1.5c-0.4,0-0.7-0.1-1-0.1
		c-0.3,0-0.7,0-1.1,0s-0.9,0-1.5,0c-0.6,0-1.3,0-2.2,0v4.5c1.3,0,2.3,0,3.1,0c0.8,0,1.5,0,2.1,0c0.6,0,1.1,0,1.6,0
		c0.5,0,1.1-0.1,1.8-0.1v1.6c-0.7,0-1.4-0.1-1.9-0.1c-0.6,0-1.2,0-1.9,0s-1.4,0-2.3,0s-2,0-3.3,0s-2.5,0-3.3,0c-0.9,0-1.7,0-2.3,0
		c-0.7,0-1.3,0-1.9,0c-0.6,0-1.2,0.1-1.9,0.1v-1.6c0.7,0,1.3,0.1,1.9,0.1c0.6,0,1.2,0,1.8,0s1.3,0,2.1,0s1.8,0,3,0v-4.5
		c-0.9,0-1.6,0-2.3,0c-0.6,0-1.1,0-1.6,0s-0.8,0-1.2,0c-0.3,0-0.7,0.1-1,0.1v-1.5c0.4,0,0.7,0.1,1,0.1c0.3,0,0.7,0,1.2,0.1
		s0.9,0,1.5,0s1.3,0,2.2,0V199.5z"/>
	<path class="st2" d="M381.3,210.6c-0.3,0-0.7-0.1-1.2-0.1c-0.5,0-1.1-0.1-1.8-0.1c-0.7,0-1.6,0-2.7,0s-2.3,0-3.7,0
		c-1.4,0-2.6,0-3.7,0c-1,0-1.9,0-2.6,0s-1.3,0.1-1.8,0.1s-0.8,0.1-1.1,0.1c0-0.6,0.1-1.2,0.1-1.8s0-1.3,0-2v-11.2c0-0.3,0-0.7,0-1.1
		c0-0.4,0-0.7,0-1.1c0-0.3,0-0.7,0-1c0-0.3,0-0.6,0-0.8c0.3,0,0.6,0.1,1,0.1c0.4,0,0.9,0,1.6,0.1s1.5,0,2.4,0c1,0,2.2,0,3.6,0
		c1.4,0,2.6,0,3.7,0c1,0,1.9,0,2.6,0c0.7,0,1.3,0,1.7-0.1c0.4,0,0.8-0.1,1.1-0.1v1.8c-0.4-0.1-1.3-0.1-2.7-0.2
		c-1.4-0.1-3.3-0.1-5.8-0.1h-7.6v16h8.7c2.3,0,4.1,0,5.6-0.1c1.4,0,2.3-0.1,2.8-0.2V210.6z M372.9,200.1c0.9-1,1.8-2.1,2.5-3.2
		c0.8-1.1,1.4-2.1,1.9-3.1c0.3,0.3,0.5,0.5,0.7,0.6c0.2,0.1,0.4,0.2,0.7,0.3c0.2,0.1,0.3,0.2,0.3,0.2c0,0.1-0.1,0.2-0.4,0.3
		c-0.2,0.1-0.4,0.2-0.6,0.5c-0.2,0.2-0.5,0.6-0.9,1.1c-0.6,0.8-1.1,1.5-1.7,2.1c-0.6,0.7-1.1,1.3-1.7,2c0.8,0.8,1.6,1.6,2.4,2.5
		s1.8,1.9,2.9,3.1l-1.2,1c-0.9-1-1.7-2-2.5-2.9c-0.8-0.9-1.6-1.8-2.4-2.7c-1,1-2,2-3,2.9s-2.1,1.8-3.3,2.7c-0.1-0.3-0.2-0.5-0.4-0.7
		c-0.2-0.2-0.4-0.4-0.8-0.6c1.1-0.6,2.2-1.4,3.3-2.3c1.1-0.9,2.2-1.9,3.2-3c-0.9-0.9-1.7-1.8-2.6-2.7c-0.9-0.9-1.9-1.8-2.9-2.8
		l1-0.8c1.2,1.1,2.2,2.1,3,2.9C371.3,198.5,372.1,199.3,372.9,200.1z"/>
	<path class="st2" d="M388.5,197.5c-0.4,0-0.8,0-1.1,0c-0.3,0-0.6,0-0.8,0c-0.2,0-0.5,0-0.7,0.1c-0.2,0-0.4,0.1-0.7,0.1v-1.6
		c0.2,0,0.4,0.1,0.7,0.1c0.2,0,0.4,0,0.7,0.1c0.2,0,0.5,0,0.8,0c0.3,0,0.7,0,1.1,0c0-1,0-1.8,0-2.6c0-0.7,0-1.3,0-1.8
		c0-0.5,0-0.9-0.1-1.2c0-0.3,0-0.5-0.1-0.7c0.3,0.1,0.6,0.2,0.9,0.2c0.3,0,0.6,0,0.9,0c0.2,0,0.3,0,0.4,0.1s-0.1,0.2-0.3,0.3
		c-0.2,0.1-0.3,0.3-0.3,0.6v5.1c0.5,0,1-0.1,1.3-0.1c0.3,0,0.7-0.1,1.1-0.1v1.6c-0.4-0.1-0.7-0.1-1.1-0.1c-0.3,0-0.8-0.1-1.3-0.1
		v7.9c0.4-0.1,0.7-0.3,1.1-0.4c0.4-0.2,0.8-0.3,1.3-0.6c0,0.2,0,0.5,0.1,0.6c0.1,0.2,0.1,0.4,0.2,0.6c-0.7,0.2-1.4,0.4-1.9,0.6
		s-1.1,0.4-1.6,0.6s-1,0.4-1.6,0.6c-0.6,0.2-1.2,0.5-1.9,0.8c0-0.3-0.1-0.6-0.2-0.8c-0.1-0.2-0.3-0.5-0.6-0.8
		c0.8-0.1,1.5-0.2,2.1-0.3c0.6-0.1,1.2-0.2,1.7-0.4V197.5z M399.4,204.9c0.1,0.2,0.1,0.4,0.2,0.6c0.1,0.2,0.1,0.4,0.2,0.6
		c-0.8,0.3-1.4,0.5-2,0.8c-0.6,0.2-1.1,0.4-1.7,0.6c-0.6,0.2-1.1,0.4-1.7,0.6c-0.6,0.2-1.3,0.5-2,0.8c0-0.3-0.1-0.7-0.2-0.9
		c-0.1-0.3-0.2-0.6-0.4-0.9c0.8-0.1,1.6-0.2,2.3-0.4c0.7-0.2,1.4-0.3,2-0.5c0.6-0.2,1.2-0.4,1.7-0.6S398.9,205.2,399.4,204.9z
		 M397.9,195.3c-0.7,0-1.4,0-1.9,0c-0.5,0-1,0-1.4,0c-0.4,0-0.8,0-1.1,0c-0.3,0-0.7,0.1-1,0.1v-1.5c0.3,0,0.6,0.1,1,0.1
		c0.3,0,0.7,0,1.1,0.1c0.4,0,0.9,0,1.4,0s1.2,0,1.9,0h1.8c0-0.7-0.1-1.3-0.1-1.8c0-0.5-0.1-0.9-0.1-1.3c0-0.3-0.1-0.6-0.1-0.9
		c0-0.2-0.1-0.4-0.1-0.6c0.4,0.1,0.7,0.2,0.9,0.2s0.6,0.1,0.9,0c0.3,0,0.4,0,0.4,0.2c0,0.1,0,0.3-0.3,0.4c-0.1,0-0.1,0.1-0.2,0.3
		c0,0.1-0.1,0.4-0.1,0.6c0,0.3,0,0.7,0,1.1s0,1,0,1.7c1.3,0,2.4,0,3.3,0c0.9,0,1.7-0.1,2.2-0.1v1.5c-0.6-0.1-1.3-0.1-2.2-0.1
		c-0.9,0-2,0-3.3,0c0.1,1.5,0.1,2.7,0.2,3.7c0.1,1,0.1,1.8,0.2,2.4s0.2,1.2,0.3,1.7c0.1,0.5,0.2,1,0.4,1.5c0.6-1,1.2-2.1,1.7-3.3
		c0.5-1.2,0.9-2.4,1.1-3.8c0.2,0.2,0.5,0.4,0.7,0.5c0.2,0.1,0.5,0.2,0.7,0.2c0.3,0,0.4,0.1,0.4,0.3c0,0.2-0.1,0.3-0.3,0.3
		c-0.1,0-0.3,0.2-0.4,0.5s-0.3,0.7-0.6,1.3c-0.4,1-0.8,2-1.3,2.9c-0.4,0.9-0.9,1.7-1.5,2.5c0.3,0.7,0.6,1.3,0.9,1.8
		c0.3,0.5,0.6,0.9,0.9,1.2c0.2,0.3,0.4,0.4,0.6,0.5c0.2,0.1,0.3,0.1,0.4,0s0.2-0.3,0.2-0.6c0.1-0.3,0.1-0.8,0.1-1.4
		c0.3,0.4,0.6,0.6,0.8,0.7c0.2,0.1,0.4,0.2,0.7,0.2c-0.2,0.9-0.4,1.6-0.6,2.1c-0.2,0.5-0.4,0.8-0.7,0.9c-0.3,0.1-0.5,0.1-0.9,0
		c-0.3-0.1-0.7-0.4-1-0.7c-0.9-0.9-1.7-2-2.4-3.5c-0.6,0.8-1.3,1.5-2,2.2c-0.7,0.7-1.5,1.3-2.4,1.9c-0.2-0.3-0.3-0.5-0.5-0.7
		c-0.2-0.2-0.4-0.3-0.7-0.4c0.9-0.5,1.8-1.1,2.7-1.8s1.7-1.6,2.4-2.5c-0.2-0.6-0.4-1.3-0.6-2c-0.2-0.7-0.3-1.5-0.4-2.3
		c-0.1-0.8-0.2-1.8-0.3-2.8c-0.1-1-0.1-2.2-0.2-3.5H397.9z M398.8,197.2c0,0.2-0.1,0.4-0.1,0.7c0,0.3,0,0.6-0.1,0.9c0,0.3,0,0.7,0,1
		s0,0.6,0,0.8c0,0.2,0,0.5,0,0.8s0,0.7,0,1s0,0.7,0,1c0,0.3,0,0.5,0,0.7c-0.3,0-0.6-0.1-1.1-0.1c-0.5,0-1,0-1.6,0s-1.2,0-1.7,0
		c-0.5,0-0.9,0-1.2,0.1c0-0.1,0-0.4,0-0.7c0-0.3,0-0.6,0-1c0-0.4,0-0.7,0-1s0-0.6,0-0.8c0-0.2,0-0.5,0-0.8s0-0.7,0-1
		c0-0.4,0-0.7,0-1c0-0.3,0-0.5,0-0.6c0.3,0,0.7,0.1,1.2,0.1c0.5,0,1.1,0,1.7,0s1.2,0,1.6,0C398.1,197.3,398.5,197.3,398.8,197.2z
		 M397.3,198.4h-2.9v4.6h2.9V198.4z M404.4,193.5c-0.3-0.4-0.6-0.8-1-1.2c-0.4-0.4-0.9-0.8-1.4-1.2l0.8-0.9c0.5,0.4,1,0.8,1.4,1.2
		c0.4,0.4,0.8,0.9,1.3,1.4L404.4,193.5z"/>
</g>
<g>
	<path class="st3" d="M10.4,5.5l1.1,0.7L8,11.5c0.5-0.2,1-0.3,1.4-0.3c1,0,1.8,0.4,2.5,1.1c0.7,0.8,1.1,1.7,1.1,2.8
		c0,1.1-0.4,2-1.2,2.8c-0.8,0.8-1.7,1.1-2.9,1.1c-1.1,0-2.1-0.4-2.8-1.2C5.4,17.2,5,16.2,5,15.1c0-0.5,0.1-1.1,0.3-1.6
		c0.2-0.6,0.6-1.3,1.2-2.1L10.4,5.5z M11.7,15.1c0-0.8-0.3-1.4-0.8-1.9c-0.5-0.5-1.2-0.8-1.9-0.8s-1.4,0.3-1.9,0.8
		c-0.5,0.5-0.8,1.2-0.8,1.9c0,0.8,0.3,1.4,0.8,1.9c0.5,0.5,1.2,0.8,1.9,0.8c0.7,0,1.4-0.3,1.9-0.8C11.4,16.5,11.7,15.9,11.7,15.1z"
		/>
	<path class="st3" d="M18.7,19.1c-1.4,0-2.5-0.6-3.2-1.7c-0.8-1.1-1.1-2.8-1.1-5.1s0.4-3.9,1.1-5.1c0.7-1.1,1.8-1.7,3.2-1.7
		s2.5,0.6,3.3,1.8c0.8,1.2,1.2,2.8,1.2,5s-0.4,3.9-1.2,5C21.1,18.5,20,19.1,18.7,19.1z M18.7,6.7c-1,0-1.8,0.5-2.3,1.4
		c-0.6,1-0.8,2.3-0.8,4.2c0,3.7,1.1,5.6,3.2,5.6c1,0,1.8-0.5,2.4-1.5s0.9-2.4,0.9-4.1s-0.3-3.2-0.9-4.1C20.5,7.2,19.7,6.7,18.7,6.7z
		"/>
	<path class="st3" d="M31.3,11c-0.2,0.3-0.4,0.7-0.6,1c-0.2,0.3-0.5,0.7-0.7,1c-0.2-0.2-0.4-0.3-0.5-0.4s-0.4-0.2-0.7-0.3
		c0.2-0.1,0.3-0.2,0.5-0.4s0.4-0.4,0.6-0.6c0.2-0.3,0.5-0.6,0.7-1c0.3-0.4,0.6-0.9,0.9-1.5c0.4-0.7,0.8-1.4,1-2
		c0.2-0.6,0.4-1.2,0.6-1.8c0.2,0.1,0.4,0.2,0.6,0.3c0.2,0.1,0.4,0.2,0.6,0.2c0.2,0.1,0.3,0.1,0.4,0.2c0,0.1-0.1,0.2-0.3,0.4
		c-0.1,0.1-0.2,0.2-0.3,0.3c-0.1,0.1-0.2,0.3-0.4,0.5c-0.1,0.2-0.3,0.5-0.5,0.8s-0.4,0.7-0.7,1.2v12.2h-1.2c0.1-0.5,0.1-1.1,0.1-1.8
		s0.1-1.3,0.1-2V11z M35,10c-0.2,0.1-0.3,0.3-0.5,0.4c-0.2,0.1-0.3,0.3-0.4,0.4c-0.1-0.2-0.3-0.3-0.5-0.4c-0.2-0.1-0.4-0.2-0.6-0.3
		c0.7-0.4,1.3-0.8,1.8-1.2c0.6-0.4,1.1-0.9,1.5-1.4c0.4-0.5,0.7-0.9,1-1.3c0.2-0.4,0.4-0.7,0.5-1.1c0.2,0.1,0.4,0.2,0.5,0.3
		c0.2,0.1,0.4,0.1,0.7,0.2c0.1,0,0.2,0.1,0.2,0.2c0,0.1-0.1,0.2-0.3,0.3c-0.1,0-0.2,0.1-0.3,0.2c-0.2,0.1-0.4,0.3-0.7,0.6h1.5
		c0.4,0,0.8,0,1.1,0c0.3,0,0.6,0,0.9,0c0.3,0,0.5,0,0.7,0c0.2,0,0.4,0,0.7-0.1l-1.8,2.7c0.5,0,0.9,0,1.2,0c0.3,0,0.6,0,0.8,0
		c0.2,0,0.4,0,0.6,0c0.2,0,0.4,0,0.6,0c0,0.3,0,0.5,0,0.9c0,0.3,0,0.6,0,0.9c0,0.3,0,0.6,0,1c0,0.3,0,0.6,0,0.8c-0.3,0-0.5,0-0.7,0
		c-0.2,0-0.4,0-0.7,0h-3.4c-0.2,0.3-0.3,0.5-0.5,0.7s-0.4,0.4-0.7,0.6c0.4,0.3,0.7,0.6,1,0.8c0.3,0.2,0.5,0.5,0.8,0.9
		c0.3-0.1,0.6-0.3,0.9-0.5s0.7-0.4,1-0.7c0.3-0.2,0.6-0.5,0.9-0.7c0.3-0.2,0.5-0.5,0.7-0.7c0.2,0.2,0.3,0.3,0.4,0.4s0.2,0.2,0.4,0.3
		s0.2,0.2,0.1,0.3c0,0.1-0.2,0.1-0.3,0.2c-0.1,0-0.3,0.1-0.5,0.2c-0.2,0.1-0.5,0.3-0.7,0.4c-0.2,0.1-0.4,0.2-0.5,0.3
		c-0.2,0.1-0.3,0.2-0.5,0.3c0.2,0.4,0.4,0.8,0.6,1.1c0.3,0.4,0.6,0.8,0.9,1.1s0.7,0.7,1.2,1c0.4,0.3,0.9,0.6,1.3,0.8
		c-0.3,0.2-0.5,0.3-0.6,0.4c-0.1,0.1-0.3,0.3-0.5,0.5c-0.9-0.7-1.7-1.5-2.3-2.2c-0.6-0.8-1-1.6-1.4-2.4l-0.7,0.3
		c0.2,0.3,0.3,0.7,0.4,1.1c0.1,0.4,0.1,0.8,0.1,1.1c0,0.5-0.1,1-0.2,1.4c-0.1,0.4-0.3,0.7-0.6,0.9c-0.3,0.2-0.6,0.4-1.1,0.6
		c-0.5,0.1-1.1,0.3-1.8,0.4c0-0.3-0.1-0.5-0.2-0.7c-0.1-0.2-0.3-0.4-0.5-0.6c0.6,0.1,1.1,0.1,1.6,0c0.4,0,0.8-0.1,1-0.3
		c0.3-0.1,0.4-0.4,0.5-0.6s0.2-0.7,0.2-1.1c0-0.2,0-0.4,0-0.6c0-0.2-0.1-0.4-0.2-0.6c-0.3,0.3-0.6,0.6-1,0.9c-0.4,0.3-1,0.7-1.7,1.1
		c-0.2,0.1-0.4,0.2-0.6,0.4c-0.2,0.1-0.5,0.3-0.8,0.4c-0.3,0.1-0.6,0.3-0.9,0.4c-0.3,0.1-0.6,0.3-0.8,0.4c-0.1-0.2-0.2-0.4-0.3-0.5
		c-0.1-0.1-0.3-0.3-0.5-0.5c0.3,0,0.5-0.1,0.7-0.1c0.2-0.1,0.4-0.1,0.7-0.2c0.2-0.1,0.5-0.2,0.7-0.3c0.2-0.1,0.5-0.3,0.8-0.5
		c0.6-0.4,1.2-0.8,1.8-1.1c0.5-0.4,1-0.8,1.4-1.1c-0.1-0.1-0.2-0.2-0.2-0.3s-0.2-0.2-0.3-0.4c-0.2,0.2-0.6,0.5-1,0.8
		c-0.4,0.3-0.8,0.6-1.3,0.8c-0.3,0.1-0.5,0.3-0.7,0.4s-0.4,0.2-0.6,0.3c-0.2,0.1-0.4,0.2-0.6,0.3c-0.2,0.1-0.4,0.2-0.6,0.3
		c-0.1-0.2-0.2-0.3-0.3-0.5c-0.1-0.1-0.3-0.3-0.5-0.5c0.2,0,0.4-0.1,0.6-0.1c0.2,0,0.4-0.1,0.6-0.2c0.2-0.1,0.4-0.1,0.7-0.3
		c0.2-0.1,0.5-0.2,0.9-0.4c0.4-0.2,0.8-0.4,1.2-0.7c0.4-0.3,0.7-0.5,1.1-0.9c-0.1-0.1-0.2-0.2-0.4-0.3s-0.3-0.2-0.4-0.3
		c-0.5,0.3-1,0.6-1.6,0.9c-0.5,0.3-1.1,0.5-1.7,0.8c-0.1-0.2-0.3-0.4-0.4-0.5c-0.2-0.1-0.4-0.3-0.7-0.4c0.4-0.1,0.9-0.2,1.4-0.3
		c0.5-0.1,0.9-0.3,1.4-0.5c0.5-0.2,0.9-0.5,1.3-0.7c0.4-0.3,0.8-0.6,1.1-1c-0.6,0-1.1,0-1.4,0s-0.6,0-0.9,0c-0.2,0-0.4,0-0.6,0
		c-0.1,0-0.3,0-0.5,0c0-0.2,0.1-0.5,0.1-0.8s0-0.6,0-0.9c0-0.1,0-0.3,0-0.5S35,10.2,35,10z M37.4,7.5C37.3,7.7,37,8,36.7,8.3
		s-0.7,0.7-1,1h4.2l1.3-1.9H37.4z M38.8,12.1c0.1-0.2,0.2-0.5,0.2-0.8c0-0.3,0.1-0.7,0.1-1.2H36v2H38.8z M40,10.1
		c0,0.8-0.1,1.4-0.3,2h3.4v-2H40z"/>
	<path class="st3" d="M54.8,7.8c-0.8,0-1.5,0-2.2,0s-1.2,0-1.7,0c-0.5,0-0.9,0-1.3,0.1c-0.4,0-0.8,0-1.1,0.1V6.8
		c0.4,0,0.8,0.1,1.1,0.1c0.4,0,0.8,0,1.3,0.1s1,0,1.7,0s1.3,0,2.2,0c0-0.3,0-0.7-0.1-1c0-0.3-0.1-0.6-0.1-0.8c0.2,0,0.4,0,0.6,0.1
		s0.4,0,0.7,0c0.1,0,0.2,0,0.2,0.1c0,0.1,0,0.1-0.1,0.2c-0.2,0.1-0.3,0.4-0.3,0.7V7c0.8,0,1.5,0,2.1,0s1.1,0,1.6,0
		c0.5,0,0.9,0,1.3-0.1c0.4,0,0.8-0.1,1.1-0.1V8c-0.4,0-0.7-0.1-1.1-0.1s-0.8,0-1.3-0.1c-0.5,0-1,0-1.6,0c-0.6,0-1.3,0-2.1,0v1.2
		c1.1,0,2.1,0,3.1,0s1.7-0.1,2.3-0.1v1.1c-0.6-0.1-1.4-0.1-2.3-0.1s-2,0-3.1,0v1.2c0.9,0,1.7,0,2.4,0c0.7,0,1.3,0,1.9,0
		c0.6,0,1.1,0,1.6-0.1c0.5,0,0.9,0,1.3-0.1v1.1c-0.4,0-0.9,0-1.4-0.1c-0.5,0-1,0-1.6-0.1c-0.6,0-1.3,0-2.1,0c-0.8,0-1.8,0-2.9,0
		c0.1,0.1,0.3,0.2,0.4,0.3c0.2,0.1,0.2,0.2,0.2,0.3s-0.2,0.1-0.4,0.1c0,0-0.1,0-0.2,0c-0.1,0-0.2,0.1-0.4,0.1
		c-0.2,0.1-0.5,0.2-0.9,0.4c-0.4,0.2-0.9,0.4-1.5,0.7l4.1-0.1c0.7-0.4,1.3-0.6,1.6-0.9c0.4-0.2,0.6-0.4,0.8-0.6
		c0.2,0.2,0.3,0.3,0.5,0.4c0.1,0.1,0.3,0.2,0.4,0.3c0.2,0.1,0.2,0.2,0.2,0.3c0,0.1-0.1,0.1-0.3,0.1c-0.1,0-0.3,0.1-0.6,0.2
		s-0.8,0.3-1.5,0.6c-0.6,0.3-1.3,0.6-2.1,1c-0.9,0.4-1.9,0.8-2.9,1.2l7.1-0.3c-0.2-0.2-0.3-0.4-0.5-0.5s-0.3-0.3-0.5-0.5l0.8-0.5
		c0.2,0.2,0.5,0.5,0.8,0.7c0.3,0.3,0.5,0.5,0.8,0.8c0.3,0.3,0.5,0.5,0.7,0.8c0.2,0.3,0.4,0.5,0.6,0.7l-0.9,0.7
		c-0.1-0.2-0.3-0.4-0.5-0.6c-0.2-0.2-0.4-0.5-0.6-0.7l-4.2,0.2v3.8c0,0.2,0,0.4-0.1,0.5c-0.1,0.1-0.2,0.2-0.4,0.3s-0.5,0.2-0.9,0.2
		s-0.9,0.1-1.6,0.2c0-0.3-0.1-0.5-0.2-0.7c-0.1-0.2-0.2-0.4-0.3-0.7c0.5,0.1,0.9,0.1,1.2,0.1c0.3,0,0.5,0,0.7,0
		c0.2,0,0.3-0.1,0.4-0.2c0.1-0.1,0.1-0.2,0.1-0.3v-3.1l-1.2,0.1c-0.4,0-0.9,0-1.4,0.1S51.3,17,50.9,17c-0.4,0-0.8,0.1-1.2,0.1
		c-0.4,0-0.6,0.1-0.8,0.1c0-0.2-0.1-0.4-0.1-0.6c0-0.2-0.1-0.4-0.2-0.6c0.5,0,1.3-0.2,2.4-0.5s2.3-0.8,3.6-1.4l-2.5,0.1
		c-0.7,0-1.2,0.1-1.6,0.1c-0.4,0.1-0.7,0.1-1,0.2c0-0.2,0-0.4-0.1-0.5c0-0.2-0.1-0.3-0.2-0.5c0.2,0,0.5-0.1,0.9-0.2
		c0.3-0.1,0.7-0.2,1.1-0.4c0.4-0.2,0.8-0.4,1.3-0.6s0.9-0.5,1.3-0.8c-2.7,0-4.9,0.1-6.4,0.2v-1.1c0.8,0.1,1.8,0.1,3,0.1
		c1.2,0,2.6,0,4.2,0V9.7c-0.7,0-1.3,0-1.9,0c-0.6,0-1,0-1.5,0c-0.4,0-0.8,0-1.2,0c-0.4,0-0.7,0-1,0.1V8.8c0.3,0,0.6,0,1,0.1
		s0.8,0,1.2,0c0.4,0,0.9,0,1.5,0c0.6,0,1.2,0,1.9,0V7.8z M52.3,17.4c0.1,0.1,0.2,0.3,0.4,0.4c0.1,0.1,0.3,0.2,0.4,0.3
		c0.1,0.1,0.2,0.2,0.2,0.3s-0.1,0.1-0.3,0.1c-0.1,0-0.2,0-0.3,0.1s-0.3,0.2-0.6,0.3c-0.3,0.2-0.7,0.4-1.3,0.7
		c-0.5,0.3-1.2,0.8-2.1,1.3c-0.1-0.2-0.3-0.4-0.4-0.5c-0.1-0.1-0.3-0.3-0.5-0.4c0.4-0.2,0.8-0.4,1.3-0.6c0.5-0.2,0.9-0.4,1.3-0.7
		c0.4-0.2,0.8-0.5,1.1-0.7S52.1,17.6,52.3,17.4z M61.5,21.1c-0.3-0.3-0.6-0.6-0.9-0.8c-0.3-0.3-0.6-0.5-0.9-0.7
		c-0.3-0.2-0.7-0.4-1-0.7s-0.7-0.4-1.1-0.6l0.6-0.8c0.6,0.4,1.3,0.8,2.1,1.3c0.7,0.5,1.4,1,2.1,1.5L61.5,21.1z"/>
</g>
<g>
	<path class="st3" d="M662.5,383.8l1.1,0.7l-3.5,5.3c0.5-0.2,1-0.3,1.4-0.3c1,0,1.8,0.4,2.5,1.1c0.7,0.8,1.1,1.7,1.1,2.8
		s-0.4,2-1.2,2.8s-1.7,1.1-2.9,1.1c-1.1,0-2.1-0.4-2.8-1.2c-0.8-0.8-1.1-1.7-1.1-2.8c0-0.5,0.1-1.1,0.3-1.6c0.2-0.6,0.6-1.3,1.2-2.1
		L662.5,383.8z M663.8,393.4c0-0.8-0.3-1.4-0.8-1.9c-0.5-0.5-1.2-0.8-1.9-0.8s-1.4,0.3-1.9,0.8c-0.5,0.5-0.8,1.2-0.8,1.9
		c0,0.8,0.3,1.4,0.8,1.9c0.5,0.5,1.2,0.8,1.9,0.8c0.7,0,1.4-0.3,1.9-0.8C663.5,394.8,663.8,394.1,663.8,393.4z"/>
	<path class="st3" d="M670.7,397.4c-1.4,0-2.5-0.6-3.2-1.7s-1.1-2.8-1.1-5.1c0-2.2,0.4-3.9,1.1-5.1c0.8-1.1,1.8-1.7,3.2-1.7
		s2.5,0.6,3.3,1.8c0.8,1.2,1.2,2.8,1.2,5c0,2.2-0.4,3.9-1.2,5C673.2,396.8,672.1,397.4,670.7,397.4z M670.8,385
		c-1,0-1.8,0.5-2.3,1.4c-0.6,1-0.8,2.3-0.8,4.2c0,3.7,1.1,5.6,3.2,5.6c1,0,1.8-0.5,2.4-1.5c0.6-1,0.9-2.4,0.9-4.1s-0.3-3.2-0.9-4.1
		C672.5,385.5,671.8,385,670.8,385z"/>
	<path class="st3" d="M683.4,389.3c-0.2,0.3-0.4,0.7-0.6,1c-0.2,0.3-0.5,0.7-0.7,1c-0.2-0.2-0.4-0.3-0.5-0.4s-0.4-0.2-0.7-0.3
		c0.2-0.1,0.3-0.2,0.5-0.4c0.2-0.2,0.4-0.4,0.6-0.6s0.5-0.6,0.7-1c0.3-0.4,0.6-0.9,0.9-1.5c0.4-0.7,0.8-1.4,1-2
		c0.2-0.6,0.4-1.2,0.6-1.8c0.2,0.1,0.4,0.2,0.6,0.3c0.2,0.1,0.4,0.2,0.6,0.2c0.2,0.1,0.3,0.1,0.4,0.2s-0.1,0.2-0.3,0.4
		c-0.1,0.1-0.2,0.2-0.3,0.3c-0.1,0.1-0.2,0.3-0.4,0.5s-0.3,0.5-0.5,0.8c-0.2,0.3-0.4,0.7-0.7,1.2v12.2h-1.2c0.1-0.5,0.1-1.1,0.1-1.8
		s0.1-1.3,0.1-2V389.3z M687.1,388.2c-0.2,0.1-0.3,0.3-0.5,0.4c-0.2,0.1-0.3,0.3-0.4,0.4c-0.1-0.2-0.3-0.3-0.5-0.4
		c-0.2-0.1-0.4-0.2-0.6-0.3c0.7-0.4,1.3-0.8,1.8-1.2s1.1-0.9,1.5-1.4c0.4-0.5,0.7-0.9,1-1.3c0.2-0.4,0.4-0.7,0.5-1.1
		c0.2,0.1,0.4,0.2,0.5,0.3c0.2,0.1,0.4,0.1,0.7,0.2c0.1,0,0.2,0.1,0.2,0.2c0,0.1-0.1,0.2-0.3,0.3c-0.1,0-0.2,0.1-0.3,0.2
		c-0.2,0.1-0.4,0.3-0.7,0.6h1.5c0.4,0,0.8,0,1.1,0c0.3,0,0.6,0,0.9,0c0.3,0,0.5,0,0.7,0c0.2,0,0.4,0,0.7-0.1l-1.8,2.7
		c0.5,0,0.9,0,1.2,0s0.6,0,0.8,0c0.2,0,0.4,0,0.6,0c0.2,0,0.4,0,0.6,0c0,0.3,0,0.5,0,0.9c0,0.3,0,0.6,0,0.9s0,0.6,0,1
		c0,0.3,0,0.6,0,0.8c-0.3,0-0.5,0-0.7,0s-0.4,0-0.7,0h-3.4c-0.2,0.3-0.3,0.5-0.5,0.7c-0.2,0.2-0.4,0.4-0.7,0.6
		c0.4,0.3,0.7,0.6,1,0.8s0.5,0.5,0.8,0.9c0.3-0.1,0.6-0.3,0.9-0.5s0.7-0.4,1-0.7c0.3-0.2,0.6-0.5,0.9-0.7s0.5-0.5,0.7-0.7
		c0.2,0.2,0.3,0.3,0.4,0.4c0.1,0.1,0.2,0.2,0.4,0.3c0.1,0.1,0.2,0.2,0.1,0.3s-0.2,0.1-0.3,0.2c-0.1,0-0.3,0.1-0.5,0.2
		c-0.2,0.1-0.5,0.3-0.7,0.4c-0.2,0.1-0.4,0.2-0.5,0.3c-0.2,0.1-0.3,0.2-0.5,0.3c0.2,0.4,0.4,0.8,0.6,1.1c0.3,0.4,0.6,0.8,0.9,1.1
		c0.4,0.4,0.7,0.7,1.2,1c0.4,0.3,0.9,0.6,1.3,0.8c-0.3,0.2-0.5,0.3-0.6,0.4c-0.1,0.1-0.3,0.3-0.5,0.5c-0.9-0.7-1.7-1.5-2.3-2.2
		s-1-1.6-1.4-2.4l-0.7,0.3c0.2,0.3,0.3,0.7,0.4,1.1c0.1,0.4,0.1,0.8,0.1,1.1c0,0.5-0.1,1-0.2,1.4c-0.1,0.4-0.3,0.7-0.6,0.9
		s-0.6,0.4-1.1,0.6c-0.5,0.2-1.1,0.3-1.8,0.4c0-0.3-0.1-0.5-0.2-0.7c-0.1-0.2-0.3-0.4-0.5-0.6c0.6,0.1,1.1,0.1,1.6,0s0.8-0.1,1-0.3
		c0.3-0.1,0.4-0.4,0.5-0.6c0.1-0.3,0.2-0.7,0.2-1.1c0-0.2,0-0.4,0-0.6c0-0.2-0.1-0.4-0.2-0.6c-0.3,0.3-0.6,0.6-1,0.9s-1,0.7-1.7,1.1
		c-0.2,0.1-0.4,0.2-0.6,0.4s-0.5,0.3-0.8,0.4c-0.3,0.1-0.6,0.3-0.9,0.4c-0.3,0.1-0.6,0.3-0.8,0.4c-0.1-0.2-0.2-0.4-0.3-0.5
		c-0.1-0.1-0.3-0.3-0.5-0.5c0.3,0,0.5-0.1,0.7-0.1c0.2-0.1,0.4-0.1,0.7-0.2c0.2-0.1,0.5-0.2,0.7-0.3c0.2-0.1,0.5-0.3,0.8-0.5
		c0.6-0.4,1.2-0.8,1.8-1.1c0.5-0.4,1-0.8,1.4-1.1c-0.1-0.1-0.2-0.2-0.2-0.3s-0.2-0.2-0.3-0.4c-0.2,0.2-0.6,0.5-1,0.8
		s-0.8,0.6-1.3,0.8c-0.3,0.1-0.5,0.3-0.7,0.4c-0.2,0.1-0.4,0.2-0.6,0.3c-0.2,0.1-0.4,0.2-0.6,0.3s-0.4,0.2-0.6,0.3
		c-0.1-0.2-0.2-0.3-0.3-0.5c-0.1-0.1-0.3-0.3-0.5-0.5c0.2,0,0.4-0.1,0.6-0.1c0.2,0,0.4-0.1,0.6-0.2c0.2-0.1,0.4-0.1,0.7-0.3
		c0.2-0.1,0.5-0.2,0.9-0.4c0.4-0.2,0.8-0.4,1.2-0.7c0.4-0.3,0.7-0.5,1.1-0.9c-0.1-0.1-0.2-0.2-0.4-0.3c-0.1-0.1-0.3-0.2-0.4-0.3
		c-0.5,0.3-1,0.6-1.6,0.9c-0.5,0.3-1.1,0.5-1.7,0.8c-0.1-0.2-0.3-0.4-0.4-0.5s-0.4-0.3-0.7-0.4c0.4-0.1,0.9-0.2,1.4-0.3
		c0.5-0.1,0.9-0.3,1.4-0.5s0.9-0.5,1.3-0.7c0.4-0.3,0.8-0.6,1.1-1c-0.6,0-1.1,0-1.4,0c-0.4,0-0.6,0-0.9,0c-0.2,0-0.4,0-0.6,0
		c-0.2,0-0.3,0-0.5,0c0-0.2,0.1-0.5,0.1-0.8c0-0.3,0-0.6,0-0.9c0-0.1,0-0.3,0-0.5C687.1,388.6,687.1,388.4,687.1,388.2z
		 M689.5,385.7c-0.2,0.2-0.4,0.5-0.7,0.8c-0.3,0.3-0.7,0.7-1,1h4.2l1.3-1.9H689.5z M690.8,390.4c0.1-0.2,0.2-0.5,0.2-0.8
		c0-0.3,0.1-0.7,0.1-1.2h-3.1v2H690.8z M692.1,388.4c0,0.8-0.1,1.4-0.3,2h3.4v-2H692.1z"/>
	<path class="st3" d="M706.8,386c-0.8,0-1.5,0-2.2,0s-1.2,0-1.7,0c-0.5,0-0.9,0-1.3,0.1c-0.4,0-0.8,0-1.1,0.1V385
		c0.4,0,0.8,0.1,1.1,0.1c0.4,0,0.8,0,1.3,0.1c0.5,0,1,0,1.7,0s1.3,0,2.2,0c0-0.3,0-0.7-0.1-1c0-0.3-0.1-0.6-0.1-0.8
		c0.2,0,0.4,0,0.6,0.1c0.2,0,0.4,0,0.7,0c0.1,0,0.2,0,0.2,0.1c0,0.1,0,0.1-0.1,0.2c-0.2,0.1-0.3,0.4-0.3,0.7v0.7c0.8,0,1.5,0,2.1,0
		c0.6,0,1.1,0,1.6,0c0.5,0,0.9,0,1.3-0.1c0.4,0,0.8-0.1,1.1-0.1v1.2c-0.4,0-0.7-0.1-1.1-0.1c-0.4,0-0.8,0-1.3-0.1c-0.5,0-1,0-1.6,0
		c-0.6,0-1.3,0-2.1,0v1.2c1.1,0,2.1,0,3.1,0c0.9,0,1.7-0.1,2.3-0.1v1.1c-0.6-0.1-1.4-0.1-2.3-0.1c-0.9,0-2,0-3.1,0v1.2
		c0.9,0,1.7,0,2.4,0s1.3,0,1.9,0s1.1,0,1.6-0.1c0.5,0,0.9,0,1.3-0.1v1.1c-0.4,0-0.9,0-1.4-0.1s-1,0-1.6-0.1c-0.6,0-1.3,0-2.1,0
		c-0.8,0-1.8,0-2.9,0c0.1,0.1,0.3,0.2,0.4,0.3c0.2,0.1,0.2,0.2,0.2,0.3c0,0.1-0.2,0.1-0.4,0.1c0,0-0.1,0-0.2,0
		c-0.1,0-0.2,0.1-0.4,0.1c-0.2,0.1-0.5,0.2-0.9,0.4s-0.9,0.4-1.5,0.7l4.1-0.1c0.7-0.4,1.3-0.6,1.6-0.9c0.4-0.2,0.6-0.4,0.8-0.6
		c0.2,0.2,0.3,0.3,0.5,0.4c0.1,0.1,0.3,0.2,0.4,0.3c0.2,0.1,0.2,0.2,0.2,0.3s-0.1,0.1-0.3,0.1c-0.1,0-0.3,0.1-0.6,0.2
		c-0.3,0.1-0.8,0.3-1.5,0.6c-0.6,0.3-1.3,0.6-2.1,1s-1.9,0.8-2.9,1.2l7.1-0.3c-0.2-0.2-0.3-0.4-0.5-0.5s-0.3-0.3-0.5-0.5l0.8-0.5
		c0.2,0.2,0.5,0.5,0.8,0.7c0.3,0.3,0.5,0.5,0.8,0.8s0.5,0.5,0.7,0.8c0.2,0.3,0.4,0.5,0.6,0.7l-0.9,0.7c-0.1-0.2-0.3-0.4-0.5-0.6
		c-0.2-0.2-0.4-0.5-0.6-0.7L708,395v3.8c0,0.2,0,0.4-0.1,0.5s-0.2,0.2-0.4,0.3c-0.2,0.1-0.5,0.2-0.9,0.2c-0.4,0.1-0.9,0.1-1.6,0.2
		c0-0.3-0.1-0.5-0.2-0.7c-0.1-0.2-0.2-0.4-0.3-0.7c0.5,0.1,0.9,0.1,1.2,0.1c0.3,0,0.5,0,0.7,0c0.2,0,0.3-0.1,0.4-0.2
		c0.1-0.1,0.1-0.2,0.1-0.3V395l-1.2,0.1c-0.4,0-0.9,0-1.3,0.1c-0.5,0-0.9,0.1-1.4,0.1c-0.4,0-0.8,0.1-1.2,0.1
		c-0.4,0-0.6,0.1-0.8,0.1c0-0.2-0.1-0.4-0.1-0.6c0-0.2-0.1-0.4-0.2-0.6c0.5,0,1.3-0.2,2.4-0.5s2.3-0.8,3.6-1.4l-2.5,0.1
		c-0.7,0-1.2,0.1-1.6,0.1c-0.4,0.1-0.7,0.1-1,0.2c0-0.2,0-0.4-0.1-0.5s-0.1-0.3-0.2-0.5c0.2,0,0.5-0.1,0.9-0.2
		c0.3-0.1,0.7-0.2,1.1-0.4s0.8-0.4,1.3-0.6c0.4-0.2,0.9-0.5,1.3-0.8c-2.7,0-4.9,0.1-6.4,0.2V389c0.8,0.1,1.8,0.1,3,0.1
		c1.2,0,2.6,0,4.2,0V388c-0.7,0-1.3,0-1.9,0c-0.6,0-1,0-1.5,0c-0.4,0-0.8,0-1.2,0c-0.4,0-0.7,0-1,0.1V387c0.3,0,0.6,0,1,0.1
		c0.4,0,0.8,0,1.2,0c0.4,0,0.9,0,1.5,0c0.6,0,1.2,0,1.9,0V386z M704.4,395.7c0.1,0.1,0.2,0.3,0.4,0.4c0.1,0.1,0.3,0.2,0.4,0.3
		c0.1,0.1,0.2,0.2,0.2,0.3c0,0.1-0.1,0.1-0.3,0.1c-0.1,0-0.2,0-0.3,0.1s-0.3,0.2-0.6,0.3c-0.3,0.2-0.7,0.4-1.3,0.7s-1.2,0.8-2.1,1.3
		c-0.1-0.2-0.3-0.4-0.4-0.5c-0.1-0.1-0.3-0.3-0.5-0.4c0.4-0.2,0.8-0.4,1.3-0.6s0.9-0.5,1.3-0.7c0.4-0.2,0.8-0.5,1.1-0.7
		C703.9,396.1,704.2,395.9,704.4,395.7z M713.6,399.4c-0.3-0.3-0.6-0.6-0.9-0.8c-0.3-0.3-0.6-0.5-0.9-0.7c-0.3-0.2-0.7-0.4-1-0.7
		c-0.3-0.2-0.7-0.4-1.1-0.6l0.6-0.8c0.6,0.4,1.3,0.8,2.1,1.3c0.7,0.5,1.4,1,2.1,1.5L713.6,399.4z"/>
</g>
</svg>
