<?xml version="1.0" encoding="utf-8"?>
<!-- Generator: Adobe Illustrator 24.3.0, SVG Export Plug-In . SVG Version: 6.00 Build 0)  -->
<svg version="1.1" id="图层_1" xmlns="http://www.w3.org/2000/svg" xmlns:xlink="http://www.w3.org/1999/xlink" x="0px" y="0px"
	 viewBox="0 0 566.9 566.9" style="enable-background:new 0 0 566.9 566.9;" xml:space="preserve">
<style type="text/css">
	.st0{opacity:0.1;fill:#44271C;}
	.st1{fill:#44271C;}
	.st2{fill:#7A3818;}
	.st3{fill:#F7C17F;}
</style>
<ellipse class="st0" cx="300.1" cy="458.5" rx="218.4" ry="61.5"/>
<path class="st1" d="M384.3,191.6l-21.8-21.8l36.5-51.1c9.4-13.1,28.3-14.7,39.6-3.3l0,0c11.4,11.4,9.8,30.3-3.3,39.6L384.3,191.6z"
	/>
<path class="st2" d="M162.4,112.2c0.2,4.8,2.8,9.2,6.7,12l67.9,48.5c27.8,19.8,54,42.1,78.2,66.2s46.4,50.4,66.2,78.2l48.5,67.9
	c3,4.2,7.8,6.6,12.9,6.7c16.2,0.4,32.6-6.3,44.1-20.1c13.3-16,16-38.5,8.1-57.8C447.4,197.7,355,105.7,238.7,58.6l0,0
	c-20.7-8.4-44.3-3.6-60.1,12.2C167.2,82.2,161.8,97.3,162.4,112.2z"/>
<path class="st3" d="M411.1,385.2L368.8,326C330,271.6,282.4,224.1,228,185.2L168.8,143c-6.4-4.6-15.1-3.8-20.6,1.7l-39.7,39.7
	C42.5,250.4,23.3,350.1,60.1,436l0,0c2.8,6.5,3.1,13.8,0.8,20.5c-7.5,22.6,14,44.1,36.6,36.6l0,0c6.7-2.2,14-1.9,20.5,0.9l0,0
	c85.9,36.8,185.6,17.6,251.7-48.5l39.6-39.6C414.9,400.3,415.6,391.6,411.1,385.2z M125.8,226.7c12-12,31.5-12,43.5,0
	s12,31.5,0,43.5s-31.5,12-43.5,0S113.8,238.7,125.8,226.7z M101.1,356.9c-12-12-12-31.5,0-43.5s31.5-12,43.5,0s12,31.5,0,43.5
	S113.2,368.9,101.1,356.9z"/>
</svg>
