<?xml version="1.0" standalone="no"?><!DOCTYPE svg PUBLIC "-//W3C//DTD SVG 1.1//EN" "http://www.w3.org/Graphics/SVG/1.1/DTD/svg11.dtd"><svg t="1683711609552" class="icon" viewBox="0 0 1024 1024" version="1.1" xmlns="http://www.w3.org/2000/svg" p-id="4764" xmlns:xlink="http://www.w3.org/1999/xlink" width="24" height="24"><path d="M640.676 120.35c-109.314 0-207.776 46.21-277.12 120.078-1.782 2.243-3.535 4.437-5.553 7.052-0.205 0.274-0.391 0.589-0.617 0.862-22.399 29.393-34.143 64.574-34.143 101.645 0 92.909 75.593 168.492 168.481 168.492 92.909 0 168.481-75.583 168.481-168.492 0-8.297 6.739-15.044 15.044-15.044s15.043 6.748 15.043 15.044c0 109.5-89.078 198.578-198.57 198.578s-198.572-89.077-198.572-198.577c0-1.312 0.137-2.606 0.157-3.898 0.51-26.19 6.013-51.488 16.21-74.956 2.615-6.025-2.174-15.719-13.134-13.017-166.043 40.822-289.285 190.48-289.285 369.099 0 129.265 63.35 190.068 63.35 253.437 0 63.349 253.437 63.349 253.437 0v-63.369c0-34.987 28.354-63.36 63.35-63.36 34.986 0 63.35 28.373 63.35 63.36v63.369c0 62.34 245.19 63.291 253.065 2.948-3.907-1.91-7.649-4.074-11.185-6.562-20.695-14.583-34.279-38.638-34.279-65.829 0-23.839 10.871-44.77 26.934-60.019 5.21-4.957 2.155-10.557-1.077-12.644-26.083-16.925-43.369-46.238-43.369-79.659 0-50.94 40.097-92.39 90.45-94.799 1.537-0.077 3.036-0.235 4.583-0.235 52.487 0 95.034 42.546 95.034 95.033 0 51.568-41.088 93.439-92.302 94.898v0.137c-10.010 0-19.433 2.469-27.638 6.837-18.051 9.609-30.265 28.412-30.265 50.449 0 18.914 8.54 36.044 23.839 46.064 10.519 6.886 29.52 11.821 40.705 8.725 159.148-45.377 275.728-191.772 275.728-365.503-0.002-209.939-170.197-380.145-380.138-380.145M799.069 373.788c-17.491 0-31.694-14.182-31.694-31.685 0-17.491 14.202-31.675 31.694-31.675 17.493 0 31.676 14.182 31.676 31.675-0.001 17.502-14.183 31.685-31.676 31.685z" fill="#F2971B" p-id="4765"></path></svg>