<?xml version="1.0" encoding="utf-8"?>
<!-- Generator: Adobe Illustrator 24.0.1, SVG Export Plug-In . SVG Version: 6.00 Build 0)  -->
<svg version="1.1" id="图层_1" xmlns="http://www.w3.org/2000/svg" xmlns:xlink="http://www.w3.org/1999/xlink" x="0px" y="0px"
	 viewBox="0 0 1024 1024" style="enable-background:new 0 0 1024 1024;" xml:space="preserve">
<style type="text/css">
	.st0{fill:#9B5A19;}
	.st1{fill:#B57841;}
	.st2{fill:none;}
	.st3{fill:#534934;}
	.st4{fill:#C48748;}
	.st5{fill:#DD9D5E;}
	.st6{fill:#FFFFFF;}
	.st7{fill:#E84281;}
	.st8{fill:#FFF799;}
	.st9{fill:#FD568F;}
	.st10{fill:#212121;}
	.st11{fill:#D7182A;}
</style>
<g>
	<path class="st0" d="M420.2,358.8c-2.4,0-4.8-0.3-7.2-1l-3.7-1.1l-96-43.8c-1.4-0.9-2.8-1.5-4.3-2.2c-2-0.9-4.2-1.9-6.4-3.4
		c-29.5-16.6-53.5-43.2-67.2-74.7c-13.9-29.9-17.5-65.6-10.3-103l9.4-44.8c1.9-13.5,16.5-23.6,31.6-21.4l0.9,0.2
		c13.8,3.7,22.8,17.3,21,31.5l-9.5,45.2c-4.7,27.7-2.7,51.3,6.2,69.9c7.8,17.8,19.3,32.6,33.2,42.9c-2.2-16.9-1-34.2,3.6-50.8
		c3.8-14.2,19.1-23,33.4-19.1c14.2,3.8,23,19.1,19.2,33.4c-7.1,26.4-0.3,51.3,19.8,71.9c0.1,0.1,0.2,0.2,0.3,0.3
		c0.9,0.5,1.6,1.2,2.3,1.9l43.2,19.5l-0.6,1c3.3,2.9,5.9,6.7,7.4,11c2.4,6.8,1.9,14.1-1.4,20.3C440.9,352.6,430.9,358.8,420.2,358.8
		z"/>
	<path class="st1" d="M188.2,338c5.8,59.4,71.9,106.3,152.6,106.3V329.6H195.8C191.3,329.6,187.8,333.5,188.2,338z"/>
	<path class="st1" d="M835.8,338.1c-5.8,59.4-71.9,106.2-152.6,106.2V329.6h145C832.7,329.6,836.2,333.5,835.8,338.1z"/>
	<path class="st1" d="M598.9,313.1l-0.1-10.6c-0.1-10.4-3.3-18.5-8.9-23c-3.9-3.2-8.9-4.3-14.5-3.3c-3.4,0.6-6.9,1.8-10.3,3.8
		l-3,1.7c-3.2-14.1-10.5-24.6-19.6-27.7c-3-1.1-6.2-1.4-9.6-0.8c-4,0.7-8.1,2.5-12,5.4l-17.8,12.7l-7.4-20.6
		c-8.4-23.7-24-39.6-38.8-39.7l-0.8,0c-1,0.1-2,0.1-3,0.3c-21.7,3.7-38,37-37.1,75.9v0c0.4,16.6,4,32.7,10.3,46.4l3,6.4l6.7-2.5
		c16.1-6,32.8-10.4,49.7-13.3c24-4.1,48.1-4.9,71.9-2.7l9.3,0.9l-1.9-18.9c8.2,1.7,16.2,3.7,23.9,6.2L598.9,313.1z"/>
	<path class="st0" d="M601.4,358.8c-10.7,0-20.6-6.2-25-16.3c-3.3-6.1-3.8-13.5-1.4-20.3c1.5-4.3,4.1-8.1,7.4-11l-0.6-1l43.2-19.5
		c0.7-0.7,1.5-1.4,2.3-1.9c0.1-0.1,0.2-0.2,0.3-0.3c20.1-20.7,27-45.6,19.8-71.9c-3.8-14.2,4.9-29.5,19.2-33.4
		c6.7-1.8,14.2-0.8,20.5,2.8c6.3,3.6,11,9.6,12.8,16.3c4.5,16.6,5.7,33.8,3.6,50.8c13.9-10.3,25.4-25.1,33.1-42.7
		c9-18.8,11-42.4,6.3-70.4l-9.3-44.4c-2-14.8,7-28.3,20.9-32.1l0.9-0.2c15.2-2.1,29.7,7.9,31.7,21.9l9.3,44.2
		c7.2,37.6,3.6,73.3-10.4,103.3c-13.6,31.3-37.6,58-67.6,74.9c-1.7,1.2-3.9,2.2-5.9,3.1c-1.4,0.7-2.9,1.3-4.3,2.2l-1.1,0.6
		l-96.1,43.7l-2.5,0.7C606.3,358.5,603.8,358.8,601.4,358.8z"/>
	<g>
		<path class="st2" d="M511.4,850.7c-30.3,0-55.1,24.8-55.1,55.1v13.8h110.2v-13.8C566.5,875.5,541.7,850.7,511.4,850.7z"/>
		<path class="st1" d="M456.3,905.8c0-30.3,24.8-55.1,55.1-55.1s55.1,24.8,55.1,55.1v13.8h82.7V735c0-26.3-20.8-48-46.8-49.5
			c-0.9-0.1-1.8-0.1-2.8-0.1H423.2c-0.9,0-1.8,0.1-2.8,0.1c-26,1.5-46.8,23.1-46.8,49.5v184.6h82.7V905.8z"/>
		<path class="st3" d="M412.2,960.9h5.5c21.2,0,38.6-17.4,38.6-38.6v-2.8h-82.7v2.8C373.7,943.6,391,960.9,412.2,960.9z"/>
		<path class="st3" d="M566.5,922.3c0,21.2,17.4,38.6,38.6,38.6h5.5c21.2,0,38.6-17.4,38.6-38.6v-2.8h-82.7V922.3z"/>
	</g>
	<path class="st4" d="M702.7,361.2c0-42.1-34.4-76.5-76.5-76.5H396.6c-42.1,0-76.5,34.4-76.5,76.5v229.6c0,19.4,3.8,37.9,10.4,55
		c22.2-57.2,77.8-98.1,142.6-98.1h76.5c64.8,0,120.4,40.9,142.6,98.1c6.6-17.1,10.4-35.6,10.4-55V361.2z"/>
	<g>
		<path class="st5" d="M549.7,547.7h-76.5c-64.8,0-120.4,40.9-142.6,98.1c22.2,57.2,77.8,98.1,142.6,98.1h76.5
			c64.8,0,120.4-40.9,142.6-98.1C670.1,588.5,614.5,547.7,549.7,547.7z"/>
	</g>
	<circle class="st6" cx="432.5" cy="479.3" r="57.4"/>
	<circle class="st6" cx="590.3" cy="479.3" r="57.4"/>
	<circle class="st3" cx="430.6" cy="463.5" r="15.3"/>
	<circle class="st3" cx="591.3" cy="463.5" r="15.3"/>
	<path class="st7" d="M675.5,723.7H599c-4.2,0-7.7,3.4-7.7,7.7v110.2v27.6c0,4.2,3.4,7.7,7.7,7.7h3.1c4.2,0,7.7-3.4,7.7-7.7v-27.6
		c0-4.2,3.4-7.7,7.7-7.7h3.1c4.2,0,7.7,3.4,7.7,7.7v27.6c0,4.2,3.4,7.7,7.7,7.7h3.1c4.2,0,7.7-3.4,7.7-7.7v-27.6
		c0-4.2,3.4-7.7,7.7-7.7h3.1c4.2,0,7.7,3.4,7.7,7.7v27.6c0,4.2,3.4,7.7,7.7,7.7h3.1c4.2,0,7.7-3.4,7.7-7.7v-27.6V731.3
		C683.2,727.1,679.7,723.7,675.5,723.7z"/>
	<g>
		<path class="st8" d="M496.5,786.6c-5.3-14.7,1-30.7,14.1-38.2c-1.6-1.1-3.3-2-5.2-2.7c-13.3-4.8-27.9,2-32.7,15.3
			c-0.2,0.4-2.8,7.7-2.9,8.2c-5.6,15.3-12.7,18-16.7,20.1c-3.8,2-3.7,7.8,0.6,9.3l46.5,17c1.6-3.7,3.7-8.7-0.6-20.7
			C497.6,789.6,498.3,791.4,496.5,786.6z"/>
		<path class="st8" d="M476.6,823c5.3,1.9,11-0.1,14.1-4.4l-22.1-8C468.2,815.8,471.3,821,476.6,823z"/>
		<path class="st8" d="M546.2,829.1c5.3-1.9,8.4-7.1,8-12.5l-22.1,8C535.2,829,540.9,831,546.2,829.1z"/>
		<path class="st8" d="M569.9,795.3c-4-2-11.2-4.8-16.7-20.1c-0.2-0.4-2.8-7.7-2.9-8.2c-4.8-13.2-19.5-20.1-32.7-15.3
			c-13.2,4.8-20.1,19.5-15.3,32.7c0.2,0.4,2.8,7.7,3,8.2c5.6,15.3,1.9,22,0.1,26.1c-1.7,4,2.1,8.3,6.4,6.8l57.5-20.9
			C573.2,803.2,574,797.4,569.9,795.3z"/>
	</g>
	<path class="st9" d="M687.4,761.9L687.4,761.9c-116.5,20.3-235.6,20.3-352,0l0,0c-8.4,0-15.3-6.9-15.3-15.3v-61.2
		c0-8.4,6.9-15.3,15.3-15.3l0,0c116.5,20.3,235.6,20.3,352,0l0,0c8.4,0,15.3,6.9,15.3,15.3v61.2
		C702.7,755.1,695.8,761.9,687.4,761.9z"/>
	
		<rect x="633.4" y="750.5" transform="matrix(-1.836970e-16 1 -1 -1.836970e-16 1433.6163 159.1449)" class="st10" width="7.7" height="91.8"/>
	
		<rect x="633.4" y="765.8" transform="matrix(-1.836970e-16 1 -1 -1.836970e-16 1448.9221 174.4507)" class="st10" width="7.7" height="91.8"/>
	<path class="st11" d="M522.9,677.8h-23c-25.3,0-45.9-20.7-45.9-45.9v0c0-25.3,20.7-45.9,45.9-45.9h23c25.3,0,45.9,20.7,45.9,45.9v0
		C568.8,657.1,548.1,677.8,522.9,677.8z"/>
</g>
</svg>
