<?xml version="1.0" encoding="utf-8"?>
<!-- Generator: Adobe Illustrator 24.3.0, SVG Export Plug-In . SVG Version: 6.00 Build 0)  -->
<svg version="1.1" id="图层_1" xmlns="http://www.w3.org/2000/svg" xmlns:xlink="http://www.w3.org/1999/xlink" x="0px" y="0px"
	 viewBox="0 0 1162 300" style="enable-background:new 0 0 1162 300;" xml:space="preserve">
<style type="text/css">
	.st0{opacity:0.8;fill:#FFFFFF;enable-background:new    ;}
	.st1{fill:#FFFFFF;}
	.st2{fill-rule:evenodd;clip-rule:evenodd;fill:#FFFFFF;}
</style>
<path class="st0" d="M520.6,263.8v-36.5h13.7c2.4,0,4.3,0.1,5.5,0.3c1.8,0.3,3.3,0.9,4.5,1.7s2.2,2,2.9,3.5s1.1,3.2,1.1,5
	c0,3.1-1,5.7-3,7.9c-2,2.1-5.5,3.2-10.7,3.2h-9.3v14.8h-4.7V263.8z M525.4,244.7h9.4c3.1,0,5.3-0.6,6.6-1.7c1.3-1.2,2-2.8,2-4.9
	c0-1.5-0.4-2.8-1.2-3.9c-0.8-1.1-1.8-1.8-3-2.2c-0.8-0.2-2.3-0.3-4.5-0.3h-9.3V244.7z M553.9,263.8v-26.4h4v4c1-1.9,2-3.1,2.8-3.7
	c0.9-0.6,1.8-0.9,2.9-0.9c1.5,0,3,0.5,4.6,1.4l-1.5,4.2c-1.1-0.6-2.2-1-3.3-1c-1,0-1.9,0.3-2.6,0.9c-0.8,0.6-1.3,1.4-1.7,2.4
	c-0.5,1.6-0.7,3.3-0.7,5.2v13.8h-4.5V263.8z M569.3,250.6c0-4.9,1.4-8.5,4.1-10.9c2.3-2,5-2.9,8.3-2.9c3.6,0,6.6,1.2,8.9,3.6
	c2.3,2.4,3.5,5.7,3.5,9.8c0,3.4-0.5,6.1-1.5,8s-2.5,3.4-4.5,4.5c-1.9,1.1-4.1,1.6-6.4,1.6c-3.7,0-6.7-1.2-9-3.6
	C570.4,258.4,569.3,255,569.3,250.6z M573.9,250.6c0,3.4,0.7,5.9,2.2,7.6s3.3,2.5,5.6,2.5c2.2,0,4.1-0.8,5.5-2.5
	c1.5-1.7,2.2-4.3,2.2-7.7c0-3.3-0.7-5.7-2.2-7.4s-3.3-2.5-5.5-2.5s-4.1,0.8-5.6,2.5C574.6,244.7,573.9,247.2,573.9,250.6z
	 M609.1,259.8l0.6,4c-1.3,0.3-2.4,0.4-3.4,0.4c-1.6,0-2.9-0.3-3.8-0.8c-0.9-0.5-1.5-1.2-1.9-2s-0.5-2.6-0.5-5.3v-15.2h-3.3v-3.5h3.3
	v-6.5l4.5-2.7v9.2h4.5v3.5h-4.5v15.4c0,1.3,0.1,2.1,0.2,2.5c0.2,0.4,0.4,0.7,0.8,0.9c0.4,0.2,0.9,0.3,1.5,0.3
	C607.6,259.9,608.2,259.9,609.1,259.8z M631.5,255.3l4.6,0.6c-0.7,2.7-2.1,4.8-4.1,6.3s-4.5,2.2-7.6,2.2c-3.9,0-6.9-1.2-9.2-3.6
	s-3.4-5.7-3.4-10c0-4.4,1.1-7.9,3.4-10.3c2.3-2.5,5.3-3.7,8.9-3.7c3.5,0,6.4,1.2,8.7,3.6c2.2,2.4,3.4,5.8,3.4,10.1
	c0,0.3,0,0.7,0,1.2h-19.7c0.2,2.9,1,5.1,2.5,6.7c1.5,1.5,3.3,2.3,5.5,2.3c1.6,0,3-0.4,4.2-1.3C629.9,258.5,630.9,257.2,631.5,255.3z
	 M616.8,248h14.7c-0.2-2.2-0.8-3.9-1.7-5c-1.4-1.7-3.3-2.6-5.5-2.6c-2.1,0-3.8,0.7-5.2,2.1C617.8,243.9,617,245.7,616.8,248z
	 M659,254.1l4.4,0.6c-0.5,3-1.7,5.4-3.7,7.1s-4.4,2.6-7.3,2.6c-3.6,0-6.5-1.2-8.7-3.5c-2.2-2.4-3.3-5.8-3.3-10.2
	c0-2.9,0.5-5.3,1.4-7.5c0.9-2.1,2.4-3.7,4.3-4.8c1.9-1.1,4-1.6,6.3-1.6c2.9,0,5.2,0.7,7,2.2c1.8,1.4,3,3.5,3.5,6.2l-4.4,0.7
	c-0.4-1.8-1.2-3.1-2.2-4s-2.3-1.3-3.8-1.3c-2.3,0-4.1,0.8-5.5,2.4c-1.4,1.6-2.1,4.2-2.1,7.7s0.7,6.1,2,7.7c1.4,1.6,3.1,2.4,5.3,2.4
	c1.8,0,3.2-0.5,4.4-1.6C658,258,658.7,256.3,659,254.1z M677,259.8l0.6,4c-1.3,0.3-2.4,0.4-3.4,0.4c-1.6,0-2.9-0.3-3.8-0.8
	c-0.9-0.5-1.5-1.2-1.9-2s-0.5-2.6-0.5-5.3v-15.2h-3.3v-3.5h3.3v-6.5l4.5-2.7v9.2h4.5v3.5h-4.5v15.4c0,1.3,0.1,2.1,0.2,2.5
	c0.2,0.4,0.4,0.7,0.8,0.9c0.4,0.2,0.9,0.3,1.5,0.3C675.6,259.9,676.2,259.9,677,259.8z M681.5,232.5v-5.1h4.5v5.1H681.5z
	 M681.5,263.8v-26.4h4.5v26.4H681.5z M692.8,263.8v-26.4h4v3.8c1.9-2.9,4.7-4.4,8.4-4.4c1.6,0,3.1,0.3,4.4,0.9
	c1.3,0.6,2.3,1.3,3,2.2s1.1,2,1.4,3.3c0.2,0.8,0.2,2.3,0.2,4.4v16.2h-4.5v-16.1c0-1.8-0.2-3.2-0.5-4.1c-0.3-0.9-1-1.6-1.9-2.2
	c-0.9-0.5-1.9-0.8-3.1-0.8c-1.9,0-3.6,0.6-4.9,1.8c-1.4,1.2-2.1,3.5-2.1,6.9v14.4h-4.4L692.8,263.8L692.8,263.8z M720.3,266l4.3,0.6
	c0.2,1.3,0.7,2.3,1.5,2.9c1.1,0.8,2.6,1.2,4.6,1.2c2.1,0,3.7-0.4,4.8-1.2c1.1-0.8,1.9-2,2.3-3.5c0.2-0.9,0.3-2.8,0.3-5.7
	c-2,2.3-4.4,3.5-7.3,3.5c-3.6,0-6.4-1.3-8.4-3.9s-3-5.8-3-9.4c0-2.5,0.5-4.8,1.4-7c0.9-2.1,2.2-3.8,3.9-4.9c1.7-1.2,3.8-1.7,6.1-1.7
	c3.1,0,5.7,1.3,7.7,3.8v-3.2h4.1v22.8c0,4.1-0.4,7-1.3,8.7c-0.8,1.7-2.2,3.1-4,4.1s-4,1.5-6.7,1.5c-3.2,0-5.7-0.7-7.6-2.1
	C721.2,270.9,720.2,268.8,720.3,266z M724,250.1c0,3.5,0.7,6,2.1,7.6c1.4,1.6,3.1,2.4,5.2,2.4c2.1,0,3.8-0.8,5.2-2.4
	s2.1-4.1,2.1-7.5c0-3.2-0.7-5.7-2.2-7.3c-1.4-1.6-3.2-2.5-5.2-2.5s-3.7,0.8-5.1,2.4C724.7,244.5,724,246.9,724,250.1z M773.5,263.8
	v-15.4l-14-21h5.9l7.2,11c1.3,2.1,2.6,4.1,3.7,6.2c1.1-1.9,2.4-4.1,4-6.4l7.1-10.7h5.6l-14.5,21v15.4h-5V263.8z M790.3,250.6
	c0-4.9,1.4-8.5,4.1-10.9c2.3-2,5-2.9,8.3-2.9c3.6,0,6.6,1.2,8.9,3.6c2.3,2.4,3.5,5.7,3.5,9.8c0,3.4-0.5,6.1-1.5,8s-2.5,3.4-4.5,4.5
	c-1.9,1.1-4.1,1.6-6.4,1.6c-3.7,0-6.7-1.2-9-3.6C791.5,258.4,790.3,255,790.3,250.6z M794.9,250.6c0,3.4,0.7,5.9,2.2,7.6
	s3.3,2.5,5.6,2.5c2.2,0,4.1-0.8,5.5-2.5c1.5-1.7,2.2-4.3,2.2-7.7c0-3.3-0.7-5.7-2.2-7.4s-3.3-2.5-5.5-2.5s-4.1,0.8-5.6,2.5
	C795.7,244.7,794.9,247.2,794.9,250.6z M837.6,263.8v-3.9c-2.1,3-4.8,4.5-8.4,4.5c-1.6,0-3-0.3-4.4-0.9c-1.3-0.6-2.3-1.3-3-2.2
	c-0.6-0.9-1.1-2-1.4-3.3c-0.2-0.9-0.3-2.3-0.3-4.2v-16.4h4.5V252c0,2.3,0.1,3.9,0.3,4.7c0.3,1.2,0.9,2.1,1.8,2.8c0.9,0.7,2,1,3.4,1
	c1.3,0,2.6-0.3,3.8-1s2-1.6,2.5-2.8c0.5-1.2,0.7-2.9,0.7-5.2v-14.1h4.5v26.4L837.6,263.8L837.6,263.8z M848.6,263.8v-26.4h4v4
	c1-1.9,2-3.1,2.8-3.7c0.9-0.6,1.8-0.9,2.9-0.9c1.5,0,3,0.5,4.6,1.4l-1.5,4.2c-1.1-0.6-2.2-1-3.3-1c-1,0-1.9,0.3-2.6,0.9
	c-0.8,0.6-1.3,1.4-1.7,2.4c-0.5,1.6-0.7,3.3-0.7,5.2v13.8h-4.5V263.8z M880.4,263.8v-36.5H893c2.8,0,5,0.2,6.5,0.5
	c2.1,0.5,3.9,1.4,5.3,2.6c1.9,1.6,3.4,3.7,4.3,6.2c1,2.5,1.4,5.4,1.4,8.7c0,2.8-0.3,5.2-1,7.4c-0.6,2.1-1.5,3.9-2.5,5.3
	s-2.1,2.5-3.3,3.3s-2.6,1.4-4.3,1.8s-3.6,0.6-5.8,0.6h-13.2V263.8z M885.2,259.5h7.8c2.4,0,4.3-0.2,5.6-0.7c1.4-0.4,2.5-1.1,3.3-1.9
	c1.1-1.1,2-2.7,2.7-4.6c0.6-1.9,1-4.3,1-7c0-3.8-0.6-6.7-1.9-8.8c-1.2-2.1-2.8-3.4-4.6-4.1c-1.3-0.5-3.4-0.7-6.2-0.7h-7.7
	L885.2,259.5L885.2,259.5z M916.6,232.5v-5.1h4.5v5.1H916.6z M916.6,263.8v-26.4h4.5v26.4H916.6z M927.1,266l4.3,0.6
	c0.2,1.3,0.7,2.3,1.5,2.9c1.1,0.8,2.6,1.2,4.6,1.2c2.1,0,3.7-0.4,4.8-1.2c1.1-0.8,1.9-2,2.3-3.5c0.2-0.9,0.3-2.8,0.3-5.7
	c-2,2.3-4.4,3.5-7.3,3.5c-3.6,0-6.4-1.3-8.4-3.9s-3-5.8-3-9.4c0-2.5,0.5-4.8,1.4-7c0.9-2.1,2.2-3.8,3.9-4.9c1.7-1.2,3.8-1.7,6.1-1.7
	c3.1,0,5.7,1.3,7.7,3.8v-3.2h4.1v22.8c0,4.1-0.4,7-1.3,8.7c-0.8,1.7-2.2,3.1-4,4.1s-4,1.5-6.7,1.5c-3.2,0-5.7-0.7-7.6-2.1
	C928,270.9,927.1,268.8,927.1,266z M930.8,250.1c0,3.5,0.7,6,2.1,7.6c1.4,1.6,3.1,2.4,5.2,2.4c2.1,0,3.8-0.8,5.2-2.4
	s2.1-4.1,2.1-7.5c0-3.2-0.7-5.7-2.2-7.3c-1.4-1.6-3.2-2.5-5.2-2.5s-3.7,0.8-5.1,2.4C931.5,244.5,930.8,246.9,930.8,250.1z
	 M956.3,232.5v-5.1h4.5v5.1H956.3z M956.3,263.8v-26.4h4.5v26.4H956.3z M977.4,259.8l0.6,4c-1.3,0.3-2.4,0.4-3.4,0.4
	c-1.6,0-2.9-0.3-3.8-0.8c-0.9-0.5-1.5-1.2-1.9-2s-0.5-2.6-0.5-5.3v-15.2h-3.3v-3.5h3.3v-6.5l4.5-2.7v9.2h4.5v3.5h-4.5v15.4
	c0,1.3,0.1,2.1,0.2,2.5c0.2,0.4,0.4,0.7,0.8,0.9c0.4,0.2,0.9,0.3,1.5,0.3C975.9,259.9,976.6,259.9,977.4,259.8z M999,260.5
	c-1.7,1.4-3.3,2.4-4.8,3s-3.2,0.9-4.9,0.9c-2.9,0-5.1-0.7-6.7-2.1c-1.6-1.4-2.3-3.2-2.3-5.4c0-1.3,0.3-2.5,0.9-3.5
	c0.6-1.1,1.4-1.9,2.3-2.6c1-0.6,2-1.1,3.2-1.5c0.9-0.2,2.2-0.5,4-0.7c3.6-0.4,6.3-0.9,8-1.5c0-0.6,0-1,0-1.2c0-1.8-0.4-3.1-1.3-3.9
	c-1.1-1-2.8-1.5-5.1-1.5c-2.1,0-3.7,0.4-4.7,1.1c-1,0.7-1.7,2-2.2,3.9l-4.4-0.6c0.4-1.9,1.1-3.4,2-4.5c0.9-1.2,2.2-2,4-2.7
	c1.7-0.6,3.7-0.9,6-0.9s4.1,0.3,5.5,0.8s2.4,1.2,3.1,2c0.7,0.8,1.1,1.8,1.4,3c0.1,0.8,0.2,2.1,0.2,4.1v6c0,4.2,0.1,6.8,0.3,7.9
	s0.6,2.1,1.1,3.2h-4.7C999.5,262.8,999.2,261.8,999,260.5z M998.7,250.5c-1.6,0.7-4.1,1.2-7.3,1.7c-1.8,0.3-3.1,0.6-3.9,0.9
	c-0.8,0.3-1.3,0.8-1.8,1.5c-0.4,0.6-0.6,1.3-0.6,2.1c0,1.2,0.4,2.2,1.3,3c0.9,0.8,2.2,1.2,4,1.2c1.7,0,3.3-0.4,4.6-1.1
	c1.3-0.8,2.3-1.8,3-3.1c0.5-1,0.7-2.5,0.7-4.5V250.5z M1010,263.8v-36.5h4.5v36.5H1010z M1042.6,263.8l-9.7-36.5h4.9l5.5,23.9
	c0.6,2.5,1.1,5,1.5,7.5c0.9-3.9,1.5-6.1,1.6-6.7l6.9-24.6h5.8l5.2,18.4c1.3,4.6,2.3,8.9,2.8,12.9c0.5-2.3,1.1-4.9,1.8-7.9l5.7-23.4
	h4.8l-10,36.5h-4.7l-7.7-27.8c-0.6-2.3-1-3.7-1.1-4.3c-0.4,1.7-0.7,3.1-1.1,4.3l-7.7,27.8L1042.6,263.8L1042.6,263.8z M1081.1,250.6
	c0-4.9,1.4-8.5,4.1-10.9c2.3-2,5-2.9,8.3-2.9c3.6,0,6.6,1.2,8.9,3.6c2.3,2.4,3.5,5.7,3.5,9.8c0,3.4-0.5,6.1-1.5,8s-2.5,3.4-4.4,4.5
	s-4.1,1.6-6.4,1.6c-3.7,0-6.7-1.2-9-3.6C1082.3,258.4,1081.1,255,1081.1,250.6z M1085.7,250.6c0,3.4,0.7,5.9,2.2,7.6
	s3.3,2.5,5.6,2.5c2.2,0,4.1-0.8,5.5-2.5c1.5-1.7,2.2-4.3,2.2-7.7c0-3.3-0.7-5.7-2.2-7.4s-3.3-2.5-5.5-2.5s-4.1,0.8-5.6,2.5
	C1086.5,244.7,1085.7,247.2,1085.7,250.6z M1111.1,263.8v-26.4h4v4c1-1.9,2-3.1,2.8-3.7c0.9-0.6,1.8-0.9,2.9-0.9
	c1.5,0,3,0.5,4.6,1.4l-1.5,4.2c-1.1-0.6-2.2-1-3.3-1c-1,0-1.9,0.3-2.6,0.9c-0.8,0.6-1.3,1.4-1.7,2.4c-0.5,1.6-0.7,3.3-0.7,5.2v13.8
	h-4.5L1111.1,263.8L1111.1,263.8z M1128,263.8v-36.5h4.5v36.5H1128z M1156.6,263.8v-3.3c-1.7,2.6-4.1,3.9-7.4,3.9
	c-2.1,0-4-0.6-5.8-1.7c-1.8-1.2-3.1-2.8-4.1-4.8c-1-2.1-1.4-4.5-1.4-7.2c0-2.6,0.4-5,1.3-7.2s2.2-3.8,4-4.9c1.8-1.1,3.7-1.7,5.9-1.7
	c1.6,0,3,0.3,4.2,1s2.3,1.5,3,2.6v-13.1h4.5v36.5h-4.2V263.8z M1142.4,250.6c0,3.4,0.7,5.9,2.1,7.6s3.1,2.5,5,2.5c2,0,3.6-0.8,5-2.4
	s2.1-4.1,2.1-7.3c0-3.6-0.7-6.3-2.1-8s-3.1-2.5-5.1-2.5s-3.7,0.8-5,2.4S1142.4,247.1,1142.4,250.6z"/>
<g>
	<path class="st1" d="M646,137.8c8.8-16.7,14.3-36.9,17.7-61.3h9.2V58.4h-43.6c2.1-8.7,3.8-17.7,5.2-27l-19.8-2.8
		c-3.9,29.2-11.9,57.3-25.6,74c4.4,3.3,12.4,10.3,15.5,13.9c2.7-3.6,5.2-7.5,7.6-11.8c3,11.7,6.6,22.6,11,32.4
		c-7.2,10.1-16.6,18.3-28.8,24.6c-3.9-2.8-8.5-5.7-13.6-8.6c3.9-6.4,6.7-14.1,8.6-23.4h12.7V114h-38.9c1.3-2.7,2.6-5.3,3.8-7.8
		l-7.6-1.6h11v-20c6.4,5.1,13.3,10.9,17,14.5L598,85.6c-3.5-2.4-15.5-9.5-23.5-13.9h27.2V56.4H586c4.1-5,9.1-12.1,14.2-19.1
		l-16.5-6.5c-2.6,6.2-7.2,15-10.9,20.7l10.8,4.9h-13.1V28.6h-18v27.8h-13.6l10.5-4.6c-1.5-5.9-5.6-14.2-10-20.4l-14,5.9
		c3.6,6,7,13.5,8.5,19.1h-12.4v15.4H547c-7.8,8.4-18.8,16.3-29,20.4c3.6,3.6,7.8,10.1,10.1,14.4c8.1-4.5,16.8-11.3,24.3-18.8v15.3
		l-3.6-0.8c-1.7,3.7-3.6,7.7-5.6,11.8h-23.8v15.7h15.8c-4.2,7.9-8.4,15.3-11.9,21.1l17.2,5.2c0.6-1,1.2-2,1.8-3.1
		c3.1,1.4,6.1,2.8,9.2,4.3c-7.8,4.5-18.1,7.2-31.4,8.9c3.3,3.9,6.9,10.8,8,16.2c17.5-3.5,30.6-8.3,40.3-15.6
		c6.7,4.2,12.6,8.4,17,12.3l7.3-7.5c2.6,4,5.2,8.4,6.4,11.3c14.2-7.2,25.6-16,34.6-26.8c7.3,10.6,16.3,19.3,27.5,26
		c2.9-5.4,9.1-13.2,13.7-17.2C663,158.7,653.5,149.4,646,137.8z M555.3,129.7h15.8c-1.5,5.8-3.5,10.8-6.2,15
		c-4.7-2.3-9.5-4.4-14.3-6.3C552.1,135.6,553.7,132.7,555.3,129.7z M624.7,76.5h18.9c-1.8,14.5-4.6,27.3-8.8,38.5
		C630.3,103.3,627,90.2,624.7,76.5z"/>
	<path class="st1" d="M802,82.9h28.6V35.3h-71.1h-10h-9.1v50.2c0,25.6-1.3,61.4-17.6,85.8c4.4,2,12.6,8,16,11.3
		c12.6-18.4,17.7-44.9,19.7-68.8h25.1v15.7h-26.1v52.8h16.8v-4.7h39.5v4.4h17.6v-52.4H802v-15.7h33.2V97.2H802V82.9z M813.7,161.9
		h-39.5v-16.3h39.5V161.9z M812,52v14.2h-52.4V52H812z M759.3,97.2c0.1-4.1,0.2-8.1,0.2-11.8v-2.6h24v14.4H759.3z"/>
	<path class="st1" d="M736.2,115.9l-2.6-17.6c-4.8,1.3-9.6,2.6-14.4,3.9V77.8h16.5v-18h-16.5V28.9h-17.8v30.9H684v18h17.3v29
		c-7.4,1.9-14.2,3.5-19.8,4.8l4.2,18.9c4.8-1.4,10.1-2.9,15.5-4.5v33.1c0,2.3-0.8,2.9-2.8,2.9s-7.7,0-13.6-0.2
		c2.3,5.2,4.6,13.2,5.1,18.1c10.5,0,17.6-0.7,22.5-3.8c5.1-2.9,6.5-8,6.5-17v-38.4C724.8,119.2,730.5,117.5,736.2,115.9z"/>
	<polygon class="st1" points="873.5,61.5 972.4,61.5 972.4,82 993.3,82 993.3,43.3 933.2,43.3 933.2,28.6 912.3,28.6 912.3,43.3 
		853.6,43.3 853.6,82 873.5,82 	"/>
	<path class="st1" d="M927,69.8l-20.6-4.4C903,73,899,81.3,894.8,89.7h-44.5v18.5h35c-7,13.2-14,25.8-19.8,35.3l20.6,5.6
		c1-1.7,2-3.5,3.1-5.4c6.9,2.3,14,4.8,21.1,7.6c-14.7,7-33.5,10.9-56.3,13.2c3.6,4.4,9.3,13.2,11.1,18c27.6-4,50-10.5,67.2-22.1
		c16.6,7.3,31.6,15,41.6,21.6l15.9-16c-10.4-6.4-25.1-13.4-41-19.8c8.8-9.9,15.6-22.3,20.3-37.8h27.2V89.7h-78.9
		C920.7,82.9,924,76.2,927,69.8z M946.2,108.2c-3.4,12.6-9.2,22.5-17.2,30.2c-10.8-3.9-21.5-7.5-31.4-10.3c3.4-6.3,6.9-13,10.4-19.9
		C908,108.2,946.2,108.2,946.2,108.2z"/>
	<path class="st1" d="M1097.5,141.3V77.8h-50.7h-10.9h-8.2v76.1h19.1v-12.6L1097.5,141.3L1097.5,141.3z M1078.1,96.4v26.3h-31.2
		V96.4H1078.1z"/>
	<path class="st1" d="M1160.7,39.7h-148v19.8h108.5V157c0,3.4-1.3,4.6-5.2,4.7c-3.9,0-18.1,0.2-29.9-0.7c3.1,5.4,7,15,8.2,20.9
		c16.8,0,28.8-0.3,36.9-3.8c7.8-3.1,10.6-9,10.6-20.7v-98h18.9V39.7z"/>
</g>
<path class="st2" d="M372.6,70.5c-25.3-35.1-66.5-58-113-58c-76.8,0-139.1,62.3-139.1,139.1s62.3,139.1,139.1,139.1
	c34.8,0,66.6-12.7,90.9-33.8c-27.1,26.6-64.2,43-105.1,43c-82.8,0-150-67.2-150-150S162.5,0,245.4,0C299,0,346.1,28.2,372.6,70.5z"
	/>
<path class="st2" d="M162.2,88.3c19.7-27.3,51.7-45.1,87.9-45.1c59.8,0,108.3,48.5,108.3,108.3s-48.5,108.3-108.3,108.3
	c-27.1,0-51.8-9.9-70.8-26.3c21.1,20.7,49.9,33.5,81.8,33.5c64.5,0,116.7-52.3,116.7-116.7c0-64.5-52.3-116.7-116.7-116.7
	C219.5,33.4,182.9,55.3,162.2,88.3z"/>
<path class="st2" d="M264.7,82.3c-1.4-9.1-9.2-16.1-18.8-16.1c-10.5,0-19,8.5-19,19s8.5,19,19,19c3,0,5.9-0.7,8.4-2L273,127
	c-3.4,3-5.5,7.4-5.5,12.3L213,148c-3.9-5.2-10-8.5-17-8.5c-8.4,0-15.7,5-19.1,12.1c-78.2-8.8-129.7-20.7-129.7-41.7
	c0-12.8,21.7-19.4,53.9-28.7c4.5-1.3,9.2-2.2,14.1-3.7C43.7,93.6,0,115.2,0,139.1c0,34.7,91.7,66,227.2,81c2.7,4.7,7.7,7.8,13.4,7.8
	c8.6,0,15.5-6.9,15.5-15.5s-6.9-15.5-15.5-15.5c-2.4,0-4.6,0.5-6.6,1.5l-22-23.8c3.2-3.7,5.2-8.5,5.2-13.8c0-2.8-0.6-5.5-1.6-8
	l52.6-8.4c2.1,7,8.5,12,16.1,12c5.8,0,10.9-2.9,14-7.4c77.4,8.8,128.2,20.6,128.2,41.5c0,12.8-21.7,19.4-53.9,28.7
	c-4.5,1.2-9.2,2.1-14,3.6c71.4-16.1,115.2-37.7,115.2-61.5C473.8,128.1,390.2,98,264.7,82.3z M196,150.1c5.9,0,10.6,4.7,10.6,10.6
	c0,5.9-4.7,10.6-10.6,10.6c-5.8,0-10.6-4.7-10.6-10.6S190.1,150.1,196,150.1z M229.9,201.2c-0.9,0.8-1.6,1.7-2.3,2.7
	C97.4,190.7,8.5,166.5,8.5,135.6c0-11.4,13.8-23.8,37.3-35c-3.9,3.2-6,6.8-6,11.3c-0.1,23.6,54.8,43.2,135.5,53.4
	c2.1,9.5,10.6,16.6,20.7,16.6c4.6,0,8.9-1.5,12.3-4L229.9,201.2z M284.3,146.6c-3.9,0-7-3.2-7.1-7.1c0-3.9,3.2-7.1,7.1-7.1
	s7.1,3.2,7.1,7.1S288.2,146.6,284.3,146.6z M428,199.7c3.9-3.2,6-6.8,6-11.3c0-23.3-53.9-42.8-133.5-53.1
	c-1.9-7.2-8.4-12.6-16.2-12.6c-2.5,0-4.9,0.6-7.1,1.6l-18.8-24.8c0.6-0.5,1.1-1,1.6-1.6c122.6,13.5,205.2,37.1,205.2,66.9
	C465.3,176.1,451.5,188.5,428,199.7z"/>
</svg>
