<?xml version="1.0" encoding="utf-8"?>
<!-- Generator: Adobe Illustrator 24.3.0, SVG Export Plug-In . SVG Version: 6.00 Build 0)  -->
<svg version="1.1" id="图层_1" xmlns="http://www.w3.org/2000/svg" xmlns:xlink="http://www.w3.org/1999/xlink" x="0px" y="0px"
	 viewBox="0 0 64 64" style="enable-background:new 0 0 64 64;" xml:space="preserve">
<style type="text/css">
	.st0{fill:#AA1F24;}
</style>
<g>
	<path class="st0" d="M9.1,4.1C7.7,14.6,7.2,25,9.7,35.4c1.6,6.5,4.4,12.2,10,16.3c6.5,4.8,13.8,7.3,21.8,8
		c5.5,0.4,10.9,0.8,16.5,1.5c-2.2,0.5-4.3,1.1-6.5,1.5c-8.7,1.7-17.3,2.1-25.9-0.4C12.4,58.4,4.2,48.7,2.9,35.2
		c-0.8-8,0.5-15.9,3.2-23.4C7.1,9.2,8.1,6.6,9.1,4.1z"/>
	<path class="st0" d="M58.7,35.5c-1-4.3-2.5-8.4-4.7-12.2c-3.1-5.4-7.5-8.3-13.8-8.6c-5.7-0.3-11.3-1-17-1.7c-2-0.3-3.9-0.9-5.8-1.7
		C12.7,9.2,11.1,5,13,0c1.7,5.1,5.9,6.5,10.5,7.2c4.9,0.8,9.7,0.1,14.6-0.3c8.8-0.8,16.1,3.5,19.7,11.6c2.2,5,2.9,10.3,1.4,15.6
		C59,34.6,58.8,35.1,58.7,35.5z"/>
	<path class="st0" d="M18,24.1c4.5,8.3,11.9,9.3,20.1,8.8c2.7-0.2,5.4-0.6,8-0.5c6.1,0.3,10.3,3.6,12.9,9.1
		c2.5,5.3,2.8,10.8,1.8,16.5c0,0.2-0.1,0.5-0.2,0.7c0,0.1-0.1,0.1-0.3,0.3c-0.3-1.5-0.4-2.9-0.8-4.2c-0.8-2.4-1.7-4.9-2.9-7.2
		c-2.5-4.6-6.6-6.8-11.7-7.4c-5-0.6-9.9-1.2-14.9-2.1c-2.2-0.4-4.3-1.1-6.3-2.1C18.8,33.8,16.9,29.7,18,24.1z"/>
</g>
</svg>
