<?xml version="1.0" encoding="utf-8"?>
<!-- Generator: Adobe Illustrator 24.3.0, SVG Export Plug-In . SVG Version: 6.00 Build 0)  -->
<svg version="1.1" id="图层_1" xmlns="http://www.w3.org/2000/svg" xmlns:xlink="http://www.w3.org/1999/xlink" x="0px" y="0px"
	 viewBox="0 0 64 64" style="enable-background:new 0 0 64 64;" xml:space="preserve">
<style type="text/css">
	.st0{fill:#AA1F24;}
	.st1{fill:#FFFFFF;}
</style>
<g>
	<circle class="st0" cx="32" cy="32" r="32"/>
	<g>
		<path class="st1" d="M17.9,14.8c-0.8,6.5-1.2,12.9,0.4,19.3c1,4,2.7,7.5,6.1,10c4,2.9,8.5,4.5,13.4,4.9c3.4,0.3,6.7,0.5,10.2,0.9
			c-1.3,0.3-2.6,0.7-4,0.9c-5.3,1-10.7,1.3-15.9-0.2c-8.1-2.4-13.2-8.3-14-16.7c-0.5-4.9,0.3-9.8,2-14.4
			C16.6,17.9,17.3,16.4,17.9,14.8z"/>
		<path class="st1" d="M48.4,34.2c-0.6-2.7-1.5-5.2-2.9-7.5c-1.9-3.3-4.6-5.1-8.5-5.3c-3.5-0.2-7-0.6-10.4-1.1
			c-1.2-0.2-2.4-0.6-3.6-1.1c-3-1.3-4-3.9-2.8-6.9c1,3.1,3.6,4,6.5,4.5c3,0.5,6,0.1,9-0.2c5.4-0.5,9.9,2.2,12.1,7.2
			c1.4,3.1,1.8,6.3,0.9,9.6C48.7,33.6,48.5,33.9,48.4,34.2z"/>
		<path class="st1" d="M23.4,27.1c2.8,5.1,7.4,5.7,12.4,5.4c1.7-0.1,3.3-0.4,5-0.3c3.8,0.2,6.4,2.2,7.9,5.6
			c1.5,3.3,1.7,6.7,1.1,10.2c0,0.1-0.1,0.3-0.1,0.4c0,0-0.1,0.1-0.2,0.2c-0.2-0.9-0.2-1.8-0.5-2.6c-0.5-1.5-1-3-1.8-4.4
			c-1.5-2.8-4-4.2-7.2-4.5c-3.1-0.3-6.1-0.7-9.2-1.3c-1.3-0.2-2.6-0.7-3.9-1.3C23.9,33.1,22.7,30.6,23.4,27.1z"/>
	</g>
</g>
</svg>
