<?xml version="1.0" encoding="utf-8"?>
<!-- Generator: Adobe Illustrator 24.0.1, SVG Export Plug-In . SVG Version: 6.00 Build 0)  -->
<svg version="1.1" id="图层_1" xmlns="http://www.w3.org/2000/svg" xmlns:xlink="http://www.w3.org/1999/xlink" x="0px" y="0px"
	 viewBox="0 0 1024 1024" style="enable-background:new 0 0 1024 1024;" xml:space="preserve">
<style type="text/css">
	.st0{fill:#00744A;}
</style>
<path class="st0" d="M494.5,556.7l-8.3,44.3H316.4l8.3-44.3H494.5z M268.6,601.7H99.2l8.3-45.1h169.3L268.6,601.7z M593,287.8
	l24.8-134.7h354.5L989.3,64H587.2l-24.8,133.9H344.2L294,466.8H76.8L34.7,691.4h216.8L201.1,960h456.1l50.7-268.5h163l16.7-89.5
	l-211.3-0.3l-50.5,268.9H265.6l8-44.3h312.7l50.8-269.7L896,557l17.3-89.5l-306.4-0.2l-50.6,268.8H290.6l8.3-45.1l218.1,0.8
	l42.2-224.5l-217.6-0.5l8.3-45h312.7l25.8-134.2l258.3-0.3l17-89.8l-305.9,0.5L632,332.4H366.8l8.3-44.6H593z"/>
</svg>
