<?xml version="1.0" encoding="utf-8"?>
<!-- Generator: Adobe Illustrator 24.0.1, SVG Export Plug-In . SVG Version: 6.00 Build 0)  -->
<svg version="1.1" id="图层_1" xmlns="http://www.w3.org/2000/svg" xmlns:xlink="http://www.w3.org/1999/xlink" x="0px" y="0px"
	 viewBox="0 0 6210 1024" style="enable-background:new 0 0 6210 1024;" xml:space="preserve">
<style type="text/css">
	.st0{fill:#00744A;}
	.st1{fill:#231815;}
</style>
<g>
	<path class="st0" d="M523.4,556.7l-8.3,44.3H345.3l8.3-44.3H523.4z M297.5,601.7H128.1l8.3-45.1h169.3L297.5,601.7z M621.9,287.8
		l24.8-134.7h354.5l17.1-89.1H616.1l-24.8,133.9H373.1l-50.2,268.9H105.7L63.6,691.4h216.8L230,960h456.1l50.7-268.5h163l16.7-89.5
		l-211.3-0.3l-50.5,268.9H294.5l8-44.3h312.7l50.8-269.7l258.8,0.3l17.3-89.5l-306.4-0.2l-50.6,268.8H319.5l8.3-45.1l218.1,0.8
		L588,467.3l-217.6-0.5l8.3-45h312.7l25.8-134.2l258.3-0.3l17-89.8l-305.9,0.5l-25.7,134.5H395.7l8.3-44.6H621.9z"/>
	<path class="st1" d="M1253.8,870.4c3.6,0.5,7.2,0.7,10.8,0.7c15.8,0,27.4-3.2,35.1-9.4c7.6-6.3,11.4-15.9,11.4-28.9
		c0-11.7-4-20.5-12-26.5c-7.9-6.1-19.4-9.1-34.5-9.1l-1.9,0.2c-3.5,0.2-5.9,0.9-7,2.1c-1.2,1.4-1.9,3.8-1.9,7.5V870.4z
		 M1228.6,926.4V814.3c0-8.8-1.3-14.6-3.9-17.4c-2.8-2.7-8.5-4.1-17.3-4.1v-4.7h33.9h31.3c20.6,0,36.7,4,48.4,11.8
		c11.6,7.6,17.4,18.5,17.4,31.9c0,16-5.7,28.1-16.8,36.6c-11.3,8.3-27.6,12.5-49.1,12.5c-6.7,0-13-0.2-18.7-0.5v46.1
		c0,8.8,1.5,14.6,4.5,17.2c3.1,2.8,9.6,4.1,19.4,4.4v4.5h-35h-35.4V948c8.8,0,14.6-1.5,17.3-4.4
		C1227.3,941.1,1228.6,935.3,1228.6,926.4"/>
	<path class="st1" d="M1505,926.7c9.2-13.6,13.9-32.2,13.9-56.2c0-23.8-4.7-42.6-13.9-56.2c-9.5-13.5-22.5-20.3-39-20.3
		c-16.4,0-29.3,6.8-38.7,20.3c-9.5,13.6-14,32.4-14,56.2c0,24,4.6,42.6,14,56.2c9.4,13.6,22.3,20.5,38.7,20.5
		C1482.5,947.2,1495.5,940.3,1505,926.7 M1407.7,932.2c-15.4-16.2-22.8-36.6-22.8-61.7c0-25,7.5-45.4,22.8-61.6
		c15.2-16,34.7-24,58.3-24c23.7,0,43.4,8,58.5,24c15.3,16.1,22.9,36.6,22.9,61.6c0,25.1-7.5,45.5-22.9,61.7
		c-15.2,16-34.8,23.9-58.5,23.9C1442.3,956.1,1422.9,948.2,1407.7,932.2"/>
	<path class="st1" d="M1701.2,837.7c-2.8-12.4-8.6-22.7-17.3-30.7c-8.8-8.1-18.6-12.1-29.4-12.1c-7.3,0-13.3,2.2-18.1,6.7
		c-4.7,4.3-7,10-7,16.7c0,6.6,2.1,12.4,6.4,17.4c4.4,4.9,12.5,10.8,24.5,17.6c20.3,11.7,34.1,21.5,41.3,29.5
		c7.3,8,10.8,17.2,10.8,28.1c0,13.3-4.9,24.1-14.7,32.6c-9.8,8.6-22.3,12.8-37.6,12.8c-9.9,0-20.8-2.5-32.8-7.3
		c-3.7-1.5-6.8-1.7-9.3-0.5c-2.5,1.2-3.9,3.2-4.2,6.3v1.5h-5.3l-7.7-52.8h5.9c5.1,14.2,11.9,25,20.7,32.7
		c8.7,7.3,18.8,11.1,30.4,11.1c8.6,0,15.5-2.6,21-7.8c5.6-5.2,8.3-11.8,8.3-20c0-7.7-2.5-14.7-7.9-20.5c-5.1-6-14.8-12.9-29-20.9
		c-16.5-9.5-27.6-17.7-33.5-24.7c-5.8-7.1-8.6-15.7-8.6-26.3c0-12.3,4.2-22.2,12.6-30.2c8.3-7.8,19-11.9,32.1-11.9
		c8,0,17.3,2.3,28.1,6.9c4,1.9,7.4,2.2,10,1.1c2.7-0.8,4.3-3,5.4-6.4l0.3-1.6h5l5.9,52.9H1701.2z"/>
	<path class="st1" d="M1826.7,926.4V798.6h-13.5c-13.9,0-23.5,2-28.3,6.1c-5,4-8.7,12.7-11,25.9h-6l0.6-21.2l0.8-21.3h69.9h70.1
		l0.6,21.3l0.8,21.2h-5.9c-2.3-13.2-6.1-21.9-11-25.9c-5-4.1-14.5-6.1-28.6-6.1H1852v127.8c0,8.8,1.4,14.6,4.4,17.2
		c3,2.8,9.3,4.1,19.1,4.4v4.5h-36.1h-36.3V948c9.8-0.2,16-1.7,19.1-4.4C1825.2,941.1,1826.7,935.3,1826.7,926.4"/>
	<path class="st1" d="M2003.5,888.8h57l-28.4-68h-0.1L2003.5,888.8z M1976.2,926.4l60.3-141.6h2.4h2.5l61.2,141.6
		c4,8.8,7.6,14.6,10.3,17.2c3,2.8,7,4.4,12.3,4.4v4.5h-31.8h-31.7V948c9.9-0.2,15.7-1.5,17.6-4.4c1.8-2.6,0.7-8.4-3-17.1l-11.3-27.2
		H1999l-7.4,18.6c-5,12.3-6.9,20.4-5.4,24.2c1.5,3.7,7.3,5.6,17.5,5.8v4.5h-25h-25V948c5.3,0,9.4-1.5,12.1-4.4
		C1968.7,941.1,1972.3,935.3,1976.2,926.4"/>
	<path class="st1" d="M2167.3,952.5V948c9-0.2,14.8-1.5,17.6-4.4c2.7-2.6,4.2-8.4,4.2-17.2V814.3c0-8.8-1.5-14.7-4.2-17.3
		c-2.8-2.8-8.6-4.1-17.6-4.3v-4.7h35.3h35.6v4.7c-9.9,0.1-16.4,1.5-19.4,4.3c-3,2.7-4.5,8.5-4.5,17.3v117.4c0,4.5,0.8,7.5,2.4,9
		c1.4,1.7,4.5,2.3,9.2,2.3h17.3c20,0,34-2.2,42-6.3c7.9-4.5,14.8-13.7,20.8-27.4h6.9l-5.3,21.6l-5.5,21.5h-87.5H2167.3z"/>
	<path class="st1" d="M2558.2,837.7c-2.7-12.4-8.5-22.7-17.2-30.7c-8.8-8.1-18.5-12.1-29.4-12.1c-7.4,0-13.4,2.2-18.1,6.7
		c-4.7,4.3-7.1,10-7.1,16.7c0,6.6,2.2,12.4,6.6,17.4c4.4,4.9,12.5,10.8,24.4,17.6c20.4,11.7,34.2,21.5,41.3,29.5
		c7.2,8,10.8,17.2,10.8,28.1c0,13.3-5,24.1-14.7,32.6c-9.8,8.6-22.5,12.8-37.6,12.8c-10,0-20.9-2.5-32.9-7.3
		c-3.7-1.5-6.7-1.7-9.1-0.5c-2.5,1.2-3.9,3.2-4.2,6.3l-0.1,1.5h-5.4l-7.6-52.8h5.9c5,14.2,12,25,20.7,32.7
		c8.8,7.3,18.9,11.1,30.4,11.1c8.5,0,15.5-2.6,21-7.8c5.5-5.2,8.3-11.8,8.3-20c0-7.7-2.7-14.7-7.8-20.5c-5.3-6-14.9-12.9-29.1-20.9
		c-16.4-9.5-27.6-17.7-33.4-24.7c-5.8-7.1-8.7-15.7-8.7-26.3c0-12.3,4.3-22.2,12.5-30.2c8.5-7.8,19.1-11.9,32.3-11.9
		c7.9,0,17.3,2.3,28,6.9c4.1,1.9,7.4,2.2,10,1.1c2.7-0.8,4.4-3,5.2-6.4l0.5-1.6h5l5.9,52.9H2558.2z"/>
	<path class="st1" d="M2674.1,888.8h57.1l-28.6-68L2674.1,888.8z M2646.9,926.4l60.3-141.6h2.4h2.5l61.4,141.6
		c3.9,8.8,7.5,14.6,10.2,17.2c2.9,2.8,7,4.4,12.4,4.4v4.5h-31.8h-31.8V948c9.9-0.2,15.7-1.5,17.6-4.4c1.8-2.6,0.9-8.4-3-17.1
		l-11.5-27.2h-65.9l-7.6,18.6c-5.1,12.3-6.7,20.4-5.3,24.2c1.5,3.7,7.3,5.6,17.4,5.8v4.5h-24.9h-24.9V948c5.1,0,9.2-1.5,12.1-4.4
		C2639.4,941.1,2642.9,935.3,2646.9,926.4"/>
	<path class="st1" d="M2863.8,814.3c-4-8.9-7.7-14.7-10.9-17.4c-3.2-2.7-7.8-4.1-14-4.1v-4.7h33h32.9v4.7c-10,0.1-15.8,1.4-17.7,4.2
		c-1.7,2.6-0.7,8.5,3.2,17.3l44.6,103.5h-0.2l36.6-94.8c4.9-12.5,6.3-20.5,4.7-24.3c-1.6-3.8-7.6-5.8-17.8-5.9v-4.7h24.8h25v4.7
		c-5.3,0-9.5,1.4-12.3,4.1c-2.7,2.7-6,8.5-9.7,17.4l-55.7,141.1h-1.9h-2L2863.8,814.3z"/>
	<path class="st1" d="M3077.4,926.4V814.3c0-8.8-1.4-14.6-4.5-17.2c-3-2.9-9.4-4.2-19.4-4.3v-4.7h36.6h36.7v4.7
		c-9.9,0.1-16.5,1.4-19.5,4.3c-2.9,2.6-4.6,8.4-4.6,17.2v112.1c0,8.8,1.6,14.6,4.6,17.2c3,2.8,9.6,4.1,19.5,4.4v4.5h-36.6h-36.7V948
		c9.9-0.2,16.4-1.7,19.4-4.4C3076,941.1,3077.4,935.3,3077.4,926.4"/>
	<path class="st1" d="M3204.5,916.8c0,12.8,1.4,21.2,4.5,25.1c3,4.1,9.4,6,19.4,6.2v4.5h-29.4h-29.3V948c9.9-0.2,16.2-2.1,19.4-6.2
		c3-3.9,4.5-12.3,4.5-25.1V805c-3.4-3.8-6.5-6.4-8.9-8.1c-4.1-2.7-9.2-4.1-15.4-4.1V788h21.6h21.8l94.6,118.6V824
		c0-12.6-1.5-21.1-4.4-25.1c-3-4-9.4-6-19.5-6.1V788h29.5h29.3v4.7c-9.9,0.1-16.4,2.1-19.3,6.1c-3,4-4.5,12.3-4.5,25.1v131.4h-1.9
		h-2l-110-137.7V916.8z"/>
	<path class="st1" d="M3478.3,956.1c-27.3,0-49-7.6-65.2-23.1c-16.2-15.5-24.3-36.2-24.3-62.4c0-25.1,7.9-45.5,23.8-61.7
		c16-16,36.2-24.1,60.9-24.1c11.9,0,25.3,2.5,39.9,7.3c4.2,1.3,7.7,1.4,10.9,0.2c3.1-1.4,5.1-3.6,5.9-7.1l0.2-0.4h4.8l2.3,52.9h-5.8
		c-4-13.6-10.6-24.1-20-31.6c-9.5-7.4-20.9-11.3-34.1-11.3c-18.6,0-33.5,6.7-44.1,20.3c-10.7,13.4-16.1,32.1-16.1,55.7
		c0,23.6,5.6,42.1,17.1,55.5c11.3,13.5,26.9,20.3,46.8,20.3c10.3,0,19.5-2,28-5.6c2.4-1,3.9-2.3,4.9-3.8c0.9-1.5,1.3-3.8,1.3-6.7
		v-39.4c0-8.8-1.3-14.6-4.1-17.2c-2.7-2.8-8.6-4.1-17.3-4.3v-4.7h31.4h31.4v4.7c-7,0-11.7,1.3-13.7,4.1c-2.2,2.8-3.2,8.6-3.2,17.3
		v48.6C3519.7,950.7,3499.3,956.1,3478.3,956.1"/>
	<path class="st1" d="M3705.8,837.7c-3-12.4-8.6-22.7-17.4-30.7c-8.8-8.1-18.6-12.1-29.4-12.1c-7.3,0-13.5,2.2-18.2,6.7
		c-4.6,4.3-7,10-7,16.7c0,6.6,2.2,12.4,6.5,17.4c4.4,4.9,12.5,10.8,24.4,17.6c20.5,11.7,34.3,21.5,41.4,29.5
		c7.2,8,10.7,17.2,10.7,28.1c0,13.3-4.9,24.1-14.7,32.6c-9.8,8.6-22.3,12.8-37.5,12.8c-9.9,0-20.8-2.5-32.9-7.3
		c-3.6-1.5-6.7-1.7-9.2-0.5c-2.5,1.2-3.8,3.2-4.1,6.3l-0.1,1.5h-5.3l-7.6-52.8h5.9c5,14.2,11.9,25,20.6,32.7
		c8.8,7.3,18.9,11.1,30.4,11.1c8.6,0,15.7-2.6,21.1-7.8c5.5-5.2,8.2-11.8,8.2-20c0-7.7-2.6-14.7-7.9-20.5c-5.2-6-14.9-12.9-29-20.9
		c-16.5-9.5-27.5-17.7-33.4-24.7c-5.8-7.1-8.7-15.7-8.7-26.3c0-12.3,4.1-22.2,12.6-30.2c8.3-7.8,19-11.9,32.1-11.9
		c8,0,17.3,2.3,28.1,6.9c4,1.9,7.3,2.2,10,1.1c2.6-0.8,4.3-3,5.2-6.4l0.4-1.6h5l6,52.9H3705.8z"/>
	<path class="st1" d="M3918.5,930.4c0,5,0.8,8.5,2.3,10.1c1.4,1.9,4.5,2.8,9,2.9l4.4,0.1c16.7,0,29-3,37.2-8.8
		c8.1-5.8,12.3-15,12.3-27.1c0-12.1-4.4-21.1-13.2-27.1c-8.8-5.7-22.2-8.7-40.2-8.7h-11.7V930.4z M3918.5,807.8v54.4h22.4
		c12.5,0,21.9-2.5,28-7.7c6.1-5.1,9.2-12.9,9.2-23.6c0-11.3-3.8-19.9-11.2-25.4c-7.5-5.4-18.9-8.3-34.4-8.3l-5.4,0.2
		c-3.5,0.2-5.8,0.9-7,2.3C3919,801.2,3918.5,803.8,3918.5,807.8 M3893.2,926.4V814.3c0-8.8-1.5-14.6-4.5-17.2
		c-3.1-2.9-9.5-4.2-19.4-4.3v-4.7h36.5h32.7c21.6,0,37.7,3.5,48.6,10.3c10.8,6.8,16.2,17,16.2,30.5c0,12.9-4.4,22.7-13.2,29.2
		c-5.3,4-12.3,6.7-20.8,8.1c9.9,1.9,18,4.9,24.5,8.8c12,7.4,18,18.6,18,33.2c0,14.7-5.4,25.8-16.8,33.1
		c-11.3,7.5-28.1,11.1-50.3,11.1h-39h-36.5V948c9.9-0.2,16.3-1.7,19.4-4.4C3891.7,941.1,3893.2,935.3,3893.2,926.4"/>
	<path class="st1" d="M4118.9,888.8h57.1l-28.6-68h0L4118.9,888.8z M4091.6,926.4l60.2-141.6h2.5h2.5l61.2,141.6
		c4,8.8,7.5,14.6,10.4,17.2c2.8,2.8,7,4.4,12.3,4.4v4.5H4209h-31.7V948c9.9-0.2,15.7-1.5,17.4-4.4c1.7-2.6,0.8-8.4-2.9-17.1
		l-11.4-27.2h-66.2l-7.4,18.6c-5.2,12.3-6.9,20.4-5.4,24.2c1.5,3.7,7.3,5.6,17.4,5.8v4.5h-24.7h-25.1V948c5.3,0,9.3-1.5,12.2-4.4
		C4084.1,941.1,4087.5,935.3,4091.6,926.4"/>
	<path class="st1" d="M4317.4,916.8c0,12.8,1.5,21.2,4.5,25.1c3,4.1,9.4,6,19.5,6.2v4.5h-29.3h-29.5V948c9.9-0.2,16.5-2.1,19.4-6.2
		c3.2-3.9,4.6-12.3,4.6-25.1V805c-3.4-3.8-6.5-6.4-8.8-8.1c-4-2.7-9.2-4.1-15.4-4.1V788h21.6h21.6l94.7,118.6V824
		c0-12.6-1.5-21.1-4.5-25.1c-2.9-4-9.4-6-19.4-6.1V788h29.4h29.2v4.7c-9.8,0.1-16.3,2.1-19.4,6.1c-3,4-4.5,12.3-4.5,25.1v131.4h-2
		h-1.9l-110-137.7V916.8z"/>
	<path class="st1" d="M4524.5,926.4V814.3c0-8.8-1.5-14.6-4.3-17.2c-2.9-2.9-8.7-4.2-17.9-4.3v-4.7h35.7h35.7v4.7
		c-10,0.1-16.4,1.4-19.5,4.3c-3,2.6-4.5,8.4-4.5,17.2v52.8l47.6-44.1c11.3-10.3,16.8-18,16.8-22.8c-0.1-4.8-5.7-7.3-17.2-7.4v-4.7
		h32.6h32.6v4.7c-7,0-12.8,1.4-17.8,4.1c-5.1,2.8-12.5,8.6-22.2,17.4l-47,43.2l63.7,68.9c8.2,8.8,14.6,14.6,19,17.2
		c4.4,2.8,9.4,4.4,15.3,4.4v4.5h-37.3h-37.6V948c11.6-0.7,17.6-2.9,17.8-6.5c0.3-3.5-4.7-10.6-15.2-21.6l-43.8-46.1l-7.3,6.8v45.7
		c0,8.8,1.4,14.6,4.5,17.2c3,2.8,9.5,4.1,19.5,4.4v4.5h-35.6h-35.8V948c9.2-0.2,15.1-1.7,17.9-4.4
		C4523,941.1,4524.5,935.3,4524.5,926.4"/>
	<path class="st1" d="M4913.4,926.7c9.5-13.6,14.1-32.2,14.1-56.2c0-23.8-4.6-42.6-14.1-56.2c-9.3-13.5-22.3-20.3-38.8-20.3
		c-16.4,0-29.3,6.8-38.7,20.3c-9.3,13.6-14.1,32.4-14.1,56.2c0,24,4.8,42.6,14.1,56.2c9.4,13.6,22.3,20.5,38.7,20.5
		C4891.1,947.2,4904.1,940.3,4913.4,926.7 M4816.3,932.2c-15.3-16.2-22.9-36.6-22.9-61.7c0-25,7.6-45.4,22.9-61.6
		c15.1-16,34.6-24,58.3-24c23.8,0,43.2,8,58.6,24c15.2,16.1,22.8,36.6,22.8,61.6c0,25.1-7.6,45.5-22.8,61.7
		c-15.3,16-34.8,23.9-58.6,23.9C4850.9,956.1,4831.4,948.2,4816.3,932.2"/>
	<path class="st1" d="M5029.3,926.4V814.3c0-8.8-1.3-14.6-4-17.2c-2.7-2.9-8.6-4.2-17.6-4.3v-4.7h47.2h84.7v18.1l0.8,18.1h-5.8
		c-1.3-11-4.5-18.1-9.5-21.7c-4.9-3.3-14.8-4.9-29.6-4.9h-31.9c-3.5,0-6,0.5-7.1,1.6c-1.2,1.2-1.7,3.5-1.7,7.2v54.4h33.9
		c10.9,0,18.2-1.5,22-4.5c3.7-3,6.1-9.3,7.3-18.9h5.8v28.6v28.7h-5.8c-1.2-9.8-3.7-16-7.3-19.1c-3.9-3-11.2-4.5-22-4.5h-33.9v55.3
		c0,8.8,1.4,14.6,4.5,17.2c3,2.8,9.5,4.1,19.4,4.4v4.5h-35.5h-35.4V948c9-0.2,14.8-1.7,17.6-4.4
		C5028,941.1,5029.3,935.3,5029.3,926.4"/>
	<path class="st1" d="M5419.4,925.1c-9.3,10.5-19.4,18.3-30.5,23.5c-11.1,5-23.2,7.6-36.4,7.6c-25.5,0-45.9-7.6-60.8-23.1
		c-15.2-15.5-22.8-36.2-22.8-62.4c0-25.1,8-45.5,23.8-61.7c15.8-16,35.9-24,60.5-24c11.7,0,24.5,2.5,38.6,7.4
		c3.8,1.3,7.3,1.3,10.3,0c3.1-1.2,5.3-3.5,6.4-6.6l0.2-0.8h4.9l2.6,56h-5.8c-3.5-14.5-10.2-25.8-19.8-33.8
		c-9.6-8.1-21.3-12.2-34.9-12.2c-17.9,0-32.1,6.8-42.4,20.1c-10.2,13.3-15.4,31.8-15.4,55.2c0,23.3,5.5,41.8,16.2,55
		c10.8,13.5,25.6,20.2,44.4,20.2c10.7,0,20.5-2,29.7-6c9.1-4.1,18-10.3,26.8-18.8L5419.4,925.1z"/>
	<path class="st1" d="M5480.4,926.4V814.3c0-8.8-1.4-14.6-4.1-17.2c-2.8-2.9-8.7-4.2-17.6-4.3v-4.7h35.3h35.6v4.7
		c-10,0.1-16.5,1.4-19.4,4.3c-3,2.6-4.4,8.4-4.4,17.2v49.2h75.3v-49.2c0-8.8-1.5-14.6-4.5-17.2c-3.1-2.9-9.5-4.2-19.4-4.3v-4.7h35.4
		h35.6v4.7c-9,0.1-14.8,1.4-17.6,4.3c-2.7,2.6-4.1,8.4-4.1,17.2v112.1c0,8.8,1.4,14.6,4.1,17.2c2.9,2.8,8.7,4.1,17.6,4.4v4.5h-35.4
		h-35.6V948c9.9-0.2,16.4-1.5,19.4-4.4c3-2.6,4.5-8.4,4.5-17.2v-52.3h-75.3v52.3c0,8.8,1.4,14.6,4.4,17.2c2.9,2.8,9.4,4.1,19.4,4.4
		v4.5h-35.4h-35.5V948c8.8-0.2,14.8-1.7,17.6-4.4C5479.1,941.1,5480.4,935.3,5480.4,926.4"/>
	<path class="st1" d="M5699.7,926.4V814.3c0-8.8-1.6-14.6-4.5-17.2c-3.1-2.9-9.6-4.2-19.5-4.3v-4.7h36.5h36.8v4.7
		c-10,0.1-16.5,1.4-19.5,4.3c-2.9,2.6-4.4,8.4-4.4,17.2v112.1c0,8.8,1.5,14.6,4.4,17.2c3,2.8,9.6,4.1,19.5,4.4v4.5h-36.6h-36.6V948
		c9.9-0.2,16.4-1.7,19.5-4.4C5698.1,941.1,5699.7,935.3,5699.7,926.4"/>
	<path class="st1" d="M5830.4,916.8c0,12.8,1.5,21.2,4.6,25.1c3.1,4.1,9.5,6,19.4,6.2v4.5H5825h-29.5V948c10-0.2,16.5-2.1,19.5-6.2
		c3-3.9,4.5-12.3,4.5-25.1V805c-3.5-3.8-6.4-6.4-8.8-8.1c-4.1-2.7-9.2-4.1-15.5-4.1V788h21.8h21.6l94.8,118.6V824
		c0-12.6-1.5-21.1-4.6-25.1c-3-4-9.5-6-19.3-6.1V788h29.3h29.5v4.7c-10.1,0.1-16.5,2.1-19.5,6.1c-3.1,4-4.5,12.3-4.5,25.1v131.4
		h-1.8h-2l-110.1-137.7V916.8z"/>
	<path class="st1" d="M6029.5,888.8h57l-28.4-68h-0.1L6029.5,888.8z M6002.2,926.4l60.3-141.6h2.5h2.4l61.2,141.6
		c4.1,8.8,7.6,14.6,10.5,17.2c2.9,2.8,6.9,4.4,12.3,4.4v4.5h-31.7h-31.7V948c9.8-0.2,15.6-1.5,17.5-4.4c1.7-2.6,0.8-8.4-3-17.1
		l-11.3-27.2h-66.2l-7.3,18.6c-5.2,12.3-6.9,20.4-5.5,24.2c1.6,3.7,7.4,5.6,17.4,5.8v4.5h-24.8h-24.9V948c5.2,0,9.3-1.5,12.1-4.4
		C5994.6,941.1,5998.1,935.3,6002.2,926.4"/>
	<path class="st1" d="M1436.3,370.7c1.2,0.7,4.6,0.3,10-1.3l27.8-6.4l24.6-1.9c6.1-0.3,10.7-1.8,13.8-4.1c3-2.3,6.9-8.7,11.8-19.4
		c4.7-10.6,7.4-18.6,8.1-24.4c0.7-5.7,1.3-11.5,1.9-17.2c0.6-5.8,0.8-9.5,0.8-11c-0.4-5.9-2.9-10.7-7.6-14.3
		c-4.5-3.5-9.4-5.4-14.6-5.9c-5.1-0.3-13.1-0.7-23.6-0.8c-2.3,0-5.8,0.2-10.5,0.8c-4.8,0.7-11.8,1.4-21,2.3
		c-9.1,1-15.4,2.7-18.6,4.9c-3.1,2.3-4.8,6.6-4.5,13l0.3,40.5v1.8c0,15-0.2,23.5-0.5,26.2c-0.3,2.4-0.1,4.1,0.5,4.9l1.8,3.9
		C1435.3,367.5,1435.1,370.3,1436.3,370.7 M1377.7,379.8l0.6-29.3l-1.7-32l0.8-10.5c0-3.9-1.5-10.1-4.6-19c-4.5-1-7.5-1.3-9.2-1
		c-1.6,0.5-6.7,2.5-15.3,6.1l-28.9,9.8c-13.1,4.8-20.7,7.9-22.7,9.3c-1.9,1.5-3.4,3.4-4.4,5.8c-1,2.5-1.3,7.9-0.9,16.4v11.4
		c0,5.7,1.2,13.1,3.9,22.5c2.4,9.5,4.4,15,6,17c1.3,1.9,2.6,3.1,3.9,3.5l2.5,1.2c0.2,0.3,1,2.8,2.3,7.3c1.3,4.4,13.7,2.2,37.1-7.3
		c3-1.2,7.9-2.5,14.7-3.8C1368.3,386.1,1373.7,383.4,1377.7,379.8 M1449.5,145.4l-8.2,8.2c-1,1-2.1,2.5-3.3,4.6
		c-1,2.1-2.3,10-3.8,23.5c-1.4,13.5-2.1,21.5-2.1,24c-0.2,3.4-0.1,5.7,0.4,6.3l2.1,10.2l5.8,6.4l43.9-6.1l27.4-1.4l15.6-0.3
		c2.6-0.2,4.1-0.3,4.3-0.5c1.1,0,5.9,0.8,14.5,2.5c8.5,1.8,15.1,3.7,20.2,5.9l22.5,11l7.1,4c15.2,8.7,25.7,15.6,31.3,20.4
		c5.7,5,9.6,9.2,11.6,12.8c2.1,3.9,2.5,6.1,1.5,7.4l-0.6,0.7l-1.5,4c-0.3,1-1.1,1.8-2.2,2.7c-1.1,0.8-2.1,1.5-2.8,1.8l-8.9,4.6
		c-1.9,1.4-5.3,4.9-10.2,10.2c-5,5.4-11.1,13.5-18.2,24.2c-7.2,10.7-10.9,16.1-11,16.3l-12.9,13.2c-1.3,1.7-2.8,4.6-4.8,8.7
		c-1.9,4.3-3,9.1-3.4,14.5l-1.4,16.4c-0.4,2-0.8,4.3-1.7,6.7c-0.7,2.3-2.1,4.1-4.2,5.4l-32.6,0.3l-37,1.5l-33.2,4.3
		c-7.6,1-12,2-13.3,2.9c-1.3,0.8-2.3,2-3.2,3.5c-0.9,1.5-1.6,6.1-2.1,14l-6.5,79.7l-0.6,8.5l-1.4,14.3c0.2,2.4,0.5,3.6,0.8,3.6
		l-0.3-9.6l0.3,36.9l2.8,41.7c0.4,8.3,1.2,14,2.2,17.8l2.1,8.6l0.9,5.8c1.1,5.5,1.8,8.7,1.8,9.2c-0.4,2.7-1.4,4.5-2.9,5.8
		c-1.5,1-7.5,2.9-17.9,5.1c-10.4,2.3-16.2,3.4-17.3,3.4c-2.1,0.2-5.8-0.4-11.5-1.9c-5.6-1.7-8.7-3-9.5-3.9c-0.6-1.2-1.3-2.5-1.6-3.9
		c-0.5-1.3-0.8-2.4-0.8-3.3c-0.1-1,0.2-2.1,0.8-3.4c0.4-1.6,2.2-4.9,5.2-9.7c3.1-4.8,4.9-8.4,5.4-11c0.6-2.5,1-6,1.4-10.2
		c0.3-4.3,0.5-7.5,0.5-9.7V592l0.3-21c-0.3-7.4-0.3-13.4,0-17.6c0.2-4.3,0.1-5-0.2-2.3c-0.3,2.8-2-10-5.1-38.3v-11.2l-2.3-34.5
		l-1.6-17.3c0.2-6.1,0-9.9-0.6-11.3c-1.6-3.3-4.7-5-9.4-5c-1.8,0.3-6.1,0.9-12.5,2.1l-26.8,6l-4.6,1.1l-28.7,10.7
		c-2.9,1.2-5.4,1-7-0.7c-1.7-1.6-2.8-2.9-3.4-4.3l-13.7-24c-2.7-4.1-5.8-8.4-9.5-13.2l-17.3-21c-11.8-15.7-21.5-33.3-28.6-52.9
		c-7.5-19.4-11-34.2-10.7-44.1c0.2-8.9,2-14.6,5.4-17.4c3.4-2.8,11.9-4.7,25.3-5.3l26.2-0.8l11.9-3.1l7.5-1.9l30.5-10.3l17.1-4.3
		l19.2-6.7l14.6-3.7c2.6-0.9,4.6-2.4,5.9-4.4c1.2-1.8,2-3.6,2.4-4.9c0.5-1.5,0.8-3.4,0.7-5.6c-0.2-2.2-0.3-5.8-0.7-10.7
		c-0.2-5.1-0.5-10.9-0.5-17.6v-26.4l-1.4-10.8c-0.1-0.7-0.1-3.1,0-7.4v-10l1.2-11.4c0.5-6.6,1.4-11.5,2.9-14.7
		c1.5-3.3,5.4-4.8,11.5-4.8c4.1,0.2,15.2,3.3,33.6,9.2c18.3,6.1,27.7,9.7,28.4,10.8l4.6,7.1C1451.9,141.7,1450.4,144,1449.5,145.4"
		/>
	<path class="st1" d="M2080.4,400.6l7.1-0.8c4.8-0.4,8.3-0.6,10.4-1.3c2-0.7,3.2-1.5,3.7-2.7c0.5-0.9-1.5-3.9-5.8-8.6
		c-2.3-2.2-4.1-6.3-5.4-12.3c-1.3-6-3.6-10.5-6.7-13.6c-3.2-3.1-8.5-2.4-15.8,1.9c-6,3.6-8.8,8.9-8.2,15.9c0,0.4,0.3,2,0.3,4.3
		c0.1,2.2,0.8,4.4,1.9,7c0.9,2.4,3.9,4.6,8.7,7C2075.3,399.4,2078.6,400.6,2080.4,400.6 M1917.2,443.3c0-3.1,0.7-5.6,1.8-7.3
		c1.1-1.8,4.5-3.2,10.2-3.8c5.7-0.7,15.4-2.9,28.9-6.6c13.5-3.6,23-6.6,28.7-8.7c5.5-2.2,9.7-5.1,12.1-8.9c2.7-3.8,4.3-8.7,4.9-15.1
		c0.7-6.3,1.2-9.9,1.5-10.9c0.3-1,0.4-3,0.2-5.6c-0.2-2.8-2.4-4.4-6.4-5.1c-0.6,0-2.7,0.4-6.1,1.4l-10.8,1.7
		c-1.5,0.3-4.5,1.5-8.8,2.9c-4.2,1.7-6.8,2.5-7.8,2.7c-0.8,0.2-3.7,0-8.4-0.2c-5.4,0-9.8-0.8-12.6-2.5c-3-1.7-4.1-5.7-3.7-12
		c0.5-6.2,0.2-9.2-1.1-9l-1.5,0.6c-1.4,0.5-1.5-2.5-0.2-8.6c0.6-3.3,1.5-6,2.7-8.3c1.1-2.3,5.1-4.2,11.5-5.3l22.9-1
		c1.7-0.1,4.7-1,9.2-2.6c4.6-1.5,10.4-2.7,17.5-3.5c6.9-0.8,11-1.8,12.1-2.9c1.1-1,1.9-3.8,2.4-8.3c0.5-4.3-0.1-7.7-1.7-10.5
		c-1.3-1.8-3.5-3.5-6.2-4.9c-2.7-1.5-9.5-2.2-20.3-1.6c-2.7,0.1-4.7,0.3-5.8,0.4l-8.6,3.2c-1.8,0.1-4.4-0.3-7.5-1.5
		c-3.4-1.3-5.7-2.8-7.3-4.4c-1.4-1.8-2-3.6-1.7-5.4l0.9-3.4c0-0.6-0.5-2.6-1.3-6.2c-1-3.6-1.3-6.4-1.1-8.4c0.1-4.6,1.1-7.9,2.7-9.6
		c1.7-1.8,5.4-3.2,11.2-4.6c5.8-1.3,12.6-3.3,20.5-6l51.9-17.5c22.8-5.7,35.6-8.7,38.3-9c2.8-0.3,6.6-1,11.3-2
		c4.8-0.9,12.8-1.1,24.2-0.6c6.2,0.5,10.4,1.8,12.1,4.2c1.8,2.4,2.8,6.6,2.6,12.9c-0.1,6.4-0.2,7.7-0.4,4.3c-0.2-0.8-0.2-1.5,0-2.1
		v14.3l-2.2-1.5c0,0-1.8,1.8-4.3,5.6c-1.1,1.8-3.3,3.1-6.3,3.9c-2.8,0.8-9.1,2.9-18.4,6.6l-25.6,8.2c-1.4,1.5-2.3,2.8-2.8,4.1
		c-0.4,1.2-0.6,4.6-0.8,10.6c-0.1,5.8,0.5,9.5,1.7,11.2c1.2,1.8,5.9,2.1,14.1,1.3c2.4-0.2,7.7-0.9,16.2-2c8.3-1.2,15.6-1.7,21.8-2
		c8.6,0,13,4,13.1,12l-0.3,8.7c0.6,4.2,0.6,6.3,0,6.4l-1.5,0.3c-0.5,0.1-0.9,0.8-1.6,1.7c-0.6,1-3,2.8-7.1,5.7
		c-4.2,2.8-6.5,5.7-6.6,8.4c-0.2,2.7-0.1,4.6,0.3,6c0.6,4.1,2.7,8,6.5,12.1c3.8,4.1,6.2,6.5,6.8,7.3l10.4,20.2
		c1.2,1.2,2.6,1.9,4,2.5l8.8,0.5c8.7,0.8,13.5,6.1,13.9,15.8c0.5,9.7-0.8,17-3.9,22.1c-2.9,4.2-6.8,6.5-11.9,6.6
		c-4.4,0.3-10.3,0.3-17.9,0c-2.3,0-6.4-0.1-12.3-0.7c-6.1-0.2-10-0.4-12-0.4c-2.2,0.2-5.5,0.4-10.3,0.8c-4.8,0.5-8.4,0.6-10.6,0.9
		l-37.4,5.7l-28.1,2.5l-12.6,1.8l-8.8,0.8l-25.4,6.1c-14,3.3-24.9,6.6-32.8,9.6c-8,3-12.4,4.6-13.1,4.6c-3.1,0.2-5.4-0.5-6.6-1.8
		c-1.5-1.5-2.5-3.1-3.2-4.9l-2.4-7.4l-3-7.5c-0.9-2.2-1.4-4-1.4-5.1C1917,444.1,1917,443.5,1917.2,443.3 M1895.7,208l41.5-13.3
		c7.9-2.4,15.9-5.4,24-8.7c8.2-3.2,14.1-5.8,18-7.1c3.7-1.3,14.1-3.8,31.2-7.4l32-4.6l21.7-3.6l22-2.1l31.1-5.3
		c0.3,0.3,1.9,0.3,4.2,0.5c2.5,0.2,5.1,0.2,7.7,0.2l36-0.4c17.7,0.5,38.3,5.6,62.3,15.6l12.1,4.7c4.7,2.6,7.6,4.9,8.4,7.1
		c1,2.3,1.4,4.5,1.5,6.4c0.2,2-0.6,4.7-2.2,8.2l-4.1,7.9l-3.3,10.7c-1.7,4.3-2.5,6.7-2.6,7.4c-0.2,0.5-0.2,2.1-0.3,4.7
		c0,2.6-0.3,4.6-0.4,5.9c-0.3,1.3-0.4,2.5-0.6,3.1c-0.2,0.7,0,3,0.6,7l0.5,13.3l1.4,14.7c0.2,7.3,0.4,11,0.4,11l2.1,10.7
		c0,1,0.2,3.3,0.6,6.9l1.8,23.2v2l0.3,16.5c0,6.4-0.3,15.2-1.1,25.8c-0.7,7.1-1,12.2-1,15v15.7c-0.2,9.7-0.2,15.3,0,16.6l1.2,10.7
		c0.4,5.6,0.6,12.3,0.4,20.5c0,8.1,0.7,14.4,2.1,18.6c0.6,2.7,0.6,6.9-0.2,13c-0.9,6.2-1.2,14.9-1,26.7c0.1,11.5,0.3,18.9,0.1,22
		c-0.1,3.1,0,5.1,0.3,5.9l0.6,12.8c-0.3,4.6-0.3,7.2,0,7.6l2.4,11.3l1.1,12.6l1.6,5.3c0,0.5,0.2,3.6,0.3,9.4l3,20.1
		c0.2,1.7,0.2,3.1,0.2,4.2c-0.2,10.1-4.9,15.1-14.3,15.6c-4.9,0.3-11-0.5-18.4-2.5c-7.4-2-13.6-4.5-18.4-7.6l-11.7-7.7l-21.8-11.8
		c-2.1-1-8.7-5.3-20.2-12.9c-11.4-7.6-18.8-12.8-22.5-16c-3.7-3.2-6.7-6.6-9-10.2c-2.5-3.6-4.5-6.8-6.1-9.8
		c-1.9-2.8-2.7-6.3-2.5-10.6c0-4.3,6.6-1.8,19.3,7.6c4,3.3,10.9,5.4,20.7,6.4c9.8,1,16.5,1.3,20.5,1.2c9.1-0.4,15.1-3,18.2-7.7
		c3.1-4.8,4.5-12.2,4.3-22.1c-0.4-13.3-1.2-23.2-2.1-29.6l-3.3-18.1l-0.9-11.5l-0.6-6.4l-0.7-35.7c-0.1-4.4-0.8-12.4-2.2-23.6
		c-1.3-11.6-1.9-18.3-1.9-20.6l-0.3-17.7l-1.6-17.4v-10l-1.5-22.2c-0.4-6.6-0.6-10.2-0.6-11l-1.9-12.1l-0.8-14.6l-1.3-5.2l-0.2-13.4
		l-4.4-22.4c-0.4-3.5-0.7-5.2-0.9-5.7c-0.2-0.4-1.2-2.9-3-7.1l-4-8.7c-8.6-13-16.4-20.9-23.3-23.9c-7.1-2.8-13.9-4.1-20.7-3.6
		l-9.4,1.4l-13.8,0.4c-20.1,2-31.4,3.2-34.2,3.8c-2.7,0.5-13.1,3.4-31,8.7c-18,5.3-28.5,8.8-31.9,10c-3.2,1.5-8.6,4.3-15.8,8.6
		c-7.2,4.3-15.6,9.7-25.3,16c-9.7,6.4-15.5,11-17.5,13.7c-1.9,2.6-3.8,8.4-5.9,17.1l-4.9,20.4c-0.3,2-0.7,4.2-0.8,6.4l-3.1,27.8
		l-4.8,24l-0.6,7.5l-3,21.1c-0.2,2.2-0.3,3.6-0.3,3.9l-2.8,8.9c-0.8,2.6-1.4,8.2-1.8,16.8c-0.4,8.5-0.9,14.2-1.2,17.2
		c-0.2,3-1.1,10.2-2.4,21.9c-1.3,11.7-1.9,21.9-1.7,30.4c0,11.9,2.1,20.5,6,26.3c4.1,5.7,8.4,8.9,12.9,9.4c0.5,0.2,3.2-0.4,8.2-1.7
		c5.1-1.1,10.5-2,16.4-2.6c5.8-0.7,13.8-2.3,23.9-5.2l36.1-10.4c16-4.3,29-6.2,38.8-6.2c9.8,0.1,15.9-0.2,18.2-0.7l9.1-2.4
		c15.5-1.7,26.7-2.6,33.6-2.3c6.9,0,11.3,0,13.4-0.6l6-0.8c1.4,0,5.7,0.4,12.6,1.8c6.9,1.1,11.1,2.6,12.4,4.3c1.4,1.9,2.7,5,4.1,9.7
		c1.1,4.6,1.7,7.6,2.2,8.9l0.5,12.1c0.5,5.5,0.5,9.9,0,13.4c-0.3,3.4-4.4,5-11.9,4.9c-1.2,0-3.8-0.2-7.9-0.3c-4.1-0.2-7-0.5-8.8-0.8
		l-21.6-5l-13.8,1.1h-7.9c-0.7,0.3-2,0.5-4.1,0.7c-2.2,0.4-4.9,0.7-8.1,1.3c-3.2,0.3-10.1,1.2-20.5,2.1c-10.4,1.2-18.9,2.3-25.5,3.6
		l-7.4,1.8l-23.7,4.9c-6.1,2.4-9.3,3.7-9.3,3.7l-8.2,1.1l-1.8,0.6l-6.4-0.6c-0.4,0.2-1.4,0.6-3.2,1.5l-21.8,0.3
		c-1.7,0.3-3.7,0.8-5.7,1.7l-13.1,6.6l-10.7,4c-3.5,1.7-7.5,4.7-12.2,9.4c-4.6,4.6-7.7,7.2-9.1,7.7c-1.3,0.7-2.7,0.8-4.1,0.7
		c-3.6,0-7.2-1.9-10.8-6c-3.5-3.9-5.8-7.8-6.8-11.8c-1-4.1-2.3-10.4-3.9-19c-1.5-8.7-2.2-13.6-2.2-14.8l-1.3-18.6
		c-0.8-4.3-1.2-6.8-1.2-7.1c-0.2-0.1-0.2-0.8-0.1-1.6c0.1-1,0.1-2.2,0.1-3.6v-3.6l-0.6-27.2c0-5,0.2-12,0.7-21
		c0.6-8.9,0.9-14.1,1.1-15.4v-19.9v-5.4c-0.2-1.8-0.5-5.3-1.1-10.2c-0.5-5.1-0.7-8.7-0.7-11.2l1.2-50.7c0-9,0.1-14,0.2-14.6
		c0.1-0.5,0.3-2,0.3-4.3c0.2-2.5,0.4-15.7,0.5-39.8c0.1-24,2.8-40,7.5-47.9C1878,216.9,1885.5,211.4,1895.7,208"/>
	<path class="st1" d="M2813.1,280.4l-0.7,41.8l-0.3,16.5c-0.2,6.1,0,13.3,0.5,21.9c0.5,8.5,0.9,13.5,1,14.9v1.1l-0.5,11.1
		c1.9,7.6,10.2,12.2,24.3,14.2c14.3,1.8,22.9,2.6,26,2.4c4.2,0,7.5-0.7,9.8-2.4c2.3-1.7,3.8-6.3,4-13.6c0.3-7.2-0.9-17.1-3.9-29.5
		c-3-11.9-5.8-20.6-8.2-26.5l-13.8-26.5c-1.5-3.8-2.5-7.1-2.7-10.3c-0.7-4.4,1.3-13.5,5.8-27c4.4-13.6,6.3-25.2,5.4-34.5
		c-0.3-3.3-1.4-6.6-3.4-9.9c-1.9-3.4-5.1-5.1-9.3-5.1c-5.7,0.2-11.4,3.3-17.3,9.4c-5.9,5.9-10.1,11.2-12.6,15.6
		C2814.7,248.6,2813.2,260.7,2813.1,280.4 M2817.4,196.9c2.5-0.8,10.8-4.4,25.4-11c14.5-6.4,28.3-9.6,41.3-9.2
		c4.5,0.4,13.3,1.8,26.6,4.6c13.3,3,20.8,6.1,22.5,9.7c1.5,3.4,2.4,6.1,2.5,7.9c0.2,1.7,0,3.1-0.4,4.4c-0.3,0.8-2.3,3.6-5.9,8.6
		c-3.6,5.1-6.1,9.6-7.5,13.3l-5.9,18c-1.1,2.4-2.5,6.1-4.6,10.6c-2.2,4.5-5.4,12.2-10.1,22.8c-4.5,10.9-6.7,17.2-6.5,18.9
		c0,1.5,0.2,3.1,0.8,4.8c0.7,1.8,3.7,5.9,9.2,12.6c5.4,6.7,9.4,12.2,11.7,16.5c2.4,4.3,5.7,11.3,10,21l6.9,15.4
		c2.5,6.1,4.6,13.8,6.3,23.4c1.7,9.4,2.6,16.5,2.6,21.1c-0.1,2.5-0.4,5.2-1,8.2l-4.7,26l-2.8,20.3c-2.2,10.2-8.3,15.4-18.2,15.4
		c-2.1,0.2-4.9,0-8.8-1c-3.7-0.5-8.2-1.5-13.5-1.9c-5.1-0.7-12.6-3.5-22.5-8.4c-9.9-4.8-16.1-7.7-18.5-8.4l-19.4-2.8
		c-7.4-1.7-11.7-2.4-13.4-2.7c-1.7,0-3.4,0.9-5.3,3c-2,2-2.9,5.2-2.8,9.8c0,4.4-0.1,11.4-0.5,21.3c-0.5,8.2-0.8,12.9-0.8,13.6
		l-2.3,23.9l-0.9,43.3c-0.7,9.3-1.1,14.1-1.1,14.6l1.4,20.8c0.2,7.7,0.3,12.1,0.5,13.5c0.2,1.1,0.6,3.3,1.3,6.6c0.5,3,1,5.1,1.1,6.2
		l1.1,7.6c0,0.1,0.6,2.8,2.3,8c1.4,5,2.3,9.7,2.3,13.5c-0.3,3.4-1.3,7.1-3.1,10.7c-1.8,3.4-4.8,5.5-9,6.4c-0.9,0.2-3.1,0.2-6.4-0.4
		c-3.1-0.7-8.2-0.9-15-1.4c-6.8-0.4-11.8-2.3-14.9-5.8c-3.2-3.4-4.8-5.9-5.1-7.2c-0.1-1.3,0.5-4.3,2-9c1.5-4.8,2.4-9.2,2.6-13.3
		l-0.3-29.3l0.7-34.4c-0.2-5.1-0.6-11.5-1-18.9c-0.7-7.6-0.9-11.9-0.9-12.7c-0.2-1-0.1-1.7,0.2-1.8l1.1-11.4v-18.6v-17.1l-1.5-23.4
		l-0.3-22l-0.6-6.8l-0.3-15.8l-2.1-18.6c-0.4-3.9-0.6-11-0.4-21.2c0.1-10.2-0.3-21-1.3-32.3c-0.8-11.2-1.2-17.3-1-18.3l0.6-13.6
		l0.1-17.8c0.6-8.2,0.8-12.8,0.8-13.3c-0.2-1.4-0.4-2.7-0.4-4.1l-1.2-6.4l-0.7-8c-0.2-1-0.9-4.6-1.8-11l-1.5-9.6
		c-1.3-6.3-3.9-12.2-7.8-17.6c-4.1-5.6-6-9.2-5.4-11c0.5-1.9,1.7-3.8,3.8-5.3c2.2-1.7,5.2-2.8,9.1-3.6l6.7-1.1l12.2-4.6
		L2817.4,196.9z M2662.8,416.3c2.6-7.1,3.9-11,4-11.9c0.2-0.8,0.4-3.1,0.9-6.9l3.6-28.5l0.7-13.7c0-3.2,0.3-6,0.8-8.6l2.4-10.4
		c0.5-1.9,0.7-4.2,0.7-6.3c-0.2-7.4-2.9-14.4-8.2-20.9c-5.4-6.6-13.9-9.8-25.7-9.8c-9.3,0.1-14.5,1.3-16.2,3.3
		c-1.6,1.9-2.9,6.6-3.7,13.6c-0.8,6.9-0.9,10.8-0.3,11.3c0.8,1.7,5.9,2.2,15,1.5c9.2-0.5,15.5,0.2,19.3,2.1c3.7,2.2,5.9,4.8,6.5,8.2
		c0.4,3.4,0.2,7.8-0.5,12.8c-0.3,1.5-0.8,4.3-1.4,8.6c-0.7,4.3-1.9,7.1-3.5,8.4c-1.8,1.4-3.3,2.2-4.4,2.7l-26.8,7.2
		c-2.3,1.9-3.7,3.8-4.2,5.9l0.2,10.9c-0.4,4.7-0.2,7.4,0.3,7.9l0.5,1l1.1,2.8c0.1,0.3,1.8,1.1,5.1,2.1c3.3,1,6.7,1.8,10.3,2.5
		c3.8,0.9,6.1,1.5,7.1,2c1.1,0.5,2.5,2,4.6,4.6l4.6,7.1C2657.8,426.7,2660.3,423.6,2662.8,416.3 M2546.2,435.1l15.7-5.9
		c9-1.9,14.5-4,16.6-6.1c2.2-2,3.6-4.8,4.5-8.5v-9.7l0.3-5.4c0-4.1-2.1-6.1-6.4-6.1c-1,0.2-6.8,1.5-17.1,4.3
		c-10.4,2.7-17,5.3-19.9,8.3c-3,2.7-4.4,5.7-4.1,8.7c0,0.5,0.5,3.9,1.6,10.5C2538.7,431.5,2541.5,434.7,2546.2,435.1 M2534,362.3
		c2.8,0.3,10.2-1.8,22-6.1c11.9-4.3,18.9-7.2,21-8.9c1.9-1.8,3.1-3.6,3.4-5.8c0.2-2,0.1-4.6-0.3-7.9c-1.2-6.2-2.1-10.2-3.3-11.9
		c-1.1-1.7-3-2.8-6.1-3.6c-2.9-0.8-9.5,1.6-19.9,7.6c-11.6,6.7-18.3,11.4-20.4,14c-2.1,2.6-3,5.9-2.8,9.9c0,0.7,0.2,3.1,0.7,6.9
		C2528.8,360.6,2530.7,362.3,2534,362.3 M2727,353l-8.2,54.3c-0.8,5.1-1.3,8-1.5,8.8l-2.4,7.5l-0.9,6.5l-8.2,24.6
		c-5.6,21.3-8.9,32.4-10,33.8c-1.2,1.3-2.9,2-5,2c-1.2,0.2-2.6,0-4.3-0.6c-1.6-0.5-4.8-2.7-9.2-6.1c-4.5-3.5-8.6-6.1-12.2-7.8
		l-20.1-7.6l-18-10.4c-2.2-0.7-4.1-1.1-5.8-1.3c-2,0-5.4,1-10,2.8l-23.6,8.3l-12.1,5.4c-11.4,4.3-17.6,6.9-18.7,7.7l-7.3,6.4
		c-1.4,0.8-2.9,1.2-4.3,1.2c-3.3,0.2-7.3-1.9-11.9-5.9c-4.5-4.2-8.3-9-11-14.2l-4.3-9.3l-6.1-10.4c-3-5.1-6.8-13.5-11.3-25.1
		c-4.6-11.7-8.5-23.4-11.8-34.9l-15.2-51.7c0,0-0.2-0.4,0-0.7l-3.4-10.4v-3.1c0-1.7,0.4-3.5,1.3-5.8c0.8-2.1,5.4-5.4,14-9.6
		c8.5-4.3,16.7-7.8,24.5-10.2c7.8-2.6,12.4-4.1,14.1-4.8l38.5-10.7c4.5-1.7,7.1-3.3,8-5c1-1.5,1.5-4.1,1.5-7.5l-0.4-12.9
		c-0.2-0.8-0.2-1.6,0-2.7c0-0.6,0.3-5.4,0.6-14.3l0.6-15.3c0.2-6.9,0.4-11.2,0.6-12.9c0-1.6-0.1-6.9-0.7-15.6
		c-0.5-8.7-0.8-18-0.9-27.8c-0.1-9.8,1-16.7,3.5-20.9c1.7-2.8,5.4-4.6,11.5-5.4c6-0.7,10.9,0.3,14.6,3.3c2.4,2.2,3.8,3.3,3.8,3.3
		l7.9,0.9l5.7,1.5l6.7,1c1.7,0.5,3.3,2,5.1,4.1c1.8,2,2.8,4.1,3,6c0.1,1.8-0.1,3.6-0.5,5.4c-1.4,5.9-2.2,9.9-2.5,11.9l-2.1,17.8
		l-3,18.6l-0.6,15.8l-0.9,6.7c-0.5,3.6-0.9,9-0.7,15.6c0,6.5,2.5,9.7,7.4,9.4c0.5,0,4.1-0.5,10.9-1.8c6.8-1.1,15-1.6,24.8-1.1
		c6.1,0.3,20,2.4,41.6,6.6c21.7,4,32.7,9.1,32.9,15.2c0.3,6.2,0.4,9.9,0.2,10.8c-0.2,0.7-1.6,3.5-4.3,8.2
		c-2.7,4.9-4.5,10.5-5.2,16.9C2731.2,323.8,2729.5,335.7,2727,353"/>
	<path class="st1" d="M3375.1,379.4c-0.1,0.5,0,2.8,0.6,7.2c0.5,4.3,2,9.3,4.6,14.6c2.5,5.5,6.9,10.6,13.3,15.7
		c6.5,5,10.9,8.9,13.3,11.3c2.5,2.4,4.7,3.4,6.6,3.3c0.7,0,1.4-0.2,2-0.5c0.6-0.5,1.3-2.2,1.9-5.2c0.7-3,1.4-6.2,2.7-9.6
		c1.3-3.5,1.9-8.4,1.9-15.2c-0.2-2.3-0.3-4.1-0.3-5.7l-2.4-12c-2.3-12-4.5-18.9-6.7-21.2c-2-1.9-5.1-3.1-9.2-3.3
		c-1.3,0-4.4,0.3-9.7,1c-5.1,0.8-8.7,1.9-10.7,3c-1.9,1.3-3.1,3.1-3.8,5.7l-1.1,1C3376.3,371.4,3375.5,374.7,3375.1,379.4
		 M3341.1,350.5l17.9-42.9c1-3,3.9-10.3,8.6-22.5c4.6-12.3,7.8-21.9,9.6-28.8l3.7-15.5l9.8-38.9l3.3-15.7l1.2-3.1
		c0.4-1.2,1.2-4.4,1.9-9.8c0.8-5.4,1.3-8.2,1.5-8.4l2.7-8.8c1.4-4.8,3.1-9.7,5-14.6c2-4.8,7-7.5,14.8-7.6c2.9,0,7.8,2.2,14.8,6.3
		c7.1,4,11,7,12,8.3c0.9,1.5,1.4,2.8,1.5,4.3c0.4,1.5-0.7,3.6-3.2,6.7c-2.8,3.7-4.6,6.1-5.1,7.6l-2.8,9.2l-4.7,12.5l-0.3,5.8
		c-0.1,3.5-1,7.2-2.4,11.3l-5.9,16.8l-1.4,7.5l-15,40.8l-3.1,12.2c-1.8,7.2-2.8,11.4-3,12.4c-0.2,1-0.3,3.1-0.5,6.4
		c0,3.5,2,5.6,6.3,6.6c4.3,1,13.6-2,27.8-9l32.9-16.3l29.9-16.3c1.7-0.9,4-1.6,6.6-2.2c2.4-0.5,7.1,4.4,13.8,15.3
		c5.1,8.5,7.9,14.8,8.2,18.6l0.4,9.6c0.6,4.5,0.8,7.2,0.6,7.8c-0.6,1.8-1.7,3.3-3.2,4.3c-1.5,1-3,1.6-4.4,1.8l-6.8,0.9l-6.1,3.5
		c-0.2,0.1-2,0.6-5.2,1.4c-3.3,0.8-7.5,3.3-12.3,7.3c-5.1,3.9-9.4,8.2-13.1,12.8c-3.7,4.8-5.7,8.1-6.4,10.2l-2.1,17.6l-6.7,21.7
		l-0.9,5.7c-0.4,1.6-1.2,4-2.2,7.1c-1.1,3.1-1.8,5.7-2.2,7.9c-0.5,2.2-0.9,3.7-1.1,4.3l-2.4,6.7l-0.9,7.6c-0.4,1.3-1.6,4.6-3.7,9.6
		c-1.9,5.1-2.9,8.8-2.7,11.5c0,1.8,0.3,3.5,0.8,4.7c0.5,1.4,3.3,5.1,8.4,11.7l6.6,9.7l10.4,10l7,7.8l14.3,8.9l8.6,6.9
		c5.7,4.5,15,9.6,27.8,15.3l41.9,19.1l16.7,8c5,2.6,9.8,3.9,14.3,5c4.5,0.6,8.8,2,13.4,3.9l10.4,4.4c5.2,3,11.6,7.9,19.1,14.9
		c7.5,7,11.3,12.1,11.3,15.5c-0.1,2.8-1.4,5.1-3.8,6.9c-2.4,1.6-5.6,2.8-9.6,3.1l-10.7,1l-19.8,4.3c-3.3,0.5-6,0.8-8.2,0.8
		c-2.3,0.2-4.4,0-6.2-0.7l-9.2-2l-11,1.5l-8.4-2.8l-7,0.7c-0.2,0.2-8.3-1.8-24.4-5.8l-9.9-2.8l-8.4-1.8l-30.1-9.8
		c-2.7,0-4.8-0.5-6.4-1.5l-6.7,0.4c-1.2,0.1-2.5-0.2-4.1-0.8c-1.4-1-2.9-2.2-4.1-4.1c-1.3-1.8-2-4.1-2.4-7l-0.7-3.8l-1.2-5.8
		l-0.3-10.7c-0.2-0.1-0.7-3.5-1.7-9.7c-1-6.2-1.8-10.6-2.7-13c-1-2.3-4.4-6-10.4-11.2c-6-5.2-11.3-8.5-16-9.8
		c-4.6-1.3-8.6-2.7-11.7-4.2c-3.1-1.3-5.1-2-5.6-2c-0.8,0.3-1.8,0.8-2.9,1.6c-1.2,0.9-2.9,2.9-5.3,6.2c-2.3,3.3-6.8,8.3-13.5,14.7
		c-6.8,6.4-10.3,10.2-11,11.7l-1.5,3.9c-1.5,2.8-6.6,8.1-15.2,15.5c-8.6,7.4-16.3,12.5-22.8,15.1c-6.6,2.7-13.8,4.9-21.8,6.3
		l-33.2-1.2l-11.3,0.7c-4.8,0-12.6-2.8-23.8-8.2c-10.9-5.6-15.9-9.7-14.5-12.3c0.9-2.1,5-3.8,12.3-4.8c7.5-1,11.3-1.6,11.6-1.8
		l10.6-3.4l10.1-2.1c5-1.2,15.2-5,30.1-11.1c15.1-6.5,30.2-16.4,45.3-30c15.2-13.6,22.5-22.1,21.8-25.4c-0.8-2.8-3.7-7.1-8.9-12.5
		c-5.2-5.4-9-9.1-11.1-10.6l-12.5-5.8c-4-2-7.4-3.6-10.5-4.7c-3.1-1-5.1-2.6-5.9-4.6c-0.9-2.2-1.3-4-1.5-5.4c0-1.5,0-2.7,0.2-3.5
		c0-2,1-6.9,2.8-14.5c1.8-7.7,0.6-11.8-3.4-12.4c-2.5-0.3-5.7,0.9-9.5,3c-3.9,2.3-7.5,3.3-10.9,3.1c-3.3-0.1-3.8-2.7-1.6-7.3
		c0.9-1.9,2-3.2,3.2-4.3c1.4-1,5-7.4,11.2-19.1l6-12.8l6.5-12.8L3341.1,350.5z M3101.6,555.9c0-1.3,0.2-2.4,0.7-3
		c0.4-0.7,2.3-1.5,5.7-2.1c3.4-0.7,7.3-2.5,11.2-5.3c3.9-2.8,8.4-5.6,13.3-8.1c4.8-2.3,7.7-4.4,8.6-6.1c0.9-1.7,1.5-4.4,1.8-7.8
		c0.3-3.5-0.4-17.1-2.3-41.1l-1.6-39.1c-0.1-3.2-0.3-5.9-0.4-7.9c-0.1-1.8,0.2-5.3,0.7-10.2c0.7-8.6,1-14.3,1.3-17.3v-8.5
		c0.4-10.2,5.8-15.5,16.2-15.6c3.5,0,9,1.8,16.9,5.2c7.7,3.4,12.6,5.8,14.7,6.8c1.9,1.1,3.4,2.9,4.9,4.9c1.2,2.2,2,5.2,2,8.9
		c0.1,3.8-0.4,8.6-1.6,14.5c-1.9,8-2.8,13.7-2.9,16.7l-0.8,19.6l-1.7,14.3c-0.2,2-0.4,5.1-0.7,9.4c-0.2,1.8-0.2,4.1,0.2,7.1
		c0.2,2.8,0.4,4.3,0.4,4.6l-0.3,0.8c-0.4,1.1-0.5,2.4-0.3,3.4c0.3,1.2,2,1.9,5.4,1.9c2.3,0.1,4.9-0.7,8-2.4c3-1.8,5.2-3.8,6.6-5.9
		c1.3-2.3,2.2-5.7,2.9-10.5c0.6-4.8,1.9-12.5,3.7-23.3c2-10.7,3-16.9,3.3-18.8l0.6-7.1l2-11.8c0.1-2.5,0.3-4.3,0.3-5.6
		c0.2-1.1,0.2-2.1,0.2-2.6c-0.2-0.5-0.3-5.4-0.4-14.9l-1-31.8c-1.3-18.9-6.3-28.5-15-28.9c-3.3,0-8.2,1.3-14.8,4.1
		c-6.6,2.9-11.1,3.8-13.3,3c-2-0.5-3.4-1.4-3.9-2.8l-1-1.8l-3.1-1.8c-0.4-0.2-1-1.3-1.7-3.3c-0.7-1.8-1.8-4.4-3.1-7.7l-5.5-10
		c-1.7-3.1-2.6-4.8-2.7-5.3l-5-7.9c-2.2-4.1-3.2-8.4-3-13.1c0-3.7,0.8-6.1,2.5-7.4c1.7-1.3,3.9-2.3,7-3.1c3.1-0.7,6.8-1.2,11.2-1.4
		c4.3-0.4,7.1-0.7,8.1-1.2l3.6-1.2l8.2-0.7l6.7-1.9l5.8-0.4c2,0,6.9-1.3,14.6-3.9c7.7-2.8,11.7-4.1,11.9-4.3l11.7-3.5l13.1-4.5
		l14.4-2.7l22.8-5c3.6-0.2,8.3-0.7,14-0.7c2.5,0.4,4.3,0.7,5.4,1.4c1,0.6,2.8,3,5.4,7.1c2.3,4.3,3.5,9.3,3.5,15.8
		c-0.1,5.1-1.1,9.2-2.8,12.5c-1.8,3.3-3.8,5.8-6,7.6l-12.8,7.5l-7.3,5.9l-6.1,4c-5.7,3.8-9.3,8.4-10.7,13.3l-2.1,10.4
		c-0.2,0.5-1.1,2.6-2.3,6.3c-1.2,3.8-1.7,7.6-1,11.5c0.3,4.1,1.9,7.1,4.6,9.1c2.6,1.8,10.5,1.3,23.6-2c13.1-3.1,20.2-3.2,21.5-0.8
		c1.2,2.5,1.8,5.6,1.8,9.2v8.9c-0.4,1.8-1.8,5.3-4.1,10.6c-2.4,5.3-4.6,9.1-6.6,11.1c-2,1.9-4.7,3.6-8,4.7l-8.2,3.5
		c-1.2,0.6-2.3,1.3-3.4,2.1l-9.8,7.6c-10.5,6.8-16.4,10.9-17.8,12.2c-1.3,1.3-2.4,2.6-3.4,4.2c-0.8,1.5-1.5,6.9-1.8,16.5
		c-0.3,9.6,2.7,15,8.3,15.9c1.5,0.3,4.3-0.5,8.3-2.4c4.1-2,10.6-4.5,20-7.3c9.2-3,14.6-4.3,16-4.1c4.4,1.2,6.7,3.1,7,6.1
		c0.2,3.1,0,5.6-0.6,7.4c-1.3,3.4-3.1,6.9-5.8,10.4l-10.8,12.8l-12.2,15.5c-2.9,3.1-12.3,9.5-28.4,19.1c-16,9.7-26.5,15.3-31.3,16.7
		c-4.7,1.7-9.7,4.5-14.8,8.6c-5.1,4.3-9.1,7.1-11.7,8.4l-16.5,7.4l-4.2,2.4l-7.9,3.8l-6.7,4.7c-0.6,0.5-4.9,2.4-13.2,6l-12.4,5.8
		c-2.5,1-4.4,1.4-5.8,1.2c-1.4,0-3-0.3-4.6-1c-1.7-0.8-6.2-4.9-13.8-12.5C3105.5,567.1,3101.6,560.8,3101.6,555.9"/>
	<path class="st1" d="M4104.4,322.7c0,0.4,1.4-0.3,4.1-2c2.7-1.5,6.8-6.6,12.2-15.5c5.3-8.9,9.6-14.3,12.6-16.5c3-2.4,4.3-4.1,4-5
		c-0.4-1.1-1.2-2-2.4-2.8c-1.1-0.8-7.5,2.8-18.8,10.6c-0.7,0.3-2.7,1.3-6,3.1c-3.4,1.7-5.8,3.4-7.2,4.9c-1.3,1.6-2.5,3.4-3.2,5.4
		c-0.7,2-1.1,4.2-1.3,6.6c-0.1,2.5,0.4,4.8,1.3,7.3C4100.5,321.2,4102.3,322.6,4104.4,322.7 M4072.7,539.6c2,0,8.4-1,19.3-3
		c10.9-1.9,17,0.2,17.9,6.4l-1.7,8.2c-0.3,2.9,1.4,6.1,4.9,9.2c3.6,2.9,6.7,4.3,9.3,3.9c2.6-0.6,4-3.4,4.5-8.1
		c-0.2-1.7-0.2-3.8-0.1-6.3c0.1-2.7,0.1-5,0-7.9c-0.1-2.7-0.1-4.6,0-6.3c0.1-1.5,0.1-2.6,0.1-3.1c-0.2-10.4-0.6-19.1-1.3-26.1
		l-4.1-31.1l-1-17.1c-0.7-6.3-3.7-12.2-8.8-17.7c-5-5.6-14.6-3.4-28.5,6.8c-5.8,4-8.7,7.4-8.8,10.4c-0.3,2.8,0.3,4.8,1.1,5.8
		c0.9,1.8,3.2,2.8,6.6,3c3,0.5,5.7,0.5,8.2,0c2.6-0.3,4.3-0.5,4.9-0.5c4.9,0.2,8.4,0.8,10.6,2.2c2.1,1.1,3.3,2.7,3.4,4.6
		c0.3,2-0.2,5.4-1.7,10.4l-3.4,20.9c-0.8,2-1.6,3.4-2.5,4.6l-29.9,15.6c-1.1,1.1-2.2,4.2-2.7,9l-0.3,2
		C4069.3,538.1,4070.6,539.3,4072.7,539.6 M3905.3,254.8l3.5-11.6c1.5-5,2.7-8.6,3.4-10.5c0.8-2.2,3.3-4.1,7.5-6
		c4-1.9,7.4-2.7,9.9-2.6c0.8,0.1,1.7,0.5,2.8,0.8c1.2,0.6,3.1,3.9,5.8,10.5c2.9,6.6,5.5,11.5,8.1,14.4l15,16.5
		c6.5,8.1,10.1,13.1,11,15.5c0.8,2.3,1.4,5.9,1.9,10.6c0.4,4.8-0.1,8.2-1.4,10.5c-1.7,2.5-4.9,3.8-9.3,4.3l-20.7,4.6
		c-1,0.1-1.8,0.1-2.4,0.1c-3.2,0.4-6.5-0.8-9.7-3.2l-7.6-5.5l-10.1-5.6c-2-1.3-3.9-3.5-5.5-6.6c-1.6-2.9-2.5-10.2-2.5-21.7l-0.3-8.6
		C3904.6,259.1,3904.9,256.9,3905.3,254.8 M4096.1,405c1.9-0.2,7.4-1.8,16.7-5.1c9.3-3.1,20.3-5,33.1-5.1c15.9,0,27.1,2.1,33,6.6
		c6.1,4.4,9,7.7,9.2,10.4c0.1,2.5-0.2,4.4-0.4,5.6l-6.8,11c-3.3,6.7-4.9,20.5-4.9,41.7v41.2l-1.2,24.1c0,0.5,0.5,5,1.6,13.3
		c1.2,8.5,1.8,17.7,1.8,27.9c-0.2,4.3-0.2,7.6-0.2,10l-1.4,11.9l-0.6,13.8c-0.8,8-2.7,14-5.5,17.7c-2.9,3.8-5.4,5.5-7.4,5.5
		c-0.8,0.4-1.4,0.2-2,0c-0.5-0.2-1.2-0.9-2.3-1.8l-43.6-31.4c-4.7-3.6-8.3-6.4-10.7-8.4c-2.5-1.9-5.3-4.5-8.4-7.8
		c-3.3-3.3-5.1-4.9-6-5.1c-0.8-0.3-5.1,1.5-13,5.1l-12.8,4.6l-11.7,6.7c-1.1,0.4-2.1,0.6-2.7,0.6c-2.8,0.3-6.1-2.7-10-8.6
		c-3.8-6.1-6.2-15.1-6.7-27.2c-0.6-12.1-0.9-18.2-0.9-18.6l-2.1-71.3l-0.4-2.8c-2.9,1.3-5.4,2.4-7.1,3.6c-1.9,1.4-4.5,5.5-7.8,12.8
		c-3.2,7.4-4.9,11.5-5.1,12.5l-3.1,12.5c-1,2.7-2.3,5.5-3.9,7.9c-1.7,2.4-7.7,7.9-18.5,16.4c-10.7,8.6-16.3,13.1-17,13.6l-14,7.2
		l-18.3,10.8l-16.7,3.9l-14.6,5.3c-2.3,0.8-4.3,0.6-6.1-0.6c-1.8-1.1-2.8-2.5-3-3.7c-0.1-1.1,0.9-2.8,2.7-4.5c2.2-2.7,3.5-4,3.7-4.3
		l17.4-21.5l8.2-8.6l15-16.8l12.5-10l10.6-12l13.4-11.8c2.7-2.4,4.9-4.7,6.7-7.1l5.4-6.9l5.6-5.6l12.3-15.8l32-35
		c14.4-15.9,22.1-26.6,23-32.1c1-5.4-4.1-7.3-15-5.1c-1.1,0.1-2.8,0.8-5.4,1.8c-2.6,0.9-5.3,1.8-8.4,2.4l-15.8,3.6l-21.4,8.9
		c-6.6,2.6-11.8,5.2-15.6,7.4c-3.6,2.3-6.2,3.5-7.3,3.1c-0.9,0-1.6,0-2.3-0.2c-0.7-0.3-1.4-0.7-2.1-1.5c-0.6-0.6-1.3-1.5-1.7-2.7
		l-6.1-13.3c-1.6-1.5-3.3-2.3-5-2.5c-1,0-2.1,0.5-3.5,1.3c-1.3,0.7-4.3,4.6-8.7,11.6c-4.5,7-7.8,13.2-9.8,18.5l-6.1,17.9l-4.8,12.3
		c-1.2,3.2-1.6,6.8-1.2,10.5c0.4,4,2.5,6.1,6.4,6.6c3.9,0.5,7.6-0.5,11.3-3.1c4.5-3.3,8.6-7.9,12.2-13.8l7.9-13.7
		c2.7-4.1,4.4-7.4,5.4-9.8c1-2.7,2.5-4.2,4.7-4.5c2.2-0.5,3.6,0.3,4.3,2.4v1.8l0.6,6.7c0,1.8-1.1,5.6-3.3,11.2l-6.4,25.7
		c-2.4,7.7-4.9,13.6-7.7,17.6c-3,4.1-7,8.9-11.9,14.3c-4.8,5.2-10.6,11.8-17.5,19.2c-6.8,7.6-12.6,10.6-17.6,9
		c-1.8-0.4-3.5-1.3-5.1-2.8c-1.7-1.3-4.5-6.1-8.2-14l-5.1-10c-1.7-3.6-2.5-6.8-2.7-9.6c0-2.7,0.2-5.3,0.8-7.8l3.4-14.8
		c0.4-3.1,0.6-8.1,0.6-14.8c-0.2-9.6-0.4-17.2-0.9-22.8c-0.4-6-1.9-10.7-4.5-14.7c-2.5-3.8-4.9-5.7-6.8-5.7
		c-0.5,0.2-4.1,1.8-10.8,4.9c-6.9,3-10.7,5.6-11.2,7.4c-0.6,2-1.2,5.4-1.6,10.3l-3.3,16.2v13.7c-0.3,1.5-0.4,2.8-0.4,4.3l-2.5,16.1
		l-1.2,19.6l-1.8,15c-0.4,2.7-0.6,8.2-0.8,16.8c-0.1,8.5,0.4,14.7,1.3,18.7c0.1,1.4,0.5,2.3,0.6,2.8l-2.1,11.5l0.9,5.8
		c0,1-0.2,3.5-0.6,7.4l-1,12.5c-0.8,4.9-3.1,8.5-6.7,10.5c-3.7,1.8-10.7,2.7-21,2.2c-6.2,0-9.9-1.3-11.3-4.1
		c-1.4-2.9-2.1-5.5-2.3-7.4c-0.2-2,0.6-6,2-11.9c1.2-5,2.1-10.3,2.8-15.6l1.1-17.4l0.8-7.5c0.1-4.7,0.3-9.6,0.4-15
		c0.1-5.2,0.1-10.7-0.1-16.5c-0.2-0.4-0.8-8.1-1.9-23c-1.1-14.6-1.9-25-2.8-31c-0.8-5.9-2.3-13-4.8-21.2c-2.3-8.2-4.3-12.5-6.1-13
		c-1.6-0.5-3.9,0.8-6.7,4.4c-1.5,1.5-3.2,3.1-5.4,4.8c-2.3,1.6-5.9,4.6-11,8.9c-5.1,4.3-9.7,7.1-13.5,8.3l-7.4,2.1
		c-1.4,0.7-6.6,3.7-15.5,9.1c-9.1,5.2-13.8,5.9-14.5,1.7c-0.9-4.3-0.2-8.4,1.6-12.5l4.8-11.3c1.1-2.5,3.5-6.7,7.3-13.1l19.3-32
		l14-24.1l12.2-19.1c3.5-6.5,6.7-13.5,9.7-21.4l17.7-47l20.7-53.9c2.5-7.2,5.3-14.5,8.5-21.8c3.4-7.2,5.2-11.8,5.7-14
		c0.4-2,1.3-3.8,2.1-5.5c1-1.6,2.9-2.4,6-2.7c3.5,0,9.3,3.1,17.3,9.2l11.1,8.3c7.5,6.7,11.6,11,12.3,12.9c0.7,1.7,1.1,3.2,1.1,4.2
		c-0.3,2.2-1.1,4.3-2.4,6.1l-5.6,5.1l-6.3,10.4l-5.5,7l-3.1,8l-5.8,11l-3.3,7.8l-7.1,9.4c-1,1.4-2.7,4.2-4.8,8.7l-13.4,24
		c-1.5,2.8-4.3,9.4-8.4,19.7c-4.2,10.2-5.9,17.8-5,22.8c0.2,3.1,1.1,6.3,2.8,9.2c1.7,2.9,3.6,4.8,5.8,5.4c0.8,0.3,3.7,0.1,8.8-0.4
		l7.9-0.3c1,0,5.3-1.5,12.8-4.6l17.7-5.4l14.4-6.8l16.2-6.4l18.2-11.5c2.8-1.2,5.9-1.7,9.2-1.7c2.9,0.4,5.7,0.8,7.9,1.8l14.9,22
		c2.5,3.5,5.9,5.1,10.3,5.1c1.7,0.4,13.4-1.1,35-4.1c21.8-3.2,34.6-6.9,38.4-11.2c3.7-4.5,6-7.4,6.8-9.1c0.8-1.6,1.5-4.1,2.2-7.2
		c0.8-3.3,1.1-6.1,1.1-8.2c-0.2-2.4-1.3-4.4-3.6-6.4c-2.2-2.1-8.1-3-17.7-2.8c-6,0.4-10.6,1-14,1.9c-3.5,0.8-6.2-0.2-8-3
		c-0.8-0.8-1.3-2.1-1.6-4.1l-2.2-14.5l-5.4-12.4c-1.7-3.5-2.4-6.6-2.2-9.4c0-1.7,1-4,2.7-7.1c1.9-2.9,7.3-5,16.6-6l11.2-0.5
		c1.3,0,4.8-0.8,10.6-2.4c5.9-1.7,9.3-2.8,10.1-3.8c0.8-0.8,1.4-3.1,1.8-6.6l1.3-45.7l1.2-23.4c0.1-7.7,0.2-15.1,0-22.4
		c0-7.1,0.1-11.9,0.6-14.3c1.6-12.5,3.1-19.7,4.4-21.4c1.4-1.5,5-2.4,11.2-2.6c2,0,4.2,0.2,6.4,0.5l11.3,3.5
		c1.8,0.6,5.4,1.3,10.5,2.1c5.2,0.8,8.7,1.8,10.5,3.1c1.9,1.3,3,2.6,3.5,4c0.6,1.2-1.8,6.1-7,14c-1.2,1.2-1.9,2.8-2.2,4.2l-2.5,8.2
		l-3.3,8.2c-0.2,0.2-0.8,4.3-1.5,12.2L4095,195l0.6,7.6v4.9c-0.2,7.8-0.5,12.8-0.8,15.3c-0.4,2.6-0.4,4.2-0.2,5.1
		c0,3.5,1.3,5.5,3.7,6.1c2.7,0.6,7-0.6,12.9-3.8c6.1-3.1,12.6-4.8,19.6-5.1c7-0.1,11.6,0.6,13.8,2.2c1.8,1.7,3.4,4.4,4.6,8.6
		l2.8,15.9c0.9,4.7,1.9,7,2.7,7.2c1.1,0.2,2.6-1.9,4.8-5.6c4.1-7,7-12.6,8.4-16.5c1.5-3.9,2.9-6.6,4.5-7.9c1.4-1.3,3.1-2.1,5.2-2.4
		c2.3-0.3,7.7,1.8,16,6.3c8.2,4.3,12.9,8.5,14.1,12.6c1.3,4-0.9,8.8-6.4,14.3c-2.2,2.1-7,8.2-14,17.9l-7.5,9.7
		c-3.5,4.9-7.2,10.8-11.3,18.4c-4.2,7.4-6.4,12.2-6.6,14.1c-0.2,2,2,3.2,6.8,3.5c1,0.2,3,0,5.7-0.7l23.2-2.6l20-6.1
		c4,0.1,6.6,1,7.7,2.3c1.4,1.5,2.8,4.1,4.1,7.7c1.3,3.6,2.4,6.1,3.1,7.2l7.8,12.8c1,2.7,1.8,6.1,2.1,10.3c0.5,4.3,0.9,7.9,0.9,10.9
		c-0.3,9.1-3.1,13.8-8.9,14.3c-4,0.7-11-1.6-20.9-6.9c-9.9-5-16.6-8.1-20.2-9.1l-15.9-2.5c-4.4-0.8-6.8-1.3-7.4-1.4l-11.8,1.8h-14.2
		c-7.4,0.2-14.2,1.9-19.9,5c-5.8,2.9-10.8,7.4-15.2,13.3l-4.5,6.4l-11.9,14l-3.1,4.9C4092.2,405,4094.3,405.1,4096.1,405"/>
	<path class="st1" d="M4677.9,587.5l4.6-0.6c5-0.7,8.6-2.5,11.2-5.4c2.5-2.9,4.6-7.2,6.2-13.1l3.3-16.7c1.8-8.3,2.9-13.1,3.1-14.3
		l0.5-6.6l1.9-11.3V518c-0.2-9.2-2-16.6-5.5-22.2c-3.4-5.8-10.9-8.6-22.2-8.6c-1.9,0.1-7.7,1-17.8,2.2c-9.9,1.5-15.4,2.5-16.3,3.1
		c-1,0.7-2,2-2.8,3.7c-0.7,1.8-1.2,3.8-1.4,6.3c-0.1,2.4,0.6,4.5,2.3,6.4c0.3,0.8,1.2,1.6,2.2,2.2l29.3-1.2c5.2,0.8,8.5,2.4,9.7,5
		c1.3,2.5,2.1,6.1,2.6,10.9c0.4,4.8,0.6,7.7,0.4,8.7c-1.1,2.7-3.1,4.8-6.4,6.6c-3.3,1.6-6.9,2.8-11,3.1l-13.1,0.9
		c-10.2,1.5-15.8,2.8-16.7,4c-1.1,1.1-2.2,3.6-3.1,7.2c-0.9,3.8-1.4,6-1.2,6.8c0,3.1,1.3,5.4,3.9,7l22.3,0.8
		c2.5,0.7,4.3,1.7,5.3,2.9c1.2,1.3,2.1,3.9,2.9,7.8C4672.9,585.6,4674.8,587.5,4677.9,587.5 M4587.1,353.8c1,0,2.8-0.2,5.4-0.6
		c2.7-0.6,5.8-1.2,9.5-1.7c3.7-0.7,6.3-1.1,8-1.3l13.4-0.8c7-1.3,15-6.6,23.8-16c8.7-9.6,13.2-15.1,13.5-17.1
		c0.4-1.8-4.7-2.2-14.9-1.8c-1.7,0.3-7.2,1.1-16.7,2.4c-9.2,1.6-14.9,2.5-16.5,3.3c-1.8,0.6-7.1,6-16.1,15.5
		c-9.1,9.7-13.4,15.1-13,16l0.2,1.7C4584.9,353.4,4586,353.6,4587.1,353.8 M4591.7,567.4c0-5.3-1.4-8.1-4.3-8.5
		c-0.6,0-1.5,0.1-2.5,0.3l-17.5,5.2c-1.6,0.3-2.8,0.4-3.9,0.4c-6.7,0.5-12.5-3.4-17.2-11.5c-4.9-8.2-6.9-13.5-6.6-16
		c0.2-2.1,1-3.8,2.2-4.8c1.3-0.9,9.6-3.1,24.8-6.4c15.2-3.3,22.7-6.2,23-8.9c0.1-2.7-0.2-4.8-0.9-6.4c-2.3-3.2-5.8-5.1-10.4-5.5
		c-4.6-0.2-10,1.1-16,4.1c-6,3-12.3,5.6-18.6,7.7c-6.4,2.2-10.2,4.1-11.1,5.4c-1.1,1.3-1.8,2.5-2,3.4c-0.4,1-0.9,3.6-1.3,7.8
		c-0.5,4.2,0,9.7,1.6,16.2c0.3,1.5,1.4,5.6,3.5,12.3c2,7,4.4,11.9,7,14.7c2.8,3,7.1,4.5,13.1,4.1c1.6,0,3.8,0,6.3-0.2
		c2.5-0.3,7.6-1.2,14.9-2.5c7.5-1.4,11.9-2.6,13.4-3.6C4590.6,574.3,4591.3,571.6,4591.7,567.4 M4473.8,516.8
		c-0.2-0.7-0.1-3.7,0.4-9.2c0.3-5.4,1.2-8.9,2.9-9.9c1.6-1.2,3.3-2.1,5.6-3l26.9-4.6l30.7-7.6l40.3-6.4l25.6-4.9
		c0,0,13.5-1.9,39.8-5.6c26.3-3.5,44.2-5.2,53.6-4.9c9.3,0.7,22.5,3.6,39.5,9.1c16.9,5.4,28.5,10,34.6,14.1c6.1,4.1,9,7.4,8.8,9.7
		c-0.1,1.1-0.6,2.1-1.5,3.4l-8.2,8.9c-3,3.5-5.1,8.2-6.5,14.4c-1.6,6.1-2.7,10.5-3.6,13.5c-0.8,2.9-1.3,4.9-1.6,5.9l-2.4,11.3
		c-2.2,9.4-5.1,18.2-8.8,26.5l-11.6,26.3l-5.8,17.6c-3.3,6.7-7.2,10-11.5,10c-1.3,0.4-2.5,0.2-3.5-0.2c-1.1-0.5-5.8-2.9-14-7.3
		l-22.9-9.6l-11-5.4c-2-0.9-3.5-1.3-4.6-1.9c-2.1-0.3-4.6-0.4-7.2,0c-2.6,0.6-4.2,0.7-4.7,0.7c-0.4,0.2-1,0.2-1.7,0.2
		c-0.9-0.2-1.8-0.2-2.9-0.2c-5.3,0.2-9.7,0.5-13.3,0.8l-10.7,1.9l-18.6,1.9c-8.7,1.3-16.1,3-22,4.4l-26.5,8.9
		c-1.7,0.5-3.2,0.7-4.2,0.7c-1.8,0.2-3.5-0.2-5-0.8c-1.6-0.7-5-3.8-10.5-9.4c-5.6-5.6-8.3-8.5-8.3-8.8l-13.8-13.1
		c-6.7-6.9-11.7-13-14.8-18.1c-3.1-5.4-7.2-12.2-12-21.2c-4.9-8.8-8.6-16-10.9-21.3C4475.8,528.7,4474.3,523,4473.8,516.8
		 M4439.1,231.3c0-3,1.9-5.5,5.5-7.7c3.6-2.2,10.9-4.3,21.7-6.3l33.2-6.1c7.3-0.1,11.4-0.8,12.4-2c0.9-1.1,1.4-2.3,1.5-3.5
		c0.1-1.3,0-3.1-0.6-5.1l-11.5-32.6c-0.8-2.7-1.4-5.1-1.4-7.4c-0.1-2.2,0.3-4,1.4-5.5c1.7-2.6,5.8-4,12.5-4.3
		c18.7-0.2,31.6,1.8,38.6,6c7.2,4.2,11.4,7.9,12.9,11.2l-2.1,27.1c-0.2,0.5-0.2,1.1,0,1.2c0,5.1,2,7.7,5.8,7.7
		c1.6,0.2,5.6-0.3,11.9-1.6c6.4-1.2,15.8-2.5,28.7-4l42.1-3.3c9.3-0.8,15.1-2.5,17.2-4.9c2-2.5,4.4-6.4,6.6-12c2.3-5.6,3.5-9,4-10
		l3.9-13.8l3.3-10.7c0.7-2.2,1.4-6.2,2.1-12.3c0.9-5.9,2.4-10,4.5-12.2c2.2-2.2,7.3-3.8,15.4-4.8c4.6-0.4,12.1,2.1,22.9,7.8
		c10.8,5.4,16.7,8.7,18,10c1.2,1.1,1.8,2.1,2,2.8c0.3,0.5,0.4,1.3,0.5,2.5c0.1,1.1-0.5,2.6-1.4,4.5l-13.7,15.6
		c-2.2,2.6-4.1,5.4-5.6,8.4c-1.6,3-3,5.2-4.2,7.3c-1.3,2-1.6,3.8-1.3,5.3c0.5,1.5,2.1,2.3,4.9,2.5c0.2,0.3,0.6,0.3,1,0l43.9-5.1
		c3.6,1,6.6,2.4,8.6,4.6c2.2,2,3.5,6.3,4.2,12.7c0.6,6.3-0.4,11.5-2.7,15.3c-3.6,5.9-10.8,10.5-21.3,13.6
		c-10.6,3.1-24.5,5.6-41.6,7.3c-17,1.8-26.3,3.3-27.7,4.5c-1.4,1.4-2.5,2.6-3.2,3.2l-5,11.3c-1.6,2.4-5.8,5-12.2,8.3
		c-6.5,3.3-10.6,5.1-11.8,5.6c-1.3,0.3-3.1,0.5-5.6,0.2c-9.6-0.2-14.5-3.1-14.7-8.7c-0.2-0.6-0.2-1.5,0.3-2.5l8.5-18.5
		c-1.8-1.4-9-2.8-21.7-4.8c-12.5-2-20.6-2.7-24.1-2.7l-7.4,1.8l-10,1.1c-9.2,1.8-14.4,3.3-16.2,4.3c-1.7,1-2.5,2.8-3,5.1l0.9,12.2
		v1.4c-0.2,3.2-1.1,6.2-2.6,9.1c-1.4,2.6-5.1,5.6-10.7,8.6c-5.6,3-9.3,4.3-10.7,3.8c-2.7-0.4-4.9-1.3-6.6-3.2
		c-1.8-1.6-3.4-4.9-4.6-9.6c-1.5-4.8-2.9-7.8-4.1-8.7c-1.4-1-2.7-1.8-4.1-2.1c-1.5,0-4,0.6-7.5,1.4l-8.5,2.5
		c-7.1,2.3-13.8,5.9-20.3,10.8c-6.4,5-11,7.6-13.8,7.7c-3.2,0.5-6.6-0.3-9.6-2.3c-3.2-1.8-8.6-7.5-16.5-16.9
		C4442.7,242.6,4439,235.9,4439.1,231.3 M4568.8,393.8c-1.7-0.3-2.8-0.6-3.4-0.8l-18.3,4.7c-14,3-22.9,5.1-26.5,6.5l-17.5,9.8
		c-1.4,0.6-2.6,0.9-3.6,0.6c-4.3,0-7.2-1.2-9.1-3.8c-1.7-2.5-3.9-6.4-6.5-11.7l-9.7-18c-0.7-1.3-1-2.9-1.1-5.1
		c-0.1-2.1,1.9-4.1,6.2-5.6c0.6-0.2,2.6-0.4,5.8-0.6c3.3-0.3,8.3-1.1,15-2.8c7-1.7,11.5-3.1,14-4.5c2.4-1.3,6.1-4.4,10.9-9.7
		c4.9-5.1,8.4-8.7,10.5-10.7c2.2-2,3.1-3.6,2.6-5.2c-0.4-1.7-1.4-2.8-3.3-3.5c-0.9,0-2.2,0.3-4.1,1c-2,0.5-5.2,1.2-9.7,1.8
		l-12.9,2.9l-4,0.3l-7.3,2c-0.1,0.2-2.3,0.4-6.4,0.5l-13.7,2.5l-35.4,5c-23.6,3.1-40,7.1-49.6,11.5c-9.4,4.4-14.6,6.8-15.6,6.8
		c-1.4,0.1-3.2-0.5-5.7-2c-2.6-1.4-4.7-3.4-6.4-5.6c-1.7-2.3-3.6-6-5.7-11.3c-2-5.3-2.8-9.3-2.8-11.8c0-2.2,1.3-3.8,3.9-5.3
		c1.8-0.8,8.2-1.2,19.3-0.8l37.4-8.9l48.2-10.7l9.2-3.1l49.6-11.2l16-3.9c21.2-5.2,34-8.1,38.2-8.8c4.2-0.6,6.8-1.5,8-2.2
		c0.9-0.6,1.7-1.4,1.9-2.1c0.2-0.6-0.6-3-2.2-6.6c-1.6-3.5-2.5-7.2-2.5-11c-0.2-3.6-0.2-5.9,0.1-6.5c0.2-7.2,1.9-13.2,4.9-17.8
		c3.3-4.6,7.3-6.9,12.4-6.7c5.1,0.5,10.4,3.8,15.9,10c5.4,6.4,10.2,11.3,14,14.9c4,3.3,6.2,5.6,7.1,6.5l4.5,7.9
		c1.2,1.4,3.3,2,6.4,2.2c2.4,0.5,5.4,0.3,8.6-0.4c3.5-0.8,7-1,10.3-0.5c2.4,0.6,7.2,0.3,14-0.8c7.1-1.2,14.2-1.9,22-2.3l48.1-1.5
		l16.2-1.1l28.1-1c4.5-0.2,9.7-0.6,15.8-1.6c6-1,10.6-1.3,13.5-1.3c5.4,0.3,9.4,1.9,12.3,4.1c2.7,2.5,4.9,5.5,6.5,8.6l3,7.4
		l7.4,11.9c1,2.8,1.7,8.9,2.2,17.9c0.6,9.1-2.8,13.8-9.6,14.5c-1.6,0.2-3.6-0.3-6.1-1.7l-12.5-6.3c-6.4-2.8-16.7-5.2-30.6-7
		c-13.9-1.8-27.1-2.6-39.8-2.4c-26.2,0.6-41.1,1-44.7,1.3c-3.5,0.4-6.1,0.5-7.8,0.7c-1.6,0.1-2.8,0.3-3.8,0.9c-0.9,0.3-1.6,1-2,2
		c-0.4,0.8,2.7,4.7,9.1,11.6c1.4,1.8,2.3,3.6,2.3,5.3c0.1,1.6-0.3,2.9-1.7,4.1c-0.5,0.7-1.2,1.4-2,1.9c-0.7,0.5-4.7,2.7-12,6.6
		c-7.3,4.1-15.5,9.6-24.5,16.5c-9.1,6.9-17.8,14.3-25.9,22.5c-8.1,8-14.6,14.1-19.6,17.8c-5.1,3.8-10.1,7.8-15,12.2
		c-5.1,4.4-7.5,7.2-7.2,8.4c0.5,1.3,4.4,1.3,11.6,0c7.2-1,12.6-2.2,16-3.5c3.5-1.3,5.8-2.2,6.9-2.8c1-0.6,4.1-4.1,9.6-10.3
		c5.5-6.2,11.4-12,18-17.8c6.6-5.7,15.3-8.5,25.7-8.9c6.1,0,14.1,2.7,23.8,7.8c9.7,4.9,18.6,14.3,26.8,27.8
		c8.2,13.5,11.9,24.6,11.1,33.4c-0.8,7.1-5.4,11.1-13.7,12.1c-7.1,1.2-18.9-2.1-35.2-9.3c-16.4-7.2-24.8-12.9-25.1-16.3
		c-0.4-3.6-0.5-5.5-0.4-5.9c0.5-3.1,5.8-5.4,16-6.8c10.1-1.5,16-3.2,18.1-4.9c2-1.7,3.1-3.3,3.3-4.8c0.3-1.7-0.1-3.5-1.3-5.5
		c-2.2-3.3-5.5-5.9-9.7-8.3c-4.3-2.3-8-3.3-11.4-3.3c-2.8,0.2-6.6,1.9-11.4,5.6c-4.8,3.6-8.1,7.1-9.9,10.5l-4,10.4
		c-1.4,3.3-2.2,4.9-2.2,5.3l-0.5,10c-0.6,5.6-2.5,9.5-5.9,11.8c-3.1,2.3-11.5,3.8-25,4.6c-13.4,0.8-29,2.9-46.9,6.6
		c-17.9,3.5-33.9,7.9-47.7,13.4c-13.8,5.4-22.4,7.5-25.9,6.2c-3.1-0.8-8.2-5.2-15.6-13.4c-7.3-8.2-9.8-15-7.5-20.5
		c0.4-1.1,1-2.3,2-3.1c1-1,3.7-1.8,8.2-2.9c4.6-0.8,9.1-2.6,13.6-5.3l29.4-18.2c9-3.8,15.4-7.6,19.1-11.8
		C4566.4,398.4,4568.3,395.5,4568.8,393.8"/>
	<path class="st1" d="M5261.8,336.9c-2.3,12-1.7,17.7,1.9,17.4c3.4-0.3,6.7-1.4,10.1-3.4l26.2-17.8c8.9-5.5,14.2-9.5,15.7-12.2
		c1.6-2.6,2.9-5.9,3.9-9.7l3.9-19.2l5.6-25.3c0.4-2.9,1-10.4,1.5-22.9c0.6-12.3-0.1-20.6-2.4-24.7c-2.3-3.3-5.8-5.2-10.7-5.4
		c-4.4,0-8.6,0.9-12.5,2.9c-3.8,2.1-7.8,6-12,11.5c-4.2,5.6-6.8,9.1-7.8,10.2l-8.5,9c-0.6,1-2.4,3.8-5.2,8.9c-2.8,5.1-4.1,8.3-4,9.9
		c0.2,1.3,1,2.4,2.4,3.3c1.3,0.8,7.3-2.2,17.7-8.9c5.5-3.5,12.2-5.1,20.2-5.1c8,0.1,12.2,3.8,12.9,11c0.8,7.3-0.9,13.3-4.9,18.2
		l-12.5,10.5l-14.1,15.7l-17.2,12.6C5265.7,327.8,5262.6,332.3,5261.8,336.9 M5246.9,504.2l0.2,16.4c-0.4,11.7,0.5,18,2.7,19
		c2.3,1.2,4.4,1.6,6.3,1.6c9.4,0.3,19.4-2.6,30.1-9.2c10.7-6.4,19-13.4,24.9-20.8l12.5-17.7c4.6-5.9,7-10.5,7-13.4
		c-0.2-2.5-2.8-5.2-7.6-8.2c-5-3.1-7.8-4.8-8.8-5.5c-0.8-0.5-4.1-1.5-9.8-3.7c-5.8-2-12-4.8-18.5-8.6c-6.6-3.6-11.3-5.4-14.2-5.4
		c-10.4,0.5-16.5,2.4-18.6,5.7c-1.8,3.4-3.5,9.5-4.9,18.5C5247.2,481.8,5246.6,492.3,5246.9,504.2 M5305.4,393.6
		c3.1-2.1,10.2-5.7,21.7-10.9c11.4-5.2,21-11.1,28.7-17.8l33.2-29c5.4-4.6,11.2-10.7,17.7-18.1c6.6-7.5,10.9-11.2,13-11.5
		c2.2-0.1,4.3,0.3,6.6,1.7c3.5,2.3,7.1,7.4,10.8,14.7c3.8,7.6,5.7,12.5,5.7,14.7c-0.2,1.1-0.7,2.3-1.2,3.8c-0.4,1.2-2.9,4.1-7.5,8.1
		c-4.7,3.9-8.2,7.3-10.8,10.5l-15.5,19.7c-2.4,3-4.6,5.1-6.4,6.7l-7.8,6.1c-2,1.8-5.4,5.4-10.2,10.7c-4.9,5.2-8.9,9.1-12.5,11.3
		l-25.8,15.8c-2.3,2.5-3.5,4.6-3.7,6.6c-0.2,2,0.9,4.5,3.4,7.8c2.4,3.3,14.9,9.9,37.5,19.7l43,19.2l24.2,10.7l39.6,8.9
		c2,0.7,12.1,3.8,30.6,9.7c18.4,5.9,29.8,11.4,33.9,16.5c4.1,4.9,6.3,8.1,6.5,9.5c0,1.5-3.8,4.8-11.6,10l-4.9,4.3
		c-5.9,5.1-21.3,8.8-46.2,11c-5.8,0.7-14.9,0.2-27.3-1.4c-12.5-1.5-20.9-2.2-25.2-2.2l-10.5,0.2c-3.7,0-6.3-0.3-7.8-1.2
		c-1.5-0.9-2.8-2-3.8-3.3c-1-1.5-2.3-6.3-4-14.4c-1.7-8-6.4-16.4-13.7-25.5c-7.5-9-12.9-14.4-16.1-16.4l-14.3-4.8
		c-8.8-3.1-14.1-4.6-15.9-4.6c-1.6,0.2-3.4,0.7-5.2,1.2c-1.9,0.7-3.7,4.9-5.9,12.7c-2,7.5-5.1,15-9.4,21.9
		c-4.5,6.9-7.2,11.3-8.1,13.3l-7,13.2c-1.4,2.3-3,4.4-4.6,6.4l-15.6,17.8l-6.4,10c-0.2,0.2-2.9,3-8.2,8.6l-8.6,9.7
		c-7.7,8.6-14.7,14.5-20.6,17.2c-6,2.7-9.8,3.9-11.5,3.8c-3.1,0-6.1-2-8.8-5.7c-2.7-3.9-4.7-9-6.1-15.3l-2.7-13.2l-4-13.6
		c-0.8-2.7-1.6-7.1-2-13.1l-6-45.2c-1.1-6.6-1.5-11.7-1.5-15.2l-0.5-25.4l-1.9-12.8c-1-6.1-1.4-14.4-1.2-24.7
		c0-13.6,0.5-25,1.7-34.3l4-27.5l0.9-45l1.3-16.7c0.4-6.5,0.6-18.4,0.9-35.9c0-15.9-1.2-27.6-3.3-35.2c-2.1-7.4-3.1-12.3-2.8-14.4
		c0.2-3.3,1.2-5.8,3.3-7.2c1.9-1.5,8.3-5.1,18.9-10.6l30.8-20.1c2.6-1.5,5.4-2.9,8.5-4.3l22.6-8.5l15.3-7.1c13.8-6,28-8.9,42.6-9.3
		c9,0,16.6,1.2,22.9,3.5c6.3,2.2,12.2,5.4,17.9,9.3c5.7,4.1,9,7.1,9.8,8.8c0.8,1.8,1.4,3.3,1.4,4.3c0.1,1,0.1,2,0,2.8
		c-0.5,1.5-1.7,4-3.9,7.8c-1.9,3.8-3.4,6.6-4.2,9l-4,12.5l-2.4,6.6l-2.7,11.4c-0.8,3.3-2.2,7.4-4.1,12.5c-2,5.1-3,8.1-3.4,9.5
		l-3.9,23.2c-1.1,6.2-4.1,15.5-8.7,27.7c-4.5,12.2-8.7,21-12.5,26.6c-3.8,5.8-12.7,13.1-27,22.7c-14.4,9.4-22.9,15-25.5,16.9l-8,6.9
		c-4.3,3.5-6.4,5.6-6.4,6.4l-0.6,2.8C5295.9,398.2,5300.1,397.1,5305.4,393.6 M5028.7,328l47.9-75.3l24.7-37.9
		c3.8-6.2,6.6-11.8,8.9-16.7l5.5-14.4c1.4-3.6,4-9.3,7.8-17.4c3.8-7.9,6.1-14.8,6.9-20.5c0.8-5.8,2.5-10.8,5.2-15
		c2.6-4.1,9.8-2.3,21.4,5.4c13.8,9.6,22,17.1,24.5,22.5c2.5,5.5,3.9,8.8,3.9,9.9c0.2,1-0.1,2.1-0.7,3.6c-1.7,3.9-6.9,11.3-15.9,21.7
		c-8.8,10.5-14.1,17.2-15.4,20.4c-1.3,2.9-2.1,6-2.2,9.6c-0.2,3.2,2.5,5.1,8.2,5.2c2.7,0.3,7.5-0.8,14.9-3.2
		c7.3-2.3,12.3-3.4,14.9-3.2c7,0.9,11.5,3.8,14,8.9c2.3,5,3.4,9.6,3.5,13.7c0.1,4-1.3,8.8-4.4,14.7c-4.6,8.8-11.1,15.9-19.1,21.4
		c-8,5.5-14.8,8-20.5,7.5c-0.9,0-1.4-0.2-1.8-0.2c-0.4-0.2-4.7-3.4-12.9-10c-8.2-6.8-15.6-10.2-22.5-10.5c-3.3,0-5.7,0.3-7.5,0.8
		c-1.8,0.6-4.9,3.1-9.7,7.4l-9.7,8.2c-2.7,2.7-7.2,8.4-13.5,17.3c-6.3,9.1-10.3,15.6-12.2,19.8c-1.8,4.1-2.6,8.4-2.5,12.6
		c0,2,0.5,3.8,1.3,5.3c0.9,1.7,3.1,2.7,6.6,3.3c5.4,1,16.7-4.1,34-15.5c17.2-11.2,31.3-15.6,42.1-13c9.4,2.4,14,9.5,14,21.3
		c-0.2,4.1-1,8.6-2.5,13.7c-1.4,4.9-3.7,9.7-6.6,14.2l-9.8,12.9c-1.2,2-2.4,4.7-3.6,8.6c-1.2,3.5-1.7,6.2-1.6,7.8
		c0,3.3,1,5.8,2.8,7.6l19.2-4.3h1.6c3.5,0.5,6,2,7.6,5c1.7,2.9,2.5,6,2.7,9.1c0,3.3-0.5,6.8-1.7,10.4c-3.2,9.8-9.3,18.9-18.1,27.3
		l-11.4,10.8l-6.4,7.1l-16.1,11.4c-2.4,2.5-4.9,6.9-7.3,12.9c-2.6,6-3.6,10.9-3.4,15.1c0,2.8,0.9,6,3,9.5c2,3.6,5,5.4,9.3,5.4
		c6.7,0.4,16.5-6.4,29.5-20.3c12.9-14.2,22.3-25.9,28.2-35c6-9.2,10.2-13.7,12.8-13.5c1,0.1,2,0.8,2.5,1.7c0.8,1,1.5,2.7,2,5.7
		c0.6,3-2.1,11.9-8.2,26.6l-5.6,15c-1.5,4.2-3.8,8.3-6.4,12.9l-10.1,16.3c-9.1,14.5-16.9,26.1-23.6,34.9c-6.6,8.5-13.1,14.6-19.3,18
		l-11.6,6.1l-13.8,10.4c-2.1,0.9-3.6,1.4-4.9,1.3c-1.7,0-3.1-0.6-4.7-1.6c-1.6-1-3.2-3.3-5.1-6.9c-2-3.7-3.7-13-5.1-28.1l-2.8-24.7
		c-0.5-4.9-0.6-11-0.6-18.6V518c-0.2-1.2-0.3-2.1-0.2-2.8c0-0.7,0.2-4.1,0.2-10.6c0.1-6.4-1.3-10-4.4-10.8c-0.9,0-3.1,0.5-6.1,1.6
		l-15,2.7c-1.9,0.6-6.1,2.2-11.9,4.9c-6.1,2.7-9.2,3.9-9.7,3.9c-2.8,0.5-5-1-6.9-4.1c-2-3.1-4.1-10.2-6.4-21
		c-2.3-10.9-3.4-17.8-3.3-21c0-6.7,2.5-11.1,7.3-13.3l26.3,0.4c5.5-0.4,12.8-3.4,21.8-9.2c9.1-6,13.8-10.7,14.2-14.5
		c0.4-3.8,0.2-6.3-0.7-7.2c0,0-2.3-1.9-6.3-5.5c-3.9-3.6-7.9-9.5-11.8-17.6c-4-7.8-6.5-12.4-7.4-12.9c-1-0.6-2-1.1-2.8-1.3
		c-0.8,0-1.5,0.2-2.2,0.6c-0.7,0.2-1.3,0.5-2.1,0.8l-20.8,19.3c-4.1,3.1-12.3,7.9-24.6,14.4c-12.3,6.6-21,9.9-26.1,9.9
		c-6.6,0.1-10-1.5-10.2-4.8c0-3.4,0.1-6,0.6-7.6c0.8-3,3.9-9.1,9.3-18.4c5.3-9.2,9.6-15.8,12.6-19.6L5028.7,328z"/>
	<path class="st1" d="M5898,233.1c0-2.3,0.5-4.5,1.6-6.1c1-1.5,4.1-3,9.4-3.9l16.5-1.5c3.3-0.5,7.7-1.4,13.1-3.3l70.4-23.8
		c4.3-1,9.7-2.5,16.3-4.6c6.6-1.9,12.9-3,18.7-3c7,0.3,11.7,2.3,14.2,6.3c2.7,4,5.1,9.1,7.4,15.4c2.3,6.4,3.3,10.8,3.3,13.8
		c-0.1,2.6-0.8,4.9-1.9,6.7c-1.1,2-5,5.1-11.4,9.4l-5.2,3.9c-4.5,3.4-12.9,7.8-25.1,12.8c-12.2,5.1-18.4,7.6-18.4,7.6l-13.6,7.1
		c-3.1,1.4-6.6,2.4-10,2.9l-33.8,2.1l-10.3,1.4c-5,0.3-7.5,0.4-7.8,0.4l-9.7,2.8c-0.8,0.2-1.3,0.4-1.3,0.4c-2.9,0.2-5.4-1-7.8-3.4
		c-2.3-2.7-4.4-7.5-6.2-14.5c-1.9-7.2-3.7-12.8-5.6-17.1c-2-4.3-2.9-7.1-3.1-8.2C5897.8,235.2,5897.8,234.2,5898,233.1
		 M5947.1,319.4l44.5-14.9l9.4-2.1l8.6-2.5c5.1-1.3,10.7-2.3,16.8-2.6l21.9-1.3l25.7-6.1l18.2-0.7c2.9,0,5.9-0.2,9-0.4
		c3.1-0.5,5.2-0.7,6.6-1c1.5,0,2.8,0.2,4.2,0.3l3.1,0.7h7.6c2.9,0.4,8.3,6.2,16.2,17c8,10.7,12.1,20.5,12.3,29.4
		c0.1,9.1-0.4,14.5-1.4,16.3c-2.2,3.9-5.8,6.1-10.9,6.1c-1.4,0.1-2.9,0-4.6-0.3l-31.1-5.6l-11.3,0.6c-9.8,0.5-16.6,1-20.6,1.8
		c-3.9,0.9-7.2,3.6-10,8.3c-2.8,4.5-4.8,8.9-5.9,13c-1.2,4.3-2,6.9-2.2,7.9c-0.2,1.1-0.2,9.9,0,26.1v5.2v5.2l-1.2,10.4l0.7,7.1
		c-0.2,0.5-0.5,2-0.8,4.3c-0.2,2.5-0.3,6.6-0.3,12.5c-0.2,6.1,0,10.3,0.4,13l0.9,9.5c0,2-0.1,5.7-0.5,11c-0.2,5.3-0.4,9.6-0.2,13
		c0.1,3.5,0.1,5.4,0.1,5.9l-0.5,10.6c-0.1,3.3-0.1,6.4,0,9.6c0,1.5,0,2.8,0.3,3.5l1.2,7.6c0,0.5-0.1,1.8-0.2,4.1
		c-0.1,2.1,0,3.3,0.2,3.6c0,3.7,0,6.4,0.2,8.3c0,2,0.5,5.4,1.4,10.3c0.9,4.8,2,11.7,3.1,20.5c1,9,2.3,16.4,3.9,22.6
		c1.5,6.2,2.1,10.7,1.7,13.3c-1,6.1-4.5,9.2-10.6,9.4c-1.8,0.1-3.9-0.2-6.5-0.8l-13.1-4.1l-13.6-2.3c-1.8-0.3-7.8-2.3-17.9-6l-37-11
		c-7.9-2.5-16.3-5.9-25-9.6c-8.7-4.1-14.3-6.9-16.8-8.7l-13.3-12.5l-14.4-9.5c-14-10.3-21.4-16.8-22.1-19.4c-0.6-2.4-1-4.5-0.8-5.8
		c0-1.3,1-2,2.8-2c0.5,0.3,1.4,0.5,3,0.8c1.4,0.3,5.2,1.7,11,4.3c5.8,2.5,9.5,4.1,11.5,4.6c2.1,0.5,5.1,1.2,9.4,2.1
		c4.4,0.9,14.5,3.5,30.2,7.7c15.9,4.3,31.3,6.1,46.6,5.8c8.7-0.2,14.4-2.5,17-6.7c2.7-4.3,4-8.3,4.3-11.8c0.2-3.6,0.2-9.4,0-17.1
		l-0.4-16.7c-0.2-2.9-0.4-5.8-0.6-8.9l-1.2-11.2l-0.7-14.9c-0.2-1.6-0.4-2.9-0.6-4.4c-0.2-1.5-0.5-6.9-0.7-16.8l-1.8-20.7l-2.1-29.9
		l-3-15.2c-2-10.8-4.5-17.9-7.1-21.3c-2.6-3.2-7.6-5.1-14.9-5.4c-8.3,0-15.5,0.6-21.7,1.5c-6,0.8-11,1.4-14.9,1.8
		c-4,0.3-9.8,1.5-17.1,3.8c-7.2,2.3-13.1,3.9-17.6,5.3c-4.3,1.2-7.2,1.9-8.5,2.5c-1.3,0.5-5.2,2.5-11.8,5.9c-6.5,3.3-9.9,5-10.8,5.2
		c-0.7,0.2-1.4,0.4-2.2,0.4c-4.7,0.2-9-3.4-13.2-11l-3.3-6.4l-7.3-10.1c-2.8-4.4-4.2-8.7-3.7-12.8c0.2-3.3,1.1-5.4,2.5-6.9
		c1.7-1.3,4.3-2.2,8-2.6c3.7-0.5,10.7-2.1,20.5-4.6c9.7-2.5,21.7-4.6,35.6-6.5C5923.6,326.2,5936.2,323.4,5947.1,319.4
		 M5726.6,310.1c0.5-4.1,3.4-12,9.1-23.7c5.5-11.7,10.8-21.5,15.7-29.8l18.3-30.4c4.9-8.6,7.9-13.8,9.1-16l12-16.8
		c2.3-3.6,4.6-7,6.8-9.7c2-2.6,4.8-3.9,8.4-3.9c3.3,0.2,11.3,5.1,23.7,15c12.4,9.7,18.9,16.7,19.7,20.6c0.8,3.9-1.5,8.7-6.6,14.5
		c-6.3,7-10,11.2-11.3,12.1l-4.9,3.9l-4.8,5.9c-1.1,1-4.1,3.8-9.3,8.4l-11.2,10.7c-1,1.1-6.5,5.3-16.5,12.9
		c-10,7.5-19.2,15.6-27.8,24.3c-8.5,8.8-15.2,12.6-20,11.7c-2.4-0.5-4.8-1.3-6.6-2.9c-2-1.5-3.2-3-3.6-4.3
		C5726.6,311.2,5726.3,310.4,5726.6,310.1 M5806,299.5c2.6,0.3,7.1,2,13.6,5.1c6.4,3.2,10.9,7.1,13.4,11.7c2.8,4.8,4.1,8.1,4.3,9.7
		c0.2,1.6-1.6,5.1-5.7,10.2l-4.4,5.4l-8.1,8.2c-3.1,3.3-4.9,5.9-5.5,7.7c-0.6,1.8-1.1,3.4-1.3,5l-1.8,17.1c-0.5,4.4-1.8,9.6-3.4,16
		c-1.7,6.4-2.8,10.7-3,12.6l-0.2,20.8l-2.5,11l-0.9,12.4l-1.5,8.6l-0.3,3.9l-1.6,6.1c-0.1,0.5-0.1,2.6,0.4,6.7v6.8l1.2,12.8v2.7v4.1
		l-1.6,28.2c-0.1,1.5-0.1,2.4,0,3l3.4,15l0.3,7l0.9,9.7c0,4.4-1,8.2-3.1,11.3c-2.7,3.9-7.8,5.9-15.6,6.1
		c-10.7,0.3-17.4-1.2-19.7-4.8c-2.4-3.6-3.8-6.1-3.8-7.6c-0.2-1.7,0.5-5.9,2-13c0.1-1.8,0.3-5.6,0.3-11c0.1-5.7,0.4-10.7,1.1-15.1
		c0.6-4.6,1-7.3,1.3-8.1l0.2-16.9l1.3-11.7c0.2-8.4,0.5-13.3,1-15.1c0.6-1.7,0.9-2.8,1.1-3.2l-1.9-10c0-0.2,0.3-1.3,1-3.2
		c0.6-1.8,0.9-4.6,0.9-8.6c-0.2-6-1.1-14.9-2.5-26.6c-1.5-11.7-4.1-16.8-7.8-16c-1,0.4-2.2,1.1-3.1,1.9c-0.9,0.8-2.3,2.3-3.8,4.6
		c-1.5,2-4.6,6.3-9.2,12.3c-4.5,6-7.2,11.9-7.7,17.5c-0.5,5.7-1,9-1.3,9.9c-0.2,1-1,2.6-2.6,4.9c-1.4,2.3-2.9,4.1-4,5.2l-5,4.1
		l-6.4,6.4c-4,3.6-7.2,6.4-9.6,8.3c-2.4,1.8-7.6,4.9-16,9.2c-8.4,4.4-16.3,7.2-23.8,8.2c-7.6,1.2-12.9,1.5-15.9,0.9
		c-3.1-0.7-4.5-1.6-4.5-2.9v-3.1v-0.6c0-1,1-3,3.3-5.8l5.5-7.9c1.2-1.4,5.2-4.9,11.9-10.7c6.7-5.8,22.2-23.4,46.7-53.1
		c24.6-29.7,40.9-51.7,49.1-66.3c8.1-14.4,13.5-23.4,16.1-27c2.6-3.5,6.1-8.6,10.2-15.5c4.3-6.7,8.2-10.8,11.9-12.5
		C5803,300.4,5805.3,299.5,5806,299.5"/>
</g>
</svg>
