<?xml version="1.0" encoding="utf-8"?>
<!-- Generator: Adobe Illustrator 24.3.0, SVG Export Plug-In . SVG Version: 6.00 Build 0)  -->
<svg version="1.1" id="图层_1" xmlns="http://www.w3.org/2000/svg" xmlns:xlink="http://www.w3.org/1999/xlink" x="0px" y="0px"
	 viewBox="0 0 380 64" style="enable-background:new 0 0 380 64;" xml:space="preserve">
<style type="text/css">
	.st0{fill:#FFBF00;}
	.st1{fill:#DA2A22;}
	.st2{fill:#6F6F6F;}
	.st3{fill:#0066CC;}
	.st4{fill:#54A6ED;}
</style>
<g>
	<path class="st0" d="M8.6,30.4c0,11.8,9.6,21.3,21.4,21.3s21.4-9.6,21.4-21.3c0-11.8-9.6-21.3-21.4-21.3S8.6,18.7,8.6,30.4z"/>
	<path class="st1" d="M11.5,30.4c0,6.6,3.5,12.7,9.2,16c5.7,3.3,12.7,3.3,18.5,0c5.7-3.3,9.2-9.4,9.2-16C48.4,20.3,40.2,12,30,12
		c0,0,0,0,0,0C19.8,12,11.5,20.2,11.5,30.4C11.5,30.4,11.5,30.4,11.5,30.4z"/>
	<path class="st0" d="M38.3,24.6l0.9-1.8l0.5,1.9h1.9L40,25.6c0.1,0.6,0.2,1.3,0.4,1.9c-0.5-0.5-1-0.8-1.5-1.2
		c-0.6,0.3-1.3,0.6-1.7,0.9l0.6-1.7l-1.4-1.1C37,24.4,37.6,24.6,38.3,24.6C38.3,24.6,38.3,24.6,38.3,24.6z M35.7,31.5L33.9,31
		l-1,1.6l-0.2-1.8c-0.5-0.2-1.1-0.3-1.7-0.5l1.7-0.7c0-0.6-0.1-1.2-0.1-1.8l1.3,1.3l1.7-0.5l-0.9,1.5C35,30.5,35.4,31,35.7,31.5z
		 M28.7,20.4l1.3-3.6l1.3,3.6H35l-3.1,2.2v0.1l1,3.1L30,23.9l-2.9,1.9l1-3.1v-0.1L25,20.4C25,20.4,28.7,20.4,28.7,20.4z M24.4,28.6
		l1.7,0.5l1.3-1.3c0,0.6-0.1,1.2-0.1,1.8l1.8,0.7c-0.6,0.1-1.3,0.2-1.7,0.5L27,32.6L25.9,31l-1.7,0.5c0.4-0.5,0.8-0.9,1.1-1.5
		C25.3,30,24.4,28.6,24.4,28.6z M20.2,24.7l0.4-1.9l1,1.8c0.6,0,1.3-0.1,1.9,0l-1.4,1.1l0.6,1.7c-0.5-0.3-1.1-0.6-1.7-0.9
		c-0.5,0.3-1,0.7-1.5,1.2c0.1-0.6,0.2-1.3,0.4-1.9l-1.5-0.9H20.2z M24.5,41.9v-1.5c-0.4-0.1-1.3-0.3-1.5-0.5c-0.1-0.1,0-0.2,0.1-0.2
		c0.8,0,1.6-0.2,2.4-0.5v0c-0.4,0-0.8-0.2-1.2-0.3c-0.1,0-0.1-0.1-0.1-0.1c0,0,0-0.1,0.1-0.1c0.7-0.1,2.2-0.5,2.9-1.8l0-0.6
		c0-0.1,0-0.2,0.1-0.2c0-0.1,0.1-0.1,0.2-0.1c0.1,0,0.1,0,0.2,0.1c0,0.1,0.1,0.1,0.1,0.2v0.3h4.1v-0.3c0-0.1,0-0.2,0.1-0.2
		c0-0.1,0.1-0.1,0.2-0.1c0.1,0,0.1,0,0.2,0.1c0.1,0.1,0.1,0.1,0.1,0.2v0.6c0.9,1,2.5,1.6,3.2,1.8c0.1,0,0.1,0.2,0,0.2
		c-0.4,0.2-0.8,0.3-1.2,0.3v0.1c1.2,0.3,1.9,0.4,2.1,0.4c0.2,0,0.2,0.1,0.1,0.2c-0.1,0.1-0.9,0.3-1.2,0.4v1.6h6v2H18.5v-2L24.5,41.9
		L24.5,41.9L24.5,41.9z"/>
	<path class="st1" d="M14.2,44.6l-1.6,5.6c-0.1,0.6,0.2,1.1,0.7,1.4c0.3,0.2,0.5,0.3,0.8,0.3c0.2,0.3,0.5,0.6,1,0.7
		c0.1,0,0.2,0.1,0.4,0.1c0.2,0.5,0.6,0.8,1.1,0.9c0.2,0.1,0.4,0.1,0.5,0.1v0.1c0.3,0.5,0.7,0.8,1.3,0.8l2.8,0.2
		c0.5,0,1.1-0.2,1.4-0.6h0.4c0.6,0.4,1.3,0.4,1.6,0.4h0.1c0.3,0.1,0.7,0.1,1,0.1h0.2l2.2,0.2h0.2c0.2,0,0.4-0.1,0.7-0.1
		c0.7,0.1,1.3,0.1,2,0c0.2,0.1,0.5,0.2,0.8,0.1l2.2-0.2H34c0.3,0.1,0.5,0.1,0.8-0.1h0.3c0.4,0,1.1-0.1,1.7-0.4h0.4
		c0.3,0.4,0.8,0.7,1.4,0.6l2.7-0.2c0.4,0,0.7-0.2,1-0.4c0.1-0.1,0.2-0.3,0.4-0.4c0.2-0.1,0.4-0.1,0.6-0.1c0.5-0.1,0.9-0.4,1.1-0.9
		c0.1,0,0.2-0.1,0.4-0.1c0.4-0.1,0.8-0.3,1-0.7c0.2-0.1,0.5-0.2,0.8-0.4c0.5-0.3,0.7-0.8,0.7-1.4l-1.3-5.6c-0.1-0.3-0.4-0.5-0.7-0.4
		c-0.1,0-0.1,0-0.2,0.1c-6.2,4-11.3,6-15.2,5.9s-8.8-2-14.8-6c-0.3-0.2-0.6-0.1-0.8,0.2C14.2,44.5,14.2,44.6,14.2,44.6L14.2,44.6z"
		/>
	<path class="st0" d="M33.3,49.6L33.3,49.6c-0.2,0-0.4-0.1-0.4-0.3c0-0.1-0.1-0.3-0.2-0.4c-0.1-0.2-0.1-0.3,0.1-0.5l0,0
		c0.2-0.2,0.2-0.4,0-0.6c0,0,0,0,0,0l-0.3-0.3c-0.2-0.2-0.4-0.2-0.6,0l0,0c-0.1,0.1-0.3,0.2-0.5,0.1c-0.1-0.1-0.3-0.1-0.4-0.2
		c-0.2-0.1-0.3-0.2-0.3-0.4v0c0-0.2-0.2-0.4-0.4-0.4h-0.4c-0.2,0-0.4,0.2-0.4,0.4v0c0,0.2-0.1,0.3-0.3,0.4c-0.1,0-0.3,0.1-0.4,0.2
		c-0.2,0.1-0.4,0.1-0.5-0.1l0,0c-0.2-0.2-0.4-0.2-0.6,0l-0.3,0.3c-0.2,0.2-0.2,0.4,0,0.6c0,0,0,0,0,0l0,0c0.1,0.1,0.2,0.3,0.1,0.5
		c-0.1,0.1-0.1,0.3-0.2,0.4c-0.1,0.2-0.2,0.3-0.4,0.3h0c-0.2,0-0.4,0.2-0.4,0.4v0.4c0,0.2,0.2,0.4,0.4,0.4h0c0.2,0,0.3,0.1,0.4,0.3
		c0,0.1,0.1,0.3,0.2,0.4c0.1,0.2,0.1,0.3-0.1,0.5l0,0c-0.2,0.1-0.2,0.4,0,0.6c0,0,0,0,0,0l0.3,0.3c0.2,0.2,0.4,0.2,0.6,0l0,0
		c0.1-0.1,0.3-0.1,0.5-0.1c0.1,0.1,0.3,0.1,0.4,0.2c0.2,0,0.3,0.2,0.3,0.4v0c0,0.2,0.2,0.4,0.4,0.4h0.4c0.2,0,0.4-0.2,0.4-0.4v0
		c0-0.2,0.1-0.3,0.3-0.4c0.1,0,0.3-0.1,0.4-0.2c0.2-0.1,0.4-0.1,0.5,0.1l0,0c0.2,0.2,0.4,0.2,0.6,0l0.3-0.3c0.2-0.2,0.2-0.4,0-0.6
		c0,0,0,0,0,0l0,0c-0.1-0.1-0.2-0.3-0.1-0.5c0.1-0.1,0.1-0.3,0.2-0.4c0.1-0.2,0.2-0.3,0.4-0.3h0c0.2,0,0.4-0.2,0.4-0.4c0,0,0,0,0,0
		V50C33.7,49.8,33.5,49.6,33.3,49.6C33.3,49.6,33.3,49.6,33.3,49.6L33.3,49.6z"/>
	<path class="st1" d="M28.5,50.2c0,0.8,0.7,1.5,1.5,1.5s1.5-0.7,1.5-1.5l0,0c0-0.8-0.7-1.5-1.5-1.5C29.2,48.8,28.5,49.4,28.5,50.2
		L28.5,50.2z"/>
	<path class="st0" d="M22.5,54.2v-3c0-0.3,0.3-0.6,0.6-0.6c0.1,0,0.2,0,0.2,0.1c1.6,0.7,3.2,0.8,4.8,0.3
		C27.5,52.4,25.7,53.5,22.5,54.2L22.5,54.2z M37.2,54.2v-3.1c0-0.3-0.3-0.6-0.6-0.6c-0.1,0-0.2,0-0.2,0.1c-1.5,0.7-3.2,0.8-4.8,0.2
		C32.2,52.4,34,53.5,37.2,54.2z"/>
	<path class="st1" d="M26.1,49.7c1.6,0.3,2.9,0.4,3.9,0.5c0.9,0.1,2.4-0.2,4.4-0.7l-0.5,1.6c-2.2,0-3.5-0.2-3.9-0.5
		c-0.3,0.3-1.6,0.4-3.9,0.5C26.1,51.2,26.1,49.7,26.1,49.7z"/>
</g>
<g>
	<path d="M79.7,18v9.4h-2.3v-0.9h-4.1v5.9h-2.3v-5.9H67v1h-2.2V18h6.3v-3.3h2.3V18H79.7z M71.1,24.3v-4H67v4H71.1z M77.5,24.3v-4
		h-4.1v4H77.5z"/>
	<path d="M85.1,20.1c-0.5,0.5-1.1,0.9-1.6,1.3c-0.3-0.4-1.1-1.3-1.5-1.7c1.9-1.1,3.8-3,4.9-4.9l2,0.8c-0.5,0.8-1.1,1.6-1.7,2.4v6.6
		h-2.1V20.1z M98.7,28.6h-7.1v3.8h-2.3v-3.8h-7.1v-2.1h7.1v-2.1h2.3v2.1h7.1V28.6z M90.8,20.6c-0.8,0.2-1.5,0.5-2.3,0.7
		c-0.1-0.5-0.5-1.3-0.8-1.8c1-0.3,2.1-0.6,3.1-1V15H93v2.6c1.4-0.6,2.7-1.3,3.7-2l1.5,1.8c-1.5,1-3.3,1.8-5.3,2.5v1.4
		c0,0.7,0.1,0.8,0.9,0.8h2.1c0.6,0,0.7-0.3,0.8-1.9c0.5,0.3,1.3,0.7,1.9,0.8c-0.2,2.3-0.8,3-2.5,3h-2.6c-2.2,0-2.7-0.6-2.7-2.7V20.6
		z"/>
	<path d="M109.7,14.8c0,0.8-0.1,1.8-0.1,2.9c0.3,2.5,1.4,9.6,7.7,12.5c-0.7,0.5-1.3,1.3-1.6,1.9c-4-2-6.1-5.7-7.1-8.9
		c-1,3.3-2.9,6.7-6.7,9c-0.4-0.6-1.1-1.3-1.8-1.8c7.4-4.1,7-12.5,7.1-15.7H109.7z"/>
	<path d="M129.6,25.9c0.8,2.3,2,4,3,4c0.5,0,0.6-0.8,0.7-2.7c0.5,0.5,1.3,0.9,1.9,1.1c-0.3,3.1-1.1,3.8-2.7,3.8
		c-2.3,0-4.2-2.6-5.2-6.2h-4.7v3.5l4.3-0.9c0,0.6,0.1,1.6,0.2,2.1c-5.3,1.3-6.2,1.5-6.8,1.8c-0.1-0.6-0.6-1.5-1-2
		c0.4-0.3,0.9-0.8,0.9-1.6V15.6h13.2v6.1h-4.7c0.1,0.7,0.2,1.4,0.3,2.1h5.7v2.1H129.6z M122.5,17.7v2h8.8v-2H122.5z M126.8,23.8
		c-0.1-0.7-0.2-1.4-0.3-2.1h-4v2.1H126.8z"/>
	<path d="M153.3,24.1v2.2h-16.6v-2.2h3.9v-3.6h-3.3v-2.2h3.3v-3.5h2.3v3.5h4.2v-3.5h2.3v3.5h3.4v2.2h-3.4v3.6H153.3z M143.7,28
		c-1.4,1.6-3.4,3.3-5.1,4.4c-0.5-0.5-1.3-1.2-1.8-1.6c1.7-0.9,3.6-2.5,4.6-3.7L143.7,28z M142.9,24.1h4.2v-3.6h-4.2V24.1z M148.2,27
		c1.5,1.1,3.8,2.9,4.9,4l-2.1,1.3c-1-1.1-3.2-3-4.8-4.3L148.2,27z"/>
	<path d="M160.4,22.7c0.7,0.8,2.4,2.7,2.8,3.2l-1.2,1.9c-0.3-0.6-0.9-1.6-1.5-2.5v6.9h-2.2v-6.7c-0.7,1.8-1.6,3.4-2.5,4.5
		c-0.2-0.7-0.7-1.5-1.1-2.1c1.2-1.4,2.4-3.5,3.1-5.6H155v-2.1h3.2v-2.4c-0.9,0.2-1.8,0.3-2.6,0.4c-0.1-0.5-0.3-1.3-0.6-1.8
		c2.4-0.3,5-0.9,6.7-1.6l1.4,1.8c-0.8,0.3-1.7,0.6-2.7,0.8v2.9h2.6v2.1h-2.6V22.7z M170.8,16.5v14.8h-2.2v-1.4h-2.9v1.5h-2.1V16.5
		H170.8z M168.5,27.8v-9.1h-2.9v9.1H168.5z"/>
	<path d="M189,15.5v16.9h-2.3v-0.9h-10.8v0.9h-2.2V15.5H189z M186.7,29.3V17.5h-10.8v11.8H186.7z M186.1,26.4v1.8h-9.4v-1.8h3.7
		v-2.2h-3v-1.9h3v-1.8h-3.5v-2h8.9v2h-3.5v1.8h3.1v1.9h-1c0.5,0.5,1.1,1.2,1.4,1.7l-0.9,0.5H186.1z M182.3,26.4h1.8
		c-0.3-0.5-0.8-1.1-1.2-1.6l1.1-0.6h-1.7V26.4z"/>
	<path d="M207.2,15.5v16.9h-2.3v-0.9h-10.8v0.9h-2.2V15.5H207.2z M204.9,29.3V17.5h-10.8v11.8H204.9z M204.2,26.4v1.8h-9.4v-1.8h3.7
		v-2.2h-3v-1.9h3v-1.8H195v-2h8.9v2h-3.5v1.8h3.1v1.9h-1c0.5,0.5,1.1,1.2,1.4,1.7l-0.9,0.5H204.2z M200.5,26.4h1.8
		c-0.3-0.5-0.8-1.1-1.2-1.6l1.1-0.6h-1.7V26.4z"/>
	<path d="M224.5,23c-0.7,0.6-1.5,1.2-2.3,1.8c0.7,2.2,2.2,4.1,4.3,5c-0.5,0.4-1.1,1.3-1.4,1.8c-2.2-1.1-3.6-3.1-4.5-5.6
		c-0.2,0.1-0.4,0.2-0.6,0.4c0.5,2.3,0.1,4.4-0.9,5.2c-0.6,0.7-1.2,0.9-2.2,0.9c-0.4,0-0.9,0-1.5,0c0-0.6-0.2-1.5-0.6-2.1
		c0.6,0.1,1.2,0.1,1.6,0.1c0.4,0,0.7-0.1,1-0.5c0.3-0.3,0.5-1,0.5-1.9c-2.1,1.5-4.9,2.9-7.3,3.6c-0.2-0.5-0.7-1.4-1.1-1.9
		c2.9-0.6,6.4-2.3,8.2-3.8c-0.1-0.2-0.2-0.5-0.3-0.7c-1.8,1.2-4.5,2.4-6.5,3.1c-0.2-0.5-0.7-1.3-1.1-1.7c2.2-0.5,5.2-1.7,6.8-2.8
		c-0.2-0.2-0.3-0.4-0.5-0.6c-1.6,0.9-3.3,1.5-5.1,2c-0.2-0.4-0.7-1.3-1.1-1.8c2.1-0.4,4.2-1.1,5.9-2.1h-3.1v-1.9h10.2v1.9h-4
		c-0.3,0.3-0.7,0.6-1.1,0.9c0.7,0.7,1.2,1.5,1.6,2.3c1.3-0.9,2.6-1.9,3.4-2.8L224.5,23z M212.1,20.5H210v-4.3h6.6
		c-0.1-0.4-0.3-0.7-0.4-1l2.3-0.7c0.3,0.5,0.6,1.1,0.8,1.7h6.5v4.3h-2.2v-2.2h-11.3V20.5z"/>
	<path d="M244.3,29.7v2.2h-16.5v-2.2h10c0.1-0.8,0.2-1.6,0.4-2.4h-8.1c0.7-2.5,1.6-6.4,2.1-9.6h-3.9v-2.1h15.4v2.1h-9.2
		c-0.2,0.8-0.3,1.6-0.5,2.5h5.2l0.4-0.1l1.7,0.2c-0.3,2.7-0.8,6.4-1.3,9.5H244.3z M238.5,25.2c0.1-1,0.3-2.1,0.4-3h-5.2
		c-0.2,1-0.4,2.1-0.6,3H238.5z"/>
	<path d="M258.5,25.3c0.7,2.3,2.2,4.3,4.4,5.1c-0.5,0.4-1.1,1.3-1.4,1.9c-1.7-0.8-2.9-2.3-3.8-4.1c-0.7,1.5-1.9,3-3.7,4.3
		c-0.3-0.5-1-1.2-1.6-1.6v1.4h-1.8v-3.2c-1.6,0.3-3.1,0.6-4.4,0.8l-0.4-2.1l1-0.1V17.5h-0.8v-2h7.1v2h-0.7v9.3l1.3-0.2l0.1,1.9
		l-1.4,0.3v2.2c2.7-1.6,3.7-3.8,4-5.6h-3.2v-2h3.3v-0.2v-2.4h-3v-2h2c-0.3-0.8-1-1.9-1.7-2.7l1.7-0.8c0.7,0.8,1.5,1.9,1.8,2.7
		l-1.5,0.8h2.1c0.6-1,1.2-2.5,1.6-3.6l2.2,0.6c-0.5,1-1.1,2.1-1.6,3h2.1v2h-3.4v2.4v0.2h3.9v2H258.5z M248.5,17.5v2h1.9v-2H248.5z
		 M248.5,23.3h1.9v-2h-1.9V23.3z M250.4,27.1v-2h-1.9v2.3L250.4,27.1z"/>
	<path d="M280,29.6c0,1.3-0.3,1.9-1.1,2.2c-0.8,0.4-1.9,0.4-3.7,0.4c-0.1-0.6-0.5-1.7-0.8-2.3c1.1,0.1,2.5,0.1,2.8,0.1
		c0.4,0,0.5-0.2,0.5-0.5V17.9h-11v3.2l1.1-1.2c0.6,0.6,1.2,1.3,1.7,2c0.2-1,0.4-2.1,0.5-3.3l1.9,0.2c-0.2,1.8-0.5,3.4-0.9,4.9
		c0.6,0.8,1.2,1.6,1.6,2.3l-1.3,1.6c-0.3-0.5-0.6-1-1-1.6c-0.6,1.6-1.3,3-2.3,4c-0.3-0.2-0.8-0.7-1.3-0.9v3.1h-2.2V15.8H280V29.6z
		 M266.8,28.5c1-1.1,1.7-2.6,2.2-4.3c-0.7-0.9-1.5-1.9-2.2-2.7V28.5z M276.4,28.2c-0.3-0.6-0.6-1.2-1-2c-0.6,1.6-1.4,3-2.4,4.1
		c-0.4-0.3-1.2-0.9-1.7-1.2c1.3-1.2,2.1-2.9,2.8-4.9c-0.7-1-1.5-2-2.3-2.9l1.3-1.2c0.5,0.5,1,1.1,1.5,1.8c0.2-1,0.4-2,0.5-3.1
		l1.9,0.2c-0.2,1.8-0.5,3.4-0.9,4.9c0.7,1,1.3,2,1.7,2.9L276.4,28.2z"/>
	<path d="M287.7,15.4c-0.4,1.1-0.8,2.2-1.3,3.3v13.7h-2V22.3c-0.4,0.6-0.9,1.3-1.3,1.8c-0.2-0.5-0.8-1.7-1.1-2.2
		c1.5-1.7,3-4.4,3.8-7L287.7,15.4z M298.8,17.7v1.8h-11.7v-1.8h5.2c-0.3-0.7-0.7-1.6-1.1-2.2l1.8-0.7c0.5,0.8,1.1,1.8,1.3,2.5
		l-1,0.5H298.8z M288.1,26h9.6v6.2h-1.9v-0.5H290v0.6h-1.8V26z M297.5,22.2h-9.1v-1.8h9.1V22.2z M288.4,23.2h9.1V25h-9.1V23.2z
		 M290,27.8v2.1h5.9v-2.1H290z"/>
	<path d="M300.2,30.4c0.6-1.1,1.3-2.7,1.7-4l1.9,0.8c-0.5,1.3-1.1,3-1.7,4.1L300.2,30.4z M308.2,25.6H303v-9.2h4.2
		c0.2-0.6,0.4-1.3,0.5-1.8l2.6,0.3c-0.3,0.6-0.5,1.1-0.8,1.5h5v9.2h-5.2c0.8,0.8,1.5,1.8,1.9,2.5l-1.8,1.1c-0.4-0.8-1.3-2.1-2.2-3
		L308.2,25.6z M310.7,30c0.9,0,1-0.2,1.1-2c0.5,0.4,1.4,0.7,2,0.8c-0.3,2.6-0.9,3.3-2.9,3.3h-3.5c-2.5,0-3.2-0.6-3.2-2.6v-2.6h2.2
		v2.6c0,0.6,0.2,0.6,1.2,0.6H310.7z M305,19h7.2v-0.9H305V19z M305,21.5h7.2v-0.9H305V21.5z M305,23.9h7.2v-0.9H305V23.9z M315,26.1
		c0.8,1.2,1.7,2.9,2,4l-2.1,0.9c-0.3-1.1-1.1-2.8-1.9-4.1L315,26.1z"/>
	<path d="M322.7,22.1c-0.7,1.7-1.5,3.8-2.5,5.3l-2-1.2c1-1.3,1.9-3.2,2.5-5L322.7,22.1z M333.4,27.7c-0.3-1.4-1-3.7-1.7-5.5
		c-0.2,5.6-0.5,7.8-1.1,8.6c-0.5,0.7-1.1,1-1.8,1.1c-0.7,0.1-1.8,0.1-2.9,0.1c0-0.7-0.4-1.7-0.7-2.4c1.1,0.1,2.1,0.1,2.6,0.1
		c0.4,0,0.6-0.1,0.8-0.3c0.5-0.6,0.7-3.1,0.9-9.1h-2.9c-0.2,4-1.2,9-6.3,12.3c-0.4-0.6-1.2-1.5-1.8-1.8c4.6-2.8,5.5-7,5.7-10.4h-4.8
		V18h4.9v-3.2h2.4V18h5.3c0,0,0,0.8,0,1.1c0,0.9-0.1,1.8-0.1,2.6l1.8-0.6c0.8,1.8,1.6,4.3,2,5.8L333.4,27.7z"/>
	<path d="M343.8,15.9c-1.2,3.1-3.1,6-5,7.8c-0.5-0.4-1.5-1.2-2-1.6c2-1.6,3.7-4.2,4.7-6.9L343.8,15.9z M348.9,24.6
		c1.5,2.1,3.2,4.7,4.1,6.5l-2.2,1.2c-0.3-0.6-0.7-1.4-1.1-2.1c-8.8,0.8-10,0.8-10.9,1.2c-0.1-0.5-0.5-1.7-0.8-2.4
		c0.6-0.2,1-0.6,1.7-1.5c0.8-0.8,3-4,4.3-7.2l2.4,1.1c-1.3,2.6-3,5.1-4.7,7.2l6.8-0.5c-0.5-0.8-1.1-1.7-1.6-2.5L348.9,24.6z
		 M348.6,15c1.1,2.3,3.3,5.1,5.1,6.7c-0.6,0.4-1.4,1.3-1.8,1.9c-1.8-1.9-4-5-5.4-7.7L348.6,15z"/>
	<path d="M371.4,29.8v2h-16.1v-2h6.9v-1.6h-5.3v-1.9h5.3v-1.4h2.2v1.4h5.6v1.9h-5.6v1.6H371.4z M357.4,19.9h-2v-3.6h7
		c-0.1-0.4-0.3-0.8-0.5-1.1l2.1-0.6c0.3,0.5,0.6,1.2,0.8,1.8h6.5v3.6h-1.9v1.5h-2.1c1.1,0.9,2.4,2.1,3,2.9l-1.7,1.2
		c-0.2-0.3-0.6-0.8-1-1.2c-8.1,0.7-9.1,0.8-9.8,1.1c-0.1-0.4-0.4-1.4-0.6-1.9c0.4-0.1,0.8-0.3,1.3-0.7c0.3-0.2,0.9-0.7,1.7-1.4h-2.7
		V19.9z M357.5,18.3v1.1H369v-1.1H357.5z M366,22.8c-0.3-0.3-0.7-0.6-0.9-0.8l0.9-0.6h-3.1c-0.7,0.6-1.4,1.2-2.1,1.8L366,22.8z"/>
</g>
<g>
	<path class="st2" d="M64.8,42.2c0-2.9,1.8-4.6,4-4.6c1.1,0,2,0.5,2.5,1.1l-0.8,0.9c-0.5-0.5-1-0.8-1.7-0.8c-1.5,0-2.6,1.3-2.6,3.4
		c0,2.1,1,3.4,2.6,3.4c0.8,0,1.4-0.4,2-0.9l0.7,0.9c-0.7,0.8-1.6,1.3-2.8,1.3C66.5,46.8,64.8,45.1,64.8,42.2z"/>
	<path class="st2" d="M78.1,47c-0.5,1.4-1.2,2.4-2.6,2.4c-0.3,0-0.6,0-0.8-0.1l0.3-1.1c0.1,0,0.3,0.1,0.5,0.1c0.7,0,1.1-0.5,1.4-1.2
		l0.1-0.5L74.2,40h1.4l1.2,3.4c0.2,0.6,0.4,1.3,0.6,1.9h0.1l0.5-1.9l1.1-3.4h1.4L78.1,47z"/>
	<path class="st2" d="M85.4,45.9L85.4,45.9l-0.2,0.7h-1.1V37h1.4v2.5l0,1.1c0.6-0.5,1.3-0.9,2-0.9c1.7,0,2.6,1.3,2.6,3.4
		c0,2.3-1.4,3.6-2.9,3.6C86.6,46.8,85.9,46.5,85.4,45.9z M88.6,43.2c0-1.4-0.4-2.2-1.6-2.2c-0.5,0-1,0.3-1.6,0.8V45
		c0.5,0.4,1,0.6,1.4,0.6C87.9,45.6,88.6,44.8,88.6,43.2z"/>
	<path class="st2" d="M93.6,43.3c0-2.2,1.5-3.5,3-3.5c1.8,0,2.7,1.3,2.7,3.1c0,0.3,0,0.5-0.1,0.7H95c0.1,1.3,0.9,2,2,2
		c0.6,0,1.1-0.2,1.6-0.5l0.5,0.9c-0.6,0.4-1.4,0.7-2.2,0.7C95.1,46.8,93.6,45.5,93.6,43.3z M98.2,42.7c0-1.1-0.5-1.8-1.5-1.8
		c-0.8,0-1.6,0.6-1.7,1.8H98.2z"/>
	<path class="st2" d="M103.3,40h1.1l0.1,1.2h0c0.5-0.9,1.2-1.4,1.9-1.4c0.3,0,0.5,0,0.7,0.1l-0.3,1.2c-0.2-0.1-0.4-0.1-0.7-0.1
		c-0.5,0-1.2,0.4-1.6,1.4v4.1h-1.4V40z"/>
	<path class="st2" d="M109.9,45.9l0.7-0.9c0.6,0.5,1.2,0.8,1.9,0.8c0.8,0,1.2-0.4,1.2-0.9c0-0.6-0.7-0.9-1.5-1.1
		c-0.9-0.3-1.9-0.8-1.9-1.9c0-1.1,0.9-1.9,2.4-1.9c0.9,0,1.6,0.4,2.2,0.8l-0.7,0.9c-0.5-0.3-0.9-0.6-1.5-0.6c-0.7,0-1.1,0.4-1.1,0.8
		c0,0.6,0.7,0.8,1.4,1c0.9,0.3,2,0.8,2,2c0,1.1-0.9,2-2.5,2C111.5,46.8,110.6,46.4,109.9,45.9z"/>
	<path class="st2" d="M118.8,40h1.1l0.1,0.7h0c0.6-0.5,1.3-0.9,2-0.9c1.7,0,2.6,1.3,2.6,3.4c0,2.3-1.4,3.6-2.9,3.6
		c-0.6,0-1.2-0.3-1.7-0.7l0,1.1v2.1h-1.4V40z M123.3,43.2c0-1.4-0.4-2.2-1.6-2.2c-0.5,0-1,0.3-1.6,0.8V45c0.5,0.4,1,0.6,1.4,0.6
		C122.6,45.6,123.3,44.8,123.3,43.2z"/>
	<path class="st2" d="M128.3,44.9c0-1.4,1.2-2.2,4-2.5c0-0.8-0.3-1.4-1.3-1.4c-0.7,0-1.4,0.3-1.9,0.7l-0.5-0.9
		c0.7-0.4,1.6-0.9,2.7-0.9c1.7,0,2.4,1,2.4,2.8v4h-1.1l-0.1-0.8h0c-0.6,0.5-1.3,0.9-2.1,0.9C129.1,46.8,128.3,46,128.3,44.9z
		 M132.2,44.9v-1.6c-2,0.2-2.6,0.7-2.6,1.5c0,0.7,0.4,0.9,1,0.9C131.2,45.7,131.7,45.4,132.2,44.9z"/>
	<path class="st2" d="M137.5,43.3c0-2.2,1.5-3.5,3.3-3.5c0.8,0,1.5,0.3,1.9,0.8l-0.7,0.9c-0.4-0.3-0.7-0.5-1.2-0.5
		c-1.1,0-1.9,0.9-1.9,2.4c0,1.4,0.8,2.3,1.9,2.3c0.6,0,1-0.3,1.4-0.6l0.6,0.9c-0.6,0.5-1.4,0.8-2.1,0.8
		C138.9,46.8,137.5,45.5,137.5,43.3z"/>
	<path class="st2" d="M145.9,43.3c0-2.2,1.5-3.5,3-3.5c1.8,0,2.7,1.3,2.7,3.1c0,0.3,0,0.5-0.1,0.7h-4.3c0.1,1.3,0.9,2,2,2
		c0.6,0,1.1-0.2,1.6-0.5l0.5,0.9c-0.6,0.4-1.4,0.7-2.2,0.7C147.3,46.8,145.9,45.5,145.9,43.3z M150.4,42.7c0-1.1-0.5-1.8-1.5-1.8
		c-0.8,0-1.6,0.6-1.7,1.8H150.4z"/>
	<path class="st2" d="M172.8,44.1h-3.1l-0.8,2.5h-1.4l2.9-8.9h1.6l2.9,8.9h-1.5L172.8,44.1z M172.5,43l-0.3-1.2c-0.3-1-0.6-2-0.8-3
		h0c-0.3,1-0.5,2-0.8,3l-0.4,1.2H172.5z"/>
	<path class="st2" d="M178.1,43.3c0-2.2,1.4-3.5,2.8-3.5c0.8,0,1.2,0.3,1.8,0.7l-0.1-1.1V37h1.4v9.6h-1.1l-0.1-0.7h0
		c-0.5,0.5-1.2,0.9-1.9,0.9C179.1,46.8,178.1,45.5,178.1,43.3z M182.6,44.8v-3.2c-0.5-0.4-1-0.6-1.5-0.6c-0.9,0-1.7,0.9-1.7,2.3
		c0,1.5,0.6,2.3,1.6,2.3C181.7,45.6,182.2,45.4,182.6,44.8z"/>
	<path class="st2" d="M188.5,40h1.1l0.1,0.9h0c0.6-0.6,1.2-1.1,2.1-1.1c1,0,1.5,0.5,1.8,1.2c0.7-0.7,1.3-1.2,2.2-1.2
		c1.4,0,2,0.9,2,2.6v4.2h-1.4v-4c0-1.1-0.4-1.6-1.1-1.6c-0.5,0-0.9,0.3-1.5,0.9v4.7h-1.4v-4c0-1.1-0.3-1.6-1.1-1.6
		c-0.4,0-0.9,0.3-1.5,0.9v4.7h-1.4V40z"/>
	<path class="st2" d="M202.1,37.9c0-0.5,0.4-0.8,0.9-0.8c0.5,0,0.9,0.3,0.9,0.8c0,0.5-0.4,0.8-0.9,0.8
		C202.5,38.7,202.1,38.4,202.1,37.9z M202.3,40h1.4v6.6h-1.4V40z"/>
	<path class="st2" d="M208.2,40h1.1l0.1,0.9h0c0.6-0.6,1.3-1.1,2.2-1.1c1.4,0,2,0.9,2,2.6v4.2h-1.4v-4c0-1.1-0.3-1.6-1.1-1.6
		c-0.6,0-1,0.3-1.6,0.9v4.7h-1.4V40z"/>
	<path class="st2" d="M217.9,37.9c0-0.5,0.4-0.8,0.9-0.8c0.5,0,0.9,0.3,0.9,0.8c0,0.5-0.4,0.8-0.9,0.8
		C218.3,38.7,217.9,38.4,217.9,37.9z M218.1,40h1.4v6.6h-1.4V40z"/>
	<path class="st2" d="M223.3,45.9l0.7-0.9c0.6,0.5,1.2,0.8,1.9,0.8c0.8,0,1.2-0.4,1.2-0.9c0-0.6-0.7-0.9-1.5-1.1
		c-0.9-0.3-1.9-0.8-1.9-1.9c0-1.1,0.9-1.9,2.4-1.9c0.9,0,1.6,0.4,2.2,0.8l-0.7,0.9c-0.5-0.3-0.9-0.6-1.5-0.6c-0.7,0-1.1,0.4-1.1,0.8
		c0,0.6,0.7,0.8,1.4,1c0.9,0.3,2,0.8,2,2c0,1.1-0.9,2-2.5,2C224.9,46.8,223.9,46.4,223.3,45.9z"/>
	<path class="st2" d="M232.1,44.4v-3.4h-1v-1l1-0.1l0.2-1.8h1.2V40h1.7v1.1h-1.7v3.4c0,0.8,0.3,1.2,1,1.2c0.2,0,0.5-0.1,0.7-0.2
		l0.3,1c-0.4,0.1-0.8,0.2-1.3,0.2C232.7,46.8,232.1,45.8,232.1,44.4z"/>
	<path class="st2" d="M239.1,40h1.1l0.1,1.2h0c0.5-0.9,1.2-1.4,1.9-1.4c0.3,0,0.5,0,0.7,0.1l-0.3,1.2c-0.2-0.1-0.4-0.1-0.7-0.1
		c-0.5,0-1.2,0.4-1.6,1.4v4.1h-1.4V40z"/>
	<path class="st2" d="M245.7,44.9c0-1.4,1.2-2.2,4-2.5c0-0.8-0.3-1.4-1.3-1.4c-0.7,0-1.3,0.3-1.9,0.7l-0.5-0.9
		c0.7-0.4,1.6-0.9,2.7-0.9c1.7,0,2.4,1,2.4,2.8v4H250l-0.1-0.8h0c-0.6,0.5-1.3,0.9-2.1,0.9C246.5,46.8,245.7,46,245.7,44.9z
		 M249.7,44.9v-1.6c-2,0.2-2.6,0.7-2.6,1.5c0,0.7,0.4,0.9,1,0.9C248.7,45.7,249.2,45.4,249.7,44.9z"/>
	<path class="st2" d="M255.5,44.4v-3.4h-1v-1l1-0.1l0.2-1.8h1.2V40h1.7v1.1h-1.7v3.4c0,0.8,0.3,1.2,1,1.2c0.2,0,0.5-0.1,0.7-0.2
		l0.3,1c-0.4,0.1-0.8,0.2-1.3,0.2C256,46.8,255.5,45.8,255.5,44.4z"/>
	<path class="st2" d="M262.3,37.9c0-0.5,0.4-0.8,0.9-0.8c0.5,0,0.9,0.3,0.9,0.8c0,0.5-0.4,0.8-0.9,0.8
		C262.6,38.7,262.3,38.4,262.3,37.9z M262.5,40h1.4v6.6h-1.4V40z"/>
	<path class="st2" d="M267.9,43.3c0-2.2,1.5-3.5,3.1-3.5c1.6,0,3.1,1.3,3.1,3.5c0,2.2-1.5,3.5-3.1,3.5
		C269.3,46.8,267.9,45.5,267.9,43.3z M272.7,43.3c0-1.4-0.7-2.4-1.7-2.4c-1,0-1.7,0.9-1.7,2.4c0,1.4,0.7,2.3,1.7,2.3
		C272,45.6,272.7,44.7,272.7,43.3z"/>
	<path class="st2" d="M278.1,40h1.1l0.1,0.9h0c0.6-0.6,1.3-1.1,2.2-1.1c1.4,0,2,0.9,2,2.6v4.2h-1.4v-4c0-1.1-0.3-1.6-1.1-1.6
		c-0.6,0-1,0.3-1.6,0.9v4.7h-1.4V40z"/>
	<path class="st2" d="M300.7,43.3c0-2.2,1.5-3.5,3.1-3.5c1.6,0,3.1,1.3,3.1,3.5c0,2.2-1.5,3.5-3.1,3.5
		C302.1,46.8,300.7,45.5,300.7,43.3z M305.5,43.3c0-1.4-0.7-2.4-1.7-2.4c-1,0-1.7,0.9-1.7,2.4c0,1.4,0.7,2.3,1.7,2.3
		C304.8,45.6,305.5,44.7,305.5,43.3z"/>
	<path class="st2" d="M314.1,38.1c-0.2-0.1-0.5-0.2-0.7-0.2c-0.6,0-0.9,0.4-0.9,1.2V40h1.3v1.1h-1.3v5.5h-1.4v-5.5h-0.9v-1l0.9-0.1
		v-0.8c0-1.4,0.6-2.3,2.1-2.3c0.4,0,0.9,0.1,1.2,0.2L314.1,38.1z"/>
	<path class="st2" d="M330.2,42.2c0-2.9,1.8-4.6,4-4.6c1.1,0,2,0.5,2.5,1.1l-0.8,0.9c-0.5-0.5-1-0.8-1.7-0.8c-1.5,0-2.6,1.3-2.6,3.4
		c0,2.1,1,3.4,2.6,3.4c0.8,0,1.4-0.4,2-0.9l0.7,0.9c-0.7,0.8-1.6,1.3-2.8,1.3C331.9,46.8,330.2,45.1,330.2,42.2z"/>
	<path class="st2" d="M340.7,37h1.4v2.5l0,1.3c0.6-0.6,1.2-1,2.1-1c1.4,0,2,0.9,2,2.6v4.2h-1.4v-4c0-1.1-0.3-1.6-1.1-1.6
		c-0.6,0-1,0.3-1.6,0.9v4.7h-1.4V37z"/>
	<path class="st2" d="M350.4,37.9c0-0.5,0.4-0.8,0.9-0.8c0.5,0,0.9,0.3,0.9,0.8c0,0.5-0.4,0.8-0.9,0.8
		C350.8,38.7,350.4,38.4,350.4,37.9z M350.6,40h1.4v6.6h-1.4V40z"/>
	<path class="st2" d="M356.5,40h1.1l0.1,0.9h0c0.6-0.6,1.3-1.1,2.2-1.1c1.4,0,2,0.9,2,2.6v4.2h-1.4v-4c0-1.1-0.3-1.6-1.1-1.6
		c-0.6,0-1,0.3-1.6,0.9v4.7h-1.4V40z"/>
	<path class="st2" d="M366.1,44.9c0-1.4,1.2-2.2,4-2.5c0-0.8-0.3-1.4-1.3-1.4c-0.7,0-1.3,0.3-1.9,0.7l-0.5-0.9
		c0.7-0.4,1.6-0.9,2.7-0.9c1.7,0,2.4,1,2.4,2.8v4h-1.1l-0.1-0.8h0c-0.6,0.5-1.3,0.9-2.1,0.9C366.9,46.8,366.1,46,366.1,44.9z
		 M370,44.9v-1.6c-2,0.2-2.6,0.7-2.6,1.5c0,0.7,0.4,0.9,1,0.9C369,45.7,369.5,45.4,370,44.9z"/>
</g>
</svg>
