<?xml version="1.0" encoding="utf-8"?>
<!-- Generator: Adobe Illustrator 24.3.0, SVG Export Plug-In . SVG Version: 6.00 Build 0)  -->
<svg version="1.1" id="图层_1" xmlns="http://www.w3.org/2000/svg" xmlns:xlink="http://www.w3.org/1999/xlink" x="0px" y="0px"
	 viewBox="0 0 380 64" style="enable-background:new 0 0 380 64;" xml:space="preserve">
<style type="text/css">
	.st0{fill:#FFBF00;}
	.st1{fill:#DA2A22;}
	.st2{fill:#6F6F6F;}
	.st3{fill:#0066CC;}
	.st4{fill:#54A6ED;}
</style>
<g>
	<path class="st0" d="M8.6,30.4c0,11.8,9.6,21.3,21.4,21.3s21.4-9.6,21.4-21.3c0-11.8-9.6-21.3-21.4-21.3S8.6,18.7,8.6,30.4z"/>
	<path class="st1" d="M11.5,30.4c0,6.6,3.5,12.7,9.2,16c5.7,3.3,12.7,3.3,18.5,0c5.7-3.3,9.2-9.4,9.2-16C48.4,20.3,40.2,12,30,12
		c0,0,0,0,0,0C19.8,12,11.5,20.2,11.5,30.4C11.5,30.4,11.5,30.4,11.5,30.4z"/>
	<path class="st0" d="M38.3,24.6l0.9-1.8l0.5,1.9h1.9L40,25.6c0.1,0.6,0.2,1.3,0.4,1.9c-0.5-0.5-1-0.8-1.5-1.2
		c-0.6,0.3-1.3,0.6-1.7,0.9l0.6-1.7l-1.4-1.1C37,24.4,37.6,24.6,38.3,24.6C38.3,24.6,38.3,24.6,38.3,24.6z M35.7,31.5L33.9,31
		l-1,1.6l-0.2-1.8c-0.5-0.2-1.1-0.3-1.7-0.5l1.7-0.7c0-0.6-0.1-1.2-0.1-1.8l1.3,1.3l1.7-0.5l-0.9,1.5C35,30.5,35.4,31,35.7,31.5z
		 M28.7,20.4l1.3-3.6l1.3,3.6H35l-3.1,2.2v0.1l1,3.1L30,23.9l-2.9,1.9l1-3.1v-0.1L25,20.4C25,20.4,28.7,20.4,28.7,20.4z M24.4,28.6
		l1.7,0.5l1.3-1.3c0,0.6-0.1,1.2-0.1,1.8l1.8,0.7c-0.6,0.1-1.3,0.2-1.7,0.5L27,32.6L25.9,31l-1.7,0.5c0.4-0.5,0.8-0.9,1.1-1.5
		C25.3,30,24.4,28.6,24.4,28.6z M20.2,24.7l0.4-1.9l1,1.8c0.6,0,1.3-0.1,1.9,0l-1.4,1.1l0.6,1.7c-0.5-0.3-1.1-0.6-1.7-0.9
		c-0.5,0.3-1,0.7-1.5,1.2c0.1-0.6,0.2-1.3,0.4-1.9l-1.5-0.9H20.2z M24.5,41.9v-1.5c-0.4-0.1-1.3-0.3-1.5-0.5c-0.1-0.1,0-0.2,0.1-0.2
		c0.8,0,1.6-0.2,2.4-0.5v0c-0.4,0-0.8-0.2-1.2-0.3c-0.1,0-0.1-0.1-0.1-0.1c0,0,0-0.1,0.1-0.1c0.7-0.1,2.2-0.5,2.9-1.8l0-0.6
		c0-0.1,0-0.2,0.1-0.2c0-0.1,0.1-0.1,0.2-0.1c0.1,0,0.1,0,0.2,0.1c0,0.1,0.1,0.1,0.1,0.2v0.3h4.1v-0.3c0-0.1,0-0.2,0.1-0.2
		c0-0.1,0.1-0.1,0.2-0.1c0.1,0,0.1,0,0.2,0.1c0.1,0.1,0.1,0.1,0.1,0.2v0.6c0.9,1,2.5,1.6,3.2,1.8c0.1,0,0.1,0.2,0,0.2
		c-0.4,0.2-0.8,0.3-1.2,0.3v0.1c1.2,0.3,1.9,0.4,2.1,0.4c0.2,0,0.2,0.1,0.1,0.2c-0.1,0.1-0.9,0.3-1.2,0.4v1.6h6v2H18.5v-2L24.5,41.9
		L24.5,41.9L24.5,41.9z"/>
	<path class="st1" d="M14.2,44.6l-1.6,5.6c-0.1,0.6,0.2,1.1,0.7,1.4c0.3,0.2,0.5,0.3,0.8,0.3c0.2,0.3,0.5,0.6,1,0.7
		c0.1,0,0.2,0.1,0.4,0.1c0.2,0.5,0.6,0.8,1.1,0.9c0.2,0.1,0.4,0.1,0.5,0.1v0.1c0.3,0.5,0.7,0.8,1.3,0.8l2.8,0.2
		c0.5,0,1.1-0.2,1.4-0.6h0.4c0.6,0.4,1.3,0.4,1.6,0.4h0.1c0.3,0.1,0.7,0.1,1,0.1h0.2l2.2,0.2h0.2c0.2,0,0.4-0.1,0.7-0.1
		c0.7,0.1,1.3,0.1,2,0c0.2,0.1,0.5,0.2,0.8,0.1l2.2-0.2H34c0.3,0.1,0.5,0.1,0.8-0.1h0.3c0.4,0,1.1-0.1,1.7-0.4h0.4
		c0.3,0.4,0.8,0.7,1.4,0.6l2.7-0.2c0.4,0,0.7-0.2,1-0.4c0.1-0.1,0.2-0.3,0.4-0.4c0.2-0.1,0.4-0.1,0.6-0.1c0.5-0.1,0.9-0.4,1.1-0.9
		c0.1,0,0.2-0.1,0.4-0.1c0.4-0.1,0.8-0.3,1-0.7c0.2-0.1,0.5-0.2,0.8-0.4c0.5-0.3,0.7-0.8,0.7-1.4l-1.3-5.6c-0.1-0.3-0.4-0.5-0.7-0.4
		c-0.1,0-0.1,0-0.2,0.1c-6.2,4-11.3,6-15.2,5.9s-8.8-2-14.8-6c-0.3-0.2-0.6-0.1-0.8,0.2C14.2,44.5,14.2,44.6,14.2,44.6L14.2,44.6z"
		/>
	<path class="st0" d="M33.3,49.6L33.3,49.6c-0.2,0-0.4-0.1-0.4-0.3c0-0.1-0.1-0.3-0.2-0.4c-0.1-0.2-0.1-0.3,0.1-0.5l0,0
		c0.2-0.2,0.2-0.4,0-0.6c0,0,0,0,0,0l-0.3-0.3c-0.2-0.2-0.4-0.2-0.6,0l0,0c-0.1,0.1-0.3,0.2-0.5,0.1c-0.1-0.1-0.3-0.1-0.4-0.2
		c-0.2-0.1-0.3-0.2-0.3-0.4v0c0-0.2-0.2-0.4-0.4-0.4h-0.4c-0.2,0-0.4,0.2-0.4,0.4v0c0,0.2-0.1,0.3-0.3,0.4c-0.1,0-0.3,0.1-0.4,0.2
		c-0.2,0.1-0.4,0.1-0.5-0.1l0,0c-0.2-0.2-0.4-0.2-0.6,0l-0.3,0.3c-0.2,0.2-0.2,0.4,0,0.6c0,0,0,0,0,0l0,0c0.1,0.1,0.2,0.3,0.1,0.5
		c-0.1,0.1-0.1,0.3-0.2,0.4c-0.1,0.2-0.2,0.3-0.4,0.3h0c-0.2,0-0.4,0.2-0.4,0.4v0.4c0,0.2,0.2,0.4,0.4,0.4h0c0.2,0,0.3,0.1,0.4,0.3
		c0,0.1,0.1,0.3,0.2,0.4c0.1,0.2,0.1,0.3-0.1,0.5l0,0c-0.2,0.1-0.2,0.4,0,0.6c0,0,0,0,0,0l0.3,0.3c0.2,0.2,0.4,0.2,0.6,0l0,0
		c0.1-0.1,0.3-0.1,0.5-0.1c0.1,0.1,0.3,0.1,0.4,0.2c0.2,0,0.3,0.2,0.3,0.4v0c0,0.2,0.2,0.4,0.4,0.4h0.4c0.2,0,0.4-0.2,0.4-0.4v0
		c0-0.2,0.1-0.3,0.3-0.4c0.1,0,0.3-0.1,0.4-0.2c0.2-0.1,0.4-0.1,0.5,0.1l0,0c0.2,0.2,0.4,0.2,0.6,0l0.3-0.3c0.2-0.2,0.2-0.4,0-0.6
		c0,0,0,0,0,0l0,0c-0.1-0.1-0.2-0.3-0.1-0.5c0.1-0.1,0.1-0.3,0.2-0.4c0.1-0.2,0.2-0.3,0.4-0.3h0c0.2,0,0.4-0.2,0.4-0.4c0,0,0,0,0,0
		V50C33.7,49.8,33.5,49.6,33.3,49.6C33.3,49.6,33.3,49.6,33.3,49.6L33.3,49.6z"/>
	<path class="st1" d="M28.5,50.2c0,0.8,0.7,1.5,1.5,1.5s1.5-0.7,1.5-1.5l0,0c0-0.8-0.7-1.5-1.5-1.5C29.2,48.8,28.5,49.4,28.5,50.2
		L28.5,50.2z"/>
	<path class="st0" d="M22.5,54.2v-3c0-0.3,0.3-0.6,0.6-0.6c0.1,0,0.2,0,0.2,0.1c1.6,0.7,3.2,0.8,4.8,0.3
		C27.5,52.4,25.7,53.5,22.5,54.2L22.5,54.2z M37.2,54.2v-3.1c0-0.3-0.3-0.6-0.6-0.6c-0.1,0-0.2,0-0.2,0.1c-1.5,0.7-3.2,0.8-4.8,0.2
		C32.2,52.4,34,53.5,37.2,54.2z"/>
	<path class="st1" d="M26.1,49.7c1.6,0.3,2.9,0.4,3.9,0.5c0.9,0.1,2.4-0.2,4.4-0.7l-0.5,1.6c-2.2,0-3.5-0.2-3.9-0.5
		c-0.3,0.3-1.6,0.4-3.9,0.5C26.1,51.2,26.1,49.7,26.1,49.7z"/>
</g>
<g>
	<path class="st3" d="M80.9,21.7v11.4h-2.8v-1.1h-5V39h-2.8v-7.1h-5v1.3h-2.6V21.7h7.6v-3.9h2.8v3.9H80.9z M70.4,29.2v-4.9h-5v4.9
		H70.4z M78.1,29.2v-4.9h-5v4.9H78.1z"/>
	<path class="st3" d="M87.3,24.2c-0.7,0.6-1.3,1.1-1.9,1.5c-0.4-0.5-1.3-1.6-1.9-2.1c2.3-1.4,4.6-3.6,6-6l2.5,0.9
		c-0.6,1-1.3,2-2,2.8v7.9h-2.6V24.2z M103.9,34.5h-8.6V39h-2.8v-4.6h-8.5v-2.6h8.5v-2.5h2.8v2.5h8.6V34.5z M94.3,24.8
		c-0.9,0.3-1.9,0.6-2.8,0.8c-0.2-0.6-0.6-1.6-0.9-2.1c1.2-0.3,2.5-0.7,3.7-1.2v-4.2h2.6v3.2c1.7-0.7,3.3-1.6,4.5-2.4l1.9,2.1
		c-1.8,1.2-4,2.2-6.4,3v1.6c0,0.8,0.2,1,1,1h2.6c0.7,0,0.9-0.4,1-2.3c0.6,0.4,1.6,0.8,2.3,1c-0.3,2.8-1,3.6-3.1,3.6h-3.2
		c-2.6,0-3.3-0.8-3.3-3.2V24.8z"/>
	<path class="st3" d="M117.2,17.8c0,1-0.1,2.2-0.2,3.6c0.3,3.1,1.7,11.7,9.3,15.2c-0.8,0.7-1.6,1.6-1.9,2.3
		c-4.9-2.4-7.3-6.9-8.6-10.8c-1.2,4-3.5,8.1-8.1,10.9c-0.5-0.7-1.3-1.6-2.2-2.2c8.9-4.9,8.5-15.2,8.6-19H117.2z"/>
	<path class="st3" d="M141.2,31.3c1,2.8,2.4,4.8,3.6,4.8c0.6,0,0.8-1,0.9-3.2c0.6,0.5,1.5,1,2.3,1.3c-0.4,3.8-1.3,4.6-3.3,4.6
		c-2.8,0-5.1-3.1-6.3-7.5h-5.7v4.3l5.2-1.1c0,0.8,0.2,2,0.3,2.6c-6.5,1.5-7.6,1.8-8.2,2.2c-0.2-0.7-0.8-1.9-1.2-2.4
		c0.5-0.3,1.1-1,1.1-2v-16h16v7.4h-5.7c0.1,0.9,0.2,1.7,0.4,2.6h7v2.5H141.2z M132.7,21.3v2.4h10.6v-2.4H132.7z M137.9,28.7
		c-0.2-0.8-0.3-1.7-0.3-2.6h-4.8v2.6H137.9z"/>
	<path class="st3" d="M170,29.1v2.6h-20.1v-2.6h4.7v-4.4h-4v-2.6h4v-4.2h2.7v4.2h5.1v-4.2h2.7v4.2h4.1v2.6h-4.1v4.4H170z
		 M158.4,33.7c-1.7,2-4.1,4-6.2,5.3c-0.6-0.6-1.5-1.5-2.2-1.9c2.1-1.1,4.4-3,5.6-4.5L158.4,33.7z M157.4,29.1h5.1v-4.4h-5.1V29.1z
		 M163.8,32.6c1.9,1.4,4.6,3.5,6,4.9l-2.6,1.6c-1.2-1.4-3.8-3.6-5.8-5.2L163.8,32.6z"/>
	<path class="st3" d="M178.5,27.4c0.9,0.9,2.9,3.3,3.3,3.9l-1.5,2.3c-0.4-0.8-1.1-1.9-1.8-3V39h-2.6v-8.1c-0.9,2.1-1.9,4.1-3.1,5.4
		c-0.2-0.8-0.9-1.9-1.3-2.6c1.5-1.6,2.9-4.3,3.8-6.8h-3.3v-2.5h3.9v-3c-1.1,0.2-2.1,0.3-3.1,0.5c-0.1-0.6-0.4-1.5-0.7-2.1
		c2.9-0.4,6.1-1.1,8.1-2l1.7,2.1c-1,0.4-2.1,0.7-3.3,1v3.5h3.2V27h-3.2V27.4z M191.1,19.9v17.9h-2.7v-1.6h-3.5v1.8h-2.6V19.9H191.1z
		 M188.4,33.5V22.5h-3.5v11.1H188.4z"/>
	<path class="st3" d="M213.2,18.6V39h-2.8v-1.1h-13V39h-2.7V18.6H213.2z M210.4,35.4V21.1h-13v14.3H210.4z M209.6,31.8v2.2h-11.4
		v-2.2h4.4v-2.7H199v-2.3h3.6v-2.1h-4.2v-2.4h10.8v2.4H205v2.1h3.7v2.3h-1.2c0.6,0.6,1.3,1.5,1.7,2l-1.1,0.7H209.6z M205,31.8h2.2
		c-0.4-0.6-1-1.4-1.5-2l1.3-0.7h-2V31.8z"/>
	<path class="st3" d="M236,34.7v2.7h-20v-2.7h8.4V22.9h-7.2v-2.8h17.6v2.8h-7.4v11.8H236z"/>
	<path class="st3" d="M257.8,35.3V38h-19.7v-2.7h5.7V18h2.7v17.2h2.9V18h2.7v12.6c1.1-2.2,2.4-5.4,3.1-8l2.4,1.2
		c-1,2.9-2.4,6.1-3.5,8.3l-2-1v4.3H257.8z M241.1,31.9c-0.5-2.2-1.6-5.8-2.6-8.6l2.4-0.7c1,2.7,2.3,6.2,2.9,8.4L241.1,31.9z"/>
	<path class="st3" d="M266.6,27.4c0.9,0.9,2.9,3.3,3.3,3.9l-1.5,2.3c-0.4-0.8-1.1-1.9-1.8-3V39h-2.6v-8.1c-0.9,2.1-1.9,4.1-3.1,5.4
		c-0.2-0.8-0.9-1.9-1.3-2.6c1.5-1.6,2.9-4.3,3.8-6.8H260v-2.5h3.9v-3c-1.1,0.2-2.1,0.3-3.1,0.5c-0.1-0.6-0.4-1.5-0.7-2.1
		c2.9-0.4,6.1-1.1,8.1-2l1.7,2.1c-1,0.4-2.1,0.7-3.3,1v3.5h3.2V27h-3.2V27.4z M279.1,19.9v17.9h-2.7v-1.6h-3.5v1.8h-2.6V19.9H279.1z
		 M276.4,33.5V22.5h-3.5v11.1H276.4z"/>
	<path class="st3" d="M288.5,18.6c-0.5,1.3-1,2.7-1.6,4v16.5h-2.4V26.9c-0.5,0.8-1.1,1.5-1.6,2.2c-0.2-0.6-0.9-2-1.3-2.7
		c1.8-2.1,3.6-5.3,4.6-8.5L288.5,18.6z M302.1,21.3v2.2h-14.2v-2.2h6.3c-0.3-0.8-0.9-1.9-1.4-2.7l2.2-0.9c0.6,0.9,1.3,2.2,1.6,3
		l-1.3,0.6H302.1z M289.1,31.4h11.6v7.5h-2.3v-0.6h-7.1V39h-2.2V31.4z M300.5,26.8h-11v-2.1h11V26.8z M289.4,28h11v2.1h-11V28z
		 M291.3,33.6v2.6h7.1v-2.6H291.3z"/>
	<path class="st3" d="M303.7,36.7c0.8-1.3,1.6-3.2,2.1-4.8l2.3,1c-0.6,1.6-1.3,3.6-2,5L303.7,36.7z M313.4,30.9H307V19.7h5.1
		c0.2-0.8,0.5-1.6,0.6-2.2l3.2,0.4c-0.3,0.7-0.7,1.3-0.9,1.8h6v11.2h-6.3c0.9,0.9,1.8,2.1,2.3,3l-2.2,1.3c-0.4-1-1.6-2.5-2.6-3.6
		L313.4,30.9z M316.5,36.2c1.1,0,1.2-0.3,1.4-2.5c0.6,0.4,1.7,0.8,2.4,1c-0.3,3.2-1.1,4-3.5,4h-4.2c-3.1,0-3.9-0.8-3.9-3.2v-3.1h2.7
		v3.1c0,0.7,0.2,0.8,1.5,0.8H316.5z M309.6,22.9h8.7v-1h-8.7V22.9z M309.6,25.9h8.7v-1h-8.7V25.9z M309.6,28.9h8.7v-1.1h-8.7V28.9z
		 M321.6,31.5c1,1.5,2.1,3.5,2.4,4.9l-2.5,1.1c-0.3-1.3-1.3-3.4-2.2-5L321.6,31.5z"/>
	<path class="st3" d="M342.5,35.9c0.9,0,1.1-0.9,1.3-4.7c0.7,0.5,1.8,1.1,2.6,1.3c-0.3,4.4-1,6.1-3.6,6.1h-3.2c-2.7,0-3.5-1-3.5-4.3
		V32c-0.9,0.5-1.7,1-2.5,1.4c-0.4-0.5-1.1-1.3-1.7-1.9V39h-2.8v-12c-0.6,0.7-1.1,1.3-1.7,1.9c-0.3-0.7-1.2-2.1-1.7-2.8
		c2.2-2,4.4-5.2,5.6-8.5l2.7,0.9c-0.6,1.5-1.3,2.9-2.1,4.4v8.3c1.4-0.7,2.8-1.5,4.2-2.6V18.1h2.8v8.2c1.8-1.6,3.4-3.5,4.7-5.6
		l2.5,1.8c-2,2.9-4.6,5.5-7.2,7.5v4.4c0,1.3,0.1,1.5,1,1.5H342.5z"/>
	<path class="st3" d="M358.4,23.1c-0.5,1.1-0.9,2.3-1.3,3.2h2.6v2.5H348v-2.5h2.8c-0.2-0.9-0.6-2.2-1.1-3.2l1.8-0.5h-2.9v-2.4h4.2
		c-0.2-0.7-0.4-1.4-0.7-2l2.4-0.7c0.4,0.8,0.8,1.9,1.1,2.7h3.7v2.4h-2.6L358.4,23.1z M349,30.4h9.8v8.5h-2.6V38h-4.7v1H349V30.4z
		 M351.5,32.9v2.8h4.7v-2.8H351.5z M352,22.7c0.5,1,1,2.4,1.2,3.3l-1.3,0.4h2.6c0.5-1.1,0.9-2.5,1.2-3.6H352z M368.3,19.9
		c-0.7,2.2-1.7,4.8-2.5,6.8c1.8,2.1,2.1,3.9,2.1,5.3c0,1.6-0.4,2.8-1.2,3.4c-0.4,0.3-0.9,0.5-1.5,0.5c-0.5,0.1-1.1,0.1-1.7,0
		c0-0.7-0.2-1.8-0.6-2.5c0.5,0,0.9,0,1.2,0s0.6-0.1,0.8-0.2c0.4-0.2,0.5-0.8,0.5-1.6c0-1.2-0.5-2.9-2.1-4.7c0.6-1.7,1.3-4,1.8-5.7
		h-2.5v17.7h-2.3V18.8h5.7l0.4-0.1L368.3,19.9z"/>
</g>
<g>
	<path class="st4" d="M62.6,45h1l1.1,2.9c0.1,0.4,0.3,0.8,0.4,1.2h0c0.1-0.4,0.2-0.8,0.4-1.2l1-2.9h1.1v5.8h-0.9v-2.9
		c0-0.5,0.1-1.3,0.1-1.8h0l-0.5,1.3l-1,2.8h-0.6l-1-2.8l-0.5-1.3h0c0,0.5,0.1,1.3,0.1,1.8v2.9h-0.8V45z"/>
	<path class="st4" d="M68.9,45.1c0-0.3,0.2-0.5,0.6-0.5s0.6,0.2,0.6,0.5c0,0.3-0.3,0.5-0.6,0.5S68.9,45.4,68.9,45.1z M69,46.5h0.9
		v4.3H69V46.5z"/>
	<path class="st4" d="M71.3,46.5H72l0.1,0.6h0c0.4-0.4,0.8-0.7,1.4-0.7c0.9,0,1.3,0.6,1.3,1.7v2.7H74v-2.6c0-0.7-0.2-1-0.7-1
		c-0.4,0-0.7,0.2-1.1,0.6v3.1h-0.9V46.5z"/>
	<path class="st4" d="M76.1,45.1c0-0.3,0.2-0.5,0.6-0.5s0.6,0.2,0.6,0.5c0,0.3-0.3,0.5-0.6,0.5S76.1,45.4,76.1,45.1z M76.2,46.5h0.9
		v4.3h-0.9V46.5z"/>
	<path class="st4" d="M78,50.3l0.4-0.6c0.4,0.3,0.8,0.5,1.2,0.5c0.5,0,0.8-0.3,0.8-0.6c0-0.4-0.5-0.6-1-0.7
		c-0.6-0.2-1.2-0.5-1.2-1.3c0-0.7,0.6-1.3,1.5-1.3c0.6,0,1.1,0.2,1.4,0.5l-0.4,0.6c-0.3-0.2-0.6-0.4-1-0.4c-0.5,0-0.7,0.2-0.7,0.5
		c0,0.4,0.4,0.5,0.9,0.7c0.6,0.2,1.3,0.5,1.3,1.3c0,0.7-0.6,1.3-1.6,1.3C79,50.9,78.4,50.6,78,50.3z"/>
	<path class="st4" d="M82.2,49.4v-2.2h-0.6v-0.7l0.7,0l0.1-1.2h0.8v1.2h1.1v0.7h-1.1v2.2c0,0.5,0.2,0.8,0.6,0.8c0.1,0,0.3,0,0.5-0.1
		l0.2,0.7c-0.2,0.1-0.5,0.2-0.9,0.2C82.5,50.9,82.2,50.3,82.2,49.4z"/>
	<path class="st4" d="M85.2,46.5h0.7l0.1,0.8h0c0.3-0.6,0.8-0.9,1.2-0.9c0.2,0,0.4,0,0.5,0.1l-0.2,0.8c-0.1,0-0.3-0.1-0.4-0.1
		c-0.4,0-0.8,0.2-1.1,0.9v2.7h-0.9V46.5z"/>
	<path class="st4" d="M90.5,51.1c-0.3,0.9-0.8,1.6-1.7,1.6c-0.2,0-0.4,0-0.5-0.1l0.2-0.7c0.1,0,0.2,0.1,0.3,0.1
		c0.5,0,0.7-0.3,0.9-0.8l0.1-0.3L88,46.5h0.9l0.8,2.2c0.1,0.4,0.3,0.8,0.4,1.2h0l0.3-1.2l0.7-2.2h0.9L90.5,51.1z"/>
	<path class="st4" d="M94.3,48.6c0-1.4,1-2.3,2-2.3s2,0.8,2,2.3c0,1.4-1,2.3-2,2.3S94.3,50.1,94.3,48.6z M97.5,48.6
		c0-0.9-0.4-1.5-1.1-1.5c-0.7,0-1.1,0.6-1.1,1.5c0,0.9,0.4,1.5,1.1,1.5C97,50.2,97.5,49.6,97.5,48.6z"/>
	<path class="st4" d="M101.5,45.2c-0.2-0.1-0.3-0.1-0.5-0.1c-0.4,0-0.6,0.3-0.6,0.8v0.6h0.9v0.7h-0.9v3.6h-0.9v-3.6H99v-0.7l0.6,0
		v-0.5c0-0.9,0.4-1.5,1.4-1.5c0.3,0,0.6,0.1,0.8,0.2L101.5,45.2z"/>
	<path class="st4" d="M104,45h0.9v5.8H104V45z"/>
	<path class="st4" d="M106.4,46.5h0.7l0.1,0.6h0c0.4-0.4,0.8-0.7,1.4-0.7c0.9,0,1.3,0.6,1.3,1.7v2.7H109v-2.6c0-0.7-0.2-1-0.7-1
		c-0.4,0-0.7,0.2-1.1,0.6v3.1h-0.9V46.5z"/>
	<path class="st4" d="M111,48.6c0-1.4,0.9-2.3,1.9-2.3c0.5,0,0.8,0.2,1.2,0.5l0-0.7v-1.6h0.9v6.3h-0.7l-0.1-0.5h0
		c-0.3,0.3-0.8,0.6-1.3,0.6C111.7,50.9,111,50.1,111,48.6z M114,49.6v-2.1c-0.3-0.3-0.6-0.4-1-0.4c-0.6,0-1.1,0.6-1.1,1.5
		c0,1,0.4,1.5,1.1,1.5C113.3,50.2,113.6,50,114,49.6z"/>
	<path class="st4" d="M116.2,49.2v-2.7h0.9v2.6c0,0.7,0.2,1,0.7,1c0.4,0,0.7-0.2,1-0.6v-3h0.9v4.3H119l-0.1-0.7h0
		c-0.4,0.5-0.8,0.8-1.4,0.8C116.6,50.9,116.2,50.3,116.2,49.2z"/>
	<path class="st4" d="M120.7,50.3l0.4-0.6c0.4,0.3,0.8,0.5,1.2,0.5c0.5,0,0.8-0.3,0.8-0.6c0-0.4-0.5-0.6-1-0.7
		c-0.6-0.2-1.2-0.5-1.2-1.3c0-0.7,0.6-1.3,1.5-1.3c0.6,0,1.1,0.2,1.4,0.5l-0.4,0.6c-0.3-0.2-0.6-0.4-1-0.4c-0.5,0-0.7,0.2-0.7,0.5
		c0,0.4,0.4,0.5,0.9,0.7c0.6,0.2,1.3,0.5,1.3,1.3c0,0.7-0.6,1.3-1.6,1.3C121.7,50.9,121.1,50.6,120.7,50.3z"/>
	<path class="st4" d="M124.9,49.4v-2.2h-0.6v-0.7l0.7,0l0.1-1.2h0.8v1.2h1.1v0.7h-1.1v2.2c0,0.5,0.2,0.8,0.6,0.8
		c0.1,0,0.3,0,0.5-0.1l0.2,0.7c-0.2,0.1-0.5,0.2-0.9,0.2C125.2,50.9,124.9,50.3,124.9,49.4z"/>
	<path class="st4" d="M127.8,46.5h0.7l0.1,0.8h0c0.3-0.6,0.8-0.9,1.2-0.9c0.2,0,0.4,0,0.5,0.1l-0.2,0.8c-0.1,0-0.3-0.1-0.4-0.1
		c-0.4,0-0.8,0.2-1.1,0.9v2.7h-0.9V46.5z"/>
	<path class="st4" d="M133.1,51.1c-0.3,0.9-0.8,1.6-1.7,1.6c-0.2,0-0.4,0-0.5-0.1l0.2-0.7c0.1,0,0.2,0.1,0.3,0.1
		c0.5,0,0.7-0.3,0.9-0.8l0.1-0.3l-1.7-4.3h0.9l0.8,2.2c0.1,0.4,0.3,0.8,0.4,1.2h0l0.3-1.2l0.7-2.2h0.9L133.1,51.1z"/>
	<path class="st4" d="M137,49.6c0-0.9,0.8-1.4,2.6-1.6c0-0.5-0.2-0.9-0.8-0.9c-0.5,0-0.9,0.2-1.3,0.4l-0.3-0.6
		c0.4-0.3,1.1-0.6,1.7-0.6c1.1,0,1.6,0.7,1.6,1.8v2.6h-0.7l-0.1-0.5h0c-0.4,0.3-0.9,0.6-1.4,0.6C137.6,50.9,137,50.4,137,49.6z
		 M139.6,49.7v-1.1c-1.3,0.2-1.7,0.5-1.7,1c0,0.4,0.3,0.6,0.7,0.6C139,50.2,139.3,50,139.6,49.7z"/>
	<path class="st4" d="M141.8,46.5h0.7l0.1,0.6h0c0.4-0.4,0.8-0.7,1.4-0.7c0.9,0,1.3,0.6,1.3,1.7v2.7h-0.9v-2.6c0-0.7-0.2-1-0.7-1
		c-0.4,0-0.7,0.2-1.1,0.6v3.1h-0.9V46.5z"/>
	<path class="st4" d="M146.4,48.6c0-1.4,0.9-2.3,1.9-2.3c0.5,0,0.8,0.2,1.2,0.5l0-0.7v-1.6h0.9v6.3h-0.7l-0.1-0.5h0
		c-0.3,0.3-0.8,0.6-1.3,0.6C147.1,50.9,146.4,50.1,146.4,48.6z M149.4,49.6v-2.1c-0.3-0.3-0.6-0.4-1-0.4c-0.6,0-1.1,0.6-1.1,1.5
		c0,1,0.4,1.5,1.1,1.5C148.8,50.2,149.1,50,149.4,49.6z"/>
	<path class="st4" d="M153.5,45h0.9v5.8h-0.9V45z"/>
	<path class="st4" d="M155.9,46.5h0.7l0.1,0.6h0c0.4-0.4,0.8-0.7,1.4-0.7c0.9,0,1.3,0.6,1.3,1.7v2.7h-0.9v-2.6c0-0.7-0.2-1-0.7-1
		c-0.4,0-0.7,0.2-1.1,0.6v3.1h-0.9V46.5z"/>
	<path class="st4" d="M162.9,45.2c-0.2-0.1-0.3-0.1-0.5-0.1c-0.4,0-0.6,0.3-0.6,0.8v0.6h0.9v0.7h-0.9v3.6H161v-3.6h-0.6v-0.7l0.6,0
		v-0.5c0-0.9,0.4-1.5,1.4-1.5c0.3,0,0.6,0.1,0.8,0.2L162.9,45.2z"/>
	<path class="st4" d="M163.1,48.6c0-1.4,1-2.3,2-2.3s2,0.8,2,2.3c0,1.4-1,2.3-2,2.3S163.1,50.1,163.1,48.6z M166.3,48.6
		c0-0.9-0.4-1.5-1.1-1.5c-0.7,0-1.1,0.6-1.1,1.5c0,0.9,0.4,1.5,1.1,1.5C165.9,50.2,166.3,49.6,166.3,48.6z"/>
	<path class="st4" d="M168.3,46.5h0.7l0.1,0.8h0c0.3-0.6,0.8-0.9,1.2-0.9c0.2,0,0.4,0,0.5,0.1l-0.2,0.8c-0.1,0-0.3-0.1-0.4-0.1
		c-0.4,0-0.8,0.2-1.1,0.9v2.7h-0.9V46.5z"/>
	<path class="st4" d="M171.5,46.5h0.7l0.1,0.6h0c0.4-0.4,0.8-0.7,1.3-0.7c0.6,0,1,0.3,1.2,0.8c0.4-0.5,0.9-0.8,1.4-0.8
		c0.9,0,1.3,0.6,1.3,1.7v2.7h-0.9v-2.6c0-0.7-0.2-1-0.7-1c-0.3,0-0.6,0.2-1,0.6v3.1h-0.9v-2.6c0-0.7-0.2-1-0.7-1
		c-0.3,0-0.6,0.2-1,0.6v3.1h-0.9V46.5z"/>
	<path class="st4" d="M178.7,49.6c0-0.9,0.8-1.4,2.6-1.6c0-0.5-0.2-0.9-0.8-0.9c-0.5,0-0.9,0.2-1.3,0.4l-0.3-0.6
		c0.4-0.3,1.1-0.6,1.7-0.6c1.1,0,1.6,0.7,1.6,1.8v2.6h-0.7l-0.1-0.5h0c-0.4,0.3-0.9,0.6-1.4,0.6C179.2,50.9,178.7,50.4,178.7,49.6z
		 M181.2,49.7v-1.1c-1.3,0.2-1.7,0.5-1.7,1c0,0.4,0.3,0.6,0.7,0.6C180.6,50.2,180.9,50,181.2,49.7z"/>
	<path class="st4" d="M183.4,49.4v-2.2h-0.6v-0.7l0.7,0l0.1-1.2h0.8v1.2h1.1v0.7h-1.1v2.2c0,0.5,0.2,0.8,0.6,0.8
		c0.1,0,0.3,0,0.5-0.1l0.2,0.7c-0.2,0.1-0.5,0.2-0.9,0.2C183.8,50.9,183.4,50.3,183.4,49.4z"/>
	<path class="st4" d="M186.3,45.1c0-0.3,0.2-0.5,0.6-0.5s0.6,0.2,0.6,0.5c0,0.3-0.3,0.5-0.6,0.5S186.3,45.4,186.3,45.1z M186.4,46.5
		h0.9v4.3h-0.9V46.5z"/>
	<path class="st4" d="M188.4,48.6c0-1.4,1-2.3,2-2.3s2,0.8,2,2.3c0,1.4-1,2.3-2,2.3S188.4,50.1,188.4,48.6z M191.5,48.6
		c0-0.9-0.4-1.5-1.1-1.5c-0.7,0-1.1,0.6-1.1,1.5c0,0.9,0.4,1.5,1.1,1.5C191.1,50.2,191.5,49.6,191.5,48.6z"/>
	<path class="st4" d="M193.5,46.5h0.7l0.1,0.6h0c0.4-0.4,0.8-0.7,1.4-0.7c0.9,0,1.3,0.6,1.3,1.7v2.7h-0.9v-2.6c0-0.7-0.2-1-0.7-1
		c-0.4,0-0.7,0.2-1.1,0.6v3.1h-0.9V46.5z"/>
	<path class="st4" d="M201.5,45.8h-1.7V45h4.3v0.8h-1.7v5h-0.9V45.8z"/>
	<path class="st4" d="M204.1,48.6c0-1.4,1-2.3,2-2.3c1.2,0,1.8,0.8,1.8,2.1c0,0.2,0,0.4,0,0.5H205c0.1,0.8,0.6,1.3,1.3,1.3
		c0.4,0,0.7-0.1,1-0.3l0.3,0.6c-0.4,0.3-0.9,0.5-1.5,0.5C205,50.9,204.1,50.1,204.1,48.6z M207,48.2c0-0.7-0.3-1.2-1-1.2
		c-0.5,0-1,0.4-1.1,1.2H207z"/>
	<path class="st4" d="M208.5,48.6c0-1.4,1-2.3,2.1-2.3c0.6,0,1,0.2,1.3,0.5l-0.4,0.6c-0.2-0.2-0.5-0.3-0.8-0.3
		c-0.7,0-1.2,0.6-1.2,1.5c0,0.9,0.5,1.5,1.2,1.5c0.4,0,0.7-0.2,0.9-0.4l0.4,0.6c-0.4,0.4-0.9,0.5-1.4,0.5
		C209.4,50.9,208.5,50.1,208.5,48.6z"/>
	<path class="st4" d="M212.9,44.5h0.9v1.7l0,0.9c0.4-0.4,0.8-0.7,1.4-0.7c0.9,0,1.3,0.6,1.3,1.7v2.7h-0.9v-2.6c0-0.7-0.2-1-0.7-1
		c-0.4,0-0.7,0.2-1.1,0.6v3.1h-0.9V44.5z"/>
	<path class="st4" d="M217.8,46.5h0.7l0.1,0.6h0c0.4-0.4,0.8-0.7,1.4-0.7c0.9,0,1.3,0.6,1.3,1.7v2.7h-0.9v-2.6c0-0.7-0.2-1-0.7-1
		c-0.4,0-0.7,0.2-1.1,0.6v3.1h-0.9V46.5z"/>
	<path class="st4" d="M222.4,48.6c0-1.4,1-2.3,2-2.3c1.1,0,2,0.8,2,2.3c0,1.4-1,2.3-2,2.3C223.4,50.9,222.4,50.1,222.4,48.6z
		 M225.6,48.6c0-0.9-0.4-1.5-1.1-1.5c-0.7,0-1.1,0.6-1.1,1.5c0,0.9,0.4,1.5,1.1,1.5C225.1,50.2,225.6,49.6,225.6,48.6z"/>
	<path class="st4" d="M227.6,49.8v-5.3h0.9v5.3c0,0.2,0.1,0.3,0.2,0.3c0,0,0.1,0,0.1,0l0.1,0.7c-0.1,0-0.3,0.1-0.5,0.1
		C227.8,50.9,227.6,50.5,227.6,49.8z"/>
	<path class="st4" d="M229.6,48.6c0-1.4,1-2.3,2-2.3s2,0.8,2,2.3c0,1.4-1,2.3-2,2.3S229.6,50.1,229.6,48.6z M232.7,48.6
		c0-0.9-0.4-1.5-1.1-1.5c-0.7,0-1.1,0.6-1.1,1.5c0,0.9,0.4,1.5,1.1,1.5C232.3,50.2,232.7,49.6,232.7,48.6z"/>
	<path class="st4" d="M234.4,51.6c0-0.4,0.2-0.7,0.6-0.9v0c-0.2-0.1-0.4-0.4-0.4-0.7c0-0.3,0.2-0.6,0.5-0.8v0
		c-0.3-0.2-0.6-0.6-0.6-1.1c0-1,0.8-1.6,1.7-1.6c0.2,0,0.5,0,0.6,0.1h1.5v0.7h-0.8c0.2,0.2,0.3,0.5,0.3,0.8c0,0.9-0.7,1.5-1.6,1.5
		c-0.2,0-0.4,0-0.6-0.1c-0.1,0.1-0.2,0.3-0.2,0.5c0,0.3,0.2,0.4,0.7,0.4h0.8c1,0,1.6,0.3,1.6,1.1c0,0.8-0.9,1.5-2.3,1.5
		C235.2,52.7,234.4,52.4,234.4,51.6z M237.6,51.4c0-0.4-0.3-0.5-0.8-0.5h-0.7c-0.2,0-0.4,0-0.6-0.1c-0.3,0.2-0.4,0.4-0.4,0.6
		c0,0.4,0.4,0.7,1.2,0.7C237.1,52.1,237.6,51.8,237.6,51.4z M237.1,47.9c0-0.6-0.4-0.9-0.8-0.9c-0.5,0-0.8,0.3-0.8,0.9
		c0,0.6,0.4,0.9,0.8,0.9C236.7,48.8,237.1,48.5,237.1,47.9z"/>
	<path class="st4" d="M241.3,51.1c-0.3,0.9-0.8,1.6-1.7,1.6c-0.2,0-0.4,0-0.5-0.1l0.2-0.7c0.1,0,0.2,0.1,0.3,0.1
		c0.5,0,0.7-0.3,0.9-0.8l0.1-0.3l-1.7-4.3h0.9l0.8,2.2c0.1,0.4,0.3,0.8,0.4,1.2h0l0.3-1.2l0.7-2.2h0.9L241.3,51.1z"/>
	<path class="st4" d="M245.1,48.6c0-1.4,1-2.3,2-2.3s2,0.8,2,2.3c0,1.4-1,2.3-2,2.3S245.1,50.1,245.1,48.6z M248.3,48.6
		c0-0.9-0.4-1.5-1.1-1.5c-0.7,0-1.1,0.6-1.1,1.5c0,0.9,0.4,1.5,1.1,1.5C247.9,50.2,248.3,49.6,248.3,48.6z"/>
	<path class="st4" d="M252.4,45.2c-0.2-0.1-0.3-0.1-0.5-0.1c-0.4,0-0.6,0.3-0.6,0.8v0.6h0.9v0.7h-0.9v3.6h-0.9v-3.6h-0.6v-0.7l0.6,0
		v-0.5c0-0.9,0.4-1.5,1.4-1.5c0.3,0,0.6,0.1,0.8,0.2L252.4,45.2z"/>
	<path class="st4" d="M254.9,49.4v-2.2h-0.6v-0.7l0.7,0l0.1-1.2h0.8v1.2h1.1v0.7h-1.1v2.2c0,0.5,0.2,0.8,0.6,0.8
		c0.1,0,0.3,0,0.5-0.1l0.2,0.7c-0.2,0.1-0.5,0.2-0.8,0.2C255.2,50.9,254.9,50.3,254.9,49.4z"/>
	<path class="st4" d="M257.9,44.5h0.9v1.7l0,0.9c0.4-0.4,0.8-0.7,1.4-0.7c0.9,0,1.3,0.6,1.3,1.7v2.7h-0.9v-2.6c0-0.7-0.2-1-0.7-1
		c-0.4,0-0.7,0.2-1.1,0.6v3.1h-0.9V44.5z"/>
	<path class="st4" d="M262.4,48.6c0-1.4,1-2.3,2-2.3c1.2,0,1.8,0.8,1.8,2.1c0,0.2,0,0.4,0,0.5h-2.8c0.1,0.8,0.6,1.3,1.3,1.3
		c0.4,0,0.7-0.1,1-0.3l0.3,0.6c-0.4,0.3-0.9,0.5-1.5,0.5C263.4,50.9,262.4,50.1,262.4,48.6z M265.4,48.2c0-0.7-0.3-1.2-1-1.2
		c-0.5,0-1,0.4-1.1,1.2H265.4z"/>
	<path class="st4" d="M269.1,45h1.8c1.3,0,2.2,0.4,2.2,1.7c0,1.3-0.9,1.9-2.2,1.9H270v2.2h-0.9V45z M270.8,47.9
		c0.9,0,1.4-0.4,1.4-1.1s-0.5-1-1.4-1H270v2.1H270.8z"/>
	<path class="st4" d="M273.6,48.6c0-1.4,1-2.3,2-2.3c1.2,0,1.8,0.8,1.8,2.1c0,0.2,0,0.4,0,0.5h-2.8c0.1,0.8,0.6,1.3,1.3,1.3
		c0.4,0,0.7-0.1,1-0.3l0.3,0.6c-0.4,0.3-0.9,0.5-1.5,0.5C274.5,50.9,273.6,50.1,273.6,48.6z M276.5,48.2c0-0.7-0.3-1.2-1-1.2
		c-0.5,0-1,0.4-1.1,1.2H276.5z"/>
	<path class="st4" d="M278,48.6c0-1.4,1-2.3,2-2.3c1.1,0,2,0.8,2,2.3c0,1.4-1,2.3-2,2.3C279,50.9,278,50.1,278,48.6z M281.2,48.6
		c0-0.9-0.4-1.5-1.1-1.5c-0.7,0-1.1,0.6-1.1,1.5c0,0.9,0.4,1.5,1.1,1.5C280.7,50.2,281.2,49.6,281.2,48.6z"/>
	<path class="st4" d="M283.2,46.5h0.7l0.1,0.5h0c0.4-0.3,0.9-0.6,1.3-0.6c1.1,0,1.7,0.9,1.7,2.2c0,1.5-0.9,2.3-1.9,2.3
		c-0.4,0-0.8-0.2-1.1-0.5l0,0.7v1.4h-0.9V46.5z M286.1,48.6c0-0.9-0.3-1.5-1-1.5c-0.3,0-0.7,0.2-1,0.5v2.1c0.3,0.3,0.7,0.4,0.9,0.4
		C285.6,50.2,286.1,49.6,286.1,48.6z"/>
	<path class="st4" d="M288.1,49.8v-5.3h0.9v5.3c0,0.2,0.1,0.3,0.2,0.3c0,0,0.1,0,0.1,0l0.1,0.7c-0.1,0-0.3,0.1-0.5,0.1
		C288.4,50.9,288.1,50.5,288.1,49.8z"/>
	<path class="st4" d="M290.2,48.6c0-1.4,1-2.3,2-2.3c1.1,0,1.8,0.8,1.8,2.1c0,0.2,0,0.4,0,0.5H291c0.1,0.8,0.6,1.3,1.3,1.3
		c0.4,0,0.7-0.1,1-0.3l0.3,0.6c-0.4,0.3-0.9,0.5-1.5,0.5C291.1,50.9,290.2,50.1,290.2,48.6z M293.1,48.2c0-0.7-0.3-1.2-1-1.2
		c-0.5,0-1,0.4-1.1,1.2H293.1z"/>
	<path class="st4" d="M294.9,45.6l0-0.9h0.9l0,0.9l-0.2,1.6h-0.5L294.9,45.6z"/>
	<path class="st4" d="M296.6,50.3l0.4-0.6c0.4,0.3,0.8,0.5,1.2,0.5c0.5,0,0.8-0.3,0.8-0.6c0-0.4-0.5-0.6-1-0.7
		c-0.6-0.2-1.2-0.5-1.2-1.3c0-0.7,0.6-1.3,1.5-1.3c0.6,0,1.1,0.2,1.4,0.5l-0.4,0.6c-0.3-0.2-0.6-0.4-1-0.4c-0.5,0-0.7,0.2-0.7,0.5
		c0,0.4,0.4,0.5,0.9,0.7c0.6,0.2,1.3,0.5,1.3,1.3c0,0.7-0.6,1.3-1.6,1.3C297.7,50.9,297,50.6,296.6,50.3z"/>
	<path class="st4" d="M305.9,50.8l-1.3-2.3h-0.9v2.3h-0.9V45h1.9c1.2,0,2.1,0.4,2.1,1.7c0,0.9-0.5,1.4-1.2,1.7l1.4,2.5H305.9z
		 M303.6,47.7h0.9c0.8,0,1.3-0.3,1.3-1c0-0.7-0.5-0.9-1.3-0.9h-0.9V47.7z"/>
	<path class="st4" d="M307.4,48.6c0-1.4,1-2.3,2-2.3c1.1,0,1.8,0.8,1.8,2.1c0,0.2,0,0.4,0,0.5h-2.8c0.1,0.8,0.6,1.3,1.3,1.3
		c0.4,0,0.7-0.1,1-0.3l0.3,0.6c-0.4,0.3-0.9,0.5-1.5,0.5C308.3,50.9,307.4,50.1,307.4,48.6z M310.4,48.2c0-0.7-0.3-1.2-1-1.2
		c-0.5,0-1,0.4-1.1,1.2H310.4z"/>
	<path class="st4" d="M312.2,46.5h0.7l0.1,0.5h0c0.4-0.3,0.9-0.6,1.3-0.6c1.1,0,1.7,0.9,1.7,2.2c0,1.5-0.9,2.3-1.9,2.3
		c-0.4,0-0.8-0.2-1.1-0.5l0,0.7v1.4h-0.9V46.5z M315.1,48.6c0-0.9-0.3-1.5-1-1.5c-0.3,0-0.7,0.2-1,0.5v2.1c0.3,0.3,0.7,0.4,0.9,0.4
		C314.6,50.2,315.1,49.6,315.1,48.6z"/>
	<path class="st4" d="M317.1,49.2v-2.7h0.9v2.6c0,0.7,0.2,1,0.7,1c0.4,0,0.7-0.2,1-0.6v-3h0.9v4.3h-0.7l-0.1-0.7h0
		c-0.4,0.5-0.8,0.8-1.4,0.8C317.5,50.9,317.1,50.3,317.1,49.2z"/>
	<path class="st4" d="M322.8,50.3L322.8,50.3l-0.1,0.4H322v-6.3h0.9v1.7l0,0.7c0.4-0.3,0.8-0.6,1.3-0.6c1.1,0,1.7,0.9,1.7,2.2
		c0,1.5-0.9,2.3-1.9,2.3C323.6,50.9,323.2,50.7,322.8,50.3z M324.9,48.6c0-0.9-0.3-1.5-1-1.5c-0.3,0-0.7,0.2-1,0.5v2.1
		c0.3,0.3,0.7,0.4,0.9,0.4C324.5,50.2,324.9,49.6,324.9,48.6z"/>
	<path class="st4" d="M327,49.8v-5.3h0.9v5.3c0,0.2,0.1,0.3,0.2,0.3c0,0,0.1,0,0.1,0l0.1,0.7c-0.1,0-0.3,0.1-0.5,0.1
		C327.2,50.9,327,50.5,327,49.8z"/>
	<path class="st4" d="M329.2,45.1c0-0.3,0.2-0.5,0.6-0.5c0.3,0,0.6,0.2,0.6,0.5c0,0.3-0.3,0.5-0.6,0.5
		C329.4,45.7,329.2,45.4,329.2,45.1z M329.3,46.5h0.9v4.3h-0.9V46.5z"/>
	<path class="st4" d="M331.3,48.6c0-1.4,1-2.3,2.1-2.3c0.6,0,1,0.2,1.3,0.5l-0.4,0.6c-0.2-0.2-0.5-0.3-0.8-0.3
		c-0.7,0-1.2,0.6-1.2,1.5c0,0.9,0.5,1.5,1.2,1.5c0.4,0,0.7-0.2,0.9-0.4l0.4,0.6c-0.4,0.4-0.9,0.5-1.4,0.5
		C332.2,50.9,331.3,50.1,331.3,48.6z"/>
	<path class="st4" d="M337.1,48.6c0-1.4,1-2.3,2-2.3c1.1,0,2,0.8,2,2.3c0,1.4-1,2.3-2,2.3C338.1,50.9,337.1,50.1,337.1,48.6z
		 M340.2,48.6c0-0.9-0.4-1.5-1.1-1.5c-0.7,0-1.1,0.6-1.1,1.5c0,0.9,0.4,1.5,1.1,1.5C339.8,50.2,340.2,49.6,340.2,48.6z"/>
	<path class="st4" d="M344.3,45.2c-0.2-0.1-0.3-0.1-0.5-0.1c-0.4,0-0.6,0.3-0.6,0.8v0.6h0.9v0.7h-0.9v3.6h-0.9v-3.6h-0.6v-0.7l0.6,0
		v-0.5c0-0.9,0.4-1.5,1.4-1.5c0.3,0,0.6,0.1,0.8,0.2L344.3,45.2z"/>
	<path class="st4" d="M346.5,47.9c0-1.9,1.1-3,2.6-3c0.7,0,1.3,0.3,1.6,0.7l-0.5,0.6c-0.3-0.3-0.7-0.5-1.1-0.5c-1,0-1.7,0.8-1.7,2.2
		c0,1.4,0.6,2.2,1.7,2.2c0.5,0,0.9-0.2,1.3-0.6l0.5,0.6c-0.5,0.5-1.1,0.8-1.8,0.8C347.6,50.9,346.5,49.8,346.5,47.9z"/>
	<path class="st4" d="M351.8,44.5h0.9v1.7l0,0.9c0.4-0.4,0.8-0.7,1.4-0.7c0.9,0,1.3,0.6,1.3,1.7v2.7h-0.9v-2.6c0-0.7-0.2-1-0.7-1
		c-0.4,0-0.7,0.2-1.1,0.6v3.1h-0.9V44.5z"/>
	<path class="st4" d="M356.6,45.1c0-0.3,0.2-0.5,0.6-0.5c0.3,0,0.6,0.2,0.6,0.5c0,0.3-0.3,0.5-0.6,0.5
		C356.8,45.7,356.6,45.4,356.6,45.1z M356.7,46.5h0.9v4.3h-0.9V46.5z"/>
	<path class="st4" d="M358.9,46.5h0.7l0.1,0.6h0c0.4-0.4,0.8-0.7,1.4-0.7c0.9,0,1.3,0.6,1.3,1.7v2.7h-0.9v-2.6c0-0.7-0.2-1-0.7-1
		c-0.4,0-0.7,0.2-1.1,0.6v3.1h-0.9V46.5z"/>
	<path class="st4" d="M363.6,49.6c0-0.9,0.8-1.4,2.6-1.6c0-0.5-0.2-0.9-0.8-0.9c-0.5,0-0.9,0.2-1.3,0.4l-0.3-0.6
		c0.4-0.3,1.1-0.6,1.7-0.6c1.1,0,1.6,0.7,1.6,1.8v2.6h-0.7l-0.1-0.5h0c-0.4,0.3-0.9,0.6-1.4,0.6C364.1,50.9,363.6,50.4,363.6,49.6z
		 M366.2,49.7v-1.1c-1.3,0.2-1.7,0.5-1.7,1c0,0.4,0.3,0.6,0.7,0.6C365.5,50.2,365.8,50,366.2,49.7z"/>
</g>
</svg>
