<?xml version="1.0" encoding="utf-8"?>
<!-- Generator: Adobe Illustrator 24.3.0, SVG Export Plug-In . SVG Version: 6.00 Build 0)  -->
<svg version="1.1" id="图层_1" xmlns="http://www.w3.org/2000/svg" xmlns:xlink="http://www.w3.org/1999/xlink" x="0px" y="0px"
	 viewBox="0 0 520 64" style="enable-background:new 0 0 520 64;" xml:space="preserve">
<style type="text/css">
	.st0{fill:#00317C;}
	.st1{fill:#ED6D00;}
</style>
<g>
	<g>
		<polygon class="st0" points="115.2,4.2 101.9,4.2 101.9,47.2 115.2,47.2 115.2,4.2 		"/>
		<polygon class="st0" points="174.3,47.2 187.7,47.2 187.7,13.5 200.6,13.5 200.6,1.9 161.5,1.9 161.5,13.5 174.3,13.5 174.3,47.2 
					"/>
		<path class="st0" d="M143.6,47.2h13.3V36.7h-13.3c-5.9-0.3-10.5-5.9-10.5-11.8s4.7-10.6,10.5-10.9h13.3V2.5h-13.3
			c-12.7,0.3-22.8,9.7-22.8,22.3S130.9,47,143.6,47.2L143.6,47.2z"/>
		<path class="st0" d="M26.9,47.2h14.2l4.4-10.6H33.1c-9.8-0.8-10.5-5.9-10.5-11.8S27.4,14.5,33.1,14h21.3l4.4-11.4H33.1
			C20.5,2.8,10,12.2,10,24.9S13.8,44.4,26.9,47.2L26.9,47.2z"/>
		<path class="st0" d="M79.4,3.1H64.1L46.4,47.2h13.5h0l4.5-12.3h15.7l4.5,12.3h12.5L79.4,3.1z M68,25.1l3.8-10.5l0,0
			c0.2-0.4,0.7-0.4,0.9,0l3.8,10.5H68z"/>
	</g>
	<g>
		<path class="st0" d="M99.2,56.4c-1-0.6-2.1-0.9-3.3-0.9H10v6.6h90.6c0.7,0,1.4-0.3,1.9-0.7C102.2,59.2,101,57.4,99.2,56.4z"/>
		<path class="st1" d="M104.3,61.2c1.1,0.6,2.3,0.9,3.6,0.9h92.7v-6.6h-97.8c-0.8,0-1.5,0.3-2.1,0.7C101,58.3,102.4,60.2,104.3,61.2
			z"/>
	</g>
	<g>
		<path class="st0" d="M268.2,14.7v29.7h-7.4v-3h-13.5V60h-7.5V41.4h-13.4v3.3h-7.1v-30h20.5V4.4h7.5v10.3H268.2z M239.8,34.4V21.6
			h-13.4v12.8H239.8z M260.8,34.4V21.6h-13.5v12.8H260.8z"/>
		<path class="st0" d="M328.1,6.7V60h-7.6v-3h-35.2v3h-7.2V6.7H328.1z M320.6,50.5V13.2h-35.2v37.3H320.6z M318.5,41.2V47h-30.8
			v-5.8h12v-7h-9.8v-6h9.8v-5.6h-11.3v-6.2h29.2v6.2h-11.4v5.6h10.1v6H313c1.6,1.7,3.5,3.9,4.5,5.3l-3.1,1.7H318.5z M306.2,41.2h6
			c-1-1.6-2.7-3.6-4-5.2l3.6-1.8h-5.5V41.2z"/>
		<path class="st0" d="M353.3,6.5c-1.3,3.5-2.7,7.1-4.4,10.5v43.2h-6.4v-32c-1.4,2-2.9,4-4.3,5.7c-0.6-1.6-2.5-5.3-3.6-7
			c5-5.4,9.8-13.9,12.5-22.3L353.3,6.5z M389.9,13.6v5.8h-38.3v-5.8h17c-0.9-2.2-2.4-4.9-3.7-7.1l6-2.3c1.7,2.4,3.5,5.7,4.3,7.9
			l-3.4,1.5H389.9z M354.9,40h31.5v19.7h-6.2v-1.7h-19.2v1.8h-6V40z M385.6,28.1h-29.8v-5.5h29.8V28.1z M355.8,31.2h29.8v5.5h-29.8
			V31.2z M360.9,45.7v6.7h19.2v-6.7H360.9z"/>
		<path class="st0" d="M408.9,48c0.9,0.6,2,1.4,3.3,2.1c3.9,2.3,9.2,2.7,15.7,2.7c6.4,0,16.3-0.5,22.5-1.4c-0.8,1.8-1.8,4.9-1.9,6.8
			c-4.6,0.2-14.5,0.6-20.8,0.6c-7.4,0-12.3-0.7-16.4-3c-2.4-1.4-4.3-3.2-5.7-3.2c-1.8,0-4.7,3.5-7.2,7.1l-4.3-6c2.6-2.7,5.4-4.8,8-6
			V33.6h-7.5v-6.5h14.3V48z M405.7,20.9c-2.1-2.8-6.8-7.1-10.4-10.2l4.8-4.2c3.5,2.7,8.4,6.9,10.7,9.5L405.7,20.9z M420.7,49.9H414
			V19.3h13c-2.9-1.3-5.9-2.6-8.5-3.7l4.6-3.7c2.3,0.8,5.1,2,7.7,3.1c1.7-1,3.5-2.1,5-3.3h-21.3V6.2h27.3l1.4-0.4l4.2,3.4
			c-3,2.9-6.8,5.9-10.8,8.3c1.1,0.5,2.2,1.1,3.1,1.6l-0.1,0.1h8v24.5c0,2.9-0.5,4.3-2.4,5.3c-1.8,1-4.5,1-8,1c-0.3-1.7-1-4-1.8-5.5
			c1.9,0.1,3.9,0.1,4.5,0.1c0.7-0.1,0.9-0.3,0.9-0.9V41h-7v8.7h-6.3V41h-6.8V49.9z M420.7,24.4v3.2h6.8v-3.2H420.7z M427.5,35.9
			v-3.3h-6.8v3.3H427.5z M440.8,24.4h-7v3.2h7V24.4z M440.8,35.9v-3.3h-7v3.3H440.8z"/>
		<path class="st0" d="M475,9.1c-1.5,5-3.5,11-5.2,15.6c3.6,4.6,4.3,8.9,4.3,12.3c0,3.9-0.8,6.4-2.7,7.9c-0.9,0.7-2,1.1-3.4,1.3
			c-1.1,0.2-2.4,0.2-3.8,0.1c0-1.7-0.6-4.3-1.5-6.1c1,0.1,1.9,0.1,2.6,0.1c0.6,0,1.1-0.1,1.6-0.5c0.7-0.5,1-1.8,1-3.6
			c0-2.9-0.7-6.7-4.1-10.9c1.2-3.6,2.4-8.4,3.3-12.3h-4.8v46.8h-6.2V6.7h13.2l1-0.3L475,9.1z M502.9,53.2c0.9,0,1.2-1,1.3-7.1
			c1.3,1.1,4,2.1,5.8,2.6c-0.5,8.2-2.2,10.4-6.4,10.4h-4.1c-5.2,0-6.4-2-6.4-7.9V39.1h-3.9c-0.9,10-3.6,16.9-15.2,20.9
			c-0.7-1.8-2.5-4.3-3.9-5.7c9.5-2.9,11.6-7.7,12.3-15.2h-7.1v-6.3h33.9v6.3h-9.3v12.2c0,1.7,0.1,1.9,1,1.9H502.9z M479.7,23.1h-4.6
			V11.3h13.8c-0.7-1.9-1.5-3.9-2.4-5.7l6.7-1.9c1.4,2.3,2.7,5.4,3.4,7.6h12.3v11.7h-4.7v5.3h-24.5V23.1z M481.6,17.4v4.8h20.5v-4.8
			H481.6z"/>
	</g>
</g>
</svg>
