<?xml version="1.0" encoding="utf-8"?>
<!-- Generator: Adobe Illustrator 24.3.0, SVG Export Plug-In . SVG Version: 6.00 Build 0)  -->
<svg version="1.1" id="图层_1" xmlns="http://www.w3.org/2000/svg" xmlns:xlink="http://www.w3.org/1999/xlink" x="0px" y="0px"
	 viewBox="0 0 280 64" style="enable-background:new 0 0 280 64;" xml:space="preserve">
<style type="text/css">
	.st0{fill:#FFDF01;}
	.st1{fill:#EA0000;}
</style>
<g>
	<path class="st0" d="M53.1,49.7l-5.9,5.8l-4.3-4.3c-10.5,6.3-20.2,5.5-29.1-0.5l-0.6,0.6c0,0.2,0.1,0.4,0.1,0.7
		c0,2-1.7,3.6-3.7,3.6c-2,0-3.6-1.6-3.6-3.6c0-2,1.6-3.7,3.6-3.7c0.2,0,0.4,0,0.7,0.1c0,0,0.3-0.3,0.4-0.4c-1.2-1.2-2.1-2.6-3.2-4.1
		l3.7-3.7c7.7,8,18.2,9.3,25.7,5.2L21.6,29.8l-4.4,4.4l-6.6-6.6l11.7-11.7c2.2,0.9,5.4,0.5,7.4-1.6l3.7,3.7l-5.9,5.9l15.4,15.5
		c6.3-11.8-1.1-26.4-13.2-31c15-0.5,31.6,18,19.1,36.8L53.1,49.7z"/>
	<g>
		<path class="st1" d="M97.4,27v15.2h-4.5v-1.4h-5.6v8.9h-4.5v-8.9h-5.6v1.5H73V27h9.9v-5h4.5v5H97.4z M82.8,36.6v-5.4h-5.6v5.4
			H82.8z M92.9,36.6v-5.4h-5.6v5.4H92.9z"/>
		<path class="st1" d="M127.7,40.4h-26.8v-4.1h6v-4.9h-5.1v-4.1h5.1v-5.1h4.4v5.1h5.8v-5.1h4.5v5.1h5.3v4.1h-5.3v4.9h6.1V40.4z
			 M112.6,42.9c-2.2,2.5-5.4,5.1-8.2,6.8c-0.9-0.9-2.5-2.2-3.5-3c2.7-1.4,5.7-3.7,7.1-5.5L112.6,42.9z M111.3,36.2h5.8v-4.9h-5.8
			V36.2z M119.9,41c2.4,1.7,6,4.4,7.8,6.2l-4.3,2.4c-1.5-1.7-5-4.6-7.5-6.6L119.9,41z"/>
		<path class="st1" d="M155.7,27v15.2h-4.5v-1.4h-5.6v8.9h-4.5v-8.9h-5.6v1.5h-4.3V27h9.9v-5h4.5v5H155.7z M141.1,36.6v-5.4h-5.6
			v5.4H141.1z M151.2,36.6v-5.4h-5.6v5.4H151.2z"/>
		<path class="st1" d="M176.4,39.4c2.1,3.1,5.3,5.2,10.4,6.1c-0.9,0.9-2.2,2.7-2.7,3.9c-5.7-1.3-9.1-4.1-11.4-8.3
			c-1.8,3.6-5.2,6.7-11.7,8.5c-0.4-1-1.5-2.9-2.3-3.7c5.3-1.4,8.2-3.7,9.8-6.4h-9.3v-4.2h2.9v-9.6h8.1V22h4.3v3.6h8.6v9.6h2.8v4.2
			H176.4z M169.9,35.2c0.2-1.2,0.3-2.4,0.3-3.5v-2h-3.8v5.5H169.9z M174.5,29.8v2c0,1.1-0.1,2.3-0.2,3.5h4.3v-5.5H174.5z"/>
		<path class="st1" d="M214.6,45.1v3.8h-26v-3.8H214.6z M193.2,31.2h-4.1v-7h10.2c-0.2-0.4-0.4-0.9-0.5-1.3l4.1-1.2
			c0.4,0.7,0.8,1.6,1.1,2.4h10.3v7H210v-3.3h-16.8V31.2z M193.1,33.2h17v11h-17V33.2z M209.2,28.9v3.3h-15.1v-3.3H209.2z
			 M197.2,37.3h8.6v-0.9h-8.6V37.3z M197.2,41.1h8.6v-0.9h-8.6V41.1z"/>
		<path class="st1" d="M226.8,23.4c-0.8,2-1.7,4.1-2.7,6v20.3H220v-14c-0.4,0.5-0.8,1-1.3,1.5c-0.4-1-1.5-3.4-2.2-4.5
			c2.5-2.5,4.9-6.6,6.3-10.6L226.8,23.4z M233.3,34.2l-0.5,1.9h7.8l0.6-0.2l2.9,1.9c-1.9,2.1-4.2,4.5-6.5,6.8c1,0.7,1.9,1.4,2.6,2
			l-3,3.2c-1.7-1.7-5.3-4.3-8.3-6.1l2.9-2.6c0.8,0.4,1.5,0.8,2.3,1.3c0.8-0.8,1.6-1.6,2.4-2.4h-9.5c0.6-1.6,1.2-3.6,1.8-5.8h-4.1
			v-3.9h5.2l0.4-1.6h-3.9v-3.8h4.8c0.2-0.8,0.4-1.7,0.6-2.5l4.2,0.5l-0.5,2h7.3v3.8h-8.2l-0.4,1.6h10.2v3.9H233.3z"/>
		<path class="st1" d="M260.6,29.3c-0.6,1.3-1.1,2.5-1.6,3.6h3.1v3.8h-15.6v-3.8h3.3c-0.3-1.1-0.8-2.4-1.3-3.5l2.2-0.5h-3.6v-3.8
			h5.2c-0.3-0.8-0.5-1.6-0.8-2.3l3.9-1.1c0.5,1,1,2.4,1.3,3.4h4.7v3.8h-2.9L260.6,29.3z M247.6,38.5h13.5v11.1h-4.2v-1.1h-5.3v1.3
			h-4V38.5z M251.6,42.2v2.6h5.3v-2.6H251.6z M252.3,28.8c0.6,1.2,1.1,2.6,1.4,3.6l-1.5,0.4h2.7c0.5-1.2,1-2.8,1.4-4.1H252.3z
			 M273.9,24.9c-0.9,2.9-2.1,6.3-3.1,8.7c2.2,2.6,2.5,4.9,2.5,6.8c0,2.3-0.5,3.8-1.6,4.6c-0.6,0.4-1.3,0.6-2,0.8
			c-0.6,0.1-1.3,0.1-2.1,0.1c0-1.1-0.4-2.8-1-3.9c0.5,0.1,0.9,0.1,1.3,0.1c0.3,0,0.7-0.1,1-0.3c0.4-0.3,0.6-0.9,0.6-1.8
			c0-1.5-0.5-3.6-2.5-5.7c0.7-2,1.5-4.8,2.1-7.1h-2.5v22.4h-3.7V23.3h7.6l0.6-0.1L273.9,24.9z"/>
	</g>
</g>
</svg>
