<?xml version="1.0" encoding="utf-8"?>
<!-- Generator: Adobe Illustrator 24.3.0, SVG Export Plug-In . SVG Version: 6.00 Build 0)  -->
<svg version="1.1" id="图层_1" xmlns="http://www.w3.org/2000/svg" xmlns:xlink="http://www.w3.org/1999/xlink" x="0px" y="0px"
	 viewBox="0 0 180 64" style="enable-background:new 0 0 180 64;" xml:space="preserve">
<style type="text/css">
	.st0{fill:#8DC21F;}
	.st1{fill:#0084CF;}
</style>
<g>
	<path class="st0" d="M58.3,37.7c-3.8-4.8-8.1-9.3-12.8-13.3c-1-0.9-2.4-1.5-3.8-1.6c-1.3,0-2.6,0.6-3.5,1.5
		c-0.2,0.2-0.5,0.5-0.9,0.8c-2.6,2.2-10.7,9.6-10.9,9.8c-0.6,0.6-1.4,0.9-2.3,0.9c-0.9-0.1-1.8-0.5-2.5-1.2
		c-2.4-1.9-4.6-4.1-6.6-6.3c-2-2.2-3.6-4.2-3.6-4.2s-0.4,0.7-0.6,1.3c-0.1,0.3-0.1,0.6,0.1,0.8c3.8,4.8,8.1,9.3,12.8,13.3
		c1,1,2.4,1.5,3.8,1.6c1.3,0,2.6-0.6,3.5-1.5c0.2-0.2,0.5-0.5,0.9-0.8c2.6-2.2,7.5-6.7,9.8-8.8c0.5-0.5,0.9-0.8,1-0.9
		c0.6-0.6,1.4-0.9,2.3-0.9c0.9,0.1,1.8,0.5,2.5,1.2c1.5,1.2,3.8,3.4,6.6,6.3c2,2.2,3.6,4.2,3.6,4.2c0,0,0.4-0.8,0.6-1.3
		C58.5,38.4,58.5,38,58.3,37.7z"/>
	<path class="st1" d="M32.1,16.3c-4.7,3.9-9.2,8.1-13.5,12.4c1,1.1,2.1,2.1,3.3,3.1c0.5,0.4,1.2,0.3,1.6-0.1c0,0,0-0.1,0.1-0.1
		c3.6-3.6,11-10.1,12-10.9c2.5-2.4,6.3-2.5,8.9-0.4C50,24.8,55,29.9,59.2,35.7c0,0,0.2-0.8,0.3-1.5c0.1-0.4,0-0.8-0.2-1.2
		c-6.8-9.7-13.9-15.8-16.7-17.3C39.3,13.8,35.2,14,32.1,16.3z"/>
	<path class="st1" d="M24.5,11.2c-4.2,3.4-8.3,7.1-12.1,10.9c0.9,1.1,1.9,2.1,2.9,3.1c0.2,0.2,0.7,0.2,0.9,0c0,0,0.1-0.1,0.1-0.1
		c4.6-4.4,9.5-8.9,12.4-11.2c4.8-3.7,10.6-4.1,16.1,0.3c2.3,1.9,4.5,3.9,6.6,6c2.9,3.3,5.7,6.7,8.1,10.4c0-0.7-0.1-1.5-0.3-2.2
		c-0.1-0.3-0.2-0.6-0.3-0.8c-1.6-3-3.6-5.8-5.8-8.4C47,12,43.1,9.8,40.5,8.5C37.2,6.7,30.7,6.2,24.5,11.2z"/>
	<path class="st1" d="M37,47.7c4.7-3.9,9.2-8.1,13.5-12.4c-1-1.1-2.1-2.2-3.3-3.1c-0.5-0.4-1.2-0.3-1.6,0.1c0,0,0,0.1-0.1,0.1
		c-3.6,3.6-11,10.1-12,10.9c-2.5,2.4-6.3,2.5-9,0.4C19,39.2,14.1,34,10,28.2c0,0-0.2,0.8-0.3,1.5c-0.1,0.4,0,0.8,0.2,1.2
		c6.8,9.7,13.9,15.8,16.7,17.3C29.8,50.2,34,50,37,47.7z"/>
	<path class="st1" d="M44.6,52.8c4.2-3.4,8.3-7.1,12.1-10.9c-0.9-1.1-1.9-2.1-2.9-3.1c-0.2-0.2-0.7-0.2-0.9,0c0,0-0.1,0.1-0.1,0.1
		c-4.6,4.4-9.5,8.9-12.4,11.2c-4.8,3.7-10.6,4.1-16.1-0.3c-2.3-1.9-4.5-3.9-6.6-6C14.7,40.4,12,37,9.5,33.3c0,0.7,0.1,1.5,0.3,2.2
		c0.1,0.3,0.2,0.6,0.3,0.8c1.6,3,3.6,5.8,5.8,8.4C22.1,52,26,54.2,28.6,55.5C32,57.3,38.5,57.8,44.6,52.8z"/>
	<path class="st1" d="M82.4,34.4H80v-6.6h-8.9V15.7H80v-4.4h2.4v4.4h9v12.2h-9C82.4,27.8,82.4,34.4,82.4,34.4z M82.4,17.8v7.9H89
		v-7.9L82.4,17.8z M73.4,17.8v7.9H80v-7.9L73.4,17.8z"/>
	<path class="st1" d="M110.5,23.3l-1.6,1.2l0.2,0.2c0.8,0.8,1.6,1.8,2.2,2.7l0.2,0.2l1.7-1.3l-0.2-0.2c-0.8-0.9-1.5-1.8-2.3-2.6
		L110.5,23.3z"/>
	<path class="st1" d="M114,27.8h-5.8v-4.8h5v-2h-5v-3h5.4v-2h-12.9v2h5.4v3h-5v2h5v4.8h-5.7v2H114V27.8z"/>
	<path class="st1" d="M117.5,33.9H96.9V12.1h20.6V33.9z M99.1,14.2v17.6h16.2V14.2H99.1z"/>
	<path class="st1" d="M131.5,24.7c-1-0.9-3.7-3.1-3.7-3.1v-1.1h3.2v-2.1h-3.2v-3.3c1.1-0.2,2.2-0.4,3.3-0.7l-0.4-2.1
		c-1.3,0.3-2.7,0.6-4.1,0.8c-2.7,0.4-4.2,0.5-4.2,0.5l0.3,2.1c0,0,1.8-0.2,3.1-0.4v3.2h-3.6v2.1h3.3c-0.9,2.7-2.1,5.3-3.8,7.6
		l1.6,1.7c1-1.4,1.8-2.9,2.5-4.5v9.3h2.1V24.4c0.8,0.7,1.5,1.4,2.2,2l0.2,0.2l1.5-1.7L131.5,24.7z"/>
	<path class="st1" d="M139.1,23.1c0.2-0.3,0.4-0.7,0.5-1.1l-2.1-0.4c0.4-0.2,0.8-0.5,1.1-0.7c2.3-1.4,4.2-3.3,5.4-5.7l0.1-0.1v-1.9
		h-7.4c0.2-0.4,0.5-0.8,0.7-1.1l0.1-0.2l-2-0.8l-0.1,0.2c-1.2,2.4-2.9,4.5-5,6.1c0,0,1.1,0.9,1.8,1.3c1.2-1,2.2-2.2,3.2-3.4h6.3
		c-0.9,1.3-2.1,2.5-3.4,3.4c-0.8-0.7-1.6-1.3-2.6-2.1l-0.2-0.1l-1.4,1.5l0.2,0.2c0.9,0.8,1.5,1.2,2.1,1.9c-1.8,0.9-3.6,1.7-5.5,2.2
		c0,0,1.4,1.8,1.4,1.8c1.2-0.4,3.7-1.5,4.8-2c-1.6,2.7-3.9,4.8-6.7,6.2c0.5,0.6,1.1,1.1,1.7,1.6c2.3-1.1,4.2-2.7,5.8-4.6h4.7
		c-0.6,2.1-1.9,3.8-3.8,4.9c-0.8-0.8-1.6-1.6-2.5-2.4l-1.5,1.3c0.8,0.8,1.6,1.6,2.2,2.2c-2.3,0.9-4.7,1.4-7.1,1.5l0.8,1.8
		c0,0,11.9-0.3,14.3-9.4v-2L139.1,23.1L139.1,23.1z"/>
	<path class="st1" d="M149,13.5h9.7v2.1H149V13.5z"/>
	<path class="st1" d="M159.2,30.2c-0.7-1.7-1.8-4.1-2.6-5.8l-0.1-0.2l-2,0.9l0.1,0.2c0.5,1.1,1,2.2,1.5,3.4l-5.1,1.2
		c1.3-2.6,2.4-5.4,3.3-8.2h5.4v-2.1H148v2.1h3.8c-0.8,3-1.9,5.8-3.4,8.5c-0.1,0.2-0.3,0.5-0.5,0.6l0.6,1.5c0,0,6.2-1.7,8.1-2
		l0.2,0.6L159.2,30.2z"/>
	<path class="st1" d="M164.3,16.1c0.1-1.5,0.1-3,0.1-4.5v-0.2H162v4.7h-3v2.2h3v2.9c0.2,3.3-0.7,6.6-2.5,9.3c-0.8,1.1-1.8,2-2.9,2.7
		l1.7,1.7c0,0,5.9-3.1,5.9-12.7l0.1-3.8h4c-0.1,4-0.2,7.8-0.4,11.5c-0.1,1.1-0.5,1.7-1.6,1.7h-2.6c0.2,0.7,0.4,2.3,0.4,2.3h2.8
		c2-0.1,3.1-1.2,3.2-3.5c0.2-3.5,0.4-8.3,0.5-14v-0.2h-6.2V16.1z"/>
	<path class="st1" d="M92,43.6c-0.3-0.2-0.6-0.4-1-0.5c-0.7-0.2-1.4-0.2-2,0c-0.3,0.1-0.6,0.2-0.8,0.3c-0.2,0.1-0.5,0.3-0.7,0.5
		c-0.1,0.1-0.2,0.2-0.3,0.3v-5.6h-1.8v13.8h1.8V46c0.3-0.4,0.7-0.8,1.1-1c0.4-0.2,0.9-0.4,1.4-0.4c0.5,0,0.9,0.1,1.2,0.5
		c0.3,0.4,0.4,1,0.4,1.5v5.9H93v-6.1c0-0.6-0.1-1.1-0.3-1.7C92.6,44.3,92.3,43.9,92,43.6z"/>
	<path class="st1" d="M95,39.6h1.8v2H95V39.6z M95,43.2h1.8v9.2H95V43.2z"/>
	<path class="st1" d="M105.5,43.8c-0.3-0.3-0.6-0.5-1-0.6c-0.7-0.2-1.5-0.2-2.2-0.1c-0.3,0.1-0.6,0.2-0.8,0.3
		c-0.2,0.1-0.5,0.3-0.7,0.5c-0.1,0.1-0.3,0.2-0.4,0.4l-0.3-1h-1.5v9.2h1.8v-6.4c0.3-0.4,0.7-0.8,1.1-1c0.4-0.2,0.9-0.4,1.4-0.4
		c0.4,0,0.9,0.1,1.1,0.5c0.3,0.5,0.5,1,0.4,1.6v5.9h1.8v-6.2c0-0.5-0.1-1.1-0.3-1.6C106,44.4,105.8,44,105.5,43.8z"/>
	<path class="st1" d="M110.7,52.5c-0.4,0-0.9-0.1-1.3-0.2c-0.4-0.1-0.7-0.4-1-0.6c-0.3-0.3-0.5-0.6-0.6-0.9
		c-0.1-0.4-0.2-0.8-0.2-1.2c0-0.4,0.1-0.9,0.3-1.2c0.2-0.4,0.4-0.7,0.7-0.9c0.3-0.3,0.7-0.4,1.1-0.6c0.5-0.2,0.9-0.2,1.4-0.2
		c0.4,0,0.9,0,1.3,0.1h0c0.3,0,0.6,0.1,0.9,0.2v-0.4c0-0.2,0-0.4-0.1-0.6c0-0.1-0.1-0.3-0.2-0.4c-0.2-0.3-0.4-0.5-0.7-0.7
		c-0.4-0.2-0.9-0.3-1.4-0.3c-0.4,0-0.8,0-1.3,0.1l-0.2,0.1c-0.3,0.1-0.6,0.2-0.9,0.3l-0.3,0.1v-1.6l0.1-0.1c0.1,0,0.1,0,0.2-0.1
		c0.1-0.1,0.2-0.1,0.4-0.1c0.1,0,0.2,0,0.3-0.1c0.1,0,0.2-0.1,0.3-0.1c0.1,0,0.2,0,0.4-0.1c0.1,0,0.2,0,0.4,0c0.3,0,0.5-0.1,0.8-0.1
		c0.8,0,1.6,0.2,2.3,0.5c0.6,0.3,1,0.8,1.3,1.4c0.1,0.2,0.2,0.4,0.1,0.7c0,0.3,0.1,0.6,0.1,0.8v6h-1.6l-0.1-0.8c0,0-0.1,0.1-0.1,0.1
		c0,0-0.1,0.1-0.1,0.1c-0.2,0.2-0.4,0.3-0.7,0.4c-0.2,0.1-0.5,0.2-0.8,0.3C111.3,52.5,111,52.5,110.7,52.5z M111.4,48.3
		c-0.5,0-1,0.1-1.4,0.4c-0.3,0.2-0.5,0.6-0.5,1c0,0.2,0,0.4,0.1,0.6c0.1,0.2,0.2,0.3,0.3,0.5c0.1,0.1,0.3,0.2,0.5,0.3
		c0.2,0,0.4,0.1,0.6,0.1c0.3,0,0.5,0,0.8-0.1c0.2-0.1,0.5-0.2,0.7-0.3l0,0c0.1-0.1,0.2-0.1,0.4-0.2c0.1,0,0.1-0.1,0.2-0.1
		c0.1-0.1,0.2-0.1,0.3-0.2v-1.6c-0.2-0.1-0.5-0.1-0.7-0.2C112.2,48.3,111.8,48.3,111.4,48.3z"/>
	<path class="st1" d="M82,48.4c-0.9,1.5-2.5,2.4-4.3,2.4c-2.7,0-4.9-2.2-4.9-4.9S75,41,77.7,41c1.7,0,3.3,0.9,4.2,2.4l0.1,0.1h1.9
		l-0.1-0.3c-1.5-3.4-5.4-4.9-8.8-3.4c-3.4,1.5-4.9,5.4-3.4,8.8c1.5,3.4,5.4,4.9,8.8,3.4c1.5-0.7,2.8-1.9,3.4-3.4l0.1-0.3L82,48.4
		L82,48.4z"/>
	<path class="st1" d="M128,46.8c-0.3,0.6-0.6,1.5-1,2.5c-0.4-1-0.7-1.8-1-2.5l-3-7.2h-2.5v12.8h1.9v-6.2c0-1.2-0.1-2.5-0.1-3.9
		c0.3,0.9,0.7,1.7,1,2.5l3.2,7.5h0.9l3.2-7.5c0.3-0.7,0.7-1.6,1-2.5c-0.1,1.4-0.1,2.7-0.1,3.9v6.2h1.9V39.6h-2.5L128,46.8z"/>
	<path class="st1" d="M149.9,52.6c-0.4,0-0.7,0-1-0.2c-0.3-0.1-0.5-0.2-0.8-0.4c-0.2-0.1-0.4-0.2-0.5-0.4l-0.1-0.1l-0.3,0.8h-1.4
		V38.6h1.8v5.2c0.3-0.2,0.6-0.4,0.9-0.6c0.5-0.2,1-0.3,1.5-0.3c0.2,0,0.5,0,0.7,0.1l0.1,0c0.3,0.1,0.6,0.2,0.9,0.3
		c0.3,0.2,0.6,0.4,0.8,0.6c0.3,0.3,0.5,0.6,0.7,0.9c0.1,0.2,0.2,0.4,0.3,0.7c0.1,0.2,0.2,0.3,0.2,0.5c0.2,0.5,0.2,1.1,0.2,1.6
		c0,0.7-0.1,1.5-0.4,2.2c-0.2,0.6-0.5,1.1-0.9,1.6C152,52.2,151,52.6,149.9,52.6L149.9,52.6z M149.6,44.6c-0.4,0-0.8,0.1-1.2,0.3
		c-0.3,0.1-0.7,0.4-0.9,0.6V50l0.3,0.3c0.1,0.1,0.3,0.3,0.5,0.4c0.1,0.1,0.3,0.2,0.4,0.2c0.1,0,0.1,0.1,0.2,0.1
		c0.2,0.1,0.5,0.1,0.7,0.1c0.4,0,0.7-0.1,1-0.2c0.3-0.2,0.5-0.4,0.7-0.7c0.2-0.3,0.4-0.7,0.5-1c0.1-0.4,0.2-0.9,0.2-1.4
		c0-0.6,0-1.2-0.2-1.7c-0.1-0.4-0.3-0.7-0.6-0.9c-0.2-0.2-0.5-0.4-0.8-0.5C150.2,44.6,149.9,44.6,149.6,44.6L149.6,44.6z"/>
	<path class="st1" d="M155.3,43.2h1.8v9.2h-1.8V43.2z M155.3,39.6h1.8v2h-1.8V39.6z M159.2,38.6h1.8v13.8h-1.8V38.6z"/>
	<path class="st1" d="M167.1,52.7c-0.6,0-1.2-0.1-1.8-0.3c-0.6-0.2-1.1-0.4-1.5-0.8c-0.4-0.4-0.8-0.9-1-1.5
		c-0.3-0.7-0.4-1.4-0.4-2.2c0-0.7,0.1-1.5,0.4-2.2c0.2-0.6,0.5-1.1,0.9-1.6c0.4-0.4,0.8-0.7,1.4-0.9c0.5-0.2,1-0.3,1.6-0.3
		c0.5,0,1,0.1,1.5,0.3c0.5,0.2,0.9,0.5,1.2,0.8c0.3,0.4,0.6,0.9,0.8,1.5c0.2,0.7,0.3,1.4,0.2,2.1v0.7h-6.1c0,0.4,0,0.8,0.2,1.2
		c0.2,0.3,0.4,0.6,0.7,0.9c0.3,0.2,0.6,0.4,1,0.5c0.4,0.1,0.8,0.2,1.3,0.2c0.4,0,0.8,0,1.3-0.1c0.4-0.1,0.8-0.2,1.1-0.3l0.2-0.1v1.6
		l-0.1,0.1c-0.4,0.2-0.8,0.3-1.2,0.4C168.1,52.6,167.6,52.7,167.1,52.7z M166.5,44.6c-0.3,0-0.6,0.1-0.9,0.2
		c-0.3,0.1-0.5,0.3-0.7,0.5c-0.2,0.2-0.4,0.5-0.5,0.7c-0.1,0.2-0.2,0.5-0.2,0.7h4.1c0-0.2,0-0.4-0.1-0.6l0-0.1
		c-0.1-0.3-0.2-0.5-0.4-0.7c-0.1-0.2-0.3-0.4-0.6-0.5C167.1,44.6,166.8,44.6,166.5,44.6L166.5,44.6z M139.7,52.6
		c-2.7,0-4.8-2.2-4.8-4.8c0-2.7,2.2-4.8,4.8-4.8c2.7,0,4.8,2.2,4.8,4.8C144.5,50.5,142.3,52.6,139.7,52.6z M139.7,44.6
		c-1.8,0-3.2,1.5-3.2,3.2s1.5,3.2,3.2,3.2c1.8,0,3.2-1.5,3.3-3.3C142.9,46,141.5,44.6,139.7,44.6L139.7,44.6z"/>
</g>
</svg>
