<svg xmlns="http://www.w3.org/2000/svg" viewBox="0 0 1024 1024" style="enable-background:new 0 0 1024 1024" xml:space="preserve"><radialGradient id="a" cx="511.95" cy="511.9" r="407.427" gradientTransform="matrix(1 0 0 -1 0 1024)" gradientUnits="userSpaceOnUse"><stop offset="0" style="stop-color:#91d3f4"/><stop offset=".142" style="stop-color:#75c2f6"/><stop offset=".424" style="stop-color:#43a4fa"/><stop offset=".672" style="stop-color:#1e8dfd"/><stop offset=".872" style="stop-color:#0880fe"/><stop offset="1" style="stop-color:#007bff"/></radialGradient><path d="M853.9 255.8c-65.6-65.6-156.2-106.1-256.2-106.1-61.5 0-119.5 15.4-170.2 42.5-5 2.7-5.3 9.8-.5 12.8 18.4 11.6 35.8 24.7 51.8 39.3 18 16.4 34.4 34.6 48.9 54.3 9.6 13.1 18.2 26.8 26 41.2 9.8 17.9 18.1 36.7 24.7 56.3 1.3 3.7 5.8 5.1 8.8 2.6 24.7-19.7 56-31.6 90.1-31.6 68.3 0 125.4 47.3 140.8 110.9.6.3 1.2.7 1.7 1 15.2 9 29.1 20.1 41 33-12 12.9-25.8 24-41 33-16 108.4-109.4 191.7-222.2 191.7-3.5 0-6.9-.1-10.3-.3-3.3-.2-6.7-.4-10-.7.1.1.2.3.3.5-18.2-.7-36.2-2.3-53.9-4.9-39.8-5.8-87.5-19.9-123.8-34.4.4.2.9.5 1.3.7-39.7-18.9-84-29.6-130.8-29.8h-1.3c-9.1 0-18.1.5-27 1.2-68.1 5.9-129.8 33.7-178.1 76.5 12.6-8.8 26.1-16.4 40.4-22.5 26-11 54.6-17.1 84.6-17.1s58.6 6.1 84.6 17.1c25.8 10.9 49.1 26.7 68.7 46.2l-.8-.8c22.3 22.3 47.6 41.6 75 57.5 43.2 25 91.9 41.4 143.9 46.7 12.2 1.2 24.7 1.9 37.2 1.9 100.1 0 190.6-40.6 256.2-106.1 47.2-47.2 81.3-107.4 96.8-174.7 6-26.2 9.3-53.5 9.3-81.5.1-100.3-40.5-190.8-106-256.4z" style="fill:url(#a)"/><radialGradient id="b" cx="342.716" cy="254.527" r=".435" gradientTransform="matrix(1 0 0 -1 0 1024)" gradientUnits="userSpaceOnUse"><stop offset="0" style="stop-color:#91d3f4"/><stop offset=".142" style="stop-color:#75c2f6"/><stop offset=".424" style="stop-color:#43a4fa"/><stop offset=".672" style="stop-color:#1e8dfd"/><stop offset=".872" style="stop-color:#0880fe"/><stop offset="1" style="stop-color:#007bff"/></radialGradient><path d="m342.7 769.5-.4-.4.9.9c-.2-.2-.3-.4-.5-.5z" style="fill:url(#b)"/><linearGradient id="c" gradientUnits="userSpaceOnUse" x1="479.8" y1="498.55" x2="216.1" y2="498.55" gradientTransform="matrix(1 0 0 -1 0 1024)"><stop offset="0" style="stop-color:#f4d734"/><stop offset="1" style="stop-color:#dea531"/></linearGradient><path d="M479.8 547.2c-11.2 1.4-22.6 2.3-34.2 2.3-69.9 0-133.5-26.7-181.2-70.5-17.5 9-33.6 20.2-48.3 33.1 42.2 37.2 97.5 59.8 158.1 59.8 37.9-.1 73.7-9 105.6-24.7z" style="fill:url(#c)"/><linearGradient id="d" gradientUnits="userSpaceOnUse" x1="469.9" y1="576.2" x2="220.7" y2="576.2" gradientTransform="matrix(1 0 0 -1 0 1024)"><stop offset="0" style="stop-color:#f4d734"/><stop offset="1" style="stop-color:#dea531"/></linearGradient><path d="M286 469.1c43 36.6 98.7 58.7 159.5 58.7 8.2 0 16.3-.4 24.4-1.2-50.1-11.6-95-36.9-130.5-71.8-.6-.6-1.2-1.1-1.7-1.7-24.3-24.3-44.1-53.2-58-85.3-20.5 2.3-40.3 7.1-59 14.2 12.4 27.6 29.6 52.5 50.7 73.6 4.6 4.7 9.6 9.1 14.6 13.5z" style="fill:url(#d)"/><linearGradient id="e" gradientUnits="userSpaceOnUse" x1="532.3" y1="638.85" x2="278.7" y2="638.85" gradientTransform="matrix(1 0 0 -1 0 1024)"><stop offset="0" style="stop-color:#f4d734"/><stop offset="1" style="stop-color:#dea531"/></linearGradient><path d="M353 437.7c5.1 5.1 10.5 10 16 14.6 44.1 37.2 101 59.6 163.2 59.7l.1-.1c0-70-28.4-133.4-74.3-179.3s-109.3-74.3-179.3-74.3c0 38.6 8.7 75.2 24.1 108 12.6 26.7 29.7 50.8 50.2 71.4z" style="fill:url(#e)"/></svg>