<svg version="1.1" id="图层_1" xmlns="http://www.w3.org/2000/svg" x="0" y="0" viewBox="0 0 1024 1024" style="enable-background:new 0 0 1024 1024" xml:space="preserve"><style>.st5{fill:#666}</style><radialGradient id="SVGID_1_" cx="446.211" cy="321.212" r="289.368" gradientUnits="userSpaceOnUse"><stop offset="0" style="stop-color:#91d3f4"/><stop offset=".142" style="stop-color:#75c2f6"/><stop offset=".424" style="stop-color:#43a4fa"/><stop offset=".672" style="stop-color:#1e8dfd"/><stop offset=".872" style="stop-color:#0880fe"/><stop offset="1" style="stop-color:#007bff"/></radialGradient><path d="M689 139.2c-46.6-46.6-110.9-75.4-182-75.4-43.7 0-84.8 11-120.9 30.2-3.6 1.9-3.7 6.9-.3 9.1 13.1 8.2 25.4 17.5 36.8 27.9 12.8 11.7 24.4 24.6 34.7 38.6 6.8 9.3 13 19.1 18.5 29.2 6.9 12.7 12.8 26.1 17.6 40 .9 2.6 4.1 3.6 6.3 1.9 17.6-14 39.8-22.4 64-22.4 48.5 0 89.1 33.6 100 78.8.4.2.8.5 1.2.7 10.8 6.4 20.6 14.3 29.1 23.4-8.5 9.2-18.3 17.1-29.1 23.4-11.3 77-77.7 136.1-157.8 136.1-2.5 0-4.9-.1-7.3-.2-2.4-.1-4.7-.3-7.1-.5.1.1.1.2.2.3-12.9-.5-25.7-1.7-38.3-3.5-28.3-4.1-62.2-14.1-87.9-24.5.3.2.6.3.9.5-28.2-13.4-59.6-21-92.9-21.2h-.9c-6.5 0-12.8.3-19.2.9-48.3 4.2-92.2 24-126.5 54.3 8.9-6.3 18.5-11.7 28.7-16 18.5-7.8 38.8-12.1 60.1-12.1 21.3 0 41.6 4.3 60.1 12.1 18.3 7.8 34.9 19 48.8 32.8l-.6-.6c15.8 15.8 33.8 29.6 53.3 40.9 30.7 17.7 65.3 29.4 102.2 33.2 8.7.9 17.5 1.3 26.4 1.3 71.1 0 135.4-28.8 182-75.4 33.5-33.5 57.8-76.3 68.8-124.1 4.3-18.6 6.6-38 6.6-57.9-.1-70.9-28.9-135.2-75.5-181.8z" style="fill:url(#SVGID_1_)"/><radialGradient id="SVGID_2_" cx="325.979" cy="504.079" r=".309" gradientUnits="userSpaceOnUse"><stop offset="0" style="stop-color:#91d3f4"/><stop offset=".142" style="stop-color:#75c2f6"/><stop offset=".424" style="stop-color:#43a4fa"/><stop offset=".672" style="stop-color:#1e8dfd"/><stop offset=".872" style="stop-color:#0880fe"/><stop offset="1" style="stop-color:#007bff"/></radialGradient><path d="m326 504.1-.3-.3.6.6-.3-.3z" style="fill:url(#SVGID_2_)"/><linearGradient id="SVGID_3_" gradientUnits="userSpaceOnUse" x1="423.337" y1="330.709" x2="236.048" y2="330.709"><stop offset="0" style="stop-color:#91d3f4"/><stop offset=".142" style="stop-color:#75c2f6"/><stop offset=".424" style="stop-color:#43a4fa"/><stop offset=".672" style="stop-color:#1e8dfd"/><stop offset=".872" style="stop-color:#0880fe"/><stop offset="1" style="stop-color:#007bff"/></linearGradient><path d="M423.3 346.2c-8 1-16.1 1.6-24.3 1.6-49.6 0-94.8-19-128.7-50.1-12.4 6.4-23.9 14.3-34.3 23.5 29.9 26.4 69.2 42.5 112.3 42.5 27 0 52.4-6.3 75-17.5z" style="fill:url(#SVGID_3_)"/><linearGradient id="SVGID_4_" gradientUnits="userSpaceOnUse" x1="416.32" y1="275.601" x2="239.29" y2="275.601"><stop offset="0" style="stop-color:#91d3f4"/><stop offset=".142" style="stop-color:#75c2f6"/><stop offset=".424" style="stop-color:#43a4fa"/><stop offset=".672" style="stop-color:#1e8dfd"/><stop offset=".872" style="stop-color:#0880fe"/><stop offset="1" style="stop-color:#007bff"/></linearGradient><path d="M285.7 290.7c30.5 26 70.1 41.7 113.3 41.7 5.8 0 11.6-.3 17.3-.9-35.6-8.3-67.5-26.2-92.7-51l-1.2-1.2c-17.3-17.3-31.3-37.8-41.2-60.6-14.6 1.6-28.6 5.1-41.9 10.1 8.8 19.6 21 37.3 36 52.3 3.3 3.4 6.8 6.6 10.4 9.6z" style="fill:url(#SVGID_4_)"/><linearGradient id="SVGID_5_" gradientUnits="userSpaceOnUse" x1="460.696" y1="231.141" x2="280.557" y2="231.141"><stop offset="0" style="stop-color:#91d3f4"/><stop offset=".142" style="stop-color:#75c2f6"/><stop offset=".424" style="stop-color:#43a4fa"/><stop offset=".672" style="stop-color:#1e8dfd"/><stop offset=".872" style="stop-color:#0880fe"/><stop offset="1" style="stop-color:#007bff"/></linearGradient><path d="M333.3 268.5c3.6 3.6 7.4 7.1 11.4 10.4 31.3 26.4 71.8 42.4 115.9 42.4h.1c0-49.7-20.2-94.7-52.8-127.3-32.6-32.6-77.6-52.8-127.4-52.8 0 27.4 6.2 53.4 17.1 76.7 9 18.8 21.1 35.9 35.7 50.6z" style="fill:url(#SVGID_5_)"/><path class="st5" d="M272.7 923.2c0 5.5-.8 10.4-2.3 14.9-1.5 4.5-3.7 8.3-6.4 11.5-2.7 3.2-6 5.6-9.8 7.4-3.8 1.8-8 2.6-12.5 2.6h-6.2c-5.9 0-10.3-1.4-13.3-4.1-2.9-2.7-4.4-6.4-4.4-10.9v-54.4c.9-.3 2.1-.5 3.4-.8 1.3-.2 2.7-.5 4.1-.7 1.4-.2 2.8-.4 4.2-.5 1.4-.1 2.6-.2 3.8-.2h8.6c4.1 0 8.1.8 11.9 2.5 3.8 1.7 7 4 9.8 7 2.8 3 5 6.7 6.7 11 1.5 4.6 2.4 9.4 2.4 14.7m-9.4 1.5c0-9.5-2.1-16.5-6.4-21.1-4.2-4.6-10-6.9-17.4-6.9h-4c-1.2 0-2.5.1-4.2.3-1.6.2-3.1.4-4.4.7v44.4c0 3.2.8 5.6 2.4 7 1.6 1.4 4.1 2.1 7.3 2.1h3.8c3.6 0 6.8-.6 9.6-1.9 2.8-1.3 5.2-3.1 7.1-5.4 1.9-2.3 3.4-5.1 4.4-8.4 1.3-3.3 1.8-6.9 1.8-10.8m58.5 16.3c0 2.8-.4 5.4-1.2 7.8-.8 2.3-2 4.4-3.7 6.1-1.7 1.7-3.9 3-6.6 4-2.7 1-5.9 1.4-9.7 1.4-2.8 0-5.4-.4-7.9-1.2-2.5-.8-4.7-1.9-6.6-3.3-1.9-1.4-3.4-3.1-4.5-5.1-1.1-2-1.7-4.2-1.7-6.7 0-6 2.2-10.5 6.5-13.7 4.3-3.1 10.6-4.7 18.8-4.7h7.3V923c0-4.1-1-7-3-8.8-2-1.8-5.3-2.7-9.7-2.7-4.1 0-7.6.7-10.5 2.1-2.9 1.4-5.2 3.2-6.8 5.4h-.5v-4.6c0-1.2.4-2.6 1.2-3.9.8-1.4 2-2.6 3.6-3.8 1.6-1.1 3.5-2.1 5.8-2.8 2.3-.8 5-1.1 8.1-1.1 7 0 12.3 1.8 15.8 5.3 3.6 3.6 5.3 8.7 5.3 15.5V941zm-9.3-7.7h-7.4c-5.5 0-9.5.8-12.1 2.4-2.5 1.6-3.8 4-3.8 7.1 0 2.4 1.1 4.5 3.2 6.2 2.1 1.7 5 2.5 8.5 2.5 4.1 0 7.1-.9 8.9-2.6 1.8-1.8 2.7-4.6 2.7-8.6v-7zm67.3-2.9c0 4.7-.6 8.9-1.7 12.5-1.2 3.7-2.8 6.8-4.9 9.4-2.1 2.6-4.7 4.6-7.7 5.9-3 1.3-6.4 2-10 2-3.6 0-6.9-.7-10-2-3.1-1.3-5.7-3.2-8-5.7-2.2-2.4-4-5.4-5.3-8.8-1.3-3.4-1.9-7.1-1.9-11.3 0-4.6.6-8.7 1.8-12.3 1.2-3.7 2.9-6.8 5.1-9.3 2.2-2.6 4.8-4.5 7.9-5.9 3.1-1.4 6.6-2.1 10.4-2.1 3.6 0 6.9.7 9.9 2s5.6 3.2 7.7 5.6c2.1 2.4 3.8 5.3 5 8.7 1.1 3.4 1.7 7.1 1.7 11.3m-9.4 2.2c0-6.9-1.4-12.1-4.2-15.6-2.8-3.5-6.9-5.2-12.2-5.2-4.4 0-7.9 1.7-10.6 5-2.6 3.3-4 7.9-4 13.7 0 6.4 1.5 11.5 4.4 15.2 2.9 3.7 7.1 5.6 12.4 5.6 2.3 0 4.3-.5 6.1-1.4 1.8-.9 3.2-2.2 4.4-3.9 1.2-1.7 2.1-3.6 2.7-6 .7-2.2 1-4.7 1-7.4m60.4 22.3c-.2.7-.4 1.3-.6 1.9-.2.6-.5 1-.9 1.5-.4.4-1 .7-1.7.9-.7.2-1.7.3-3 .3-1.6 0-2.9-.3-4-.8s-2.2-1.3-3.1-2.3c-3.6-3.7-7-7.7-10.3-11.9-3.3-4.2-6.5-8.3-9.7-12.4v27h-3c-4 0-6-2.5-6-7.5v-67.1h2.8c4.1 0 6.1 2.1 6.1 6.2V928c1.6-2.1 3.3-4.2 5.1-6.3 1.8-2.1 3.6-4.1 5.3-6.1 1.7-1.9 3.4-3.7 5-5.4 1.6-1.7 3.1-3.2 4.5-4.4.5-.5 1.4-1 2.6-1.4 1.2-.4 2.7-.6 4.5-.6h6.4v.5c-1.3 1-2.6 2.1-3.9 3.2-1.3 1.1-2.9 2.6-4.7 4.4-1.8 1.8-4 4.1-6.6 6.8-2.6 2.8-5.8 6.3-9.6 10.7 2.4 3.2 4.7 6.4 7.1 9.5 2.4 3.1 4.9 6.1 7.7 9 1.2 1.2 2.2 2.3 3.1 3.1.9.8 1.7 1.5 2.4 2 .8.5 1.4.9 2.1 1.2.9.3 1.6.5 2.4.7m48.9-32.9c0 2.4-.3 4.5-1 6.3-.6 1.8-1.8 3.2-3.6 4.3-1.7 1.1-4.1 1.9-7.1 2.4s-6.8.8-11.5.8h-13.4c.5 4.6 2.2 8.4 5.2 11.3 3 2.9 7.1 4.4 12.2 4.4 4.2 0 7.6-.6 10.2-1.7 2.6-1.1 4.7-2.5 6.3-4h.5v4.1c0 2.9-1.5 5.3-4.5 7.3s-7.6 3-13.8 3c-3.7 0-7.2-.7-10.3-2.1-3.1-1.4-5.8-3.3-8.1-5.7-2.3-2.5-4-5.4-5.3-8.8-1.3-3.4-1.9-7.1-1.9-11.1 0-4.5.6-8.6 1.9-12.2 1.3-3.7 3.1-6.8 5.3-9.4 2.3-2.6 5-4.6 8.1-6.1 3.1-1.4 6.5-2.1 10.1-2.1 2.6 0 5.2.5 7.7 1.5s4.7 2.3 6.6 4c1.9 1.7 3.4 3.8 4.6 6.1 1.3 2.4 1.8 4.9 1.8 7.7m-8.9.4c0-1.5-.3-2.9-.8-4.3-.5-1.3-1.3-2.5-2.3-3.6-1.1-1-2.4-1.9-4-2.5-1.6-.6-3.4-.9-5.5-.9-2.2 0-4.3.4-6.1 1.3-1.8.9-3.3 2-4.6 3.4-1.3 1.4-2.3 3-3.1 4.7-.7 1.7-1.2 3.5-1.2 5.3l-.1 2.3 12.3-.2c3.3-.1 5.9-.2 7.9-.4s3.6-.5 4.7-.9 1.8-1 2.2-1.6c.4-.7.6-1.5.6-2.6m87.4 36.6c-.7.1-1.4.2-2 .3-.5.1-1.1.1-1.6.2h-1.3c-2 0-3.5-.4-4.7-1.3-1.2-.9-2.1-2.2-2.9-4l-5.2-12.6c-1.1-2.6-2.1-4.6-3.1-6.2-1-1.6-1.9-2.7-2.8-3.6-.9-.8-1.8-1.4-2.7-1.7-.9-.3-1.9-.4-3-.5-2.2-.1-4.4-.3-6.6-.6-2.2-.3-3.9-.6-5.1-.8v31h-3.5c-3.9 0-5.9-2-5.9-6v-61.7c1-.4 2.2-.8 3.7-1.2 1.4-.4 2.9-.7 4.5-1 1.6-.3 3.2-.6 4.8-.7 1.6-.2 3.1-.3 4.5-.3h6.2c7 0 12.5 1.7 16.5 5.1 4 3.4 6.1 8.1 6.1 14.2 0 2.8-.4 5.3-1.3 7.4-.8 2.1-2 3.9-3.5 5.4-1.5 1.5-3.2 2.7-5.1 3.6-1.9.9-4 1.5-6.3 1.8 1.8.6 3.2 1.3 4.4 2.3 1.2 1 2.2 2 3 3.2.8 1.1 1.5 2.3 2 3.4s1 2.2 1.4 3.2L555 953c.4 1 .9 2 1.6 3.1.6 1.1 1.2 1.9 1.7 2.5v.4zm-13.5-50.1c0-2.4-.4-4.4-1.1-6a9 9 0 0 0-3.1-3.8c-1.3-1-2.8-1.6-4.4-2-1.7-.4-3.4-.6-5.3-.6h-5.2c-2.4 0-5.3.4-8.4 1.1v22.6c2.2.3 4.4.6 6.5.8 2.1.2 4.1.3 6.1.3 1.8 0 3.6-.2 5.4-.7 1.8-.4 3.4-1.2 4.8-2.1 1.4-1 2.6-2.2 3.5-3.8.7-1.6 1.2-3.5 1.2-5.8M608 922c0 2.4-.3 4.5-1 6.3-.6 1.8-1.8 3.2-3.6 4.3-1.7 1.1-4.1 1.9-7.1 2.4s-6.8.8-11.5.8h-13.4c.5 4.6 2.2 8.4 5.2 11.3 3 2.9 7.1 4.4 12.2 4.4 4.2 0 7.6-.6 10.2-1.7 2.6-1.1 4.7-2.5 6.3-4h.5v4.1c0 2.9-1.5 5.3-4.5 7.3s-7.6 3-13.8 3c-3.7 0-7.2-.7-10.3-2.1-3.1-1.4-5.8-3.3-8.1-5.7-2.3-2.5-4-5.4-5.3-8.8-1.3-3.4-1.9-7.1-1.9-11.1 0-4.5.6-8.6 1.9-12.2 1.3-3.7 3.1-6.8 5.3-9.4 2.3-2.6 5-4.6 8.1-6.1 3.1-1.4 6.5-2.1 10.1-2.1 2.6 0 5.2.5 7.7 1.5s4.7 2.3 6.6 4c1.9 1.7 3.4 3.8 4.6 6.1 1.2 2.4 1.8 4.9 1.8 7.7m-9 .4c0-1.5-.3-2.9-.8-4.3-.5-1.3-1.3-2.5-2.3-3.6-1.1-1-2.4-1.9-4-2.5-1.6-.6-3.4-.9-5.5-.9-2.2 0-4.3.4-6.1 1.3-1.8.9-3.3 2-4.6 3.4-1.3 1.4-2.3 3-3.1 4.7-.7 1.7-1.2 3.5-1.2 5.3l-.1 2.3 12.3-.2c3.3-.1 5.9-.2 7.9-.4s3.6-.5 4.7-.9 1.8-1 2.2-1.6c.4-.7.6-1.5.6-2.6m58.1 18.6c0 2.8-.4 5.4-1.2 7.8-.8 2.3-2 4.4-3.7 6.1-1.7 1.7-3.9 3-6.6 4-2.7 1-5.9 1.4-9.7 1.4-2.8 0-5.4-.4-7.9-1.2-2.5-.8-4.7-1.9-6.6-3.3-1.9-1.4-3.4-3.1-4.5-5.1-1.1-2-1.7-4.2-1.7-6.7 0-6 2.2-10.5 6.5-13.7 4.3-3.1 10.6-4.7 18.8-4.7h7.3V923c0-4.1-1-7-3-8.8-2-1.8-5.3-2.7-9.7-2.7-4.1 0-7.6.7-10.5 2.1-2.9 1.4-5.2 3.2-6.8 5.4h-.5v-4.6c0-1.2.4-2.6 1.2-3.9.8-1.4 2-2.6 3.6-3.8 1.6-1.1 3.5-2.1 5.9-2.8 2.3-.8 5-1.1 8.1-1.1 7 0 12.3 1.8 15.8 5.3 3.6 3.6 5.3 8.7 5.3 15.5V941zm-9.3-7.7h-7.4c-5.5 0-9.5.8-12.1 2.4-2.5 1.6-3.8 4-3.8 7.1 0 2.4 1.1 4.5 3.2 6.2 2.1 1.7 5 2.5 8.5 2.5 4.1 0 7.1-.9 8.9-2.6 1.8-1.8 2.7-4.6 2.7-8.6v-7zm67.2-3.4c0 10.6-2 18.4-6 23.1-4 4.8-10.2 7.2-18.7 7.2-3.4 0-6.6-.7-9.6-2.2-3-1.4-5.7-3.5-7.9-6-2.3-2.6-4.1-5.5-5.4-8.9-1.3-3.4-2-7-2-10.9 0-9.5 2.1-16.8 6.2-21.9 4.1-5.1 10-7.6 17.6-7.6 3.3 0 6.4.8 9.3 2.5 2.9 1.7 5.2 4.4 7.1 8.2v-28.8h2.4c4.6 0 6.9 2.6 6.9 7.7v37.6zm-9.5 2.6c0-2.5-.2-5-.7-7.6-.4-2.5-1.3-4.8-2.4-6.8-1.2-2-2.8-3.6-4.9-4.8-2.1-1.2-4.7-1.9-8-1.9-4.7 0-8.4 1.8-10.9 5.3s-3.8 8.4-3.8 14.7c0 2.8.4 5.4 1.2 7.8.8 2.4 1.9 4.6 3.4 6.4 1.4 1.8 3.1 3.3 5.1 4.3 2 1 4.2 1.6 6.7 1.6 5 0 8.6-1.5 10.9-4.4 2.3-3 3.4-7.8 3.4-14.6m64.2-10.5c0 2.4-.3 4.5-1 6.3-.6 1.8-1.8 3.2-3.6 4.3-1.7 1.1-4.1 1.9-7.1 2.4s-6.8.8-11.5.8h-13.4c.5 4.6 2.2 8.4 5.2 11.3 3 2.9 7.1 4.4 12.2 4.4 4.2 0 7.6-.6 10.2-1.7 2.6-1.1 4.7-2.5 6.3-4h.5v4.1c0 2.9-1.5 5.3-4.5 7.3s-7.6 3-13.8 3c-3.7 0-7.2-.7-10.3-2.1-3.1-1.4-5.8-3.3-8.1-5.7-2.3-2.5-4-5.4-5.3-8.8-1.3-3.4-1.9-7.1-1.9-11.1 0-4.5.6-8.6 1.9-12.2 1.3-3.7 3.1-6.8 5.3-9.4 2.3-2.6 5-4.6 8.1-6.1 3.1-1.4 6.5-2.1 10.1-2.1 2.6 0 5.2.5 7.7 1.5s4.7 2.3 6.6 4c1.9 1.7 3.4 3.8 4.6 6.1 1.2 2.4 1.8 4.9 1.8 7.7m-9 .4c0-1.5-.3-2.9-.8-4.3-.5-1.3-1.3-2.5-2.3-3.6-1.1-1-2.4-1.9-4-2.5-1.6-.6-3.4-.9-5.5-.9-2.2 0-4.3.4-6.1 1.3-1.8.9-3.3 2-4.6 3.4-1.3 1.4-2.3 3-3.1 4.7-.7 1.7-1.2 3.5-1.2 5.3l-.1 2.3 12.3-.2c3.3-.1 5.9-.2 7.9-.4s3.6-.5 4.7-.9 1.8-1 2.2-1.6c.4-.7.6-1.5.6-2.6m45.8-7c-.9-.8-2-1.4-3.5-2-1.4-.6-3.1-.8-4.9-.8-1.8 0-3.4.3-4.6.8-1.3.5-2.3 1.4-3.1 2.5-.8 1.2-1.4 2.8-1.7 4.7-.4 2-.6 4.5-.6 7.4v31.1h-4c-1.7 0-3-.6-4-1.8-.9-1.2-1.4-2.7-1.4-4.5v-25.5c0-7.7 1.7-13.6 5-17.6 3.4-4 7.7-6 13-6 3.7 0 6.4.7 7.9 2.1 1.5 1.4 2.3 3 2.3 4.9v4.5h-.4zM92.9 724.1c-1.8 0-3.3-1.4-3.4-3.3-.1-1.9 1.4-3.5 3.3-3.6 24.1-.9 49.9-14.5 50.2-14.6 1.7-.9 3.7-.2 4.6 1.4.9 1.7.2 3.7-1.4 4.6-1.1.6-27.5 14.4-53.1 15.4-.1.1-.2.1-.2.1m58.3 30.8h-60c-2.4 0-4.3-1.9-4.3-4.3s1.9-4.3 4.3-4.3h60c2.4 0 4.3 1.9 4.3 4.3s-1.9 4.3-4.3 4.3"/><path class="st5" d="M121.3 862c-2.4 0-4.3-1.9-4.3-4.3v-137c0-2.4 1.9-4.3 4.3-4.3s4.3 1.9 4.3 4.3v137c-.1 2.4-2 4.3-4.3 4.3"/><path class="st5" d="M92.9 824c-.5 0-1-.1-1.4-.3-1.7-.8-2.5-2.8-1.7-4.5 16.6-35.9 22.4-61.4 22.5-61.7.4-1.8 2.2-3 4.1-2.6 1.8.4 3 2.2 2.6 4.1-.2 1.1-6 26.4-22.9 63.1-.7 1.2-1.9 1.9-3.2 1.9m54.4-36.4c-1.1 0-2.1-.5-2.8-1.5l-21.8-31.4c-1.1-1.6-.7-3.7.9-4.8 1.6-1.1 3.7-.7 4.8.9l21.8 31.4c1.1 1.6.7 3.7-.9 4.8-.6.4-1.3.6-2 .6m7.1-64.5c-1.9 0-3.4-1.5-3.4-3.4s1.5-3.4 3.4-3.4c51.8 0 87.6-12.3 87.9-12.4 1.8-.6 3.7.3 4.4 2.1.6 1.8-.3 3.7-2.1 4.4-1.5.5-37.3 12.7-90.2 12.7m18.3 41.6c-1.5 0-2.9-1-3.3-2.6-3.9-14.7-13.7-30.1-13.8-30.3-1-1.6-.6-3.7 1-4.7s3.7-.6 4.7 1c.4.7 10.5 16.4 14.7 32.3.5 1.8-.6 3.7-2.4 4.2-.4 0-.7.1-.9.1m30.3-7c-1.3 0-2.6-.8-3.2-2.1-5.5-13-13.4-23.4-13.5-23.5-1.2-1.5-.9-3.7.6-4.8 1.5-1.1 3.7-.9 4.8.6.3.4 8.5 11.2 14.4 25 .7 1.7-.1 3.7-1.8 4.5-.4.2-.9.3-1.3.3m18.2 7c-.7 0-1.4-.2-2-.7-1.5-1.1-1.9-3.3-.8-4.8 17.1-23.6 17.2-36.6 17.2-36.7 0-1.9 1.5-3.4 3.4-3.5h.1c1.9 0 3.4 1.5 3.4 3.3 0 .6.2 15.1-18.5 40.9-.7 1-1.8 1.5-2.8 1.5m-65.7 18.7c-1.5 0-2.8-1-3.3-2.4-.5-1.8.5-3.7 2.3-4.3 23.6-7.1 37.7-15.1 37.8-15.1 1.6-.9 3.7-.4 4.7 1.3.9 1.6.4 3.7-1.3 4.7-.6.3-14.9 8.4-39.3 15.8-.2-.1-.5 0-.9 0"/><path class="st5" d="M228 856.9h-61.4c-8 0-14.5-6.1-14.5-13.6v-62.6c0-1.9 1.5-3.4 3.4-3.4s3.4 1.5 3.4 3.4v62.6c0 3.7 3.4 6.8 7.6 6.8H228c4.2 0 7.6-3 7.6-6.8v-56.7c0-3.7-3.4-6.8-7.6-6.8h-30c-1.9 0-3.4-1.5-3.4-3.4s1.5-3.4 3.4-3.4h30c8 0 14.5 6.1 14.5 13.6v56.7c0 7.5-6.5 13.6-14.5 13.6m180.2-127.6h-137c-2.4 0-4.3-1.9-4.3-4.3s1.9-4.3 4.3-4.3h137c2.4 0 4.3 1.9 4.3 4.3 0 2.3-1.9 4.3-4.3 4.3m-3.6 19.9L277 749c-1.9 0-3.4-1.5-3.4-3.4s1.5-3.4 3.4-3.4l127.5.3c1.9 0 3.4 1.5 3.4 3.4.1 1.8-1.5 3.3-3.3 3.3"/><path class="st5" d="M339.9 748c-1.9 0-3.4-1.5-3.4-3.4v-39.4c0-1.9 1.5-3.4 3.4-3.4s3.4 1.5 3.4 3.4v39.4c.1 1.9-1.5 3.4-3.4 3.4m-73 77.3c-1.9 0-3.4-1.5-3.4-3.4v-45.7c0-7.7 6.3-13.9 13.9-13.9H408c3.5 0 6.8 1.7 8.8 4.5 2 2.8 2.5 6.5 1.3 9.8l-4.4 12.4c-.6 1.8-2.6 2.7-4.4 2.1-1.8-.6-2.7-2.6-2.1-4.4l4.4-12.4c.4-1.2.3-2.5-.5-3.5-.7-1-1.9-1.6-3.2-1.6H277.4c-3.9 0-7.1 3.2-7.1 7.1V822c0 1.8-1.5 3.3-3.4 3.3"/><path class="st5" d="M398.7 856.9h-8.3c-5.8 0-11.2-2.3-15.3-6.3-4.1-4.1-6.3-9.5-6.3-15.3l.2-34.3c0-2.9-1.1-5.6-3.1-7.7-2-2-4.8-3.2-7.6-3.2h-40c-6.9 0-12.6 5.6-12.7 12.6l-.1 20c0 18.8-15.3 34.1-34.1 34.1-1.9 0-3.4-1.5-3.4-3.4s1.5-3.4 3.4-3.4c15 0 27.3-12.2 27.3-27.3l.2-20c.1-10.7 8.8-19.4 19.5-19.4h40c4.7 0 9.2 1.8 12.5 5.2 3.3 3.3 5.2 7.8 5.1 12.5l-.1 34.2c0 3.9 1.5 7.6 4.3 10.4 2.8 2.8 6.5 4.3 10.4 4.3h8.3c7.7 0 13.9-6.2 13.9-13.9v-13.4c0-1.9 1.5-3.4 3.4-3.4s3.4 1.5 3.4 3.4V836c-.1 11.6-9.4 20.9-20.9 20.9m-243.4-31.4c-1.3 0-2.5-.7-3.1-1.9-.8-1.7-.1-3.8 1.6-4.6l26.3-12.9c4.1-2 9-1.7 12.8.9l.6.5 8.6 9.3c1.8 1 4 1.1 5.8.1l27.2-12.4c1.7-.8 3.7 0 4.5 1.7.8 1.7 0 3.8-1.7 4.5L210.8 823c-4 2.1-9 1.8-12.9-.8l-.6-.5-8.6-9.3c-1.7-1-3.9-1.1-5.7-.2l-26.3 12.9c-.3.3-.8.4-1.4.4m296.4 32.8c0 2.2-1.2 3.3-3.6 3.3-2.3 0-3.4-1.1-3.4-3.3V727.8c.1-2 1.3-3.1 3.6-3.1s3.4 1.2 3.4 3.6v130zm25.6-137.5c-.2.6-.5 1.2-.8 1.9-.3.7-.7 1.2-1.3 1.5-.6.3-1.3.4-2.3.1-1-.3-2.1-1.1-3.5-2.5-7.2-6.5-14.3-11.5-21.2-15-1-.6-1.7-1.3-2.1-2.1-.3-.9-.4-1.7-.3-2.4.2-.7.5-1.3 1-1.8s1.1-.7 1.8-.7c1.3 0 4.4 1.5 9.4 4.6 5.1 3.2 9.1 6 11.8 8.4 3 2.4 4.9 4.1 5.9 5 1.1 1 1.6 2 1.6 3m47.1 28.9c4.3-5.7 8.8-13.3 13.5-22.7.8-1.8 1.6-3 2.5-3.5.9-.5 1.7-.6 2.4-.3s1.3.8 1.8 1.5.7 1.3.9 1.7c0 .6-.3 1.5-.9 2.9-.2.6-.8 1.6-1.6 3-.9 1.4-1.9 3.3-3.2 5.6-1.3 2.3-2.6 4.4-3.9 6.3-1.4 1.9-2.7 3.8-4.1 5.6H543c2.8 0 5.2.2 6.9.6 1.8.4 3.1 1.1 4.1 2 1 .9 1.6 2.2 2 3.8.3 1.7.5 3.7.5 6.1V785c0 2.6-.2 4.7-.6 6.3-.4 1.6-1.1 2.9-2.1 3.8-1 .9-2.4 1.5-4.1 1.9-1.7.3-3.9.5-6.7.5h-11.3v27.7c0 4.6 1 7.5 2.9 8.7 1.9 1.3 6.2 1.9 12.8 1.9 6.6 0 10.9-1.8 13-5.3 2-3.5 3.1-10 3.1-19.5 0-2.2 1.1-3.2 3.4-3.2 2.4 0 3.6 1.3 3.6 3.9 0 11.9-1.7 19.9-5 24.3-3.2 4.2-9.1 6.3-17.8 6.3-8.5 0-14.5-1-17.9-3.1-3.3-2-5-7-5-14.9v-26.8h-21.5c-.6 11.3-2.6 20.2-6.2 26.7-3.7 6.4-9.3 11.8-16.9 16.2-7.8 4.4-12.6 6.7-14.5 6.7-.9 0-1.6-.4-2.1-1.2-.5-.8-.8-1.5-.8-2.2 0-1.7 1.3-3.1 3.8-4.3 12.2-5.9 20.1-11.9 23.8-18 3.8-6.2 5.9-14.1 6.3-23.9h-9.8c-2.7 0-5-.2-6.8-.6-1.8-.4-3.1-1-4-2-.9-.9-1.5-2.2-1.9-3.9-.3-1.6-.5-3.7-.5-6.1v-22.7c0-4.6.7-7.8 2.1-9.7 1.5-1.8 5.2-2.7 11.1-2.7h37.5zm25.6 35.6v-23.4c0-3.8-2.2-5.6-6.7-5.6h-56.9c-1.8 0-3.3.6-4.5 1.8-1.2 1.2-1.8 2.8-1.8 4.7v22.6c0 3.8 2.1 5.6 6.3 5.6h56.9c1.9 0 3.5-.5 4.8-1.6 1.3-1.2 1.9-2.5 1.9-4.1m-44.5-40.9c0 .6-.2 1.2-.6 1.8-.4.6-.9 1-1.6 1.2-.7.2-1.4.1-2.3-.3-.9-.3-1.7-1.2-2.7-2.6-1.5-2.3-3.2-4.6-5.1-7-1.9-2.4-4.1-4.9-6.5-7.5-1.4-1.6-1.7-3.1-1.1-4.5.6-1.4 1.6-2.1 3-2.1.6 0 1.3.3 2.2 1 .5.3 1.2 1.2 2.3 2.6 1.1 1.4 2.6 3.2 4.5 5.5s3.5 4.2 4.5 5.7c1.1 1.5 1.8 2.6 2.1 3.2.9 1.1 1.3 2.1 1.3 3m83 101.2c0 9.6-5.1 14.4-15.4 14.4-3.5 0-8.2-.6-13.8-1.7-5.8-1-9.3-2-10.6-2.9-1.1-.8-1.7-1.9-1.7-3.2 0-2.4 1.1-3.6 3.4-3.6 1 0 2.1.2 3.1.7 7.3 2.4 13.2 3.6 17.8 3.6 6.8 0 10.3-2.6 10.3-7.7v-125c0-1.6-.5-2.9-1.5-3.9s-2.2-1.5-3.8-1.5h-76.8c-2.8 0-4.3-1-4.3-2.9 0-2 .3-3.2.9-3.4.6-.2 1.7-.3 3.3-.3l76.6.2c5.1 0 8.5.9 10.1 2.6 1.6 1.7 2.4 4.9 2.4 9.6v125zm45.8-4.7c-.2 2.1.3 3.1 1.7 3.1.7 0 1.4-.4 2.2-1.2l7.5-7.2c4.2-4.1 7.2-7.3 9.1-9.6 1.8-2.3 3.3-3.4 4.3-3.4 1.9 0 3.1.7 3.6 2s.1 2.8-1 4.4c-.8 1.4-2.7 3.6-5.8 6.7-1.6 1.7-3.3 3.4-5.2 5.1-1.9 1.7-3.9 3.5-6.1 5.3-4.4 3.8-7.2 6-8.4 6.7-1 .7-2.1 1.1-3.2 1.2-1.1.1-2.2-.2-3.1-.9-.9-.7-1.7-2-2.2-3.7-.6-1.7-.7-4.1-.5-7.2l5.6-77c.1-2.2-.3-3.7-1.4-4.5-1-.9-2.7-1.2-5.1-.9l-17.8 1.7c-1.3.1-2.1-.1-2.5-.6-.4-.5-.6-1.4-.6-2.7 0-1.4.2-2.3.5-2.8s1.2-.8 2.6-.9l20.4-1.7c7.9-.7 11.6 3 11.1 10.9l-5.7 77.2zm9.4-104.4c0 .5-.2 1-.6 1.7-.4.7-.9 1.2-1.6 1.5-.7.3-1.5.3-2.5 0s-2-1.2-3.2-2.8c-2.9-4-6.1-8.1-9.8-12.3-3.7-4.2-7.9-8.7-12.6-13.3-1.5-1.5-1.9-2.9-1.4-4.4.6-1.4 1.7-2.1 3.3-2.1 1 0 2.7 1.1 5 3.3 2.3 2.2 5.6 5.6 9.7 10.4 4.2 4.6 7.5 8.4 10 11.6 2.5 3.1 3.7 5.3 3.7 6.4m73 76c-5.5 13.7-16.6 25.3-33.5 34.9-16.6 9.7-26.5 14.5-29.6 14.5-.6 0-1.2-.2-1.8-.7-.6-.5-1.1-1.1-1.4-1.8-.3-.7-.2-1.5.2-2.3.4-.8 1.3-1.5 2.7-2.2 16.8-7.6 29.3-14.5 37.6-20.5 8.3-5.9 14.5-13.2 18.6-21.9h-57.6c-1.8 0-2.7-1-2.7-3.1 0-2.2.9-3.3 2.7-3.3h60.2c3.9-10.6 6-27.3 6.5-50.1 0-2.3.9-3.4 2.6-3.4 1.7 0 2.8.3 3.3.9.5.6.8 1.8.8 3.5 0 2.9-.1 6.2-.3 10-.2 3.8-.6 8.2-1 13.1-.5 4.9-1.1 9.5-1.9 13.8-.8 4.3-1.8 8.4-3.1 12.2h41.9c1.8 0 2.7 1.1 2.7 3.3 0 2-.9 3.1-2.7 3.1h-44.2zm-8.8-69.8v-22.2h-39.7c-2.1 0-3.1-1-3.1-3.1 0-2.2 1-3.2 3.1-3.2h39.7v-12.5c0-2.2 1-3.2 3.1-3.2 2.2 0 3.2 1.1 3.2 3.2v12.5h38c2.1 0 3.1 1.1 3.1 3.2s-1 3.1-3.1 3.1h-38v22.2h35.6c3.9 0 6.6.6 8.1 1.8 1.5 1.2 2.3 3.3 2.3 6.2 0 2.8-.8 7.4-2.4 13.5-.8 3-1.5 5.4-2.1 7.4-.6 1.9-1.2 3.4-1.6 4.3-.9 1.6-2 2.4-3.4 2.4-1.9 0-2.9-.8-2.9-2.3 0-1.5.2-3 .7-4.5 3.3-9.9 5-15.8 5-17.6 0-1.9-.3-3.2-1-3.8-.7-.6-2.1-.9-4.1-.9h-92.7c-2.1 0-3.1-1-3.1-3.1 0-2.2 1-3.2 3.1-3.2h52.2zm-14.6 54.5c-.1.6-.4 1.2-.9 1.8-.5.6-1.1 1.1-1.8 1.5-.7.3-1.4.5-2.1.3-.7-.1-1.4-.6-2-1.5-1.7-1.9-3.8-4-6.2-6.2-2.4-2.2-5.2-4.5-8.4-6.8-3.2-2.4-5.6-4.3-7.4-5.6-1.7-1.4-2.7-2.2-2.9-2.4-.8-.8-1-1.9-.6-3.4s1.3-2.2 2.8-2.2c.9 0 1.8.3 2.7.9.6.2 1.5.8 2.7 1.7 1.2.9 2.8 2.2 4.7 3.8 3.9 3 7.6 6 11.3 9.2 1.7 1.6 3.1 2.9 4.2 3.8 1.1 1 1.9 1.8 2.5 2.5.6.7.9 1.2 1.1 1.6.2.3.3.7.3 1m13.2-19.1c0 1.4-.7 2.5-2.1 3.4-1.4.9-2.9.5-4.6-1.2-2.7-2.6-6.1-5.6-10-8.9-3.9-3.3-8.5-7-13.8-11.1-1.3-1-1.9-2-1.9-3s.3-1.8.9-2.5c.6-.7 1.4-1.1 2.2-1.3.9-.2 1.6.1 2.1.8.9.5 3.6 2.6 8.2 6.3 2.5 1.9 4.8 3.7 6.8 5.3 2 1.6 3.8 3.1 5.4 4.6 1.7 1.4 3 2.5 3.9 3.3.9.9 1.5 1.5 2 2.1.5.5.7.9.8 1.2.1.3.1.7.1 1m58 78.3c0 1-.6 1.8-1.9 2.4-1.3.6-2.7.1-4.5-1.4-3.4-3-6.9-6-10.5-9-3.6-3-7.3-6-11.2-9-3.9-3-7-5.4-9.5-7.3-2.5-1.9-4.3-3.2-5.6-4-1.6-1-2.6-1.9-3-2.7-.4-.8-.5-1.5-.3-2.1.2-.6.6-1.1 1.2-1.4.6-.3 1.2-.4 1.6-.4.6 0 2.3.9 5.2 2.6 2.9 1.7 7.3 4.7 13.1 8.9 3 2.2 5.8 4.3 8.4 6.5 2.6 2.2 5.2 4.3 7.7 6.5 5 4.3 7.8 6.9 8.4 7.9.6.9.9 1.7.9 2.5m85.1-88.9h84.3c2.1 0 3.1 1.1 3.1 3.4 0 2.2-1 3.3-3.1 3.3h-50.8c4 2 8.2 4.3 12.6 6.7 4.4 2.4 8.8 4.8 13.2 7.3 4.4 2.5 8.6 4.8 12.6 7.2 4 2.3 7.6 4.4 10.8 6.2 1.9 1.3 3 2.3 3.2 3.2.2.9 0 1.9-.4 2.9-.6.9-1.5 1.3-2.9 1-1.4-.2-2.9-.8-4.4-1.7-3.4-2.2-7.4-4.6-12.1-7.4-4.6-2.8-9.4-5.6-14.4-8.5-5-2.8-10-5.6-15-8.2-5-2.6-9.5-4.9-13.6-6.8-.6-.3-1.1-.7-1.6-.9-.5-.3-.9-.6-1.3-.9h-25.5c-8.6 8.9-20.7 17.2-36.6 25-15.6 7.5-24.9 11.3-27.9 11.3-1.9 0-2.9-1-2.9-2.9s1.3-3.4 3.9-4.3c12.2-4.2 22.5-8.6 30.8-13.2s15.8-9.9 22.6-15.9h-52.5c-1.8 0-2.7-.9-2.7-2.7 0-1.9.2-3.1.7-3.4.5-.3 1.1-.5 2.1-.5h59.3c5.1-5.7 9.1-12.5 12-20.3.8-2.2 2.2-3.3 4.1-3.3 2.1 0 3.1.9 3.1 2.7 0 1.5-1.1 4.6-3.4 9.4-2.4 4.3-4.8 8.1-7.3 11.3m-.7-27.5c0 3.8-.8 6.4-2.5 8-1.7 1.6-4.7 2.4-9.1 2.4h-36.6c-4.4 0-7.4-.8-9-2.3-1.5-1.5-2.3-4.3-2.3-8.1v-22.4c0-4 .8-6.8 2.5-8.4 1.7-1.6 4.6-2.4 8.8-2.4h36.6c4.3 0 7.4.8 9.1 2.5 1.7 1.6 2.6 4.4 2.6 8.3V740zm0 105.1c0 3.8-.8 6.4-2.6 7.9-1.7 1.5-4.7 2.2-9.1 2.2h-33.7c-4 0-6.9-.8-8.6-2.3-1.8-1.5-2.7-4.1-2.7-7.8v-30.4c0-3.9.8-6.6 2.3-8.1 1.5-1.5 4.5-2.3 9-2.3h33.7c4.6 0 7.6.7 9.2 2.1 1.6 1.4 2.4 4.2 2.4 8.3v30.4zm-6.6-106.5v-19.3c0-4-2.3-6-6.8-6h-32.8c-4.3 0-6.5 2-6.5 6v19.3c0 1.7.6 3.1 1.7 4.1 1.1 1 2.7 1.5 4.8 1.5h32.8c2.1 0 3.7-.5 5-1.6 1.1-1.1 1.8-2.4 1.8-4m0 106.4v-30.1c0-1.6-.4-2.7-1.1-3.3-.7-.6-2.1-.9-4-.9h-33.3c-3.2 0-4.8 1.4-4.8 4.3v30c0 1.1.4 2.1 1.3 2.8.9.7 2 1.1 3.5 1.1h33.3c3.4 0 5.1-1.3 5.1-3.9m83.4-105c0 3.8-.8 6.4-2.5 8-1.7 1.6-4.7 2.4-9.2 2.4h-37.3c-4.4 0-7.4-.8-9-2.3-1.5-1.5-2.3-4.3-2.3-8.1v-21.7c0-4 .8-6.8 2.5-8.4 1.7-1.6 4.6-2.4 8.8-2.4H914c4.3 0 7.4.8 9.1 2.5 1.7 1.7 2.6 4.4 2.6 8.3V740zm-2.4 105.5c0 3.8-.8 6.4-2.5 8-1.7 1.6-4.7 2.4-9.1 2.4h-34c-4.1 0-7-.8-8.7-2.4-1.7-1.6-2.6-4.3-2.6-8v-30.3c0-4.1.8-6.9 2.4-8.5 1.6-1.5 4.6-2.3 8.9-2.3h34c4.3 0 7.3.8 9.1 2.5 1.7 1.7 2.6 4.4 2.6 8.3v30.3zM919 738.4v-18.6c0-4-2.3-6-6.8-6h-33.5c-4.3 0-6.5 2-6.5 6v18.6c0 1.7.6 3.1 1.7 4.1 1.1 1 2.7 1.5 4.8 1.5h33.5c4.6.1 6.8-1.8 6.8-5.6m-2.3 107.2v-30.4c0-1.3-.4-2.3-1.3-3.2-.9-.9-1.9-1.3-3.2-1.3h-34.4c-1.3 0-2.4.5-3.3 1.4-1 .9-1.5 1.9-1.5 3.1v30.4c0 .9.5 1.8 1.5 2.6 1 .9 2.1 1.3 3.3 1.3h34.4c1.3 0 2.3-.4 3.2-1.1.8-.7 1.3-1.6 1.3-2.8M902.3 763c0 .5-.1 1-.4 1.6-.3.6-.7 1.2-1.1 1.6-.5.5-1 .7-1.7.6-.7-.1-1.4-.5-2.2-1.5-4.2-3.2-8.4-5.9-12.5-8.2-1.1-.7-1.7-1.5-1.7-2.5s.3-1.7.9-2.3c.7-.6 1.4-.9 2.1-.9.7 0 2 .6 3.9 1.7l7.2 4.8c1.4.9 2.4 1.6 3.2 2.1.8.5 1.4.9 1.7 1.3.3.3.5.6.6.8v.9"/></svg>