<svg version="1.1" id="图层_1" xmlns="http://www.w3.org/2000/svg" x="0" y="0" viewBox="0 0 800 153" style="enable-background:new 0 0 800 153" xml:space="preserve"><style>.st5{fill:#666}</style><radialGradient id="SVGID_1_" cx="94.278" cy="76.251" r="85.739" gradientUnits="userSpaceOnUse"><stop offset="0" style="stop-color:#91d3f4"/><stop offset=".142" style="stop-color:#75c2f6"/><stop offset=".424" style="stop-color:#43a4fa"/><stop offset=".672" style="stop-color:#1e8dfd"/><stop offset=".872" style="stop-color:#0880fe"/><stop offset="1" style="stop-color:#007bff"/></radialGradient><path d="M166.2 22.3C152.4 8.5 133.4 0 112.3 0c-13 0-25.1 3.2-35.8 8.9-1.1.6-1.1 2.1-.1 2.7 3.9 2.4 7.5 5.2 10.9 8.3 3.8 3.5 7.2 7.3 10.3 11.4 2 2.7 3.8 5.6 5.5 8.7 2.1 3.8 3.8 7.7 5.2 11.9.3.8 1.2 1.1 1.9.6 5.2-4.1 11.8-6.6 19-6.6 14.4 0 26.4 10 29.6 23.3.1.1.2.1.4.2 3.2 1.9 6.1 4.2 8.6 6.9-2.5 2.7-5.4 5.1-8.6 6.9-3.4 22.8-23 40.3-46.8 40.3-.7 0-1.4 0-2.2-.1-.7 0-1.4-.1-2.1-.1 0 0 0 .1.1.1-3.8-.1-7.6-.5-11.3-1-8.4-1.2-18.4-4.2-26.1-7.2.1 0 .2.1.3.1-8.4-4-17.7-6.2-27.5-6.3h-.3c-1.9 0-3.8.1-5.7.3-14.3 1.2-27.3 7.1-37.5 16.1 2.6-1.9 5.5-3.5 8.5-4.7C14 118.3 20 117 26.3 117c6.3 0 12.3 1.3 17.8 3.6 5.4 2.3 10.3 5.6 14.4 9.7l-.2-.2c4.7 4.7 10 8.8 15.8 12.1 9.1 5.3 19.3 8.7 30.3 9.8 2.6.3 5.2.4 7.8.4 21.1 0 40.1-8.5 53.9-22.3 9.9-9.9 17.1-22.6 20.4-36.8 1.3-5.5 2-11.2 2-17.1.1-21-8.5-40.1-22.3-53.9z" style="fill:url(#SVGID_1_)"/><radialGradient id="SVGID_2_" cx="58.653" cy="130.433" r=".092" gradientUnits="userSpaceOnUse"><stop offset="0" style="stop-color:#91d3f4"/><stop offset=".142" style="stop-color:#75c2f6"/><stop offset=".424" style="stop-color:#43a4fa"/><stop offset=".672" style="stop-color:#1e8dfd"/><stop offset=".872" style="stop-color:#0880fe"/><stop offset="1" style="stop-color:#007bff"/></radialGradient><path d="M58.7 130.4c-.1 0-.1 0 0 0 0 .1 0 .1 0 0z" style="fill:url(#SVGID_2_)"/><linearGradient id="SVGID_3_" gradientUnits="userSpaceOnUse" x1="87.5" y1="79.064" x2="32.007" y2="79.064"><stop offset="0" style="stop-color:#91d3f4"/><stop offset=".142" style="stop-color:#75c2f6"/><stop offset=".424" style="stop-color:#43a4fa"/><stop offset=".672" style="stop-color:#1e8dfd"/><stop offset=".872" style="stop-color:#0880fe"/><stop offset="1" style="stop-color:#007bff"/></linearGradient><path d="M87.5 83.7c-2.4.3-4.8.5-7.2.5-14.7 0-28.1-5.6-38.1-14.8-3.7 1.9-7.1 4.2-10.2 7C40.9 84.2 52.5 89 65.3 89c8-.2 15.5-2 22.2-5.3z" style="fill:url(#SVGID_3_)"/><linearGradient id="SVGID_4_" gradientUnits="userSpaceOnUse" x1="85.421" y1="62.736" x2="32.968" y2="62.736"><stop offset="0" style="stop-color:#91d3f4"/><stop offset=".142" style="stop-color:#75c2f6"/><stop offset=".424" style="stop-color:#43a4fa"/><stop offset=".672" style="stop-color:#1e8dfd"/><stop offset=".872" style="stop-color:#0880fe"/><stop offset="1" style="stop-color:#007bff"/></linearGradient><path d="M46.7 67.2c9 7.7 20.8 12.3 33.6 12.3 1.7 0 3.4-.1 5.1-.3-10.5-2.4-20-7.8-27.5-15.1l-.4-.4c-5.1-5.1-9.3-11.2-12.2-17.9-4.3.5-8.5 1.5-12.4 3 2.6 5.8 6.2 11.1 10.7 15.5 1 1.1 2.1 2 3.1 2.9z" style="fill:url(#SVGID_4_)"/><linearGradient id="SVGID_5_" gradientUnits="userSpaceOnUse" x1="98.57" y1="49.563" x2="45.195" y2="49.563"><stop offset="0" style="stop-color:#91d3f4"/><stop offset=".142" style="stop-color:#75c2f6"/><stop offset=".424" style="stop-color:#43a4fa"/><stop offset=".672" style="stop-color:#1e8dfd"/><stop offset=".872" style="stop-color:#0880fe"/><stop offset="1" style="stop-color:#007bff"/></linearGradient><path d="M60.8 60.6c1.1 1.1 2.2 2.1 3.4 3.1 9.3 7.8 21.3 12.5 34.4 12.6 0-14.7-6-28.1-15.6-37.7C73.3 28.9 60 23 45.3 23c0 8.1 1.8 15.8 5.1 22.7 2.5 5.5 6.1 10.6 10.4 14.9z" style="fill:url(#SVGID_5_)"/><path class="st5" d="M266.3 56.1c0-1.6-1.3-2.9-2.9-2.9h-17.5V35.6c0-.8-.3-1.5-.8-2 8.4-2.8 14.4-6 14.9-6.2 1.1-.6 1.6-2 1-3.2-.6-1.1-2-1.6-3.2-1-.2.1-17.8 9.3-34.3 10-1.3.1-2.3 1.1-2.2 2.4 0 1.3 1.1 2.2 2.3 2.2h.1c5.6-.2 11.3-1.3 16.4-2.8v17.9h-17.5c-1.6 0-2.9 1.3-2.9 2.9 0 1.6 1.3 2.9 2.9 2.9h16c-.8.2-1.5.8-1.7 1.7 0 .2-4 17.6-15.3 42.1-.5 1.2 0 2.6 1.1 3.1.3.1.7.2 1 .2.9 0 1.7-.5 2.1-1.4 8-17.4 12.4-31 14.3-38v62.3c0 1.6 1.3 2.9 2.9 2.9 1.6 0 2.9-1.3 2.9-2.9v-67l12.9 18.6c.5.7 1.2 1 1.9 1 .5 0 .9-.1 1.3-.4 1.1-.7 1.3-2.2.6-3.3l-13-18.7h13.7c1.7.1 3-1.2 3-2.8zM239.6 59h.4v.2c-.1-.1-.2-.2-.4-.2zm86-34.9c-.2.1-24.7 8.5-60 8.5-1.3 0-2.3 1-2.3 2.3 0 1.3 1 2.3 2.3 2.3 36.1 0 60.6-8.4 61.6-8.7 1.2-.4 1.9-1.8 1.4-3-.4-1.1-1.8-1.8-3-1.4zM278 65.6c.2 0 .4 0 .6-.1 1.2-.3 2-1.6 1.7-2.9-2.9-10.8-9.8-21.6-10-22-.7-1.1-2.1-1.4-3.2-.7s-1.4 2.1-.7 3.2c.1.1 6.8 10.6 9.5 20.7.1 1.1 1.1 1.8 2.1 1.8zm20.7-4.7c.3 0 .6-.1.9-.2 1.2-.5 1.8-1.9 1.3-3.1-4-9.4-9.6-16.8-9.8-17.1-.8-1-2.3-1.2-3.3-.4-1 .8-1.2 2.3-.4 3.3.1.1 5.5 7.2 9.2 16.1.4.8 1.2 1.4 2.1 1.4zm24.6-26.4c-1.3 0-2.3 1.1-2.3 2.4 0 .1-.1 9-11.7 25.1-.8 1-.5 2.5.5 3.3.4.3.9.4 1.4.4.7 0 1.4-.3 1.9-1 12.7-17.6 12.6-27.5 12.6-27.9 0-1.3-1.1-2.3-2.4-2.3zm-7.5 36.8h-20.5c-1.3 0-2.3 1-2.3 2.3 0 1.3 1 2.3 2.3 2.3h20.5c2.9 0 5.2 2.1 5.2 4.6v12.2h-.2l-18.6 8.4c-1.3.7-2.8.6-4-.1l-5.9-6.3-.4-.3c-2.6-1.7-6-2-8.8-.6l-14.5 7.1V77.8c15.6-4.9 24.8-10 25.1-10.2 1.1-.6 1.5-2.1.9-3.2s-2.1-1.5-3.2-.9c-.1.1-9.7 5.5-25.8 10.3-1.1.3-1.7 1.4-1.6 2.4 0 .1-.1.2-.1.3v27.6c-.1.4-.1.9 0 1.3v13.8c0 5.1 4.4 9.3 9.9 9.3h41.9c5.5 0 9.9-4.2 9.9-9.3V80.6c.1-5.1-4.3-9.3-9.8-9.3zm0 52.6h-41.9c-2.9 0-5.2-2.1-5.2-4.6v-13l16.5-8.1c1.2-.6 2.7-.5 3.9.1l5.9 6.3.4.3c2.7 1.8 6.1 2 8.8.5l16.8-7.6v21.4c0 2.6-2.3 4.7-5.2 4.7zm29.5-82.4h44.6v8.9l-40.6-.1c-1.3 0-2.3 1-2.3 2.3 0 1.3 1 2.3 2.3 2.3l87.1.2c1.3 0 2.3-1 2.3-2.3 0-1.3-1-2.3-2.3-2.3l-41.8-.1v-8.9h44.3c1.6 0 2.9-1.3 2.9-2.9 0-1.6-1.3-2.9-2.9-2.9h-44.3V25.1c0-1.3-1-2.3-2.3-2.3-1.3 0-2.3 1-2.3 2.3v10.6h-44.7c-1.6 0-2.9 1.3-2.9 2.9 0 1.5 1.3 2.9 2.9 2.9zm-.6 63.2V73.5c0-2.7 2.2-4.8 4.8-4.8h89.2c.9 0 1.7.4 2.2 1.1.5.7.6 1.6.3 2.4l-3 8.5c-.4 1.2.2 2.6 1.4 3 1.2.4 2.6-.2 3-1.4l3-8.5c.8-2.2.5-4.7-.9-6.7-1.4-1.9-3.6-3.1-6-3.1h-89.2c-5.3 0-9.5 4.3-9.5 9.5v31.2c0 1.3 1 2.3 2.3 2.3 1.4 0 2.4-1 2.4-2.3z"/><path class="st5" d="M444.2 102.9c-1.3 0-2.3 1-2.3 2.3v9.1c0 5.2-4.3 9.5-9.5 9.5h-5.7c-2.7 0-5.2-1.1-7.1-3-1.9-1.9-2.9-4.4-2.9-7.1l.1-23.3c0-3.2-1.2-6.3-3.5-8.5-2.3-2.3-5.3-3.5-8.5-3.5h-27.3c-7.3 0-13.3 5.9-13.3 13.2l-.1 13.6c0 10.3-8.4 18.6-18.6 18.6-1.3 0-2.3 1-2.3 2.3 0 1.3 1 2.3 2.3 2.3 12.9 0 23.3-10.5 23.3-23.3l.1-13.6c0-4.7 3.9-8.6 8.7-8.6h27.3c2 0 3.8.8 5.2 2.2 1.4 1.4 2.2 3.3 2.1 5.2l-.1 23.3c0 3.9 1.5 7.7 4.3 10.4 2.8 2.8 6.5 4.3 10.4 4.3h5.7c7.8 0 14.2-6.4 14.2-14.2V105c-.1-1-1.2-2.1-2.5-2.1zm22-64.5c-1.6 0-2.4.7-2.5 2.1v89.1c0 1.5.8 2.2 2.3 2.2 1.6 0 2.5-.7 2.5-2.2V40.8c.1-1.6-.7-2.4-2.3-2.4zm0-12.3c4.7 2.4 9.6 5.8 14.5 10.3.9.9 1.7 1.5 2.4 1.7.7.2 1.2.2 1.6-.1.4-.2.7-.6.9-1 .2-.5.4-.9.5-1.3 0-.7-.3-1.4-1-2-.7-.7-2-1.8-4-3.4-1.9-1.6-4.5-3.5-8.1-5.7-3.4-2.1-5.6-3.2-6.4-3.2-.5 0-.9.2-1.2.5-.4.3-.6.7-.7 1.2-.1.5-.1 1.1.2 1.6.2.5.6 1 1.3 1.4zm87.3.9-52.3-.1c-1.1 0-1.9.1-2.3.2-.4.2-.6.9-.6 2.3 0 1.3 1 2 2.9 2h52.4c1.1 0 2 .3 2.6 1.1.7.7 1 1.6 1 2.7v85.4c0 3.5-2.3 5.3-7 5.3-3.1 0-7.2-.8-12.1-2.5-.7-.3-1.4-.5-2.1-.5-1.6 0-2.3.8-2.3 2.5 0 .9.4 1.7 1.2 2.2.9.6 3.3 1.3 7.2 2 3.9.8 7 1.2 9.5 1.2 7 0 10.5-3.3 10.5-9.8V35.3c0-3.2-.5-5.4-1.6-6.5-1.2-1.2-3.5-1.8-7-1.8zm-56.6 20.1c1.3 1.6 2.5 3.2 3.5 4.8.6.9 1.2 1.5 1.8 1.8.6.2 1.1.3 1.6.2.5-.1.8-.4 1.1-.8.3-.4.4-.8.4-1.2 0-.6-.3-1.3-.8-2.1-.2-.4-.7-1.1-1.5-2.2-.7-1.1-1.8-2.4-3.1-3.9-1.3-1.6-2.4-2.8-3.1-3.7-.7-.9-1.3-1.5-1.6-1.8-.6-.5-1.1-.7-1.5-.7-.9 0-1.6.5-2 1.5-.4 1-.2 2 .8 3.1 1.6 1.7 3.1 3.4 4.4 5z"/><path class="st5" d="M546.3 114.3c2.3-3 3.4-8.5 3.4-16.6 0-1.8-.8-2.7-2.5-2.7-1.6 0-2.3.7-2.3 2.2 0 6.5-.7 10.9-2.1 13.3-1.4 2.4-4.4 3.6-8.9 3.6s-7.4-.4-8.8-1.3c-1.3-.9-2-2.8-2-6V88h7.7c1.9 0 3.4-.1 4.6-.4 1.2-.2 2.1-.7 2.8-1.3.7-.6 1.2-1.5 1.5-2.6.3-1.1.4-2.5.4-4.3V63.9c0-1.6-.1-3-.3-4.1-.2-1.1-.7-2-1.3-2.6-.7-.6-1.6-1.1-2.8-1.3-1.2-.3-2.8-.4-4.7-.4h-7.7c.9-1.2 1.9-2.5 2.8-3.9.9-1.3 1.8-2.8 2.7-4.3.9-1.6 1.6-2.8 2.2-3.8.6-1 1-1.7 1.1-2 .4-.9.6-1.6.6-2-.1-.3-.3-.7-.6-1.2s-.7-.8-1.2-1c-.5-.2-1.1-.1-1.6.2-.6.3-1.1 1.1-1.7 2.4-3.2 6.5-6.3 11.6-9.2 15.5h-25.6c-4 0-6.6.6-7.6 1.9-.9 1.3-1.4 3.5-1.4 6.7v15.5c0 1.6.1 3 .3 4.1.2 1.1.7 2 1.3 2.6.6.6 1.5 1.1 2.7 1.3 1.2.3 2.7.4 4.6.4h6.7c-.3 6.7-1.8 12.1-4.3 16.3-2.5 4.1-7.9 8.2-16.2 12.3-1.7.8-2.6 1.8-2.6 2.9 0 .5.2 1 .5 1.5.4.5.8.8 1.5.8 1.3 0 4.6-1.5 9.9-4.6 5.2-3 9.1-6.7 11.6-11.1 2.4-4.4 3.8-10.5 4.2-18.2h14.7v18.3c0 5.4 1.1 8.8 3.4 10.2 2.3 1.4 6.4 2.1 12.3 2.1 5.7.2 9.8-1.2 11.9-4.1zm-54-30.7c-2.9 0-4.3-1.3-4.3-3.9V64.3c0-1.3.4-2.4 1.2-3.2.8-.8 1.8-1.2 3.1-1.2h38.9c3 0 4.6 1.3 4.6 3.9v16c0 1.1-.4 2-1.3 2.7-.9.7-1.9 1.1-3.3 1.1h-38.9zM607.8 55h63.3c1.4 0 2.3.2 2.8.6.5.4.7 1.3.7 2.6 0 1.2-1.1 5.3-3.4 12-.3 1-.5 2-.5 3.1s.7 1.6 2 1.6c.9 0 1.7-.5 2.3-1.6.3-.6.7-1.6 1.1-2.9.4-1.3.9-3 1.5-5 1.1-4.2 1.6-7.3 1.6-9.2 0-2-.5-3.4-1.6-4.3-1.1-.8-2.9-1.2-5.5-1.2h-24.3V35.5h25.9c1.4 0 2.1-.7 2.1-2.1 0-1.5-.7-2.2-2.1-2.2h-25.9v-8.5c0-1.5-.7-2.2-2.2-2.2-1.4 0-2.1.7-2.1 2.2v8.5h-27.1c-1.4 0-2.1.7-2.1 2.2 0 1.4.7 2.1 2.1 2.1h27.1v15.2h-35.7c-1.4 0-2.1.7-2.1 2.2 0 1.4.7 2.1 2.1 2.1zM631 84.3c-.7-.7-1.7-1.5-2.9-2.6-2.5-2.2-5.1-4.3-7.7-6.3-1.3-1.1-2.4-1.9-3.2-2.6-.8-.6-1.4-1-1.8-1.2-.6-.4-1.2-.6-1.9-.6-1 0-1.7.5-1.9 1.5-.3 1-.1 1.8.4 2.3.2.2.8.7 2 1.6 1.2.9 2.8 2.2 5 3.9 2.2 1.6 4.1 3.1 5.7 4.6 1.6 1.5 3 2.9 4.2 4.3.4.6.8 1 1.3 1.1.5.1 1 0 1.5-.2s.9-.6 1.2-1c.3-.4.6-.8.6-1.2 0-.2-.1-.5-.2-.8-.1-.3-.4-.6-.8-1.1-.2-.4-.8-1-1.5-1.7z"/><path class="st5" d="M641.2 77.1c.9-.6 1.4-1.4 1.4-2.3 0-.2 0-.4-.1-.6 0-.2-.2-.5-.5-.8-.3-.4-.8-.8-1.3-1.4-.6-.6-1.5-1.3-2.6-2.3-1.1-1-2.3-2.1-3.7-3.2-1.4-1.1-2.9-2.3-4.6-3.6-3.1-2.6-5-4-5.6-4.3-.4-.5-.9-.6-1.5-.5-.6.1-1.1.4-1.5.9-.4.5-.6 1-.6 1.7s.4 1.3 1.3 2c3.6 2.8 6.7 5.3 9.4 7.6s5 4.3 6.8 6.1c1.1 1.1 2.1 1.4 3.1.7zm-53.6-38.8c2.5 2.9 4.8 5.7 6.7 8.4.8 1.1 1.5 1.7 2.2 1.9.7.2 1.2.2 1.7 0s.8-.5 1.1-1c.3-.5.4-.9.4-1.2 0-.8-.8-2.3-2.5-4.4-1.7-2.2-3.9-4.8-6.8-7.9-2.8-3.3-5-5.6-6.6-7.1-1.6-1.5-2.7-2.2-3.4-2.2-1.1 0-1.8.5-2.2 1.5-.4 1-.1 2 .9 3 3.1 3 6 6.1 8.5 9zM608 114c2.1-2.1 3.4-3.6 4-4.6.8-1.1 1-2.1.7-3-.3-.9-1.1-1.3-2.5-1.3-.7 0-1.7.8-2.9 2.3-1.2 1.6-3.3 3.7-6.2 6.5l-5.1 4.9c-.5.5-1.1.8-1.5.8-.9 0-1.3-.7-1.2-2.1l3.9-52.8c.3-5.4-2.2-7.9-7.6-7.5l-13.9 1.2c-.9.1-1.5.3-1.7.6-.2.4-.4 1-.4 1.9 0 .9.1 1.5.4 1.8.3.4.8.5 1.7.4l12.1-1.2c1.6-.2 2.8.1 3.5.6.7.6 1 1.6.9 3.1l-3.9 52.6c-.2 2.1 0 3.7.3 4.9.4 1.2.9 2 1.5 2.5s1.3.7 2.1.6c.8-.1 1.5-.4 2.2-.8.8-.5 2.7-2 5.7-4.6 1.5-1.3 2.9-2.5 4.1-3.6 1.5-.8 2.7-2 3.8-3.2z"/><path class="st5" d="M681.6 96.2c0-1.5-.6-2.2-1.9-2.2h-28.6c.9-2.6 1.6-5.4 2.1-8.3.5-2.9 1-6.1 1.3-9.4.3-3.3.5-6.3.7-8.9.2-2.6.2-4.9.2-6.8 0-1.2-.2-2-.5-2.4-.3-.4-1.1-.6-2.3-.6-1.2 0-1.7.8-1.7 2.3-.3 15.6-1.8 27-4.4 34.2h-41.1c-1.2 0-1.9.7-1.9 2.2 0 1.4.6 2.1 1.9 2.1h39.4c-2.8 5.9-7 10.9-12.7 14.9-5.7 4.1-14.2 8.8-25.7 14-.9.5-1.5 1-1.8 1.5-.3.5-.3 1.1-.1 1.6.2.5.5.9.9 1.2.4.3.8.5 1.2.5 2.1 0 8.8-3.3 20.2-9.9 11.5-6.5 19.1-14.5 22.9-23.8h30.1c1.2-.1 1.8-.8 1.8-2.2z"/><path class="st5" d="M675.9 121.2c-1.7-1.5-3.5-3-5.3-4.4-1.8-1.5-3.7-3-5.7-4.4-4-2.9-6.9-4.9-8.9-6.1-2-1.2-3.2-1.8-3.6-1.8-.3 0-.7.1-1.1.3-.4.2-.7.5-.8.9-.1.4 0 .9.2 1.5.3.5 1 1.2 2 1.9.9.5 2.1 1.5 3.8 2.7 1.7 1.3 3.8 2.9 6.5 5 2.6 2 5.2 4.1 7.6 6.1 2.5 2.1 4.8 4.1 7.2 6.1 1.2 1 2.2 1.3 3 .9.9-.4 1.3-.9 1.3-1.6 0-.5-.2-1.1-.6-1.7-.3-.7-2.2-2.5-5.6-5.4zm98.8-58.6c-.5-.3-1.3-.8-2.2-1.5l-4.9-3.3c-1.3-.8-2.2-1.2-2.7-1.2s-.9.2-1.4.6c-.4.4-.6.9-.6 1.6 0 .7.4 1.2 1.2 1.7 2.8 1.6 5.6 3.4 8.5 5.6.5.6 1.1 1 1.5 1 .5 0 .9-.1 1.2-.4.3-.3.6-.7.8-1.1.2-.4.3-.8.3-1.1 0-.2 0-.4-.1-.5 0-.1-.2-.3-.4-.5-.3-.3-.7-.5-1.2-.9z"/><path class="st5" d="M800 69.9c0-1.6-.7-2.3-2.1-2.3h-57.6c1.7-2.2 3.3-4.8 4.8-7.8 1.6-3.3 2.3-5.4 2.3-6.4 0-1.2-.7-1.9-2.1-1.9-1.3 0-2.3.7-2.8 2.2-1.9 5.4-4.7 10-8.2 13.9h-40.5c-.6 0-1.1.1-1.4.4-.3.2-.5 1-.5 2.3 0 1.2.6 1.9 1.9 1.9h35.9c-4.6 4.1-9.7 7.7-15.4 10.9-5.7 3.1-12.7 6.1-21 9-1.8.6-2.7 1.6-2.7 2.9 0 1.3.7 2 2 2 2 0 8.4-2.6 19-7.7 10.8-5.3 19.1-11 25-17H754c.2.2.5.4.9.6.3.2.7.4 1.1.6 2.8 1.3 5.9 2.9 9.3 4.7 3.4 1.8 6.8 3.7 10.2 5.6 3.4 1.9 6.7 3.9 9.9 5.8 3.1 1.9 5.9 3.6 8.2 5.1 1.1.6 2.1 1 3 1.2.9.2 1.6-.1 2-.7.3-.7.4-1.4.3-2-.1-.6-.8-1.4-2.2-2.2-2.2-1.2-4.6-2.7-7.4-4.3-2.7-1.6-5.6-3.2-8.6-4.9-3-1.7-6-3.3-9-5-3-1.6-5.9-3.2-8.6-4.6h34.7c1.5-.1 2.2-.8 2.2-2.3z"/><path class="st5" d="M758.9 55.9h25.5c3 0 5.1-.5 6.2-1.6 1.1-1.1 1.7-2.9 1.7-5.5V33.9c0-2.6-.6-4.5-1.8-5.7-1.2-1.1-3.2-1.7-6.2-1.7h-25.5c-2.9 0-4.9.5-6 1.6-1.1 1.1-1.7 3-1.7 5.7v14.8c0 2.6.5 4.5 1.6 5.5 1.1 1.3 3.2 1.8 6.2 1.8zM755.7 35c0-2.7 1.5-4.1 4.4-4.1H783c3.1 0 4.7 1.4 4.7 4.1v12.7c0 2.6-1.6 3.9-4.7 3.9h-22.9c-1.4 0-2.5-.3-3.3-1-.8-.7-1.2-1.6-1.2-2.8V35zm27 57.8h-23.2c-3 0-5 .5-6.1 1.6-1.1 1.1-1.6 3-1.6 5.8v20.7c0 2.6.6 4.4 1.7 5.5 1.2 1.1 3.2 1.6 6 1.6h23.2c3 0 5.1-.5 6.2-1.6 1.1-1.1 1.7-2.9 1.7-5.5v-20.7c0-2.6-.6-4.5-1.7-5.7-1.2-1.1-3.2-1.7-6.2-1.7zm3.4 28.1c0 .8-.3 1.4-.9 1.9-.6.5-1.3.8-2.2.8h-23.5c-.9 0-1.6-.3-2.3-.9-.7-.6-1-1.2-1-1.8v-20.8c0-.8.3-1.5 1-2.1.7-.6 1.4-.9 2.3-.9H783c.9 0 1.6.3 2.2.9.6.6.9 1.3.9 2.2v20.7zm-54.2-28.2h-23c-3 0-5.1.5-6.1 1.6s-1.6 2.9-1.6 5.5v20.8c0 2.5.6 4.3 1.8 5.3 1.2 1 3.2 1.6 5.9 1.6h23c3 0 5-.5 6.2-1.5 1.2-1 1.7-2.8 1.7-5.4V99.8c0-2.8-.5-4.7-1.6-5.7-1.1-.9-3.2-1.4-6.3-1.4zm3.4 27.8c0 1.8-1.2 2.7-3.5 2.7H709c-1 0-1.8-.3-2.4-.8-.6-.5-.9-1.1-.9-1.9V99.9c0-1.9 1.1-2.9 3.3-2.9h22.8c1.3 0 2.2.2 2.7.6.5.4.8 1.2.8 2.3v20.6zm-28.4-64.6h25c3 0 5.1-.5 6.2-1.6 1.1-1.1 1.7-2.9 1.7-5.5V33.5c0-2.6-.6-4.5-1.7-5.7-1.2-1.1-3.2-1.7-6.2-1.7h-25c-2.9 0-4.9.5-6 1.6-1.1 1.1-1.7 3-1.7 5.7v15.3c0 2.6.5 4.5 1.6 5.5 1 1.2 3.1 1.7 6.1 1.7zm-3.1-21.3c0-2.7 1.5-4.1 4.4-4.1h22.4c3.1 0 4.7 1.4 4.7 4.1v13.2c0 1.1-.4 2-1.3 2.7-.9.7-2 1.1-3.4 1.1h-22.4c-1.4 0-2.5-.4-3.3-1-.8-.7-1.2-1.6-1.2-2.8V34.6z"/></svg>