<svg xmlns="http://www.w3.org/2000/svg" xmlns:xlink="http://www.w3.org/1999/xlink" width="89.5" height="95" viewBox="0 0 89.5 95">
  <defs>
    <filter id="矩形_10" x="0" y="13.5" width="79" height="79" filterUnits="userSpaceOnUse">
      <feOffset dx="5" dy="5" input="SourceAlpha"/>
      <feGaussianBlur stdDeviation="2.5" result="blur"/>
      <feFlood flood-color="#42c16a" flood-opacity="0.502"/>
      <feComposite operator="in" in2="blur"/>
      <feComposite in="SourceGraphic"/>
    </filter>
    <clipPath id="clip-path">
      <rect id="矩形_5" data-name="矩形 5" width="48" height="48" transform="translate(534 1059)" fill="#fefefe" stroke="#707070" stroke-width="1"/>
    </clipPath>
  </defs>
  <g id="icon-solution-02" transform="translate(-523.5 -1035)">
    <path id="联合_11" data-name="联合 11" d="M50,162.5a2.5,2.5,0,1,1,2.5,2.5A2.5,2.5,0,0,1,50,162.5Zm-10,0a2.5,2.5,0,1,1,2.5,2.5A2.5,2.5,0,0,1,40,162.5Zm-10,0a2.5,2.5,0,1,1,2.5,2.5A2.5,2.5,0,0,1,30,162.5Zm-10,0a2.5,2.5,0,1,1,2.5,2.5A2.5,2.5,0,0,1,20,162.5Zm-10,0a2.5,2.5,0,1,1,2.5,2.5A2.5,2.5,0,0,1,10,162.5Zm-10,0A2.5,2.5,0,1,1,2.5,165,2.5,2.5,0,0,1,0,162.5Zm50-10a2.5,2.5,0,1,1,2.5,2.5A2.5,2.5,0,0,1,50,152.5Zm-10,0a2.5,2.5,0,1,1,2.5,2.5A2.5,2.5,0,0,1,40,152.5Zm-10,0a2.5,2.5,0,1,1,2.5,2.5A2.5,2.5,0,0,1,30,152.5Zm-10,0a2.5,2.5,0,1,1,2.5,2.5A2.5,2.5,0,0,1,20,152.5Zm-10,0a2.5,2.5,0,1,1,2.5,2.5A2.5,2.5,0,0,1,10,152.5Zm-10,0A2.5,2.5,0,1,1,2.5,155,2.5,2.5,0,0,1,0,152.5Zm50-10a2.5,2.5,0,1,1,2.5,2.5A2.5,2.5,0,0,1,50,142.5Zm-10,0a2.5,2.5,0,1,1,2.5,2.5A2.5,2.5,0,0,1,40,142.5Zm-10,0a2.5,2.5,0,1,1,2.5,2.5A2.5,2.5,0,0,1,30,142.5Zm-10,0a2.5,2.5,0,1,1,2.5,2.5A2.5,2.5,0,0,1,20,142.5Zm-10,0a2.5,2.5,0,1,1,2.5,2.5A2.5,2.5,0,0,1,10,142.5Zm-10,0A2.5,2.5,0,1,1,2.5,145,2.5,2.5,0,0,1,0,142.5Zm50-10a2.5,2.5,0,1,1,2.5,2.5A2.5,2.5,0,0,1,50,132.5Zm-10,0a2.5,2.5,0,1,1,2.5,2.5A2.5,2.5,0,0,1,40,132.5Zm-10,0a2.5,2.5,0,1,1,2.5,2.5A2.5,2.5,0,0,1,30,132.5Zm-10,0a2.5,2.5,0,1,1,2.5,2.5A2.5,2.5,0,0,1,20,132.5Zm-10,0a2.5,2.5,0,1,1,2.5,2.5A2.5,2.5,0,0,1,10,132.5Zm-10,0A2.5,2.5,0,1,1,2.5,135,2.5,2.5,0,0,1,0,132.5Zm50-10a2.5,2.5,0,1,1,2.5,2.5A2.5,2.5,0,0,1,50,122.5Zm-10,0a2.5,2.5,0,1,1,2.5,2.5A2.5,2.5,0,0,1,40,122.5Zm-10,0a2.5,2.5,0,1,1,2.5,2.5A2.5,2.5,0,0,1,30,122.5Zm-10,0a2.5,2.5,0,1,1,2.5,2.5A2.5,2.5,0,0,1,20,122.5Zm-10,0a2.5,2.5,0,1,1,2.5,2.5A2.5,2.5,0,0,1,10,122.5Zm-10,0A2.5,2.5,0,1,1,2.5,125,2.5,2.5,0,0,1,0,122.5Zm50-10a2.5,2.5,0,1,1,2.5,2.5A2.5,2.5,0,0,1,50,112.5Zm-10,0a2.5,2.5,0,1,1,2.5,2.5A2.5,2.5,0,0,1,40,112.5Zm-10,0a2.5,2.5,0,1,1,2.5,2.5A2.5,2.5,0,0,1,30,112.5Zm-10,0a2.5,2.5,0,1,1,2.5,2.5A2.5,2.5,0,0,1,20,112.5Zm-10,0a2.5,2.5,0,1,1,2.5,2.5A2.5,2.5,0,0,1,10,112.5Zm-10,0A2.5,2.5,0,1,1,2.5,115,2.5,2.5,0,0,1,0,112.5Zm50-10a2.5,2.5,0,1,1,2.5,2.5A2.5,2.5,0,0,1,50,102.5Zm-10,0a2.5,2.5,0,1,1,2.5,2.5A2.5,2.5,0,0,1,40,102.5Zm-10,0a2.5,2.5,0,1,1,2.5,2.5A2.5,2.5,0,0,1,30,102.5Zm-10,0a2.5,2.5,0,1,1,2.5,2.5A2.5,2.5,0,0,1,20,102.5Zm-10,0a2.5,2.5,0,1,1,2.5,2.5A2.5,2.5,0,0,1,10,102.5Zm-10,0A2.5,2.5,0,1,1,2.5,105,2.5,2.5,0,0,1,0,102.5Zm50-10A2.5,2.5,0,1,1,52.5,95,2.5,2.5,0,0,1,50,92.5Zm-10,0A2.5,2.5,0,1,1,42.5,95,2.5,2.5,0,0,1,40,92.5Zm-10,0A2.5,2.5,0,1,1,32.5,95,2.5,2.5,0,0,1,30,92.5Zm-10,0A2.5,2.5,0,1,1,22.5,95,2.5,2.5,0,0,1,20,92.5Zm-10,0A2.5,2.5,0,1,1,12.5,95,2.5,2.5,0,0,1,10,92.5Zm-10,0A2.5,2.5,0,1,1,2.5,95,2.5,2.5,0,0,1,0,92.5Zm50-10A2.5,2.5,0,1,1,52.5,85,2.5,2.5,0,0,1,50,82.5Zm-10,0A2.5,2.5,0,1,1,42.5,85,2.5,2.5,0,0,1,40,82.5Zm-10,0A2.5,2.5,0,1,1,32.5,85,2.5,2.5,0,0,1,30,82.5Zm-10,0A2.5,2.5,0,1,1,22.5,85,2.5,2.5,0,0,1,20,82.5Zm-10,0A2.5,2.5,0,1,1,12.5,85,2.5,2.5,0,0,1,10,82.5Zm-10,0A2.5,2.5,0,1,1,2.5,85,2.5,2.5,0,0,1,0,82.5Zm50-10A2.5,2.5,0,1,1,52.5,75,2.5,2.5,0,0,1,50,72.5Zm-10,0A2.5,2.5,0,1,1,42.5,75,2.5,2.5,0,0,1,40,72.5Zm-10,0A2.5,2.5,0,1,1,32.5,75,2.5,2.5,0,0,1,30,72.5Zm-10,0A2.5,2.5,0,1,1,22.5,75,2.5,2.5,0,0,1,20,72.5Zm-10,0A2.5,2.5,0,1,1,12.5,75,2.5,2.5,0,0,1,10,72.5Zm-10,0A2.5,2.5,0,1,1,2.5,75,2.5,2.5,0,0,1,0,72.5Z" transform="translate(558 965)" fill="#42c16a" opacity="0.498"/>
    <g transform="matrix(1, 0, 0, 1, 523.5, 1035)" filter="url(#矩形_10)">
      <rect id="矩形_10-2" data-name="矩形 10" width="64" height="64" rx="5" transform="translate(2.5 16)" fill="#42c16a"/>
    </g>
    <g id="蒙版组_11" data-name="蒙版组 11" clip-path="url(#clip-path)">
      <g id="ddos-bgp_DDoS防护包_1_" data-name="ddos-bgp DDoS防护包 (1)" transform="translate(527.697 1052.833)">
        <path id="路径_38" data-name="路径 38" d="M23.242,41.273h-.121v8.455l7.333,4.3,7.333-4.182V41.273l-7.364,4.182-7.182-4.182ZM15.667,20.455,23,16.424V16.3L15.667,12,8.333,16.152l-.121,8.455,7.333,4.3.121-8.455Zm29.152,0,.121,8.333.121.121,7.212-4.424-.121-8.455L44.818,12l-7.333,4.3,7.333,4.152ZM37.636,9.727V6.3l-7.333,4.3L22.97,6.424V9.818l7.455,4.152,7.212-4.242ZM6.3,33.7,13.636,38v8.455L16.545,44.7l.121-8.455-7.333-4.3L6.3,33.7Zm44.97-1.242-7.333,4.273.121,8.455,2.909,1.636V38.485l7.333-4.3Zm-21.727-3.03-10.606-5.7V34.97l10.606,6.3V29.424Z" fill="#fefefe"/>
        <path id="路径_39" data-name="路径 39" d="M19.333,21.727l11.121,5.939,11.121-5.7L30.333,15.909l-11,5.818ZM31.455,41.273l10.606-5.818V23.727l-10.606,5.7Z" fill="#fefefe"/>
      </g>
    </g>
  </g>
</svg>
