<svg xmlns="http://www.w3.org/2000/svg" xmlns:xlink="http://www.w3.org/1999/xlink" width="89.5" height="95" viewBox="0 0 89.5 95">
  <defs>
    <filter id="矩形_10" x="0" y="13.5" width="79" height="79" filterUnits="userSpaceOnUse">
      <feOffset dx="5" dy="5" input="SourceAlpha"/>
      <feGaussianBlur stdDeviation="2.5" result="blur"/>
      <feFlood flood-color="#38f" flood-opacity="0.502"/>
      <feComposite operator="in" in2="blur"/>
      <feComposite in="SourceGraphic"/>
    </filter>
    <clipPath id="clip-path">
      <rect id="矩形_5" data-name="矩形 5" width="48" height="48" transform="translate(534 1059)" fill="#fff" stroke="#707070" stroke-width="1"/>
    </clipPath>
  </defs>
  <g id="icon-solution-01" transform="translate(-523.5 -1035)">
    <path id="联合_11" data-name="联合 11" d="M50,162.5a2.5,2.5,0,1,1,2.5,2.5A2.5,2.5,0,0,1,50,162.5Zm-10,0a2.5,2.5,0,1,1,2.5,2.5A2.5,2.5,0,0,1,40,162.5Zm-10,0a2.5,2.5,0,1,1,2.5,2.5A2.5,2.5,0,0,1,30,162.5Zm-10,0a2.5,2.5,0,1,1,2.5,2.5A2.5,2.5,0,0,1,20,162.5Zm-10,0a2.5,2.5,0,1,1,2.5,2.5A2.5,2.5,0,0,1,10,162.5Zm-10,0A2.5,2.5,0,1,1,2.5,165,2.5,2.5,0,0,1,0,162.5Zm50-10a2.5,2.5,0,1,1,2.5,2.5A2.5,2.5,0,0,1,50,152.5Zm-10,0a2.5,2.5,0,1,1,2.5,2.5A2.5,2.5,0,0,1,40,152.5Zm-10,0a2.5,2.5,0,1,1,2.5,2.5A2.5,2.5,0,0,1,30,152.5Zm-10,0a2.5,2.5,0,1,1,2.5,2.5A2.5,2.5,0,0,1,20,152.5Zm-10,0a2.5,2.5,0,1,1,2.5,2.5A2.5,2.5,0,0,1,10,152.5Zm-10,0A2.5,2.5,0,1,1,2.5,155,2.5,2.5,0,0,1,0,152.5Zm50-10a2.5,2.5,0,1,1,2.5,2.5A2.5,2.5,0,0,1,50,142.5Zm-10,0a2.5,2.5,0,1,1,2.5,2.5A2.5,2.5,0,0,1,40,142.5Zm-10,0a2.5,2.5,0,1,1,2.5,2.5A2.5,2.5,0,0,1,30,142.5Zm-10,0a2.5,2.5,0,1,1,2.5,2.5A2.5,2.5,0,0,1,20,142.5Zm-10,0a2.5,2.5,0,1,1,2.5,2.5A2.5,2.5,0,0,1,10,142.5Zm-10,0A2.5,2.5,0,1,1,2.5,145,2.5,2.5,0,0,1,0,142.5Zm50-10a2.5,2.5,0,1,1,2.5,2.5A2.5,2.5,0,0,1,50,132.5Zm-10,0a2.5,2.5,0,1,1,2.5,2.5A2.5,2.5,0,0,1,40,132.5Zm-10,0a2.5,2.5,0,1,1,2.5,2.5A2.5,2.5,0,0,1,30,132.5Zm-10,0a2.5,2.5,0,1,1,2.5,2.5A2.5,2.5,0,0,1,20,132.5Zm-10,0a2.5,2.5,0,1,1,2.5,2.5A2.5,2.5,0,0,1,10,132.5Zm-10,0A2.5,2.5,0,1,1,2.5,135,2.5,2.5,0,0,1,0,132.5Zm50-10a2.5,2.5,0,1,1,2.5,2.5A2.5,2.5,0,0,1,50,122.5Zm-10,0a2.5,2.5,0,1,1,2.5,2.5A2.5,2.5,0,0,1,40,122.5Zm-10,0a2.5,2.5,0,1,1,2.5,2.5A2.5,2.5,0,0,1,30,122.5Zm-10,0a2.5,2.5,0,1,1,2.5,2.5A2.5,2.5,0,0,1,20,122.5Zm-10,0a2.5,2.5,0,1,1,2.5,2.5A2.5,2.5,0,0,1,10,122.5Zm-10,0A2.5,2.5,0,1,1,2.5,125,2.5,2.5,0,0,1,0,122.5Zm50-10a2.5,2.5,0,1,1,2.5,2.5A2.5,2.5,0,0,1,50,112.5Zm-10,0a2.5,2.5,0,1,1,2.5,2.5A2.5,2.5,0,0,1,40,112.5Zm-10,0a2.5,2.5,0,1,1,2.5,2.5A2.5,2.5,0,0,1,30,112.5Zm-10,0a2.5,2.5,0,1,1,2.5,2.5A2.5,2.5,0,0,1,20,112.5Zm-10,0a2.5,2.5,0,1,1,2.5,2.5A2.5,2.5,0,0,1,10,112.5Zm-10,0A2.5,2.5,0,1,1,2.5,115,2.5,2.5,0,0,1,0,112.5Zm50-10a2.5,2.5,0,1,1,2.5,2.5A2.5,2.5,0,0,1,50,102.5Zm-10,0a2.5,2.5,0,1,1,2.5,2.5A2.5,2.5,0,0,1,40,102.5Zm-10,0a2.5,2.5,0,1,1,2.5,2.5A2.5,2.5,0,0,1,30,102.5Zm-10,0a2.5,2.5,0,1,1,2.5,2.5A2.5,2.5,0,0,1,20,102.5Zm-10,0a2.5,2.5,0,1,1,2.5,2.5A2.5,2.5,0,0,1,10,102.5Zm-10,0A2.5,2.5,0,1,1,2.5,105,2.5,2.5,0,0,1,0,102.5Zm50-10A2.5,2.5,0,1,1,52.5,95,2.5,2.5,0,0,1,50,92.5Zm-10,0A2.5,2.5,0,1,1,42.5,95,2.5,2.5,0,0,1,40,92.5Zm-10,0A2.5,2.5,0,1,1,32.5,95,2.5,2.5,0,0,1,30,92.5Zm-10,0A2.5,2.5,0,1,1,22.5,95,2.5,2.5,0,0,1,20,92.5Zm-10,0A2.5,2.5,0,1,1,12.5,95,2.5,2.5,0,0,1,10,92.5Zm-10,0A2.5,2.5,0,1,1,2.5,95,2.5,2.5,0,0,1,0,92.5Zm50-10A2.5,2.5,0,1,1,52.5,85,2.5,2.5,0,0,1,50,82.5Zm-10,0A2.5,2.5,0,1,1,42.5,85,2.5,2.5,0,0,1,40,82.5Zm-10,0A2.5,2.5,0,1,1,32.5,85,2.5,2.5,0,0,1,30,82.5Zm-10,0A2.5,2.5,0,1,1,22.5,85,2.5,2.5,0,0,1,20,82.5Zm-10,0A2.5,2.5,0,1,1,12.5,85,2.5,2.5,0,0,1,10,82.5Zm-10,0A2.5,2.5,0,1,1,2.5,85,2.5,2.5,0,0,1,0,82.5Zm50-10A2.5,2.5,0,1,1,52.5,75,2.5,2.5,0,0,1,50,72.5Zm-10,0A2.5,2.5,0,1,1,42.5,75,2.5,2.5,0,0,1,40,72.5Zm-10,0A2.5,2.5,0,1,1,32.5,75,2.5,2.5,0,0,1,30,72.5Zm-10,0A2.5,2.5,0,1,1,22.5,75,2.5,2.5,0,0,1,20,72.5Zm-10,0A2.5,2.5,0,1,1,12.5,75,2.5,2.5,0,0,1,10,72.5Zm-10,0A2.5,2.5,0,1,1,2.5,75,2.5,2.5,0,0,1,0,72.5Z" transform="translate(558 965)" fill="#38f" opacity="0.499"/>
    <g transform="matrix(1, 0, 0, 1, 523.5, 1035)" filter="url(#矩形_10)">
      <rect id="矩形_10-2" data-name="矩形 10" width="64" height="64" rx="5" transform="translate(2.5 16)" fill="#38f"/>
    </g>
    <g id="蒙版组_10" data-name="蒙版组 10" clip-path="url(#clip-path)">
      <g id="saf_风险识别_1_" data-name="saf 风险识别 (1)" transform="translate(527.697 1052.697)">
        <path id="路径_35" data-name="路径 35" d="M13.758,16.3a3.666,3.666,0,0,0-3.394-2.03,4.048,4.048,0,0,0-4.03,4.03,3.972,3.972,0,0,0,4.03,4.03,3.635,3.635,0,0,0,3.394-2.03h7.061v-4Zm.515,23.97a4.048,4.048,0,0,1-4.03-4.03,3.972,3.972,0,0,1,4.03-4.03H20.7V28.152H14.273a7.955,7.955,0,0,0,0,15.909H20.7V40.03H14.273Zm35.97-2a3.635,3.635,0,0,0-3.394,2.03H39.788v4.03h7.061a3.976,3.976,0,0,0,3.394,2.03,4.048,4.048,0,0,0,4.03-4.03A3.961,3.961,0,0,0,50.242,38.273Z" fill="#fff"/>
        <path id="路径_36" data-name="路径 36" d="M20.848,49.242,39.788,54.3v-9.97H20.848Zm9.455-25a4.048,4.048,0,0,0-4.03-4.03H20.7v7.939h5.545A3.811,3.811,0,0,0,30.3,24.242Z" fill="#fff"/>
        <path id="路径_37" data-name="路径 37" d="M34.333,24.242a7.986,7.986,0,0,1-7.939,7.939H20.848v7.939H39.788V6.3L20.848,11.364v5.061h5.545a7.863,7.863,0,0,1,7.939,7.818Z" fill="#fff"/>
      </g>
    </g>
  </g>
</svg>
