<svg xmlns="http://www.w3.org/2000/svg" xmlns:xlink="http://www.w3.org/1999/xlink" width="89.5" height="95" viewBox="0 0 89.5 95">
  <defs>
    <filter id="矩形_10" x="0" y="13.5" width="79" height="79" filterUnits="userSpaceOnUse">
      <feOffset dx="5" dy="5" input="SourceAlpha"/>
      <feGaussianBlur stdDeviation="2.5" result="blur"/>
      <feFlood flood-color="#8a25cb" flood-opacity="0.502"/>
      <feComposite operator="in" in2="blur"/>
      <feComposite in="SourceGraphic"/>
    </filter>
    <clipPath id="clip-path">
      <rect id="矩形_5" data-name="矩形 5" width="48" height="48" transform="translate(534 1059)" fill="#fff" stroke="#707070" stroke-width="1"/>
    </clipPath>
  </defs>
  <g id="icon-solution-03" transform="translate(-523.5 -1035)">
    <path id="联合_11" data-name="联合 11" d="M50,162.5a2.5,2.5,0,1,1,2.5,2.5A2.5,2.5,0,0,1,50,162.5Zm-10,0a2.5,2.5,0,1,1,2.5,2.5A2.5,2.5,0,0,1,40,162.5Zm-10,0a2.5,2.5,0,1,1,2.5,2.5A2.5,2.5,0,0,1,30,162.5Zm-10,0a2.5,2.5,0,1,1,2.5,2.5A2.5,2.5,0,0,1,20,162.5Zm-10,0a2.5,2.5,0,1,1,2.5,2.5A2.5,2.5,0,0,1,10,162.5Zm-10,0A2.5,2.5,0,1,1,2.5,165,2.5,2.5,0,0,1,0,162.5Zm50-10a2.5,2.5,0,1,1,2.5,2.5A2.5,2.5,0,0,1,50,152.5Zm-10,0a2.5,2.5,0,1,1,2.5,2.5A2.5,2.5,0,0,1,40,152.5Zm-10,0a2.5,2.5,0,1,1,2.5,2.5A2.5,2.5,0,0,1,30,152.5Zm-10,0a2.5,2.5,0,1,1,2.5,2.5A2.5,2.5,0,0,1,20,152.5Zm-10,0a2.5,2.5,0,1,1,2.5,2.5A2.5,2.5,0,0,1,10,152.5Zm-10,0A2.5,2.5,0,1,1,2.5,155,2.5,2.5,0,0,1,0,152.5Zm50-10a2.5,2.5,0,1,1,2.5,2.5A2.5,2.5,0,0,1,50,142.5Zm-10,0a2.5,2.5,0,1,1,2.5,2.5A2.5,2.5,0,0,1,40,142.5Zm-10,0a2.5,2.5,0,1,1,2.5,2.5A2.5,2.5,0,0,1,30,142.5Zm-10,0a2.5,2.5,0,1,1,2.5,2.5A2.5,2.5,0,0,1,20,142.5Zm-10,0a2.5,2.5,0,1,1,2.5,2.5A2.5,2.5,0,0,1,10,142.5Zm-10,0A2.5,2.5,0,1,1,2.5,145,2.5,2.5,0,0,1,0,142.5Zm50-10a2.5,2.5,0,1,1,2.5,2.5A2.5,2.5,0,0,1,50,132.5Zm-10,0a2.5,2.5,0,1,1,2.5,2.5A2.5,2.5,0,0,1,40,132.5Zm-10,0a2.5,2.5,0,1,1,2.5,2.5A2.5,2.5,0,0,1,30,132.5Zm-10,0a2.5,2.5,0,1,1,2.5,2.5A2.5,2.5,0,0,1,20,132.5Zm-10,0a2.5,2.5,0,1,1,2.5,2.5A2.5,2.5,0,0,1,10,132.5Zm-10,0A2.5,2.5,0,1,1,2.5,135,2.5,2.5,0,0,1,0,132.5Zm50-10a2.5,2.5,0,1,1,2.5,2.5A2.5,2.5,0,0,1,50,122.5Zm-10,0a2.5,2.5,0,1,1,2.5,2.5A2.5,2.5,0,0,1,40,122.5Zm-10,0a2.5,2.5,0,1,1,2.5,2.5A2.5,2.5,0,0,1,30,122.5Zm-10,0a2.5,2.5,0,1,1,2.5,2.5A2.5,2.5,0,0,1,20,122.5Zm-10,0a2.5,2.5,0,1,1,2.5,2.5A2.5,2.5,0,0,1,10,122.5Zm-10,0A2.5,2.5,0,1,1,2.5,125,2.5,2.5,0,0,1,0,122.5Zm50-10a2.5,2.5,0,1,1,2.5,2.5A2.5,2.5,0,0,1,50,112.5Zm-10,0a2.5,2.5,0,1,1,2.5,2.5A2.5,2.5,0,0,1,40,112.5Zm-10,0a2.5,2.5,0,1,1,2.5,2.5A2.5,2.5,0,0,1,30,112.5Zm-10,0a2.5,2.5,0,1,1,2.5,2.5A2.5,2.5,0,0,1,20,112.5Zm-10,0a2.5,2.5,0,1,1,2.5,2.5A2.5,2.5,0,0,1,10,112.5Zm-10,0A2.5,2.5,0,1,1,2.5,115,2.5,2.5,0,0,1,0,112.5Zm50-10a2.5,2.5,0,1,1,2.5,2.5A2.5,2.5,0,0,1,50,102.5Zm-10,0a2.5,2.5,0,1,1,2.5,2.5A2.5,2.5,0,0,1,40,102.5Zm-10,0a2.5,2.5,0,1,1,2.5,2.5A2.5,2.5,0,0,1,30,102.5Zm-10,0a2.5,2.5,0,1,1,2.5,2.5A2.5,2.5,0,0,1,20,102.5Zm-10,0a2.5,2.5,0,1,1,2.5,2.5A2.5,2.5,0,0,1,10,102.5Zm-10,0A2.5,2.5,0,1,1,2.5,105,2.5,2.5,0,0,1,0,102.5Zm50-10A2.5,2.5,0,1,1,52.5,95,2.5,2.5,0,0,1,50,92.5Zm-10,0A2.5,2.5,0,1,1,42.5,95,2.5,2.5,0,0,1,40,92.5Zm-10,0A2.5,2.5,0,1,1,32.5,95,2.5,2.5,0,0,1,30,92.5Zm-10,0A2.5,2.5,0,1,1,22.5,95,2.5,2.5,0,0,1,20,92.5Zm-10,0A2.5,2.5,0,1,1,12.5,95,2.5,2.5,0,0,1,10,92.5Zm-10,0A2.5,2.5,0,1,1,2.5,95,2.5,2.5,0,0,1,0,92.5Zm50-10A2.5,2.5,0,1,1,52.5,85,2.5,2.5,0,0,1,50,82.5Zm-10,0A2.5,2.5,0,1,1,42.5,85,2.5,2.5,0,0,1,40,82.5Zm-10,0A2.5,2.5,0,1,1,32.5,85,2.5,2.5,0,0,1,30,82.5Zm-10,0A2.5,2.5,0,1,1,22.5,85,2.5,2.5,0,0,1,20,82.5Zm-10,0A2.5,2.5,0,1,1,12.5,85,2.5,2.5,0,0,1,10,82.5Zm-10,0A2.5,2.5,0,1,1,2.5,85,2.5,2.5,0,0,1,0,82.5Zm50-10A2.5,2.5,0,1,1,52.5,75,2.5,2.5,0,0,1,50,72.5Zm-10,0A2.5,2.5,0,1,1,42.5,75,2.5,2.5,0,0,1,40,72.5Zm-10,0A2.5,2.5,0,1,1,32.5,75,2.5,2.5,0,0,1,30,72.5Zm-10,0A2.5,2.5,0,1,1,22.5,75,2.5,2.5,0,0,1,20,72.5Zm-10,0A2.5,2.5,0,1,1,12.5,75,2.5,2.5,0,0,1,10,72.5Zm-10,0A2.5,2.5,0,1,1,2.5,75,2.5,2.5,0,0,1,0,72.5Z" transform="translate(558 965)" fill="#8a25cb" opacity="0.502"/>
    <g transform="matrix(1, 0, 0, 1, 523.5, 1035)" filter="url(#矩形_10)">
      <rect id="矩形_10-2" data-name="矩形 10" width="64" height="64" rx="5" transform="translate(2.5 16)" fill="#8a25cb"/>
    </g>
    <g id="蒙版组_12" data-name="蒙版组 12" clip-path="url(#clip-path)">
      <path id="sos_安全管家" data-name="sos 安全管家" d="M37.708,41.047a5.969,5.969,0,0,0-4.493-2.459H26.6A6.019,6.019,0,0,0,22.1,41.047l-2.7,3.765c-2.945,4.068-3.34,9.5.972,9.5H39.408c4.311,0,3.917-5.435.972-9.5l-2.672-3.765ZM29.966,6.315a23.526,23.526,0,0,0-15,41.655,19.439,19.439,0,0,1,1.093-2.277,21.723,21.723,0,0,1-2.581-2.7c.82-.334,1.67-.607,2.49-.88.243.85.486,1.639.789,2.49a.3.3,0,0,1,.121-.152l.729-1c-.182-.546-.334-1.093-.486-1.639.7-.182,1.366-.364,2.065-.546L20.25,39.8c-1.154.243-2.277.546-3.4.88a46.932,46.932,0,0,1-1.245-7.712,3.677,3.677,0,0,0,2.975-3.066h4.8v.243a6.588,6.588,0,0,0,13.176,0v-.243H41.5a3.677,3.677,0,0,0,2.975,3.066A47.344,47.344,0,0,1,43.2,40.713c-1.123-.334-2.247-.638-3.4-.88l1.063,1.488c.7.182,1.366.364,2.034.546-.152.546-.3,1.093-.486,1.609l.7.972.121.182c.273-.82.546-1.609.789-2.429.82.273,1.609.546,2.4.85a22.974,22.974,0,0,1-2.52,2.641,14.394,14.394,0,0,1,1.123,2.277A23.561,23.561,0,0,0,29.966,6.315Zm21.07,22.376H48.729a3.681,3.681,0,0,0-3.036-2.945,44.794,44.794,0,0,0-1.609-8.926c.638-.213,1.275-.425,1.913-.668A21.237,21.237,0,0,1,51.036,28.691Zm-5.86-13.45c-.455.182-.941.3-1.427.455-.273-.85-.546-1.7-.88-2.52a24.87,24.87,0,0,1,2.307,2.065ZM41.2,12.023a39.924,39.924,0,0,1,1.427,4.038,45.287,45.287,0,0,1-9.017,1.609,3.624,3.624,0,0,0-2.915-3.37V8.8a20.515,20.515,0,0,1,10.5,3.218ZM29.966,20.342a2.4,2.4,0,1,1,.091-4.8,2.4,2.4,0,0,1-.091,4.8ZM18.884,11.9a20.739,20.739,0,0,1,10.6-3.127v5.465a3.662,3.662,0,0,0-3.157,3.431,46.034,46.034,0,0,1-8.865-1.609c.425-1.4.941-2.793,1.488-4.159h-.061Zm-1.609,1.123c-.334.911-.668,1.791-.941,2.732-.516-.152-1.032-.334-1.548-.516a17.319,17.319,0,0,1,2.49-2.216Zm-3.34,3.127c.668.243,1.366.486,2.034.7a46.766,46.766,0,0,0-1.609,8.9,3.715,3.715,0,0,0-3.066,2.945H8.865a21,21,0,0,1,5.07-12.539ZM12.751,42.08A20.879,20.879,0,0,1,8.865,29.935h2.429A3.672,3.672,0,0,0,14.361,33,45.418,45.418,0,0,0,15.7,41.047c-1,.3-1.973.668-2.945,1.032Zm2.156-10.262a2.459,2.459,0,1,1,2.459-2.459,2.468,2.468,0,0,1-2.459,2.459Zm3.613-3.127a3.689,3.689,0,0,0-2.945-2.945,46.348,46.348,0,0,1,1.518-8.592,46.225,46.225,0,0,0,9.321,1.7,3.652,3.652,0,0,0,3.036,2.611v2.065A6.62,6.62,0,0,0,23.5,28.66Zm22.983,0H36.372a6.661,6.661,0,0,0-5.708-5.1V21.465a3.713,3.713,0,0,0,2.793-2.581,45.655,45.655,0,0,0,9.472-1.731,45.429,45.429,0,0,1,1.488,8.592A3.772,3.772,0,0,0,41.5,28.691Zm1.184.7a2.459,2.459,0,1,1,2.459,2.459,2.488,2.488,0,0,1-2.459-2.459Zm1.639,11.719a45.346,45.346,0,0,0,1.366-8.076,3.672,3.672,0,0,0,3.066-3.066h2.307a20.947,20.947,0,0,1-3.917,12.2,26.711,26.711,0,0,0-2.824-1.063Z" transform="translate(528.034 1052.685)" fill="#fff"/>
    </g>
  </g>
</svg>
